<?xml version="1.0" encoding="UTF-8" standalone="no"?>
<!DOCTYPE svg PUBLIC "-//W3C//DTD SVG 1.1//EN"
 "http://www.w3.org/Graphics/SVG/1.1/DTD/svg11.dtd">
<!-- Generated by graphviz version 2.47.0 (20210316.0004)
 -->
<!-- Title: dependencies Pages: 1 -->
<svg width="856pt" height="284pt"
 viewBox="0.00 0.00 856.00 284.00" xmlns="http://www.w3.org/2000/svg" xmlns:xlink="http://www.w3.org/1999/xlink">
<g id="graph0" class="graph" transform="scale(1 1) rotate(0) translate(4 280)">
<title>dependencies</title>
<polygon fill="white" stroke="transparent" points="-4,4 -4,-280 852,-280 852,4 -4,4"/>
<text text-anchor="start" x="403.01" y="-42.4" font-family="Times-12" font-weight="bold" font-size="14.00">Legend</text>
<polygon fill="#ffffb3" stroke="transparent" points="190,-10 190,-30 210,-30 210,-10 190,-10"/>
<text text-anchor="start" x="213.63" y="-15.4" font-family="Times-12" font-size="14.00"> &#160;Declarations</text>
<polygon fill="#8dd3c7" stroke="transparent" points="303,-10 303,-30 323,-30 323,-10 303,-10"/>
<text text-anchor="start" x="326.73" y="-15.4" font-family="Times-12" font-size="14.00"> &#160;Module</text>
<polygon fill="#80b1d3" stroke="transparent" points="389,-10 389,-30 409,-30 409,-10 389,-10"/>
<text text-anchor="start" x="412.78" y="-15.4" font-family="Times-12" font-size="14.00"> &#160;Bootstrap</text>
<polygon fill="#fdb462" stroke="transparent" points="486,-10 486,-30 506,-30 506,-10 486,-10"/>
<text text-anchor="start" x="509.67" y="-15.4" font-family="Times-12" font-size="14.00"> &#160;Providers</text>
<polygon fill="#fb8072" stroke="transparent" points="582,-10 582,-30 602,-30 602,-10 582,-10"/>
<text text-anchor="start" x="605.73" y="-15.4" font-family="Times-12" font-size="14.00"> &#160;Exports</text>
<g id="clust1" class="cluster">
<title>cluster_IdentitiesModule</title>
<polygon fill="none" stroke="black" stroke-dasharray="1,5" points="8,-70 8,-268 840,-268 840,-70 8,-70"/>
</g>
<g id="clust3" class="cluster">
<title>cluster_IdentitiesModule_imports</title>
<polygon fill="none" stroke="black" points="694,-78 694,-130 832,-130 832,-78 694,-78"/>
</g>
<g id="clust6" class="cluster">
<title>cluster_IdentitiesModule_providers</title>
<polygon fill="none" stroke="black" points="16,-78 16,-130 686,-130 686,-78 16,-78"/>
</g>
<g id="clust4" class="cluster">
<title>cluster_IdentitiesModule_exports</title>
<polygon fill="none" stroke="black" points="392,-208 392,-260 522,-260 522,-208 392,-208"/>
</g>
<!-- FilestorageModule -->
<g id="node1" class="node">
<title>FilestorageModule</title>
<polygon fill="#8dd3c7" stroke="black" points="823.75,-122 820.75,-126 799.75,-126 796.75,-122 702.25,-122 702.25,-86 823.75,-86 823.75,-122"/>
<text text-anchor="middle" x="763" y="-99.8" font-family="Times,serif" font-size="14.00">FilestorageModule</text>
</g>
<!-- IdentitiesModule -->
<g id="node2" class="node">
<title>IdentitiesModule</title>
<polygon fill="#8dd3c7" stroke="black" points="512.65,-187 509.65,-191 488.65,-191 485.65,-187 401.35,-187 401.35,-151 512.65,-151 512.65,-187"/>
<text text-anchor="middle" x="457" y="-164.8" font-family="Times,serif" font-size="14.00">IdentitiesModule</text>
</g>
<!-- FilestorageModule&#45;&gt;IdentitiesModule -->
<g id="edge1" class="edge">
<title>FilestorageModule&#45;&gt;IdentitiesModule</title>
<path fill="none" stroke="black" d="M763,-122.11C763,-141.34 763,-169 763,-169 763,-169 522.77,-169 522.77,-169"/>
<polygon fill="black" stroke="black" points="522.77,-165.5 512.77,-169 522.77,-172.5 522.77,-165.5"/>
</g>
<!-- IdentitiesService  -->
<g id="node3" class="node">
<title>IdentitiesService </title>
<polygon fill="#fb8072" stroke="black" points="513.58,-252 400.42,-252 400.42,-216 513.58,-216 513.58,-252"/>
<text text-anchor="middle" x="457" y="-229.8" font-family="Times,serif" font-size="14.00">IdentitiesService </text>
</g>
<!-- IdentitiesModule&#45;&gt;IdentitiesService  -->
<g id="edge2" class="edge">
<title>IdentitiesModule&#45;&gt;IdentitiesService </title>
<path fill="none" stroke="black" stroke-dasharray="5,2" d="M457,-187.11C457,-187.11 457,-205.99 457,-205.99"/>
<polygon fill="black" stroke="black" points="453.5,-205.99 457,-215.99 460.5,-205.99 453.5,-205.99"/>
</g>
<!-- IdentitiesJsonformsService -->
<g id="node4" class="node">
<title>IdentitiesJsonformsService</title>
<ellipse fill="#fdb462" stroke="black" cx="562" cy="-104" rx="115.74" ry="18"/>
<text text-anchor="middle" x="562" y="-99.8" font-family="Times,serif" font-size="14.00">IdentitiesJsonformsService</text>
</g>
<!-- IdentitiesJsonformsService&#45;&gt;IdentitiesModule -->
<g id="edge3" class="edge">
<title>IdentitiesJsonformsService&#45;&gt;IdentitiesModule</title>
<path fill="none" stroke="black" d="M479.6,-116.84C479.6,-116.84 479.6,-140.52 479.6,-140.52"/>
<polygon fill="black" stroke="black" points="476.1,-140.52 479.6,-150.52 483.1,-140.52 476.1,-140.52"/>
</g>
<!-- IdentitiesService -->
<g id="node5" class="node">
<title>IdentitiesService</title>
<ellipse fill="#fdb462" stroke="black" cx="352" cy="-104" rx="75.85" ry="18"/>
<text text-anchor="middle" x="352" y="-99.8" font-family="Times,serif" font-size="14.00">IdentitiesService</text>
</g>
<!-- IdentitiesService&#45;&gt;IdentitiesModule -->
<g id="edge4" class="edge">
<title>IdentitiesService&#45;&gt;IdentitiesModule</title>
<path fill="none" stroke="black" d="M414.55,-114.44C414.55,-114.44 414.55,-140.97 414.55,-140.97"/>
<polygon fill="black" stroke="black" points="411.05,-140.97 414.55,-150.97 418.05,-140.97 411.05,-140.97"/>
</g>
<!-- IdentitiesValidationService -->
<g id="node6" class="node">
<title>IdentitiesValidationService</title>
<ellipse fill="#fdb462" stroke="black" cx="141" cy="-104" rx="116.88" ry="18"/>
<text text-anchor="middle" x="141" y="-99.8" font-family="Times,serif" font-size="14.00">IdentitiesValidationService</text>
</g>
<!-- IdentitiesValidationService&#45;&gt;IdentitiesModule -->
<g id="edge5" class="edge">
<title>IdentitiesValidationService&#45;&gt;IdentitiesModule</title>
<path fill="none" stroke="black" d="M141,-122.11C141,-141.34 141,-169 141,-169 141,-169 391.23,-169 391.23,-169"/>
<polygon fill="black" stroke="black" points="391.23,-172.5 401.23,-169 391.23,-165.5 391.23,-172.5"/>
</g>
</g>
</svg>
