<?xml version="1.0" encoding="UTF-8" standalone="no"?>
<!DOCTYPE svg PUBLIC "-//W3C//DTD SVG 1.1//EN"
 "http://www.w3.org/Graphics/SVG/1.1/DTD/svg11.dtd">
<!-- Generated by graphviz version 2.47.0 (20210316.0004)
 -->
<!-- Title: dependencies Pages: 1 -->
<svg width="1210pt" height="284pt"
 viewBox="0.00 0.00 1210.00 284.00" xmlns="http://www.w3.org/2000/svg" xmlns:xlink="http://www.w3.org/1999/xlink">
<g id="graph0" class="graph" transform="scale(1 1) rotate(0) translate(4 280)">
<title>dependencies</title>
<polygon fill="white" stroke="transparent" points="-4,4 -4,-280 1206,-280 1206,4 -4,4"/>
<text text-anchor="start" x="580.01" y="-42.4" font-family="Times-12" font-weight="bold" font-size="14.00">Legend</text>
<polygon fill="#ffffb3" stroke="transparent" points="367,-10 367,-30 387,-30 387,-10 367,-10"/>
<text text-anchor="start" x="390.63" y="-15.4" font-family="Times-12" font-size="14.00"> &#160;Declarations</text>
<polygon fill="#8dd3c7" stroke="transparent" points="480,-10 480,-30 500,-30 500,-10 480,-10"/>
<text text-anchor="start" x="503.73" y="-15.4" font-family="Times-12" font-size="14.00"> &#160;Module</text>
<polygon fill="#80b1d3" stroke="transparent" points="566,-10 566,-30 586,-30 586,-10 566,-10"/>
<text text-anchor="start" x="589.78" y="-15.4" font-family="Times-12" font-size="14.00"> &#160;Bootstrap</text>
<polygon fill="#fdb462" stroke="transparent" points="663,-10 663,-30 683,-30 683,-10 663,-10"/>
<text text-anchor="start" x="686.67" y="-15.4" font-family="Times-12" font-size="14.00"> &#160;Providers</text>
<polygon fill="#fb8072" stroke="transparent" points="759,-10 759,-30 779,-30 779,-10 759,-10"/>
<text text-anchor="start" x="782.73" y="-15.4" font-family="Times-12" font-size="14.00"> &#160;Exports</text>
<g id="clust1" class="cluster">
<title>cluster_IdentitiesModule</title>
<polygon fill="none" stroke="black" stroke-dasharray="1,5" points="8,-70 8,-268 1194,-268 1194,-70 8,-70"/>
</g>
<g id="clust3" class="cluster">
<title>cluster_IdentitiesModule_imports</title>
<polygon fill="none" stroke="black" points="809,-78 809,-130 1186,-130 1186,-78 809,-78"/>
</g>
<g id="clust4" class="cluster">
<title>cluster_IdentitiesModule_exports</title>
<polygon fill="none" stroke="black" points="685,-208 685,-260 843,-260 843,-208 685,-208"/>
</g>
<g id="clust6" class="cluster">
<title>cluster_IdentitiesModule_providers</title>
<polygon fill="none" stroke="black" points="16,-78 16,-130 801,-130 801,-78 16,-78"/>
</g>
<!-- AgentsModule -->
<g id="node1" class="node">
<title>AgentsModule</title>
<polygon fill="#8dd3c7" stroke="black" points="1177.71,-122 1174.71,-126 1153.71,-126 1150.71,-122 1078.29,-122 1078.29,-86 1177.71,-86 1177.71,-122"/>
<text text-anchor="middle" x="1128" y="-99.8" font-family="Times,serif" font-size="14.00">AgentsModule</text>
</g>
<!-- IdentitiesModule -->
<g id="node4" class="node">
<title>IdentitiesModule</title>
<polygon fill="#8dd3c7" stroke="black" points="819.65,-187 816.65,-191 795.65,-191 792.65,-187 708.35,-187 708.35,-151 819.65,-151 819.65,-187"/>
<text text-anchor="middle" x="764" y="-164.8" font-family="Times,serif" font-size="14.00">IdentitiesModule</text>
</g>
<!-- AgentsModule&#45;&gt;IdentitiesModule -->
<g id="edge1" class="edge">
<title>AgentsModule&#45;&gt;IdentitiesModule</title>
<path fill="none" stroke="black" d="M1128,-122.29C1128,-144.21 1128,-178 1128,-178 1128,-178 829.68,-178 829.68,-178"/>
<polygon fill="black" stroke="black" points="829.68,-174.5 819.68,-178 829.68,-181.5 829.68,-174.5"/>
</g>
<!-- FilestorageModule -->
<g id="node2" class="node">
<title>FilestorageModule</title>
<polygon fill="#8dd3c7" stroke="black" points="1060.75,-122 1057.75,-126 1036.75,-126 1033.75,-122 939.25,-122 939.25,-86 1060.75,-86 1060.75,-122"/>
<text text-anchor="middle" x="1000" y="-99.8" font-family="Times,serif" font-size="14.00">FilestorageModule</text>
</g>
<!-- FilestorageModule&#45;&gt;IdentitiesModule -->
<g id="edge2" class="edge">
<title>FilestorageModule&#45;&gt;IdentitiesModule</title>
<path fill="none" stroke="black" d="M1000,-122.11C1000,-141.34 1000,-169 1000,-169 1000,-169 829.93,-169 829.93,-169"/>
<polygon fill="black" stroke="black" points="829.93,-165.5 819.93,-169 829.93,-172.5 829.93,-165.5"/>
</g>
<!-- SettingsModule -->
<g id="node3" class="node">
<title>SettingsModule</title>
<polygon fill="#8dd3c7" stroke="black" points="921.16,-122 918.16,-126 897.16,-126 894.16,-122 816.84,-122 816.84,-86 921.16,-86 921.16,-122"/>
<text text-anchor="middle" x="869" y="-99.8" font-family="Times,serif" font-size="14.00">SettingsModule</text>
</g>
<!-- SettingsModule&#45;&gt;IdentitiesModule -->
<g id="edge3" class="edge">
<title>SettingsModule&#45;&gt;IdentitiesModule</title>
<path fill="none" stroke="black" d="M827.3,-122.03C827.3,-138.4 827.3,-160 827.3,-160 827.3,-160 826.58,-160 826.58,-160"/>
<polygon fill="black" stroke="black" points="830.04,-156.5 820.04,-160 830.04,-163.5 830.04,-156.5"/>
</g>
<!-- IdentitiesCrudService  -->
<g id="node5" class="node">
<title>IdentitiesCrudService </title>
<polygon fill="#fb8072" stroke="black" points="834.57,-252 693.43,-252 693.43,-216 834.57,-216 834.57,-252"/>
<text text-anchor="middle" x="764" y="-229.8" font-family="Times,serif" font-size="14.00">IdentitiesCrudService </text>
</g>
<!-- IdentitiesModule&#45;&gt;IdentitiesCrudService  -->
<g id="edge4" class="edge">
<title>IdentitiesModule&#45;&gt;IdentitiesCrudService </title>
<path fill="none" stroke="black" stroke-dasharray="5,2" d="M764,-187.11C764,-187.11 764,-205.99 764,-205.99"/>
<polygon fill="black" stroke="black" points="760.5,-205.99 764,-215.99 767.5,-205.99 760.5,-205.99"/>
</g>
<!-- IdentitiesForcepasswordService -->
<g id="node6" class="node">
<title>IdentitiesForcepasswordService</title>
<ellipse fill="#fdb462" stroke="black" cx="659" cy="-104" rx="134.26" ry="18"/>
<text text-anchor="middle" x="659" y="-99.8" font-family="Times,serif" font-size="14.00">IdentitiesForcepasswordService</text>
</g>
<!-- IdentitiesForcepasswordService&#45;&gt;IdentitiesModule -->
<g id="edge5" class="edge">
<title>IdentitiesForcepasswordService&#45;&gt;IdentitiesModule</title>
<path fill="none" stroke="black" d="M750.78,-117.15C750.78,-117.15 750.78,-140.69 750.78,-140.69"/>
<polygon fill="black" stroke="black" points="747.28,-140.69 750.78,-150.69 754.28,-140.69 747.28,-140.69"/>
</g>
<!-- IdentitiesJsonformsService -->
<g id="node7" class="node">
<title>IdentitiesJsonformsService</title>
<ellipse fill="#fdb462" stroke="black" cx="391" cy="-104" rx="115.74" ry="18"/>
<text text-anchor="middle" x="391" y="-99.8" font-family="Times,serif" font-size="14.00">IdentitiesJsonformsService</text>
</g>
<!-- IdentitiesJsonformsService&#45;&gt;IdentitiesModule -->
<g id="edge6" class="edge">
<title>IdentitiesJsonformsService&#45;&gt;IdentitiesModule</title>
<path fill="none" stroke="black" d="M391,-122.02C391,-139.37 391,-163 391,-163 391,-163 698.16,-163 698.16,-163"/>
<polygon fill="black" stroke="black" points="698.16,-166.5 708.16,-163 698.16,-159.5 698.16,-166.5"/>
</g>
<!-- IdentitiesValidationService -->
<g id="node8" class="node">
<title>IdentitiesValidationService</title>
<ellipse fill="#fdb462" stroke="black" cx="141" cy="-104" rx="116.88" ry="18"/>
<text text-anchor="middle" x="141" y="-99.8" font-family="Times,serif" font-size="14.00">IdentitiesValidationService</text>
</g>
<!-- IdentitiesValidationService&#45;&gt;IdentitiesModule -->
<g id="edge7" class="edge">
<title>IdentitiesValidationService&#45;&gt;IdentitiesModule</title>
<path fill="none" stroke="black" d="M141,-122.28C141,-143.32 141,-175 141,-175 141,-175 698.16,-175 698.16,-175"/>
<polygon fill="black" stroke="black" points="698.16,-178.5 708.16,-175 698.16,-171.5 698.16,-178.5"/>
</g>
</g>
</svg>
