<?xml version="1.0" encoding="UTF-8" standalone="no"?>
<!DOCTYPE svg PUBLIC "-//W3C//DTD SVG 1.1//EN"
 "http://www.w3.org/Graphics/SVG/1.1/DTD/svg11.dtd">
<!-- Generated by graphviz version 2.47.0 (20210316.0004)
 -->
<!-- Title: dependencies Pages: 1 -->
<svg width="710pt" height="284pt"
 viewBox="0.00 0.00 710.00 284.00" xmlns="http://www.w3.org/2000/svg" xmlns:xlink="http://www.w3.org/1999/xlink">
<g id="graph0" class="graph" transform="scale(1 1) rotate(0) translate(4 280)">
<title>dependencies</title>
<polygon fill="white" stroke="transparent" points="-4,4 -4,-280 706,-280 706,4 -4,4"/>
<text text-anchor="start" x="330.01" y="-42.4" font-family="Times-12" font-weight="bold" font-size="14.00">Legend</text>
<polygon fill="#ffffb3" stroke="transparent" points="117,-10 117,-30 137,-30 137,-10 117,-10"/>
<text text-anchor="start" x="140.63" y="-15.4" font-family="Times-12" font-size="14.00"> &#160;Declarations</text>
<polygon fill="#8dd3c7" stroke="transparent" points="230,-10 230,-30 250,-30 250,-10 230,-10"/>
<text text-anchor="start" x="253.73" y="-15.4" font-family="Times-12" font-size="14.00"> &#160;Module</text>
<polygon fill="#80b1d3" stroke="transparent" points="316,-10 316,-30 336,-30 336,-10 316,-10"/>
<text text-anchor="start" x="339.78" y="-15.4" font-family="Times-12" font-size="14.00"> &#160;Bootstrap</text>
<polygon fill="#fdb462" stroke="transparent" points="413,-10 413,-30 433,-30 433,-10 413,-10"/>
<text text-anchor="start" x="436.67" y="-15.4" font-family="Times-12" font-size="14.00"> &#160;Providers</text>
<polygon fill="#fb8072" stroke="transparent" points="509,-10 509,-30 529,-30 529,-10 509,-10"/>
<text text-anchor="start" x="532.73" y="-15.4" font-family="Times-12" font-size="14.00"> &#160;Exports</text>
<g id="clust1" class="cluster">
<title>cluster_IdentitiesModule</title>
<polygon fill="none" stroke="black" stroke-dasharray="1,5" points="8,-70 8,-268 694,-268 694,-70 8,-70"/>
</g>
<g id="clust4" class="cluster">
<title>cluster_IdentitiesModule_exports</title>
<polygon fill="none" stroke="black" points="287,-208 287,-260 417,-260 417,-208 287,-208"/>
</g>
<g id="clust6" class="cluster">
<title>cluster_IdentitiesModule_providers</title>
<polygon fill="none" stroke="black" points="16,-78 16,-130 686,-130 686,-78 16,-78"/>
</g>
<!-- IdentitiesService  -->
<g id="node1" class="node">
<title>IdentitiesService </title>
<polygon fill="#fb8072" stroke="black" points="408.58,-252 295.42,-252 295.42,-216 408.58,-216 408.58,-252"/>
<text text-anchor="middle" x="352" y="-229.8" font-family="Times,serif" font-size="14.00">IdentitiesService </text>
</g>
<!-- IdentitiesModule -->
<g id="node2" class="node">
<title>IdentitiesModule</title>
<polygon fill="#8dd3c7" stroke="black" points="407.65,-187 404.65,-191 383.65,-191 380.65,-187 296.35,-187 296.35,-151 407.65,-151 407.65,-187"/>
<text text-anchor="middle" x="352" y="-164.8" font-family="Times,serif" font-size="14.00">IdentitiesModule</text>
</g>
<!-- IdentitiesModule&#45;&gt;IdentitiesService  -->
<g id="edge1" class="edge">
<title>IdentitiesModule&#45;&gt;IdentitiesService </title>
<path fill="none" stroke="black" stroke-dasharray="5,2" d="M352,-187.11C352,-187.11 352,-205.99 352,-205.99"/>
<polygon fill="black" stroke="black" points="348.5,-205.99 352,-215.99 355.5,-205.99 348.5,-205.99"/>
</g>
<!-- IdentitiesJsonformsService -->
<g id="node3" class="node">
<title>IdentitiesJsonformsService</title>
<ellipse fill="#fdb462" stroke="black" cx="562" cy="-104" rx="115.74" ry="18"/>
<text text-anchor="middle" x="562" y="-99.8" font-family="Times,serif" font-size="14.00">IdentitiesJsonformsService</text>
</g>
<!-- IdentitiesJsonformsService&#45;&gt;IdentitiesModule -->
<g id="edge2" class="edge">
<title>IdentitiesJsonformsService&#45;&gt;IdentitiesModule</title>
<path fill="none" stroke="black" d="M562,-122.11C562,-141.34 562,-169 562,-169 562,-169 417.72,-169 417.72,-169"/>
<polygon fill="black" stroke="black" points="417.72,-165.5 407.72,-169 417.72,-172.5 417.72,-165.5"/>
</g>
<!-- IdentitiesService -->
<g id="node4" class="node">
<title>IdentitiesService</title>
<ellipse fill="#fdb462" stroke="black" cx="352" cy="-104" rx="75.85" ry="18"/>
<text text-anchor="middle" x="352" y="-99.8" font-family="Times,serif" font-size="14.00">IdentitiesService</text>
</g>
<!-- IdentitiesService&#45;&gt;IdentitiesModule -->
<g id="edge3" class="edge">
<title>IdentitiesService&#45;&gt;IdentitiesModule</title>
<path fill="none" stroke="black" d="M352,-122.11C352,-122.11 352,-140.99 352,-140.99"/>
<polygon fill="black" stroke="black" points="348.5,-140.99 352,-150.99 355.5,-140.99 348.5,-140.99"/>
</g>
<!-- IdentitiesValidationService -->
<g id="node5" class="node">
<title>IdentitiesValidationService</title>
<ellipse fill="#fdb462" stroke="black" cx="141" cy="-104" rx="116.88" ry="18"/>
<text text-anchor="middle" x="141" y="-99.8" font-family="Times,serif" font-size="14.00">IdentitiesValidationService</text>
</g>
<!-- IdentitiesValidationService&#45;&gt;IdentitiesModule -->
<g id="edge4" class="edge">
<title>IdentitiesValidationService&#45;&gt;IdentitiesModule</title>
<path fill="none" stroke="black" d="M141,-122.11C141,-141.34 141,-169 141,-169 141,-169 286.29,-169 286.29,-169"/>
<polygon fill="black" stroke="black" points="286.29,-172.5 296.29,-169 286.29,-165.5 286.29,-172.5"/>
</g>
</g>
</svg>
