<?xml version="1.0" encoding="UTF-8" standalone="no"?>
<!DOCTYPE svg PUBLIC "-//W3C//DTD SVG 1.1//EN"
 "http://www.w3.org/Graphics/SVG/1.1/DTD/svg11.dtd">
<!-- Generated by graphviz version 2.47.0 (20210316.0004)
 -->
<!-- Title: dependencies Pages: 1 -->
<svg width="856pt" height="284pt"
 viewBox="0.00 0.00 856.00 284.00" xmlns="http://www.w3.org/2000/svg" xmlns:xlink="http://www.w3.org/1999/xlink">
<g id="graph0" class="graph" transform="scale(1 1) rotate(0) translate(4 280)">
<title>dependencies</title>
<polygon fill="white" stroke="transparent" points="-4,4 -4,-280 852,-280 852,4 -4,4"/>
<text text-anchor="start" x="403.01" y="-42.4" font-family="Times-12" font-weight="bold" font-size="14.00">Legend</text>
<polygon fill="#ffffb3" stroke="transparent" points="190,-10 190,-30 210,-30 210,-10 190,-10"/>
<text text-anchor="start" x="213.63" y="-15.4" font-family="Times-12" font-size="14.00"> &#160;Declarations</text>
<polygon fill="#8dd3c7" stroke="transparent" points="303,-10 303,-30 323,-30 323,-10 303,-10"/>
<text text-anchor="start" x="326.73" y="-15.4" font-family="Times-12" font-size="14.00"> &#160;Module</text>
<polygon fill="#80b1d3" stroke="transparent" points="389,-10 389,-30 409,-30 409,-10 389,-10"/>
<text text-anchor="start" x="412.78" y="-15.4" font-family="Times-12" font-size="14.00"> &#160;Bootstrap</text>
<polygon fill="#fdb462" stroke="transparent" points="486,-10 486,-30 506,-30 506,-10 486,-10"/>
<text text-anchor="start" x="509.67" y="-15.4" font-family="Times-12" font-size="14.00"> &#160;Providers</text>
<polygon fill="#fb8072" stroke="transparent" points="582,-10 582,-30 602,-30 602,-10 582,-10"/>
<text text-anchor="start" x="605.73" y="-15.4" font-family="Times-12" font-size="14.00"> &#160;Exports</text>
<g id="clust1" class="cluster">
<title>cluster_IdentitiesModule</title>
<polygon fill="none" stroke="black" stroke-dasharray="1,5" points="8,-70 8,-268 840,-268 840,-70 8,-70"/>
</g>
<g id="clust6" class="cluster">
<title>cluster_IdentitiesModule_providers</title>
<polygon fill="none" stroke="black" points="162,-78 162,-130 832,-130 832,-78 162,-78"/>
</g>
<g id="clust3" class="cluster">
<title>cluster_IdentitiesModule_imports</title>
<polygon fill="none" stroke="black" points="16,-78 16,-130 154,-130 154,-78 16,-78"/>
</g>
<g id="clust4" class="cluster">
<title>cluster_IdentitiesModule_exports</title>
<polygon fill="none" stroke="black" points="327,-208 327,-260 457,-260 457,-208 327,-208"/>
</g>
<!-- FilestorageModule -->
<g id="node1" class="node">
<title>FilestorageModule</title>
<polygon fill="#8dd3c7" stroke="black" points="145.75,-122 142.75,-126 121.75,-126 118.75,-122 24.25,-122 24.25,-86 145.75,-86 145.75,-122"/>
<text text-anchor="middle" x="85" y="-99.8" font-family="Times,serif" font-size="14.00">FilestorageModule</text>
</g>
<!-- IdentitiesModule -->
<g id="node2" class="node">
<title>IdentitiesModule</title>
<polygon fill="#8dd3c7" stroke="black" points="447.65,-187 444.65,-191 423.65,-191 420.65,-187 336.35,-187 336.35,-151 447.65,-151 447.65,-187"/>
<text text-anchor="middle" x="392" y="-164.8" font-family="Times,serif" font-size="14.00">IdentitiesModule</text>
</g>
<!-- FilestorageModule&#45;&gt;IdentitiesModule -->
<g id="edge1" class="edge">
<title>FilestorageModule&#45;&gt;IdentitiesModule</title>
<path fill="none" stroke="black" d="M85,-122.11C85,-141.34 85,-169 85,-169 85,-169 326.05,-169 326.05,-169"/>
<polygon fill="black" stroke="black" points="326.05,-172.5 336.05,-169 326.05,-165.5 326.05,-172.5"/>
</g>
<!-- IdentitiesService  -->
<g id="node3" class="node">
<title>IdentitiesService </title>
<polygon fill="#fb8072" stroke="black" points="448.58,-252 335.42,-252 335.42,-216 448.58,-216 448.58,-252"/>
<text text-anchor="middle" x="392" y="-229.8" font-family="Times,serif" font-size="14.00">IdentitiesService </text>
</g>
<!-- IdentitiesModule&#45;&gt;IdentitiesService  -->
<g id="edge2" class="edge">
<title>IdentitiesModule&#45;&gt;IdentitiesService </title>
<path fill="none" stroke="black" stroke-dasharray="5,2" d="M392,-187.11C392,-187.11 392,-205.99 392,-205.99"/>
<polygon fill="black" stroke="black" points="388.5,-205.99 392,-215.99 395.5,-205.99 388.5,-205.99"/>
</g>
<!-- IdentitiesJsonformsService -->
<g id="node4" class="node">
<title>IdentitiesJsonformsService</title>
<ellipse fill="#fdb462" stroke="black" cx="708" cy="-104" rx="115.74" ry="18"/>
<text text-anchor="middle" x="708" y="-99.8" font-family="Times,serif" font-size="14.00">IdentitiesJsonformsService</text>
</g>
<!-- IdentitiesJsonformsService&#45;&gt;IdentitiesModule -->
<g id="edge3" class="edge">
<title>IdentitiesJsonformsService&#45;&gt;IdentitiesModule</title>
<path fill="none" stroke="black" d="M708,-122.11C708,-141.34 708,-169 708,-169 708,-169 457.77,-169 457.77,-169"/>
<polygon fill="black" stroke="black" points="457.77,-165.5 447.77,-169 457.77,-172.5 457.77,-165.5"/>
</g>
<!-- IdentitiesService -->
<g id="node5" class="node">
<title>IdentitiesService</title>
<ellipse fill="#fdb462" stroke="black" cx="498" cy="-104" rx="75.85" ry="18"/>
<text text-anchor="middle" x="498" y="-99.8" font-family="Times,serif" font-size="14.00">IdentitiesService</text>
</g>
<!-- IdentitiesService&#45;&gt;IdentitiesModule -->
<g id="edge4" class="edge">
<title>IdentitiesService&#45;&gt;IdentitiesModule</title>
<path fill="none" stroke="black" d="M434.95,-114.16C434.95,-114.16 434.95,-140.81 434.95,-140.81"/>
<polygon fill="black" stroke="black" points="431.45,-140.81 434.95,-150.81 438.45,-140.81 431.45,-140.81"/>
</g>
<!-- IdentitiesValidationService -->
<g id="node6" class="node">
<title>IdentitiesValidationService</title>
<ellipse fill="#fdb462" stroke="black" cx="287" cy="-104" rx="116.88" ry="18"/>
<text text-anchor="middle" x="287" y="-99.8" font-family="Times,serif" font-size="14.00">IdentitiesValidationService</text>
</g>
<!-- IdentitiesValidationService&#45;&gt;IdentitiesModule -->
<g id="edge5" class="edge">
<title>IdentitiesValidationService&#45;&gt;IdentitiesModule</title>
<path fill="none" stroke="black" d="M369.93,-116.84C369.93,-116.84 369.93,-140.52 369.93,-140.52"/>
<polygon fill="black" stroke="black" points="366.43,-140.52 369.93,-150.52 373.43,-140.52 366.43,-140.52"/>
</g>
</g>
</svg>
