<?xml version="1.0" encoding="UTF-8" standalone="no"?>
<!DOCTYPE svg PUBLIC "-//W3C//DTD SVG 1.1//EN"
 "http://www.w3.org/Graphics/SVG/1.1/DTD/svg11.dtd">
<!-- Generated by graphviz version 2.47.0 (20210316.0004)
 -->
<!-- Title: dependencies Pages: 1 -->
<svg width="685pt" height="284pt"
 viewBox="0.00 0.00 685.00 284.00" xmlns="http://www.w3.org/2000/svg" xmlns:xlink="http://www.w3.org/1999/xlink">
<g id="graph0" class="graph" transform="scale(1 1) rotate(0) translate(4 280)">
<title>dependencies</title>
<polygon fill="white" stroke="transparent" points="-4,4 -4,-280 681,-280 681,4 -4,4"/>
<text text-anchor="start" x="317.51" y="-42.4" font-family="Times-12" font-weight="bold" font-size="14.00">Legend</text>
<polygon fill="#ffffb3" stroke="transparent" points="104.5,-10 104.5,-30 124.5,-30 124.5,-10 104.5,-10"/>
<text text-anchor="start" x="128.13" y="-15.4" font-family="Times-12" font-size="14.00"> &#160;Declarations</text>
<polygon fill="#8dd3c7" stroke="transparent" points="217.5,-10 217.5,-30 237.5,-30 237.5,-10 217.5,-10"/>
<text text-anchor="start" x="241.23" y="-15.4" font-family="Times-12" font-size="14.00"> &#160;Module</text>
<polygon fill="#80b1d3" stroke="transparent" points="303.5,-10 303.5,-30 323.5,-30 323.5,-10 303.5,-10"/>
<text text-anchor="start" x="327.28" y="-15.4" font-family="Times-12" font-size="14.00"> &#160;Bootstrap</text>
<polygon fill="#fdb462" stroke="transparent" points="400.5,-10 400.5,-30 420.5,-30 420.5,-10 400.5,-10"/>
<text text-anchor="start" x="424.17" y="-15.4" font-family="Times-12" font-size="14.00"> &#160;Providers</text>
<polygon fill="#fb8072" stroke="transparent" points="496.5,-10 496.5,-30 516.5,-30 516.5,-10 496.5,-10"/>
<text text-anchor="start" x="520.23" y="-15.4" font-family="Times-12" font-size="14.00"> &#160;Exports</text>
<g id="clust1" class="cluster">
<title>cluster_IdentitiesModule</title>
<polygon fill="none" stroke="black" stroke-dasharray="1,5" points="8,-70 8,-268 669,-268 669,-70 8,-70"/>
</g>
<g id="clust3" class="cluster">
<title>cluster_IdentitiesModule_imports</title>
<polygon fill="none" stroke="black" points="523,-78 523,-130 661,-130 661,-78 523,-78"/>
</g>
<g id="clust4" class="cluster">
<title>cluster_IdentitiesModule_exports</title>
<polygon fill="none" stroke="black" points="312,-208 312,-260 470,-260 470,-208 312,-208"/>
</g>
<g id="clust6" class="cluster">
<title>cluster_IdentitiesModule_providers</title>
<polygon fill="none" stroke="black" points="16,-78 16,-130 515,-130 515,-78 16,-78"/>
</g>
<!-- FilestorageModule -->
<g id="node1" class="node">
<title>FilestorageModule</title>
<polygon fill="#8dd3c7" stroke="black" points="652.75,-122 649.75,-126 628.75,-126 625.75,-122 531.25,-122 531.25,-86 652.75,-86 652.75,-122"/>
<text text-anchor="middle" x="592" y="-99.8" font-family="Times,serif" font-size="14.00">FilestorageModule</text>
</g>
<!-- IdentitiesModule -->
<g id="node2" class="node">
<title>IdentitiesModule</title>
<polygon fill="#8dd3c7" stroke="black" points="446.65,-187 443.65,-191 422.65,-191 419.65,-187 335.35,-187 335.35,-151 446.65,-151 446.65,-187"/>
<text text-anchor="middle" x="391" y="-164.8" font-family="Times,serif" font-size="14.00">IdentitiesModule</text>
</g>
<!-- FilestorageModule&#45;&gt;IdentitiesModule -->
<g id="edge1" class="edge">
<title>FilestorageModule&#45;&gt;IdentitiesModule</title>
<path fill="none" stroke="black" d="M592,-122.11C592,-141.34 592,-169 592,-169 592,-169 456.72,-169 456.72,-169"/>
<polygon fill="black" stroke="black" points="456.72,-165.5 446.72,-169 456.72,-172.5 456.72,-165.5"/>
</g>
<!-- IdentitiesCrudService  -->
<g id="node3" class="node">
<title>IdentitiesCrudService </title>
<polygon fill="#fb8072" stroke="black" points="461.57,-252 320.43,-252 320.43,-216 461.57,-216 461.57,-252"/>
<text text-anchor="middle" x="391" y="-229.8" font-family="Times,serif" font-size="14.00">IdentitiesCrudService </text>
</g>
<!-- IdentitiesModule&#45;&gt;IdentitiesCrudService  -->
<g id="edge2" class="edge">
<title>IdentitiesModule&#45;&gt;IdentitiesCrudService </title>
<path fill="none" stroke="black" stroke-dasharray="5,2" d="M391,-187.11C391,-187.11 391,-205.99 391,-205.99"/>
<polygon fill="black" stroke="black" points="387.5,-205.99 391,-215.99 394.5,-205.99 387.5,-205.99"/>
</g>
<!-- IdentitiesJsonformsService -->
<g id="node4" class="node">
<title>IdentitiesJsonformsService</title>
<ellipse fill="#fdb462" stroke="black" cx="391" cy="-104" rx="115.74" ry="18"/>
<text text-anchor="middle" x="391" y="-99.8" font-family="Times,serif" font-size="14.00">IdentitiesJsonformsService</text>
</g>
<!-- IdentitiesJsonformsService&#45;&gt;IdentitiesModule -->
<g id="edge3" class="edge">
<title>IdentitiesJsonformsService&#45;&gt;IdentitiesModule</title>
<path fill="none" stroke="black" d="M391,-122.11C391,-122.11 391,-140.99 391,-140.99"/>
<polygon fill="black" stroke="black" points="387.5,-140.99 391,-150.99 394.5,-140.99 387.5,-140.99"/>
</g>
<!-- IdentitiesValidationService -->
<g id="node5" class="node">
<title>IdentitiesValidationService</title>
<ellipse fill="#fdb462" stroke="black" cx="141" cy="-104" rx="116.88" ry="18"/>
<text text-anchor="middle" x="141" y="-99.8" font-family="Times,serif" font-size="14.00">IdentitiesValidationService</text>
</g>
<!-- IdentitiesValidationService&#45;&gt;IdentitiesModule -->
<g id="edge4" class="edge">
<title>IdentitiesValidationService&#45;&gt;IdentitiesModule</title>
<path fill="none" stroke="black" d="M141,-122.11C141,-141.34 141,-169 141,-169 141,-169 325.21,-169 325.21,-169"/>
<polygon fill="black" stroke="black" points="325.21,-172.5 335.21,-169 325.21,-165.5 325.21,-172.5"/>
</g>
</g>
</svg>
