<?xml version="1.0" encoding="UTF-8" standalone="no"?>
<!DOCTYPE svg PUBLIC "-//W3C//DTD SVG 1.1//EN"
 "http://www.w3.org/Graphics/SVG/1.1/DTD/svg11.dtd">
<!-- Generated by graphviz version 2.47.0 (20210316.0004)
 -->
<!-- Title: dependencies Pages: 1 -->
<svg width="802pt" height="284pt"
 viewBox="0.00 0.00 802.00 284.00" xmlns="http://www.w3.org/2000/svg" xmlns:xlink="http://www.w3.org/1999/xlink">
<g id="graph0" class="graph" transform="scale(1 1) rotate(0) translate(4 280)">
<title>dependencies</title>
<polygon fill="white" stroke="transparent" points="-4,4 -4,-280 798,-280 798,4 -4,4"/>
<text text-anchor="start" x="376.01" y="-42.4" font-family="Times-12" font-weight="bold" font-size="14.00">Legend</text>
<polygon fill="#ffffb3" stroke="transparent" points="163,-10 163,-30 183,-30 183,-10 163,-10"/>
<text text-anchor="start" x="186.63" y="-15.4" font-family="Times-12" font-size="14.00"> &#160;Declarations</text>
<polygon fill="#8dd3c7" stroke="transparent" points="276,-10 276,-30 296,-30 296,-10 276,-10"/>
<text text-anchor="start" x="299.73" y="-15.4" font-family="Times-12" font-size="14.00"> &#160;Module</text>
<polygon fill="#80b1d3" stroke="transparent" points="362,-10 362,-30 382,-30 382,-10 362,-10"/>
<text text-anchor="start" x="385.78" y="-15.4" font-family="Times-12" font-size="14.00"> &#160;Bootstrap</text>
<polygon fill="#fdb462" stroke="transparent" points="459,-10 459,-30 479,-30 479,-10 459,-10"/>
<text text-anchor="start" x="482.67" y="-15.4" font-family="Times-12" font-size="14.00"> &#160;Providers</text>
<polygon fill="#fb8072" stroke="transparent" points="555,-10 555,-30 575,-30 575,-10 555,-10"/>
<text text-anchor="start" x="578.73" y="-15.4" font-family="Times-12" font-size="14.00"> &#160;Exports</text>
<g id="clust1" class="cluster">
<title>cluster_IdentitiesModule</title>
<polygon fill="none" stroke="black" stroke-dasharray="1,5" points="8,-70 8,-268 786,-268 786,-70 8,-70"/>
</g>
<g id="clust4" class="cluster">
<title>cluster_IdentitiesModule_exports</title>
<polygon fill="none" stroke="black" points="412,-208 412,-260 570,-260 570,-208 412,-208"/>
</g>
<g id="clust3" class="cluster">
<title>cluster_IdentitiesModule_imports</title>
<polygon fill="none" stroke="black" points="523,-78 523,-130 778,-130 778,-78 523,-78"/>
</g>
<g id="clust6" class="cluster">
<title>cluster_IdentitiesModule_providers</title>
<polygon fill="none" stroke="black" points="16,-78 16,-130 515,-130 515,-78 16,-78"/>
</g>
<!-- AgentsModule -->
<g id="node1" class="node">
<title>AgentsModule</title>
<polygon fill="#8dd3c7" stroke="black" points="769.71,-122 766.71,-126 745.71,-126 742.71,-122 670.29,-122 670.29,-86 769.71,-86 769.71,-122"/>
<text text-anchor="middle" x="720" y="-99.8" font-family="Times,serif" font-size="14.00">AgentsModule</text>
</g>
<!-- IdentitiesModule -->
<g id="node3" class="node">
<title>IdentitiesModule</title>
<polygon fill="#8dd3c7" stroke="black" points="546.65,-187 543.65,-191 522.65,-191 519.65,-187 435.35,-187 435.35,-151 546.65,-151 546.65,-187"/>
<text text-anchor="middle" x="491" y="-164.8" font-family="Times,serif" font-size="14.00">IdentitiesModule</text>
</g>
<!-- AgentsModule&#45;&gt;IdentitiesModule -->
<g id="edge1" class="edge">
<title>AgentsModule&#45;&gt;IdentitiesModule</title>
<path fill="none" stroke="black" d="M720,-122.11C720,-141.34 720,-169 720,-169 720,-169 556.73,-169 556.73,-169"/>
<polygon fill="black" stroke="black" points="556.73,-165.5 546.73,-169 556.73,-172.5 556.73,-165.5"/>
</g>
<!-- FilestorageModule -->
<g id="node2" class="node">
<title>FilestorageModule</title>
<polygon fill="#8dd3c7" stroke="black" points="652.75,-122 649.75,-126 628.75,-126 625.75,-122 531.25,-122 531.25,-86 652.75,-86 652.75,-122"/>
<text text-anchor="middle" x="592" y="-99.8" font-family="Times,serif" font-size="14.00">FilestorageModule</text>
</g>
<!-- FilestorageModule&#45;&gt;IdentitiesModule -->
<g id="edge2" class="edge">
<title>FilestorageModule&#45;&gt;IdentitiesModule</title>
<path fill="none" stroke="black" d="M538.97,-122.11C538.97,-122.11 538.97,-140.99 538.97,-140.99"/>
<polygon fill="black" stroke="black" points="535.47,-140.99 538.97,-150.99 542.47,-140.99 535.47,-140.99"/>
</g>
<!-- IdentitiesCrudService  -->
<g id="node4" class="node">
<title>IdentitiesCrudService </title>
<polygon fill="#fb8072" stroke="black" points="561.57,-252 420.43,-252 420.43,-216 561.57,-216 561.57,-252"/>
<text text-anchor="middle" x="491" y="-229.8" font-family="Times,serif" font-size="14.00">IdentitiesCrudService </text>
</g>
<!-- IdentitiesModule&#45;&gt;IdentitiesCrudService  -->
<g id="edge3" class="edge">
<title>IdentitiesModule&#45;&gt;IdentitiesCrudService </title>
<path fill="none" stroke="black" stroke-dasharray="5,2" d="M491,-187.11C491,-187.11 491,-205.99 491,-205.99"/>
<polygon fill="black" stroke="black" points="487.5,-205.99 491,-215.99 494.5,-205.99 487.5,-205.99"/>
</g>
<!-- IdentitiesJsonformsService -->
<g id="node5" class="node">
<title>IdentitiesJsonformsService</title>
<ellipse fill="#fdb462" stroke="black" cx="391" cy="-104" rx="115.74" ry="18"/>
<text text-anchor="middle" x="391" y="-99.8" font-family="Times,serif" font-size="14.00">IdentitiesJsonformsService</text>
</g>
<!-- IdentitiesJsonformsService&#45;&gt;IdentitiesModule -->
<g id="edge4" class="edge">
<title>IdentitiesJsonformsService&#45;&gt;IdentitiesModule</title>
<path fill="none" stroke="black" d="M470.9,-117.15C470.9,-117.15 470.9,-140.69 470.9,-140.69"/>
<polygon fill="black" stroke="black" points="467.4,-140.69 470.9,-150.69 474.4,-140.69 467.4,-140.69"/>
</g>
<!-- IdentitiesValidationService -->
<g id="node6" class="node">
<title>IdentitiesValidationService</title>
<ellipse fill="#fdb462" stroke="black" cx="141" cy="-104" rx="116.88" ry="18"/>
<text text-anchor="middle" x="141" y="-99.8" font-family="Times,serif" font-size="14.00">IdentitiesValidationService</text>
</g>
<!-- IdentitiesValidationService&#45;&gt;IdentitiesModule -->
<g id="edge5" class="edge">
<title>IdentitiesValidationService&#45;&gt;IdentitiesModule</title>
<path fill="none" stroke="black" d="M141,-122.11C141,-141.34 141,-169 141,-169 141,-169 425.15,-169 425.15,-169"/>
<polygon fill="black" stroke="black" points="425.15,-172.5 435.15,-169 425.15,-165.5 425.15,-172.5"/>
</g>
</g>
</svg>
