<?xml version="1.0" encoding="UTF-8" standalone="no"?>
<!DOCTYPE svg PUBLIC "-//W3C//DTD SVG 1.1//EN"
 "http://www.w3.org/Graphics/SVG/1.1/DTD/svg11.dtd">
<!-- Generated by graphviz version 2.47.0 (20210316.0004)
 -->
<!-- Title: dependencies Pages: 1 -->
<svg width="1210pt" height="284pt"
 viewBox="0.00 0.00 1210.00 284.00" xmlns="http://www.w3.org/2000/svg" xmlns:xlink="http://www.w3.org/1999/xlink">
<g id="graph0" class="graph" transform="scale(1 1) rotate(0) translate(4 280)">
<title>dependencies</title>
<polygon fill="white" stroke="transparent" points="-4,4 -4,-280 1206,-280 1206,4 -4,4"/>
<text text-anchor="start" x="580.01" y="-42.4" font-family="Times-12" font-weight="bold" font-size="14.00">Legend</text>
<polygon fill="#ffffb3" stroke="transparent" points="367,-10 367,-30 387,-30 387,-10 367,-10"/>
<text text-anchor="start" x="390.63" y="-15.4" font-family="Times-12" font-size="14.00"> &#160;Declarations</text>
<polygon fill="#8dd3c7" stroke="transparent" points="480,-10 480,-30 500,-30 500,-10 480,-10"/>
<text text-anchor="start" x="503.73" y="-15.4" font-family="Times-12" font-size="14.00"> &#160;Module</text>
<polygon fill="#80b1d3" stroke="transparent" points="566,-10 566,-30 586,-30 586,-10 566,-10"/>
<text text-anchor="start" x="589.78" y="-15.4" font-family="Times-12" font-size="14.00"> &#160;Bootstrap</text>
<polygon fill="#fdb462" stroke="transparent" points="663,-10 663,-30 683,-30 683,-10 663,-10"/>
<text text-anchor="start" x="686.67" y="-15.4" font-family="Times-12" font-size="14.00"> &#160;Providers</text>
<polygon fill="#fb8072" stroke="transparent" points="759,-10 759,-30 779,-30 779,-10 759,-10"/>
<text text-anchor="start" x="782.73" y="-15.4" font-family="Times-12" font-size="14.00"> &#160;Exports</text>
<g id="clust1" class="cluster">
<title>cluster_IdentitiesModule</title>
<polygon fill="none" stroke="black" stroke-dasharray="1,5" points="8,-70 8,-268 1194,-268 1194,-70 8,-70"/>
</g>
<g id="clust6" class="cluster">
<title>cluster_IdentitiesModule_providers</title>
<polygon fill="none" stroke="black" points="401,-78 401,-130 1186,-130 1186,-78 401,-78"/>
</g>
<g id="clust3" class="cluster">
<title>cluster_IdentitiesModule_imports</title>
<polygon fill="none" stroke="black" points="16,-78 16,-130 393,-130 393,-78 16,-78"/>
</g>
<g id="clust4" class="cluster">
<title>cluster_IdentitiesModule_exports</title>
<polygon fill="none" stroke="black" points="265,-208 265,-260 591,-260 591,-208 265,-208"/>
</g>
<!-- AgentsModule -->
<g id="node1" class="node">
<title>AgentsModule</title>
<polygon fill="#8dd3c7" stroke="black" points="384.71,-122 381.71,-126 360.71,-126 357.71,-122 285.29,-122 285.29,-86 384.71,-86 384.71,-122"/>
<text text-anchor="middle" x="335" y="-99.8" font-family="Times,serif" font-size="14.00">AgentsModule</text>
</g>
<!-- IdentitiesModule -->
<g id="node4" class="node">
<title>IdentitiesModule</title>
<polygon fill="#8dd3c7" stroke="black" points="485.65,-187 482.65,-191 461.65,-191 458.65,-187 374.35,-187 374.35,-151 485.65,-151 485.65,-187"/>
<text text-anchor="middle" x="430" y="-164.8" font-family="Times,serif" font-size="14.00">IdentitiesModule</text>
</g>
<!-- AgentsModule&#45;&gt;IdentitiesModule -->
<g id="edge1" class="edge">
<title>AgentsModule&#45;&gt;IdentitiesModule</title>
<path fill="none" stroke="black" d="M379.39,-122.11C379.39,-122.11 379.39,-140.99 379.39,-140.99"/>
<polygon fill="black" stroke="black" points="375.89,-140.99 379.39,-150.99 382.89,-140.99 375.89,-140.99"/>
</g>
<!-- FilestorageModule -->
<g id="node2" class="node">
<title>FilestorageModule</title>
<polygon fill="#8dd3c7" stroke="black" points="267.75,-122 264.75,-126 243.75,-126 240.75,-122 146.25,-122 146.25,-86 267.75,-86 267.75,-122"/>
<text text-anchor="middle" x="207" y="-99.8" font-family="Times,serif" font-size="14.00">FilestorageModule</text>
</g>
<!-- FilestorageModule&#45;&gt;IdentitiesModule -->
<g id="edge2" class="edge">
<title>FilestorageModule&#45;&gt;IdentitiesModule</title>
<path fill="none" stroke="black" d="M207,-122.02C207,-139.37 207,-163 207,-163 207,-163 364.3,-163 364.3,-163"/>
<polygon fill="black" stroke="black" points="364.3,-166.5 374.3,-163 364.3,-159.5 364.3,-166.5"/>
</g>
<!-- SettingsModule -->
<g id="node3" class="node">
<title>SettingsModule</title>
<polygon fill="#8dd3c7" stroke="black" points="128.16,-122 125.16,-126 104.16,-126 101.16,-122 23.84,-122 23.84,-86 128.16,-86 128.16,-122"/>
<text text-anchor="middle" x="76" y="-99.8" font-family="Times,serif" font-size="14.00">SettingsModule</text>
</g>
<!-- SettingsModule&#45;&gt;IdentitiesModule -->
<g id="edge3" class="edge">
<title>SettingsModule&#45;&gt;IdentitiesModule</title>
<path fill="none" stroke="black" d="M76,-122.28C76,-143.32 76,-175 76,-175 76,-175 364.3,-175 364.3,-175"/>
<polygon fill="black" stroke="black" points="364.3,-178.5 374.3,-175 364.3,-171.5 364.3,-178.5"/>
</g>
<!-- IdentitiesCrudService  -->
<g id="node5" class="node">
<title>IdentitiesCrudService </title>
<polygon fill="#fb8072" stroke="black" points="582.57,-252 441.43,-252 441.43,-216 582.57,-216 582.57,-252"/>
<text text-anchor="middle" x="512" y="-229.8" font-family="Times,serif" font-size="14.00">IdentitiesCrudService </text>
</g>
<!-- IdentitiesModule&#45;&gt;IdentitiesCrudService  -->
<g id="edge4" class="edge">
<title>IdentitiesModule&#45;&gt;IdentitiesCrudService </title>
<path fill="none" stroke="black" stroke-dasharray="5,2" d="M463.52,-187.11C463.52,-187.11 463.52,-205.99 463.52,-205.99"/>
<polygon fill="black" stroke="black" points="460.02,-205.99 463.52,-215.99 467.02,-205.99 460.02,-205.99"/>
</g>
<!-- IdentitiesUpsertService  -->
<g id="node6" class="node">
<title>IdentitiesUpsertService </title>
<polygon fill="#fb8072" stroke="black" points="423.39,-252 272.61,-252 272.61,-216 423.39,-216 423.39,-252"/>
<text text-anchor="middle" x="348" y="-229.8" font-family="Times,serif" font-size="14.00">IdentitiesUpsertService </text>
</g>
<!-- IdentitiesModule&#45;&gt;IdentitiesUpsertService  -->
<g id="edge5" class="edge">
<title>IdentitiesModule&#45;&gt;IdentitiesUpsertService </title>
<path fill="none" stroke="black" stroke-dasharray="5,2" d="M398.81,-187.11C398.81,-187.11 398.81,-205.99 398.81,-205.99"/>
<polygon fill="black" stroke="black" points="395.31,-205.99 398.81,-215.99 402.31,-205.99 395.31,-205.99"/>
</g>
<!-- IdentitiesForcepasswordService -->
<g id="node7" class="node">
<title>IdentitiesForcepasswordService</title>
<ellipse fill="#fdb462" stroke="black" cx="1044" cy="-104" rx="134.26" ry="18"/>
<text text-anchor="middle" x="1044" y="-99.8" font-family="Times,serif" font-size="14.00">IdentitiesForcepasswordService</text>
</g>
<!-- IdentitiesForcepasswordService&#45;&gt;IdentitiesModule -->
<g id="edge6" class="edge">
<title>IdentitiesForcepasswordService&#45;&gt;IdentitiesModule</title>
<path fill="none" stroke="black" d="M1044,-122.28C1044,-143.32 1044,-175 1044,-175 1044,-175 495.84,-175 495.84,-175"/>
<polygon fill="black" stroke="black" points="495.84,-171.5 485.84,-175 495.84,-178.5 495.84,-171.5"/>
</g>
<!-- IdentitiesJsonformsService -->
<g id="node8" class="node">
<title>IdentitiesJsonformsService</title>
<ellipse fill="#fdb462" stroke="black" cx="776" cy="-104" rx="115.74" ry="18"/>
<text text-anchor="middle" x="776" y="-99.8" font-family="Times,serif" font-size="14.00">IdentitiesJsonformsService</text>
</g>
<!-- IdentitiesJsonformsService&#45;&gt;IdentitiesModule -->
<g id="edge7" class="edge">
<title>IdentitiesJsonformsService&#45;&gt;IdentitiesModule</title>
<path fill="none" stroke="black" d="M776,-122.02C776,-139.37 776,-163 776,-163 776,-163 495.98,-163 495.98,-163"/>
<polygon fill="black" stroke="black" points="495.98,-159.5 485.98,-163 495.98,-166.5 495.98,-159.5"/>
</g>
<!-- IdentitiesValidationService -->
<g id="node9" class="node">
<title>IdentitiesValidationService</title>
<ellipse fill="#fdb462" stroke="black" cx="526" cy="-104" rx="116.88" ry="18"/>
<text text-anchor="middle" x="526" y="-99.8" font-family="Times,serif" font-size="14.00">IdentitiesValidationService</text>
</g>
<!-- IdentitiesValidationService&#45;&gt;IdentitiesModule -->
<g id="edge8" class="edge">
<title>IdentitiesValidationService&#45;&gt;IdentitiesModule</title>
<path fill="none" stroke="black" d="M447.57,-117.47C447.57,-117.47 447.57,-140.86 447.57,-140.86"/>
<polygon fill="black" stroke="black" points="444.07,-140.86 447.57,-150.86 451.07,-140.86 444.07,-140.86"/>
</g>
</g>
</svg>
