<?xml version="1.0" encoding="UTF-8" standalone="no"?>
<!DOCTYPE svg PUBLIC "-//W3C//DTD SVG 1.1//EN"
 "http://www.w3.org/Graphics/SVG/1.1/DTD/svg11.dtd">
<!-- Generated by graphviz version 2.47.0 (20210316.0004)
 -->
<!-- Title: dependencies Pages: 1 -->
<svg width="802pt" height="284pt"
 viewBox="0.00 0.00 802.00 284.00" xmlns="http://www.w3.org/2000/svg" xmlns:xlink="http://www.w3.org/1999/xlink">
<g id="graph0" class="graph" transform="scale(1 1) rotate(0) translate(4 280)">
<title>dependencies</title>
<polygon fill="white" stroke="transparent" points="-4,4 -4,-280 798,-280 798,4 -4,4"/>
<text text-anchor="start" x="376.01" y="-42.4" font-family="Times-12" font-weight="bold" font-size="14.00">Legend</text>
<polygon fill="#ffffb3" stroke="transparent" points="163,-10 163,-30 183,-30 183,-10 163,-10"/>
<text text-anchor="start" x="186.63" y="-15.4" font-family="Times-12" font-size="14.00"> &#160;Declarations</text>
<polygon fill="#8dd3c7" stroke="transparent" points="276,-10 276,-30 296,-30 296,-10 276,-10"/>
<text text-anchor="start" x="299.73" y="-15.4" font-family="Times-12" font-size="14.00"> &#160;Module</text>
<polygon fill="#80b1d3" stroke="transparent" points="362,-10 362,-30 382,-30 382,-10 362,-10"/>
<text text-anchor="start" x="385.78" y="-15.4" font-family="Times-12" font-size="14.00"> &#160;Bootstrap</text>
<polygon fill="#fdb462" stroke="transparent" points="459,-10 459,-30 479,-30 479,-10 459,-10"/>
<text text-anchor="start" x="482.67" y="-15.4" font-family="Times-12" font-size="14.00"> &#160;Providers</text>
<polygon fill="#fb8072" stroke="transparent" points="555,-10 555,-30 575,-30 575,-10 555,-10"/>
<text text-anchor="start" x="578.73" y="-15.4" font-family="Times-12" font-size="14.00"> &#160;Exports</text>
<g id="clust1" class="cluster">
<title>cluster_IdentitiesModule</title>
<polygon fill="none" stroke="black" stroke-dasharray="1,5" points="8,-70 8,-268 786,-268 786,-70 8,-70"/>
</g>
<g id="clust6" class="cluster">
<title>cluster_IdentitiesModule_providers</title>
<polygon fill="none" stroke="black" points="279,-78 279,-130 778,-130 778,-78 279,-78"/>
</g>
<g id="clust4" class="cluster">
<title>cluster_IdentitiesModule_exports</title>
<polygon fill="none" stroke="black" points="229,-208 229,-260 387,-260 387,-208 229,-208"/>
</g>
<g id="clust3" class="cluster">
<title>cluster_IdentitiesModule_imports</title>
<polygon fill="none" stroke="black" points="16,-78 16,-130 271,-130 271,-78 16,-78"/>
</g>
<!-- AgentsModule -->
<g id="node1" class="node">
<title>AgentsModule</title>
<polygon fill="#8dd3c7" stroke="black" points="262.71,-122 259.71,-126 238.71,-126 235.71,-122 163.29,-122 163.29,-86 262.71,-86 262.71,-122"/>
<text text-anchor="middle" x="213" y="-99.8" font-family="Times,serif" font-size="14.00">AgentsModule</text>
</g>
<!-- IdentitiesModule -->
<g id="node3" class="node">
<title>IdentitiesModule</title>
<polygon fill="#8dd3c7" stroke="black" points="363.65,-187 360.65,-191 339.65,-191 336.65,-187 252.35,-187 252.35,-151 363.65,-151 363.65,-187"/>
<text text-anchor="middle" x="308" y="-164.8" font-family="Times,serif" font-size="14.00">IdentitiesModule</text>
</g>
<!-- AgentsModule&#45;&gt;IdentitiesModule -->
<g id="edge1" class="edge">
<title>AgentsModule&#45;&gt;IdentitiesModule</title>
<path fill="none" stroke="black" d="M257.39,-122.11C257.39,-122.11 257.39,-140.99 257.39,-140.99"/>
<polygon fill="black" stroke="black" points="253.89,-140.99 257.39,-150.99 260.89,-140.99 253.89,-140.99"/>
</g>
<!-- FilestorageModule -->
<g id="node2" class="node">
<title>FilestorageModule</title>
<polygon fill="#8dd3c7" stroke="black" points="145.75,-122 142.75,-126 121.75,-126 118.75,-122 24.25,-122 24.25,-86 145.75,-86 145.75,-122"/>
<text text-anchor="middle" x="85" y="-99.8" font-family="Times,serif" font-size="14.00">FilestorageModule</text>
</g>
<!-- FilestorageModule&#45;&gt;IdentitiesModule -->
<g id="edge2" class="edge">
<title>FilestorageModule&#45;&gt;IdentitiesModule</title>
<path fill="none" stroke="black" d="M85,-122.11C85,-141.34 85,-169 85,-169 85,-169 242.3,-169 242.3,-169"/>
<polygon fill="black" stroke="black" points="242.3,-172.5 252.3,-169 242.3,-165.5 242.3,-172.5"/>
</g>
<!-- IdentitiesCrudService  -->
<g id="node4" class="node">
<title>IdentitiesCrudService </title>
<polygon fill="#fb8072" stroke="black" points="378.57,-252 237.43,-252 237.43,-216 378.57,-216 378.57,-252"/>
<text text-anchor="middle" x="308" y="-229.8" font-family="Times,serif" font-size="14.00">IdentitiesCrudService </text>
</g>
<!-- IdentitiesModule&#45;&gt;IdentitiesCrudService  -->
<g id="edge3" class="edge">
<title>IdentitiesModule&#45;&gt;IdentitiesCrudService </title>
<path fill="none" stroke="black" stroke-dasharray="5,2" d="M308,-187.11C308,-187.11 308,-205.99 308,-205.99"/>
<polygon fill="black" stroke="black" points="304.5,-205.99 308,-215.99 311.5,-205.99 304.5,-205.99"/>
</g>
<!-- IdentitiesJsonformsService -->
<g id="node5" class="node">
<title>IdentitiesJsonformsService</title>
<ellipse fill="#fdb462" stroke="black" cx="654" cy="-104" rx="115.74" ry="18"/>
<text text-anchor="middle" x="654" y="-99.8" font-family="Times,serif" font-size="14.00">IdentitiesJsonformsService</text>
</g>
<!-- IdentitiesJsonformsService&#45;&gt;IdentitiesModule -->
<g id="edge4" class="edge">
<title>IdentitiesJsonformsService&#45;&gt;IdentitiesModule</title>
<path fill="none" stroke="black" d="M654,-122.11C654,-141.34 654,-169 654,-169 654,-169 373.98,-169 373.98,-169"/>
<polygon fill="black" stroke="black" points="373.98,-165.5 363.98,-169 373.98,-172.5 373.98,-165.5"/>
</g>
<!-- IdentitiesValidationService -->
<g id="node6" class="node">
<title>IdentitiesValidationService</title>
<ellipse fill="#fdb462" stroke="black" cx="404" cy="-104" rx="116.88" ry="18"/>
<text text-anchor="middle" x="404" y="-99.8" font-family="Times,serif" font-size="14.00">IdentitiesValidationService</text>
</g>
<!-- IdentitiesValidationService&#45;&gt;IdentitiesModule -->
<g id="edge5" class="edge">
<title>IdentitiesValidationService&#45;&gt;IdentitiesModule</title>
<path fill="none" stroke="black" d="M325.57,-117.47C325.57,-117.47 325.57,-140.86 325.57,-140.86"/>
<polygon fill="black" stroke="black" points="322.07,-140.86 325.57,-150.86 329.07,-140.86 322.07,-140.86"/>
</g>
</g>
</svg>
