<?xml version="1.0" encoding="UTF-8" standalone="no"?>
<!DOCTYPE svg PUBLIC "-//W3C//DTD SVG 1.1//EN"
 "http://www.w3.org/Graphics/SVG/1.1/DTD/svg11.dtd">
<!-- Generated by graphviz version 2.47.0 (20210316.0004)
 -->
<!-- Title: dependencies Pages: 1 -->
<svg width="521pt" height="211pt"
 viewBox="0.00 0.00 521.00 211.00" xmlns="http://www.w3.org/2000/svg" xmlns:xlink="http://www.w3.org/1999/xlink">
<g id="graph0" class="graph" transform="scale(1 1) rotate(0) translate(4 207)">
<title>dependencies</title>
<polygon fill="white" stroke="transparent" points="-4,4 -4,-207 517,-207 517,4 -4,4"/>
<text text-anchor="start" x="235.51" y="-42.4" font-family="Times-12" font-weight="bold" font-size="14.00">Legend</text>
<polygon fill="#ffffb3" stroke="transparent" points="22.5,-10 22.5,-30 42.5,-30 42.5,-10 22.5,-10"/>
<text text-anchor="start" x="46.13" y="-15.4" font-family="Times-12" font-size="14.00"> &#160;Declarations</text>
<polygon fill="#8dd3c7" stroke="transparent" points="135.5,-10 135.5,-30 155.5,-30 155.5,-10 135.5,-10"/>
<text text-anchor="start" x="159.23" y="-15.4" font-family="Times-12" font-size="14.00"> &#160;Module</text>
<polygon fill="#80b1d3" stroke="transparent" points="221.5,-10 221.5,-30 241.5,-30 241.5,-10 221.5,-10"/>
<text text-anchor="start" x="245.28" y="-15.4" font-family="Times-12" font-size="14.00"> &#160;Bootstrap</text>
<polygon fill="#fdb462" stroke="transparent" points="318.5,-10 318.5,-30 338.5,-30 338.5,-10 318.5,-10"/>
<text text-anchor="start" x="342.17" y="-15.4" font-family="Times-12" font-size="14.00"> &#160;Providers</text>
<polygon fill="#fb8072" stroke="transparent" points="414.5,-10 414.5,-30 434.5,-30 434.5,-10 414.5,-10"/>
<text text-anchor="start" x="438.23" y="-15.4" font-family="Times-12" font-size="14.00"> &#160;Exports</text>
<g id="clust1" class="cluster">
<title>cluster_CliModule</title>
<polygon fill="none" stroke="black" stroke-dasharray="1,5" points="8,-70 8,-195 505,-195 505,-70 8,-70"/>
</g>
<g id="clust3" class="cluster">
<title>cluster_CliModule_imports</title>
<polygon fill="none" stroke="black" points="16,-78 16,-130 497,-130 497,-78 16,-78"/>
</g>
<!-- AgentsModule -->
<g id="node1" class="node">
<title>AgentsModule</title>
<polygon fill="#8dd3c7" stroke="black" points="488.71,-122 485.71,-126 464.71,-126 461.71,-122 389.29,-122 389.29,-86 488.71,-86 488.71,-122"/>
<text text-anchor="middle" x="439" y="-99.8" font-family="Times,serif" font-size="14.00">AgentsModule</text>
</g>
<!-- CliModule -->
<g id="node5" class="node">
<title>CliModule</title>
<polygon fill="#8dd3c7" stroke="black" points="306.17,-187 303.17,-191 282.17,-191 279.17,-187 229.83,-187 229.83,-151 306.17,-151 306.17,-187"/>
<text text-anchor="middle" x="268" y="-164.8" font-family="Times,serif" font-size="14.00">CliModule</text>
</g>
<!-- AgentsModule&#45;&gt;CliModule -->
<g id="edge1" class="edge">
<title>AgentsModule&#45;&gt;CliModule</title>
<path fill="none" stroke="black" d="M439,-122.11C439,-141.34 439,-169 439,-169 439,-169 316.38,-169 316.38,-169"/>
<polygon fill="black" stroke="black" points="316.38,-165.5 306.38,-169 316.38,-172.5 316.38,-165.5"/>
</g>
<!-- AuthModule -->
<g id="node2" class="node">
<title>AuthModule</title>
<polygon fill="#8dd3c7" stroke="black" points="371.55,-122 368.55,-126 347.55,-126 344.55,-122 284.45,-122 284.45,-86 371.55,-86 371.55,-122"/>
<text text-anchor="middle" x="328" y="-99.8" font-family="Times,serif" font-size="14.00">AuthModule</text>
</g>
<!-- AuthModule&#45;&gt;CliModule -->
<g id="edge2" class="edge">
<title>AuthModule&#45;&gt;CliModule</title>
<path fill="none" stroke="black" d="M295.28,-122.11C295.28,-122.11 295.28,-140.99 295.28,-140.99"/>
<polygon fill="black" stroke="black" points="291.78,-140.99 295.28,-150.99 298.78,-140.99 291.78,-140.99"/>
</g>
<!-- BackendsModule -->
<g id="node3" class="node">
<title>BackendsModule</title>
<polygon fill="#8dd3c7" stroke="black" points="265.97,-122 262.97,-126 241.97,-126 238.97,-122 152.03,-122 152.03,-86 265.97,-86 265.97,-122"/>
<text text-anchor="middle" x="209" y="-99.8" font-family="Times,serif" font-size="14.00">BackendsModule</text>
</g>
<!-- BackendsModule&#45;&gt;CliModule -->
<g id="edge3" class="edge">
<title>BackendsModule&#45;&gt;CliModule</title>
<path fill="none" stroke="black" d="M247.83,-122.11C247.83,-122.11 247.83,-140.99 247.83,-140.99"/>
<polygon fill="black" stroke="black" points="244.33,-140.99 247.83,-150.99 251.33,-140.99 244.33,-140.99"/>
</g>
<!-- KeyringsModule -->
<g id="node4" class="node">
<title>KeyringsModule</title>
<polygon fill="#8dd3c7" stroke="black" points="134.37,-122 131.37,-126 110.37,-126 107.37,-122 23.63,-122 23.63,-86 134.37,-86 134.37,-122"/>
<text text-anchor="middle" x="79" y="-99.8" font-family="Times,serif" font-size="14.00">KeyringsModule</text>
</g>
<!-- KeyringsModule&#45;&gt;CliModule -->
<g id="edge4" class="edge">
<title>KeyringsModule&#45;&gt;CliModule</title>
<path fill="none" stroke="black" d="M79,-122.11C79,-141.34 79,-169 79,-169 79,-169 219.75,-169 219.75,-169"/>
<polygon fill="black" stroke="black" points="219.75,-172.5 229.75,-169 219.75,-165.5 219.75,-172.5"/>
</g>
</g>
</svg>
