<?xml version="1.0" encoding="UTF-8" standalone="no"?>
<!DOCTYPE svg PUBLIC "-//W3C//DTD SVG 1.1//EN"
 "http://www.w3.org/Graphics/SVG/1.1/DTD/svg11.dtd">
<!-- Generated by graphviz version 2.47.0 (20210316.0004)
 -->
<!-- Title: dependencies Pages: 1 -->
<svg width="651pt" height="211pt"
 viewBox="0.00 0.00 651.00 211.00" xmlns="http://www.w3.org/2000/svg" xmlns:xlink="http://www.w3.org/1999/xlink">
<g id="graph0" class="graph" transform="scale(1 1) rotate(0) translate(4 207)">
<title>dependencies</title>
<polygon fill="white" stroke="transparent" points="-4,4 -4,-207 647,-207 647,4 -4,4"/>
<text text-anchor="start" x="300.51" y="-42.4" font-family="Times-12" font-weight="bold" font-size="14.00">Legend</text>
<polygon fill="#ffffb3" stroke="transparent" points="87.5,-10 87.5,-30 107.5,-30 107.5,-10 87.5,-10"/>
<text text-anchor="start" x="111.13" y="-15.4" font-family="Times-12" font-size="14.00"> &#160;Declarations</text>
<polygon fill="#8dd3c7" stroke="transparent" points="200.5,-10 200.5,-30 220.5,-30 220.5,-10 200.5,-10"/>
<text text-anchor="start" x="224.23" y="-15.4" font-family="Times-12" font-size="14.00"> &#160;Module</text>
<polygon fill="#80b1d3" stroke="transparent" points="286.5,-10 286.5,-30 306.5,-30 306.5,-10 286.5,-10"/>
<text text-anchor="start" x="310.28" y="-15.4" font-family="Times-12" font-size="14.00"> &#160;Bootstrap</text>
<polygon fill="#fdb462" stroke="transparent" points="383.5,-10 383.5,-30 403.5,-30 403.5,-10 383.5,-10"/>
<text text-anchor="start" x="407.17" y="-15.4" font-family="Times-12" font-size="14.00"> &#160;Providers</text>
<polygon fill="#fb8072" stroke="transparent" points="479.5,-10 479.5,-30 499.5,-30 499.5,-10 479.5,-10"/>
<text text-anchor="start" x="503.23" y="-15.4" font-family="Times-12" font-size="14.00"> &#160;Exports</text>
<g id="clust1" class="cluster">
<title>cluster_CliModule</title>
<polygon fill="none" stroke="black" stroke-dasharray="1,5" points="8,-70 8,-195 635,-195 635,-70 8,-70"/>
</g>
<g id="clust3" class="cluster">
<title>cluster_CliModule_imports</title>
<polygon fill="none" stroke="black" points="16,-78 16,-130 627,-130 627,-78 16,-78"/>
</g>
<!-- AgentsModule -->
<g id="node1" class="node">
<title>AgentsModule</title>
<polygon fill="#8dd3c7" stroke="black" points="618.71,-122 615.71,-126 594.71,-126 591.71,-122 519.29,-122 519.29,-86 618.71,-86 618.71,-122"/>
<text text-anchor="middle" x="569" y="-99.8" font-family="Times,serif" font-size="14.00">AgentsModule</text>
</g>
<!-- CliModule -->
<g id="node6" class="node">
<title>CliModule</title>
<polygon fill="#8dd3c7" stroke="black" points="377.17,-187 374.17,-191 353.17,-191 350.17,-187 300.83,-187 300.83,-151 377.17,-151 377.17,-187"/>
<text text-anchor="middle" x="339" y="-164.8" font-family="Times,serif" font-size="14.00">CliModule</text>
</g>
<!-- AgentsModule&#45;&gt;CliModule -->
<g id="edge1" class="edge">
<title>AgentsModule&#45;&gt;CliModule</title>
<path fill="none" stroke="black" d="M569,-122.28C569,-143.32 569,-175 569,-175 569,-175 387.24,-175 387.24,-175"/>
<polygon fill="black" stroke="black" points="387.24,-171.5 377.24,-175 387.24,-178.5 387.24,-171.5"/>
</g>
<!-- AuthModule -->
<g id="node2" class="node">
<title>AuthModule</title>
<polygon fill="#8dd3c7" stroke="black" points="501.55,-122 498.55,-126 477.55,-126 474.55,-122 414.45,-122 414.45,-86 501.55,-86 501.55,-122"/>
<text text-anchor="middle" x="458" y="-99.8" font-family="Times,serif" font-size="14.00">AuthModule</text>
</g>
<!-- AuthModule&#45;&gt;CliModule -->
<g id="edge2" class="edge">
<title>AuthModule&#45;&gt;CliModule</title>
<path fill="none" stroke="black" d="M458,-122.02C458,-139.37 458,-163 458,-163 458,-163 387.31,-163 387.31,-163"/>
<polygon fill="black" stroke="black" points="387.31,-159.5 377.31,-163 387.31,-166.5 387.31,-159.5"/>
</g>
<!-- BackendsModule -->
<g id="node3" class="node">
<title>BackendsModule</title>
<polygon fill="#8dd3c7" stroke="black" points="395.97,-122 392.97,-126 371.97,-126 368.97,-122 282.03,-122 282.03,-86 395.97,-86 395.97,-122"/>
<text text-anchor="middle" x="339" y="-99.8" font-family="Times,serif" font-size="14.00">BackendsModule</text>
</g>
<!-- BackendsModule&#45;&gt;CliModule -->
<g id="edge3" class="edge">
<title>BackendsModule&#45;&gt;CliModule</title>
<path fill="none" stroke="black" d="M339,-122.11C339,-122.11 339,-140.99 339,-140.99"/>
<polygon fill="black" stroke="black" points="335.5,-140.99 339,-150.99 342.5,-140.99 335.5,-140.99"/>
</g>
<!-- IdentitiesModule -->
<g id="node4" class="node">
<title>IdentitiesModule</title>
<polygon fill="#8dd3c7" stroke="black" points="263.65,-122 260.65,-126 239.65,-126 236.65,-122 152.35,-122 152.35,-86 263.65,-86 263.65,-122"/>
<text text-anchor="middle" x="208" y="-99.8" font-family="Times,serif" font-size="14.00">IdentitiesModule</text>
</g>
<!-- IdentitiesModule&#45;&gt;CliModule -->
<g id="edge4" class="edge">
<title>IdentitiesModule&#45;&gt;CliModule</title>
<path fill="none" stroke="black" d="M208,-122.02C208,-139.37 208,-163 208,-163 208,-163 290.76,-163 290.76,-163"/>
<polygon fill="black" stroke="black" points="290.76,-166.5 300.76,-163 290.76,-159.5 290.76,-166.5"/>
</g>
<!-- KeyringsModule -->
<g id="node5" class="node">
<title>KeyringsModule</title>
<polygon fill="#8dd3c7" stroke="black" points="134.37,-122 131.37,-126 110.37,-126 107.37,-122 23.63,-122 23.63,-86 134.37,-86 134.37,-122"/>
<text text-anchor="middle" x="79" y="-99.8" font-family="Times,serif" font-size="14.00">KeyringsModule</text>
</g>
<!-- KeyringsModule&#45;&gt;CliModule -->
<g id="edge5" class="edge">
<title>KeyringsModule&#45;&gt;CliModule</title>
<path fill="none" stroke="black" d="M79,-122.28C79,-143.32 79,-175 79,-175 79,-175 290.64,-175 290.64,-175"/>
<polygon fill="black" stroke="black" points="290.64,-178.5 300.64,-175 290.64,-171.5 290.64,-178.5"/>
</g>
</g>
</svg>
