<?xml version="1.0" encoding="UTF-8" standalone="no"?>
<!DOCTYPE svg PUBLIC "-//W3C//DTD SVG 1.1//EN"
 "http://www.w3.org/Graphics/SVG/1.1/DTD/svg11.dtd">
<!-- Generated by graphviz version 2.47.0 (20210316.0004)
 -->
<!-- Title: dependencies Pages: 1 -->
<svg width="800pt" height="211pt"
 viewBox="0.00 0.00 800.00 211.00" xmlns="http://www.w3.org/2000/svg" xmlns:xlink="http://www.w3.org/1999/xlink">
<g id="graph0" class="graph" transform="scale(1 1) rotate(0) translate(4 207)">
<title>dependencies</title>
<polygon fill="white" stroke="transparent" points="-4,4 -4,-207 796,-207 796,4 -4,4"/>
<text text-anchor="start" x="375.01" y="-42.4" font-family="Times-12" font-weight="bold" font-size="14.00">Legend</text>
<polygon fill="#ffffb3" stroke="transparent" points="162,-10 162,-30 182,-30 182,-10 162,-10"/>
<text text-anchor="start" x="185.63" y="-15.4" font-family="Times-12" font-size="14.00"> &#160;Declarations</text>
<polygon fill="#8dd3c7" stroke="transparent" points="275,-10 275,-30 295,-30 295,-10 275,-10"/>
<text text-anchor="start" x="298.73" y="-15.4" font-family="Times-12" font-size="14.00"> &#160;Module</text>
<polygon fill="#80b1d3" stroke="transparent" points="361,-10 361,-30 381,-30 381,-10 361,-10"/>
<text text-anchor="start" x="384.78" y="-15.4" font-family="Times-12" font-size="14.00"> &#160;Bootstrap</text>
<polygon fill="#fdb462" stroke="transparent" points="458,-10 458,-30 478,-30 478,-10 458,-10"/>
<text text-anchor="start" x="481.67" y="-15.4" font-family="Times-12" font-size="14.00"> &#160;Providers</text>
<polygon fill="#fb8072" stroke="transparent" points="554,-10 554,-30 574,-30 574,-10 554,-10"/>
<text text-anchor="start" x="577.73" y="-15.4" font-family="Times-12" font-size="14.00"> &#160;Exports</text>
<g id="clust1" class="cluster">
<title>cluster_CliModule</title>
<polygon fill="none" stroke="black" stroke-dasharray="1,5" points="8,-70 8,-195 784,-195 784,-70 8,-70"/>
</g>
<g id="clust3" class="cluster">
<title>cluster_CliModule_imports</title>
<polygon fill="none" stroke="black" points="16,-78 16,-130 776,-130 776,-78 16,-78"/>
</g>
<!-- AgentsModule -->
<g id="node1" class="node">
<title>AgentsModule</title>
<polygon fill="#8dd3c7" stroke="black" points="767.71,-122 764.71,-126 743.71,-126 740.71,-122 668.29,-122 668.29,-86 767.71,-86 767.71,-122"/>
<text text-anchor="middle" x="718" y="-99.8" font-family="Times,serif" font-size="14.00">AgentsModule</text>
</g>
<!-- CliModule -->
<g id="node7" class="node">
<title>CliModule</title>
<polygon fill="#8dd3c7" stroke="black" points="455.17,-187 452.17,-191 431.17,-191 428.17,-187 378.83,-187 378.83,-151 455.17,-151 455.17,-187"/>
<text text-anchor="middle" x="417" y="-164.8" font-family="Times,serif" font-size="14.00">CliModule</text>
</g>
<!-- AgentsModule&#45;&gt;CliModule -->
<g id="edge1" class="edge">
<title>AgentsModule&#45;&gt;CliModule</title>
<path fill="none" stroke="black" d="M718,-122.28C718,-143.32 718,-175 718,-175 718,-175 465.43,-175 465.43,-175"/>
<polygon fill="black" stroke="black" points="465.43,-171.5 455.43,-175 465.43,-178.5 465.43,-171.5"/>
</g>
<!-- AuthModule -->
<g id="node2" class="node">
<title>AuthModule</title>
<polygon fill="#8dd3c7" stroke="black" points="650.55,-122 647.55,-126 626.55,-126 623.55,-122 563.45,-122 563.45,-86 650.55,-86 650.55,-122"/>
<text text-anchor="middle" x="607" y="-99.8" font-family="Times,serif" font-size="14.00">AuthModule</text>
</g>
<!-- AuthModule&#45;&gt;CliModule -->
<g id="edge2" class="edge">
<title>AuthModule&#45;&gt;CliModule</title>
<path fill="none" stroke="black" d="M607,-122.02C607,-139.37 607,-163 607,-163 607,-163 465.45,-163 465.45,-163"/>
<polygon fill="black" stroke="black" points="465.45,-159.5 455.45,-163 465.45,-166.5 465.45,-159.5"/>
</g>
<!-- BackendsModule -->
<g id="node3" class="node">
<title>BackendsModule</title>
<polygon fill="#8dd3c7" stroke="black" points="544.97,-122 541.97,-126 520.97,-126 517.97,-122 431.03,-122 431.03,-86 544.97,-86 544.97,-122"/>
<text text-anchor="middle" x="488" y="-99.8" font-family="Times,serif" font-size="14.00">BackendsModule</text>
</g>
<!-- BackendsModule&#45;&gt;CliModule -->
<g id="edge3" class="edge">
<title>BackendsModule&#45;&gt;CliModule</title>
<path fill="none" stroke="black" d="M443.17,-122.11C443.17,-122.11 443.17,-140.99 443.17,-140.99"/>
<polygon fill="black" stroke="black" points="439.67,-140.99 443.17,-150.99 446.67,-140.99 439.67,-140.99"/>
</g>
<!-- FactorydriveModule -->
<g id="node4" class="node">
<title>FactorydriveModule</title>
<polygon fill="#8dd3c7" stroke="black" points="412.58,-122 409.58,-126 388.58,-126 385.58,-122 281.42,-122 281.42,-86 412.58,-86 412.58,-122"/>
<text text-anchor="middle" x="347" y="-99.8" font-family="Times,serif" font-size="14.00">FactorydriveModule</text>
</g>
<!-- FactorydriveModule&#45;&gt;CliModule -->
<g id="edge4" class="edge">
<title>FactorydriveModule&#45;&gt;CliModule</title>
<path fill="none" stroke="black" d="M395.6,-122.11C395.6,-122.11 395.6,-140.99 395.6,-140.99"/>
<polygon fill="black" stroke="black" points="392.1,-140.99 395.6,-150.99 399.1,-140.99 392.1,-140.99"/>
</g>
<!-- IdentitiesModule -->
<g id="node5" class="node">
<title>IdentitiesModule</title>
<polygon fill="#8dd3c7" stroke="black" points="263.65,-122 260.65,-126 239.65,-126 236.65,-122 152.35,-122 152.35,-86 263.65,-86 263.65,-122"/>
<text text-anchor="middle" x="208" y="-99.8" font-family="Times,serif" font-size="14.00">IdentitiesModule</text>
</g>
<!-- IdentitiesModule&#45;&gt;CliModule -->
<g id="edge5" class="edge">
<title>IdentitiesModule&#45;&gt;CliModule</title>
<path fill="none" stroke="black" d="M208,-122.02C208,-139.37 208,-163 208,-163 208,-163 368.67,-163 368.67,-163"/>
<polygon fill="black" stroke="black" points="368.67,-166.5 378.67,-163 368.67,-159.5 368.67,-166.5"/>
</g>
<!-- KeyringsModule -->
<g id="node6" class="node">
<title>KeyringsModule</title>
<polygon fill="#8dd3c7" stroke="black" points="134.37,-122 131.37,-126 110.37,-126 107.37,-122 23.63,-122 23.63,-86 134.37,-86 134.37,-122"/>
<text text-anchor="middle" x="79" y="-99.8" font-family="Times,serif" font-size="14.00">KeyringsModule</text>
</g>
<!-- KeyringsModule&#45;&gt;CliModule -->
<g id="edge6" class="edge">
<title>KeyringsModule&#45;&gt;CliModule</title>
<path fill="none" stroke="black" d="M79,-122.28C79,-143.32 79,-175 79,-175 79,-175 368.56,-175 368.56,-175"/>
<polygon fill="black" stroke="black" points="368.56,-178.5 378.56,-175 368.56,-171.5 368.56,-178.5"/>
</g>
</g>
</svg>
