<?xml version="1.0" encoding="UTF-8" standalone="no"?>
<!DOCTYPE svg PUBLIC "-//W3C//DTD SVG 1.1//EN"
 "http://www.w3.org/Graphics/SVG/1.1/DTD/svg11.dtd">
<!-- Generated by graphviz version 2.47.0 (20210316.0004)
 -->
<!-- Title: dependencies Pages: 1 -->
<svg width="504pt" height="211pt"
 viewBox="0.00 0.00 504.00 211.00" xmlns="http://www.w3.org/2000/svg" xmlns:xlink="http://www.w3.org/1999/xlink">
<g id="graph0" class="graph" transform="scale(1 1) rotate(0) translate(4 207)">
<title>dependencies</title>
<polygon fill="white" stroke="transparent" points="-4,4 -4,-207 500,-207 500,4 -4,4"/>
<text text-anchor="start" x="227.01" y="-42.4" font-family="Times-12" font-weight="bold" font-size="14.00">Legend</text>
<polygon fill="#ffffb3" stroke="transparent" points="14,-10 14,-30 34,-30 34,-10 14,-10"/>
<text text-anchor="start" x="37.63" y="-15.4" font-family="Times-12" font-size="14.00"> &#160;Declarations</text>
<polygon fill="#8dd3c7" stroke="transparent" points="127,-10 127,-30 147,-30 147,-10 127,-10"/>
<text text-anchor="start" x="150.73" y="-15.4" font-family="Times-12" font-size="14.00"> &#160;Module</text>
<polygon fill="#80b1d3" stroke="transparent" points="213,-10 213,-30 233,-30 233,-10 213,-10"/>
<text text-anchor="start" x="236.78" y="-15.4" font-family="Times-12" font-size="14.00"> &#160;Bootstrap</text>
<polygon fill="#fdb462" stroke="transparent" points="310,-10 310,-30 330,-30 330,-10 310,-10"/>
<text text-anchor="start" x="333.67" y="-15.4" font-family="Times-12" font-size="14.00"> &#160;Providers</text>
<polygon fill="#fb8072" stroke="transparent" points="406,-10 406,-30 426,-30 426,-10 406,-10"/>
<text text-anchor="start" x="429.73" y="-15.4" font-family="Times-12" font-size="14.00"> &#160;Exports</text>
<g id="clust1" class="cluster">
<title>cluster_CliModule</title>
<polygon fill="none" stroke="black" stroke-dasharray="1,5" points="52,-70 52,-195 444,-195 444,-70 52,-70"/>
</g>
<g id="clust3" class="cluster">
<title>cluster_CliModule_imports</title>
<polygon fill="none" stroke="black" points="60,-78 60,-130 436,-130 436,-78 60,-78"/>
</g>
<!-- AgentsModule -->
<g id="node1" class="node">
<title>AgentsModule</title>
<polygon fill="#8dd3c7" stroke="black" points="427.71,-122 424.71,-126 403.71,-126 400.71,-122 328.29,-122 328.29,-86 427.71,-86 427.71,-122"/>
<text text-anchor="middle" x="378" y="-99.8" font-family="Times,serif" font-size="14.00">AgentsModule</text>
</g>
<!-- CliModule -->
<g id="node4" class="node">
<title>CliModule</title>
<polygon fill="#8dd3c7" stroke="black" points="291.17,-187 288.17,-191 267.17,-191 264.17,-187 214.83,-187 214.83,-151 291.17,-151 291.17,-187"/>
<text text-anchor="middle" x="253" y="-164.8" font-family="Times,serif" font-size="14.00">CliModule</text>
</g>
<!-- AgentsModule&#45;&gt;CliModule -->
<g id="edge1" class="edge">
<title>AgentsModule&#45;&gt;CliModule</title>
<path fill="none" stroke="black" d="M378,-122.11C378,-141.34 378,-169 378,-169 378,-169 301.18,-169 301.18,-169"/>
<polygon fill="black" stroke="black" points="301.18,-165.5 291.18,-169 301.18,-172.5 301.18,-165.5"/>
</g>
<!-- BackendsModule -->
<g id="node2" class="node">
<title>BackendsModule</title>
<polygon fill="#8dd3c7" stroke="black" points="309.97,-122 306.97,-126 285.97,-126 282.97,-122 196.03,-122 196.03,-86 309.97,-86 309.97,-122"/>
<text text-anchor="middle" x="253" y="-99.8" font-family="Times,serif" font-size="14.00">BackendsModule</text>
</g>
<!-- BackendsModule&#45;&gt;CliModule -->
<g id="edge2" class="edge">
<title>BackendsModule&#45;&gt;CliModule</title>
<path fill="none" stroke="black" d="M253,-122.11C253,-122.11 253,-140.99 253,-140.99"/>
<polygon fill="black" stroke="black" points="249.5,-140.99 253,-150.99 256.5,-140.99 249.5,-140.99"/>
</g>
<!-- KeyringsModule -->
<g id="node3" class="node">
<title>KeyringsModule</title>
<polygon fill="#8dd3c7" stroke="black" points="178.37,-122 175.37,-126 154.37,-126 151.37,-122 67.63,-122 67.63,-86 178.37,-86 178.37,-122"/>
<text text-anchor="middle" x="123" y="-99.8" font-family="Times,serif" font-size="14.00">KeyringsModule</text>
</g>
<!-- KeyringsModule&#45;&gt;CliModule -->
<g id="edge3" class="edge">
<title>KeyringsModule&#45;&gt;CliModule</title>
<path fill="none" stroke="black" d="M123,-122.11C123,-141.34 123,-169 123,-169 123,-169 204.7,-169 204.7,-169"/>
<polygon fill="black" stroke="black" points="204.7,-172.5 214.7,-169 204.7,-165.5 204.7,-172.5"/>
</g>
</g>
</svg>
