<?xml version="1.0" encoding="UTF-8" standalone="no"?>
<!DOCTYPE svg PUBLIC "-//W3C//DTD SVG 1.1//EN"
 "http://www.w3.org/Graphics/SVG/1.1/DTD/svg11.dtd">
<!-- Generated by graphviz version 2.47.0 (20210316.0004)
 -->
<!-- Title: dependencies Pages: 1 -->
<svg width="504pt" height="284pt"
 viewBox="0.00 0.00 504.00 284.00" xmlns="http://www.w3.org/2000/svg" xmlns:xlink="http://www.w3.org/1999/xlink">
<g id="graph0" class="graph" transform="scale(1 1) rotate(0) translate(4 280)">
<title>dependencies</title>
<polygon fill="white" stroke="transparent" points="-4,4 -4,-280 500,-280 500,4 -4,4"/>
<text text-anchor="start" x="227.01" y="-42.4" font-family="Times-12" font-weight="bold" font-size="14.00">Legend</text>
<polygon fill="#ffffb3" stroke="transparent" points="14,-10 14,-30 34,-30 34,-10 14,-10"/>
<text text-anchor="start" x="37.63" y="-15.4" font-family="Times-12" font-size="14.00"> &#160;Declarations</text>
<polygon fill="#8dd3c7" stroke="transparent" points="127,-10 127,-30 147,-30 147,-10 127,-10"/>
<text text-anchor="start" x="150.73" y="-15.4" font-family="Times-12" font-size="14.00"> &#160;Module</text>
<polygon fill="#80b1d3" stroke="transparent" points="213,-10 213,-30 233,-30 233,-10 213,-10"/>
<text text-anchor="start" x="236.78" y="-15.4" font-family="Times-12" font-size="14.00"> &#160;Bootstrap</text>
<polygon fill="#fdb462" stroke="transparent" points="310,-10 310,-30 330,-30 330,-10 310,-10"/>
<text text-anchor="start" x="333.67" y="-15.4" font-family="Times-12" font-size="14.00"> &#160;Providers</text>
<polygon fill="#fb8072" stroke="transparent" points="406,-10 406,-30 426,-30 426,-10 406,-10"/>
<text text-anchor="start" x="429.73" y="-15.4" font-family="Times-12" font-size="14.00"> &#160;Exports</text>
<g id="clust1" class="cluster">
<title>cluster_LifecycleModule</title>
<polygon fill="none" stroke="black" stroke-dasharray="1,5" points="88,-70 88,-268 408,-268 408,-70 88,-70"/>
</g>
<g id="clust6" class="cluster">
<title>cluster_LifecycleModule_providers</title>
<polygon fill="none" stroke="black" points="232,-78 232,-130 400,-130 400,-78 232,-78"/>
</g>
<g id="clust4" class="cluster">
<title>cluster_LifecycleModule_exports</title>
<polygon fill="none" stroke="black" points="173,-208 173,-260 303,-260 303,-208 173,-208"/>
</g>
<g id="clust3" class="cluster">
<title>cluster_LifecycleModule_imports</title>
<polygon fill="none" stroke="black" points="96,-78 96,-130 224,-130 224,-78 96,-78"/>
</g>
<!-- IdentitiesModule -->
<g id="node1" class="node">
<title>IdentitiesModule</title>
<polygon fill="#8dd3c7" stroke="black" points="215.65,-122 212.65,-126 191.65,-126 188.65,-122 104.35,-122 104.35,-86 215.65,-86 215.65,-122"/>
<text text-anchor="middle" x="160" y="-99.8" font-family="Times,serif" font-size="14.00">IdentitiesModule</text>
</g>
<!-- LifecycleModule -->
<g id="node2" class="node">
<title>LifecycleModule</title>
<polygon fill="#8dd3c7" stroke="black" points="294.4,-187 291.4,-191 270.4,-191 267.4,-187 181.6,-187 181.6,-151 294.4,-151 294.4,-187"/>
<text text-anchor="middle" x="238" y="-164.8" font-family="Times,serif" font-size="14.00">LifecycleModule</text>
</g>
<!-- IdentitiesModule&#45;&gt;LifecycleModule -->
<g id="edge1" class="edge">
<title>IdentitiesModule&#45;&gt;LifecycleModule</title>
<path fill="none" stroke="black" d="M198.81,-122.11C198.81,-122.11 198.81,-140.99 198.81,-140.99"/>
<polygon fill="black" stroke="black" points="195.31,-140.99 198.81,-150.99 202.31,-140.99 195.31,-140.99"/>
</g>
<!-- LifecycleService  -->
<g id="node3" class="node">
<title>LifecycleService </title>
<polygon fill="#fb8072" stroke="black" points="295.33,-252 180.67,-252 180.67,-216 295.33,-216 295.33,-252"/>
<text text-anchor="middle" x="238" y="-229.8" font-family="Times,serif" font-size="14.00">LifecycleService </text>
</g>
<!-- LifecycleModule&#45;&gt;LifecycleService  -->
<g id="edge2" class="edge">
<title>LifecycleModule&#45;&gt;LifecycleService </title>
<path fill="none" stroke="black" stroke-dasharray="5,2" d="M238,-187.11C238,-187.11 238,-205.99 238,-205.99"/>
<polygon fill="black" stroke="black" points="234.5,-205.99 238,-215.99 241.5,-205.99 234.5,-205.99"/>
</g>
<!-- LifecycleService -->
<g id="node4" class="node">
<title>LifecycleService</title>
<ellipse fill="#fdb462" stroke="black" cx="316" cy="-104" rx="76.4" ry="18"/>
<text text-anchor="middle" x="316" y="-99.8" font-family="Times,serif" font-size="14.00">LifecycleService</text>
</g>
<!-- LifecycleService&#45;&gt;LifecycleModule -->
<g id="edge3" class="edge">
<title>LifecycleService&#45;&gt;LifecycleModule</title>
<path fill="none" stroke="black" d="M266.88,-118.1C266.88,-118.1 266.88,-140.72 266.88,-140.72"/>
<polygon fill="black" stroke="black" points="263.38,-140.72 266.88,-150.72 270.38,-140.72 263.38,-140.72"/>
</g>
</g>
</svg>
