<?xml version="1.0" encoding="UTF-8" standalone="no"?>
<!DOCTYPE svg PUBLIC "-//W3C//DTD SVG 1.1//EN"
 "http://www.w3.org/Graphics/SVG/1.1/DTD/svg11.dtd">
<!-- Generated by graphviz version 2.47.0 (20210316.0004)
 -->
<!-- Title: dependencies Pages: 1 -->
<svg width="504pt" height="284pt"
 viewBox="0.00 0.00 504.00 284.00" xmlns="http://www.w3.org/2000/svg" xmlns:xlink="http://www.w3.org/1999/xlink">
<g id="graph0" class="graph" transform="scale(1 1) rotate(0) translate(4 280)">
<title>dependencies</title>
<polygon fill="white" stroke="transparent" points="-4,4 -4,-280 500,-280 500,4 -4,4"/>
<text text-anchor="start" x="227.01" y="-42.4" font-family="Times-12" font-weight="bold" font-size="14.00">Legend</text>
<polygon fill="#ffffb3" stroke="transparent" points="14,-10 14,-30 34,-30 34,-10 14,-10"/>
<text text-anchor="start" x="37.63" y="-15.4" font-family="Times-12" font-size="14.00"> &#160;Declarations</text>
<polygon fill="#8dd3c7" stroke="transparent" points="127,-10 127,-30 147,-30 147,-10 127,-10"/>
<text text-anchor="start" x="150.73" y="-15.4" font-family="Times-12" font-size="14.00"> &#160;Module</text>
<polygon fill="#80b1d3" stroke="transparent" points="213,-10 213,-30 233,-30 233,-10 213,-10"/>
<text text-anchor="start" x="236.78" y="-15.4" font-family="Times-12" font-size="14.00"> &#160;Bootstrap</text>
<polygon fill="#fdb462" stroke="transparent" points="310,-10 310,-30 330,-30 330,-10 310,-10"/>
<text text-anchor="start" x="333.67" y="-15.4" font-family="Times-12" font-size="14.00"> &#160;Providers</text>
<polygon fill="#fb8072" stroke="transparent" points="406,-10 406,-30 426,-30 426,-10 406,-10"/>
<text text-anchor="start" x="429.73" y="-15.4" font-family="Times-12" font-size="14.00"> &#160;Exports</text>
<g id="clust1" class="cluster">
<title>cluster_LifecycleModule</title>
<polygon fill="none" stroke="black" stroke-dasharray="1,5" points="88,-70 88,-268 408,-268 408,-70 88,-70"/>
</g>
<g id="clust3" class="cluster">
<title>cluster_LifecycleModule_imports</title>
<polygon fill="none" stroke="black" points="272,-78 272,-130 400,-130 400,-78 272,-78"/>
</g>
<g id="clust4" class="cluster">
<title>cluster_LifecycleModule_exports</title>
<polygon fill="none" stroke="black" points="192,-208 192,-260 322,-260 322,-208 192,-208"/>
</g>
<g id="clust6" class="cluster">
<title>cluster_LifecycleModule_providers</title>
<polygon fill="none" stroke="black" points="96,-78 96,-130 264,-130 264,-78 96,-78"/>
</g>
<!-- IdentitiesModule -->
<g id="node1" class="node">
<title>IdentitiesModule</title>
<polygon fill="#8dd3c7" stroke="black" points="391.65,-122 388.65,-126 367.65,-126 364.65,-122 280.35,-122 280.35,-86 391.65,-86 391.65,-122"/>
<text text-anchor="middle" x="336" y="-99.8" font-family="Times,serif" font-size="14.00">IdentitiesModule</text>
</g>
<!-- LifecycleModule -->
<g id="node2" class="node">
<title>LifecycleModule</title>
<polygon fill="#8dd3c7" stroke="black" points="313.4,-187 310.4,-191 289.4,-191 286.4,-187 200.6,-187 200.6,-151 313.4,-151 313.4,-187"/>
<text text-anchor="middle" x="257" y="-164.8" font-family="Times,serif" font-size="14.00">LifecycleModule</text>
</g>
<!-- IdentitiesModule&#45;&gt;LifecycleModule -->
<g id="edge1" class="edge">
<title>IdentitiesModule&#45;&gt;LifecycleModule</title>
<path fill="none" stroke="black" d="M296.69,-122.11C296.69,-122.11 296.69,-140.99 296.69,-140.99"/>
<polygon fill="black" stroke="black" points="293.19,-140.99 296.69,-150.99 300.19,-140.99 293.19,-140.99"/>
</g>
<!-- LifecycleService  -->
<g id="node3" class="node">
<title>LifecycleService </title>
<polygon fill="#fb8072" stroke="black" points="314.33,-252 199.67,-252 199.67,-216 314.33,-216 314.33,-252"/>
<text text-anchor="middle" x="257" y="-229.8" font-family="Times,serif" font-size="14.00">LifecycleService </text>
</g>
<!-- LifecycleModule&#45;&gt;LifecycleService  -->
<g id="edge2" class="edge">
<title>LifecycleModule&#45;&gt;LifecycleService </title>
<path fill="none" stroke="black" stroke-dasharray="5,2" d="M257,-187.11C257,-187.11 257,-205.99 257,-205.99"/>
<polygon fill="black" stroke="black" points="253.5,-205.99 257,-215.99 260.5,-205.99 253.5,-205.99"/>
</g>
<!-- LifecycleService -->
<g id="node4" class="node">
<title>LifecycleService</title>
<ellipse fill="#fdb462" stroke="black" cx="180" cy="-104" rx="76.4" ry="18"/>
<text text-anchor="middle" x="180" y="-99.8" font-family="Times,serif" font-size="14.00">LifecycleService</text>
</g>
<!-- LifecycleService&#45;&gt;LifecycleModule -->
<g id="edge3" class="edge">
<title>LifecycleService&#45;&gt;LifecycleModule</title>
<path fill="none" stroke="black" d="M228.62,-118.1C228.62,-118.1 228.62,-140.72 228.62,-140.72"/>
<polygon fill="black" stroke="black" points="225.12,-140.72 228.62,-150.72 232.12,-140.72 225.12,-140.72"/>
</g>
</g>
</svg>
