<?xml version="1.0" encoding="UTF-8" standalone="no"?>
<!DOCTYPE svg PUBLIC "-//W3C//DTD SVG 1.1//EN"
 "http://www.w3.org/Graphics/SVG/1.1/DTD/svg11.dtd">
<!-- Generated by graphviz version 2.47.0 (20210316.0004)
 -->
<!-- Title: dependencies Pages: 1 -->
<svg width="719pt" height="284pt"
 viewBox="0.00 0.00 719.00 284.00" xmlns="http://www.w3.org/2000/svg" xmlns:xlink="http://www.w3.org/1999/xlink">
<g id="graph0" class="graph" transform="scale(1 1) rotate(0) translate(4 280)">
<title>dependencies</title>
<polygon fill="white" stroke="transparent" points="-4,4 -4,-280 715,-280 715,4 -4,4"/>
<text text-anchor="start" x="334.51" y="-42.4" font-family="Times-12" font-weight="bold" font-size="14.00">Legend</text>
<polygon fill="#ffffb3" stroke="transparent" points="121.5,-10 121.5,-30 141.5,-30 141.5,-10 121.5,-10"/>
<text text-anchor="start" x="145.13" y="-15.4" font-family="Times-12" font-size="14.00"> &#160;Declarations</text>
<polygon fill="#8dd3c7" stroke="transparent" points="234.5,-10 234.5,-30 254.5,-30 254.5,-10 234.5,-10"/>
<text text-anchor="start" x="258.23" y="-15.4" font-family="Times-12" font-size="14.00"> &#160;Module</text>
<polygon fill="#80b1d3" stroke="transparent" points="320.5,-10 320.5,-30 340.5,-30 340.5,-10 320.5,-10"/>
<text text-anchor="start" x="344.28" y="-15.4" font-family="Times-12" font-size="14.00"> &#160;Bootstrap</text>
<polygon fill="#fdb462" stroke="transparent" points="417.5,-10 417.5,-30 437.5,-30 437.5,-10 417.5,-10"/>
<text text-anchor="start" x="441.17" y="-15.4" font-family="Times-12" font-size="14.00"> &#160;Providers</text>
<polygon fill="#fb8072" stroke="transparent" points="513.5,-10 513.5,-30 533.5,-30 533.5,-10 513.5,-10"/>
<text text-anchor="start" x="537.23" y="-15.4" font-family="Times-12" font-size="14.00"> &#160;Exports</text>
<g id="clust1" class="cluster">
<title>cluster_SettingsModule</title>
<polygon fill="none" stroke="black" stroke-dasharray="1,5" points="8,-70 8,-268 703,-268 703,-70 8,-70"/>
</g>
<g id="clust4" class="cluster">
<title>cluster_SettingsModule_exports</title>
<polygon fill="none" stroke="black" points="146,-208 146,-260 548,-260 548,-208 146,-208"/>
</g>
<g id="clust6" class="cluster">
<title>cluster_SettingsModule_providers</title>
<polygon fill="none" stroke="black" points="16,-78 16,-130 695,-130 695,-78 16,-78"/>
</g>
<!-- MailadmService  -->
<g id="node1" class="node">
<title>MailadmService </title>
<polygon fill="#fb8072" stroke="black" points="540.02,-252 427.98,-252 427.98,-216 540.02,-216 540.02,-252"/>
<text text-anchor="middle" x="484" y="-229.8" font-family="Times,serif" font-size="14.00">MailadmService </text>
</g>
<!-- PasswdadmService  -->
<g id="node2" class="node">
<title>PasswdadmService </title>
<polygon fill="#fb8072" stroke="black" points="409.58,-252 282.42,-252 282.42,-216 409.58,-216 409.58,-252"/>
<text text-anchor="middle" x="346" y="-229.8" font-family="Times,serif" font-size="14.00">PasswdadmService </text>
</g>
<!-- SmsadmService  -->
<g id="node3" class="node">
<title>SmsadmService </title>
<polygon fill="#fb8072" stroke="black" points="263.7,-252 154.3,-252 154.3,-216 263.7,-216 263.7,-252"/>
<text text-anchor="middle" x="209" y="-229.8" font-family="Times,serif" font-size="14.00">SmsadmService </text>
</g>
<!-- SettingsModule -->
<g id="node4" class="node">
<title>SettingsModule</title>
<polygon fill="#8dd3c7" stroke="black" points="398.16,-187 395.16,-191 374.16,-191 371.16,-187 293.84,-187 293.84,-151 398.16,-151 398.16,-187"/>
<text text-anchor="middle" x="346" y="-164.8" font-family="Times,serif" font-size="14.00">SettingsModule</text>
</g>
<!-- SettingsModule&#45;&gt;MailadmService  -->
<g id="edge1" class="edge">
<title>SettingsModule&#45;&gt;MailadmService </title>
<path fill="none" stroke="black" stroke-dasharray="5,2" d="M398.34,-175C433.63,-175 473.79,-175 473.79,-175 473.79,-175 473.79,-205.98 473.79,-205.98"/>
<polygon fill="black" stroke="black" points="470.29,-205.98 473.79,-215.98 477.29,-205.98 470.29,-205.98"/>
</g>
<!-- SettingsModule&#45;&gt;PasswdadmService  -->
<g id="edge2" class="edge">
<title>SettingsModule&#45;&gt;PasswdadmService </title>
<path fill="none" stroke="black" stroke-dasharray="5,2" d="M346,-187.11C346,-187.11 346,-205.99 346,-205.99"/>
<polygon fill="black" stroke="black" points="342.5,-205.99 346,-215.99 349.5,-205.99 342.5,-205.99"/>
</g>
<!-- SettingsModule&#45;&gt;SmsadmService  -->
<g id="edge3" class="edge">
<title>SettingsModule&#45;&gt;SmsadmService </title>
<path fill="none" stroke="black" stroke-dasharray="5,2" d="M293.66,-175C261.29,-175 225.87,-175 225.87,-175 225.87,-175 225.87,-205.98 225.87,-205.98"/>
<polygon fill="black" stroke="black" points="222.37,-205.98 225.87,-215.98 229.37,-205.98 222.37,-205.98"/>
</g>
<!-- MailadmService -->
<g id="node5" class="node">
<title>MailadmService</title>
<ellipse fill="#fdb462" stroke="black" cx="612" cy="-104" rx="74.71" ry="18"/>
<text text-anchor="middle" x="612" y="-99.8" font-family="Times,serif" font-size="14.00">MailadmService</text>
</g>
<!-- MailadmService&#45;&gt;SettingsModule -->
<g id="edge4" class="edge">
<title>MailadmService&#45;&gt;SettingsModule</title>
<path fill="none" stroke="black" d="M613.43,-122.02C613.43,-139.37 613.43,-163 613.43,-163 613.43,-163 408.2,-163 408.2,-163"/>
<polygon fill="black" stroke="black" points="408.2,-159.5 398.2,-163 408.2,-166.5 408.2,-159.5"/>
</g>
<!-- PasswdadmService -->
<g id="node6" class="node">
<title>PasswdadmService</title>
<ellipse fill="#fdb462" stroke="black" cx="434" cy="-104" rx="85.67" ry="18"/>
<text text-anchor="middle" x="434" y="-99.8" font-family="Times,serif" font-size="14.00">PasswdadmService</text>
</g>
<!-- PasswdadmService&#45;&gt;SettingsModule -->
<g id="edge5" class="edge">
<title>PasswdadmService&#45;&gt;SettingsModule</title>
<path fill="none" stroke="black" d="M373.37,-116.84C373.37,-116.84 373.37,-140.52 373.37,-140.52"/>
<polygon fill="black" stroke="black" points="369.87,-140.52 373.37,-150.52 376.87,-140.52 369.87,-140.52"/>
</g>
<!-- SettingsService -->
<g id="node7" class="node">
<title>SettingsService</title>
<ellipse fill="#fdb462" stroke="black" cx="259" cy="-104" rx="71.22" ry="18"/>
<text text-anchor="middle" x="259" y="-99.8" font-family="Times,serif" font-size="14.00">SettingsService</text>
</g>
<!-- SettingsService&#45;&gt;SettingsModule -->
<g id="edge6" class="edge">
<title>SettingsService&#45;&gt;SettingsModule</title>
<path fill="none" stroke="black" d="M311.89,-116.23C311.89,-116.23 311.89,-140.68 311.89,-140.68"/>
<polygon fill="black" stroke="black" points="308.39,-140.68 311.89,-150.68 315.39,-140.68 308.39,-140.68"/>
</g>
<!-- SmsadmService -->
<g id="node8" class="node">
<title>SmsadmService</title>
<ellipse fill="#fdb462" stroke="black" cx="97" cy="-104" rx="73.01" ry="18"/>
<text text-anchor="middle" x="97" y="-99.8" font-family="Times,serif" font-size="14.00">SmsadmService</text>
</g>
<!-- SmsadmService&#45;&gt;SettingsModule -->
<g id="edge7" class="edge">
<title>SmsadmService&#45;&gt;SettingsModule</title>
<path fill="none" stroke="black" d="M162.2,-112.45C162.2,-128.77 162.2,-163 162.2,-163 162.2,-163 283.82,-163 283.82,-163"/>
<polygon fill="black" stroke="black" points="283.82,-166.5 293.82,-163 283.82,-159.5 283.82,-166.5"/>
</g>
</g>
</svg>
