<?xml version="1.0" encoding="UTF-8" standalone="no"?>
<!DOCTYPE svg PUBLIC "-//W3C//DTD SVG 1.1//EN"
 "http://www.w3.org/Graphics/SVG/1.1/DTD/svg11.dtd">
<!-- Generated by graphviz version 2.47.0 (20210316.0004)
 -->
<!-- Title: dependencies Pages: 1 -->
<svg width="2119pt" height="431pt"
 viewBox="0.00 0.00 2119.00 431.00" xmlns="http://www.w3.org/2000/svg" xmlns:xlink="http://www.w3.org/1999/xlink">
<g id="graph0" class="graph" transform="scale(1 1) rotate(0) translate(4 427)">
<title>dependencies</title>
<polygon fill="white" stroke="transparent" points="-4,4 -4,-427 2115,-427 2115,4 -4,4"/>
<text text-anchor="start" x="1034.51" y="-42.4" font-family="Times-12" font-weight="bold" font-size="14.00">Legend</text>
<polygon fill="#ffffb3" stroke="transparent" points="821.5,-10 821.5,-30 841.5,-30 841.5,-10 821.5,-10"/>
<text text-anchor="start" x="845.13" y="-15.4" font-family="Times-12" font-size="14.00"> &#160;Declarations</text>
<polygon fill="#8dd3c7" stroke="transparent" points="934.5,-10 934.5,-30 954.5,-30 954.5,-10 934.5,-10"/>
<text text-anchor="start" x="958.23" y="-15.4" font-family="Times-12" font-size="14.00"> &#160;Module</text>
<polygon fill="#80b1d3" stroke="transparent" points="1020.5,-10 1020.5,-30 1040.5,-30 1040.5,-10 1020.5,-10"/>
<text text-anchor="start" x="1044.28" y="-15.4" font-family="Times-12" font-size="14.00"> &#160;Bootstrap</text>
<polygon fill="#fdb462" stroke="transparent" points="1117.5,-10 1117.5,-30 1137.5,-30 1137.5,-10 1117.5,-10"/>
<text text-anchor="start" x="1141.17" y="-15.4" font-family="Times-12" font-size="14.00"> &#160;Providers</text>
<polygon fill="#fb8072" stroke="transparent" points="1213.5,-10 1213.5,-30 1233.5,-30 1233.5,-10 1213.5,-10"/>
<text text-anchor="start" x="1237.23" y="-15.4" font-family="Times-12" font-size="14.00"> &#160;Exports</text>
<g id="clust1" class="cluster">
<title>cluster_AgentsModule</title>
<polygon fill="none" stroke="black" stroke-dasharray="1,5" points="8,-70 8,-282 174,-282 174,-70 8,-70"/>
</g>
<g id="clust4" class="cluster">
<title>cluster_AgentsModule_exports</title>
<polygon fill="none" stroke="black" points="26,-222 26,-274 144,-274 144,-222 26,-222"/>
</g>
<g id="clust6" class="cluster">
<title>cluster_AgentsModule_providers</title>
<polygon fill="none" stroke="black" points="16,-78 16,-130 166,-130 166,-78 16,-78"/>
</g>
<g id="clust7" class="cluster">
<title>cluster_AppModule</title>
<polygon fill="none" stroke="black" stroke-dasharray="1,5" points="763,-290 763,-415 1170,-415 1170,-290 763,-290"/>
</g>
<g id="clust9" class="cluster">
<title>cluster_AppModule_imports</title>
<polygon fill="none" stroke="black" points="909,-298 909,-350 1162,-350 1162,-298 909,-298"/>
</g>
<g id="clust12" class="cluster">
<title>cluster_AppModule_providers</title>
<polygon fill="none" stroke="black" points="771,-298 771,-350 901,-350 901,-298 771,-298"/>
</g>
<g id="clust13" class="cluster">
<title>cluster_AuthModule</title>
<polygon fill="none" stroke="black" stroke-dasharray="1,5" points="182,-138 182,-274 612,-274 612,-138 182,-138"/>
</g>
<g id="clust18" class="cluster">
<title>cluster_AuthModule_providers</title>
<polygon fill="none" stroke="black" points="190,-146 190,-198 604,-198 604,-146 190,-146"/>
</g>
<g id="clust19" class="cluster">
<title>cluster_BackendsModule</title>
<polygon fill="none" stroke="black" stroke-dasharray="1,5" points="620,-138 620,-274 808,-274 808,-138 620,-138"/>
</g>
<g id="clust24" class="cluster">
<title>cluster_BackendsModule_providers</title>
<polygon fill="none" stroke="black" points="628,-146 628,-198 800,-198 800,-146 628,-146"/>
</g>
<g id="clust25" class="cluster">
<title>cluster_CoreModule</title>
<polygon fill="none" stroke="black" stroke-dasharray="1,5" points="816,-214 816,-282 1218,-282 1218,-214 816,-214"/>
</g>
<g id="clust27" class="cluster">
<title>cluster_CoreModule_imports</title>
<polygon fill="none" stroke="black" points="966,-222 966,-274 1210,-274 1210,-222 966,-222"/>
</g>
<g id="clust30" class="cluster">
<title>cluster_CoreModule_providers</title>
<polygon fill="none" stroke="black" points="824,-222 824,-274 958,-274 958,-222 824,-222"/>
</g>
<g id="clust31" class="cluster">
<title>cluster_FormModule</title>
<polygon fill="none" stroke="black" stroke-dasharray="1,5" points="1814,-70 1814,-198 1968,-198 1968,-70 1814,-70"/>
</g>
<g id="clust36" class="cluster">
<title>cluster_FormModule_providers</title>
<polygon fill="none" stroke="black" points="1822,-78 1822,-130 1960,-130 1960,-78 1822,-78"/>
</g>
<g id="clust37" class="cluster">
<title>cluster_IdentitiesModule</title>
<polygon fill="none" stroke="black" stroke-dasharray="1,5" points="1235,-138 1235,-274 1671,-274 1671,-138 1235,-138"/>
</g>
<g id="clust42" class="cluster">
<title>cluster_IdentitiesModule_providers</title>
<polygon fill="none" stroke="black" points="1243,-146 1243,-198 1663,-198 1663,-146 1243,-146"/>
</g>
<g id="clust43" class="cluster">
<title>cluster_IdentitiesValidationModule</title>
<polygon fill="none" stroke="black" stroke-dasharray="1,5" points="1899,-222 1899,-358 2103,-358 2103,-222 1899,-222"/>
</g>
<g id="clust46" class="cluster">
<title>cluster_IdentitiesValidationModule_exports</title>
<polygon fill="none" stroke="black" points="1907,-298 1907,-350 2095,-350 2095,-298 1907,-298"/>
</g>
<g id="clust49" class="cluster">
<title>cluster_KeyringsModule</title>
<polygon fill="none" stroke="black" stroke-dasharray="1,5" points="869,-138 869,-206 1051,-206 1051,-138 869,-138"/>
</g>
<g id="clust54" class="cluster">
<title>cluster_KeyringsModule_providers</title>
<polygon fill="none" stroke="black" points="877,-146 877,-198 1043,-198 1043,-146 877,-146"/>
</g>
<g id="clust55" class="cluster">
<title>cluster_LoggerModule</title>
<polygon fill="none" stroke="black" stroke-dasharray="1,5" points="1059,-138 1059,-206 1227,-206 1227,-138 1059,-138"/>
</g>
<g id="clust60" class="cluster">
<title>cluster_LoggerModule_providers</title>
<polygon fill="none" stroke="black" points="1067,-146 1067,-198 1219,-198 1219,-146 1067,-146"/>
</g>
<g id="clust61" class="cluster">
<title>cluster_ManagementModule</title>
<polygon fill="none" stroke="black" stroke-dasharray="1,5" points="1679,-214 1679,-282 1891,-282 1891,-214 1679,-214"/>
</g>
<g id="clust66" class="cluster">
<title>cluster_ManagementModule_providers</title>
<polygon fill="none" stroke="black" points="1687,-222 1687,-274 1883,-274 1883,-222 1687,-222"/>
</g>
<!-- AgentsService  -->
<g id="node1" class="node">
<title>AgentsService </title>
<polygon fill="#fb8072" stroke="black" points="135.63,-266 34.37,-266 34.37,-230 135.63,-230 135.63,-266"/>
<text text-anchor="middle" x="85" y="-243.8" font-family="Times,serif" font-size="14.00">AgentsService </text>
</g>
<!-- AgentsModule -->
<g id="node2" class="node">
<title>AgentsModule</title>
<polygon fill="#8dd3c7" stroke="black" points="152.71,-190 149.71,-194 128.71,-194 125.71,-190 53.29,-190 53.29,-154 152.71,-154 152.71,-190"/>
<text text-anchor="middle" x="103" y="-167.8" font-family="Times,serif" font-size="14.00">AgentsModule</text>
</g>
<!-- AgentsModule&#45;&gt;AgentsService  -->
<g id="edge1" class="edge">
<title>AgentsModule&#45;&gt;AgentsService </title>
<path fill="none" stroke="black" stroke-dasharray="5,2" d="M94.48,-190.01C94.48,-190.01 94.48,-219.85 94.48,-219.85"/>
<polygon fill="black" stroke="black" points="90.98,-219.85 94.48,-229.85 97.98,-219.85 90.98,-219.85"/>
</g>
<!-- CoreModule -->
<g id="node4" class="node">
<title>CoreModule</title>
<polygon fill="#8dd3c7" stroke="black" points="1003.26,-342 1000.26,-346 979.26,-346 976.26,-342 916.74,-342 916.74,-306 1003.26,-306 1003.26,-342"/>
<text text-anchor="middle" x="960" y="-319.8" font-family="Times,serif" font-size="14.00">CoreModule</text>
</g>
<!-- AgentsModule&#45;&gt;CoreModule -->
<g id="edge11" class="edge">
<title>AgentsModule&#45;&gt;CoreModule</title>
<path fill="none" stroke="black" d="M141.25,-190.18C141.25,-223.28 141.25,-290 141.25,-290 141.25,-290 923.25,-290 923.25,-290 923.25,-290 923.25,-295.81 923.25,-295.81"/>
<polygon fill="black" stroke="black" points="919.75,-295.81 923.25,-305.81 926.75,-295.81 919.75,-295.81"/>
</g>
<!-- AuthModule -->
<g id="node8" class="node">
<title>AuthModule</title>
<polygon fill="#8dd3c7" stroke="black" points="446.55,-266 443.55,-270 422.55,-270 419.55,-266 359.45,-266 359.45,-230 446.55,-230 446.55,-266"/>
<text text-anchor="middle" x="403" y="-243.8" font-family="Times,serif" font-size="14.00">AuthModule</text>
</g>
<!-- AgentsModule&#45;&gt;AuthModule -->
<g id="edge6" class="edge">
<title>AgentsModule&#45;&gt;AuthModule</title>
<path fill="none" stroke="black" d="M146.92,-190.2C146.92,-214.36 146.92,-254 146.92,-254 146.92,-254 349.27,-254 349.27,-254"/>
<polygon fill="black" stroke="black" points="349.27,-257.5 359.27,-254 349.27,-250.5 349.27,-257.5"/>
</g>
<!-- AgentsService -->
<g id="node3" class="node">
<title>AgentsService</title>
<ellipse fill="#fdb462" stroke="black" cx="91" cy="-104" rx="67.19" ry="18"/>
<text text-anchor="middle" x="91" y="-99.8" font-family="Times,serif" font-size="14.00">AgentsService</text>
</g>
<!-- AgentsService&#45;&gt;AgentsModule -->
<g id="edge2" class="edge">
<title>AgentsService&#45;&gt;AgentsModule</title>
<path fill="none" stroke="black" d="M103,-121.87C103,-121.87 103,-143.54 103,-143.54"/>
<polygon fill="black" stroke="black" points="99.5,-143.54 103,-153.54 106.5,-143.54 99.5,-143.54"/>
</g>
<!-- AppModule -->
<g id="node6" class="node">
<title>AppModule</title>
<polygon fill="#8dd3c7" stroke="black" points="1001.66,-407 998.66,-411 977.66,-411 974.66,-407 918.34,-407 918.34,-371 1001.66,-371 1001.66,-407"/>
<text text-anchor="middle" x="960" y="-384.8" font-family="Times,serif" font-size="14.00">AppModule</text>
</g>
<!-- CoreModule&#45;&gt;AppModule -->
<g id="edge3" class="edge">
<title>CoreModule&#45;&gt;AppModule</title>
<path fill="none" stroke="black" d="M960,-342.11C960,-342.11 960,-360.99 960,-360.99"/>
<polygon fill="black" stroke="black" points="956.5,-360.99 960,-370.99 963.5,-360.99 956.5,-360.99"/>
</g>
<!-- ManagementModule -->
<g id="node5" class="node">
<title>ManagementModule</title>
<polygon fill="#8dd3c7" stroke="black" points="1154.13,-342 1151.13,-346 1130.13,-346 1127.13,-342 1021.87,-342 1021.87,-306 1154.13,-306 1154.13,-342"/>
<text text-anchor="middle" x="1088" y="-319.8" font-family="Times,serif" font-size="14.00">ManagementModule</text>
</g>
<!-- ManagementModule&#45;&gt;AppModule -->
<g id="edge4" class="edge">
<title>ManagementModule&#45;&gt;AppModule</title>
<path fill="none" stroke="black" d="M1088,-342.11C1088,-361.34 1088,-389 1088,-389 1088,-389 1011.91,-389 1011.91,-389"/>
<polygon fill="black" stroke="black" points="1011.91,-385.5 1001.91,-389 1011.91,-392.5 1011.91,-385.5"/>
</g>
<!-- AppService -->
<g id="node7" class="node">
<title>AppService</title>
<ellipse fill="#fdb462" stroke="black" cx="836" cy="-324" rx="56.74" ry="18"/>
<text text-anchor="middle" x="836" y="-319.8" font-family="Times,serif" font-size="14.00">AppService</text>
</g>
<!-- AppService&#45;&gt;AppModule -->
<g id="edge5" class="edge">
<title>AppService&#45;&gt;AppModule</title>
<path fill="none" stroke="black" d="M836,-342.11C836,-361.34 836,-389 836,-389 836,-389 908.02,-389 908.02,-389"/>
<polygon fill="black" stroke="black" points="908.02,-392.5 918.02,-389 908.02,-385.5 908.02,-392.5"/>
</g>
<!-- AuthModule&#45;&gt;CoreModule -->
<g id="edge12" class="edge">
<title>AuthModule&#45;&gt;CoreModule</title>
<path fill="none" stroke="black" d="M403,-266.19C403,-274.28 403,-282 403,-282 403,-282 929.88,-282 929.88,-282 929.88,-282 929.88,-295.94 929.88,-295.94"/>
<polygon fill="black" stroke="black" points="926.38,-295.94 929.88,-305.94 933.38,-295.94 926.38,-295.94"/>
</g>
<!-- AuthService -->
<g id="node9" class="node">
<title>AuthService</title>
<ellipse fill="#fdb462" stroke="black" cx="537" cy="-172" rx="59.11" ry="18"/>
<text text-anchor="middle" x="537" y="-167.8" font-family="Times,serif" font-size="14.00">AuthService</text>
</g>
<!-- AuthService&#45;&gt;AuthModule -->
<g id="edge7" class="edge">
<title>AuthService&#45;&gt;AuthModule</title>
<path fill="none" stroke="black" d="M537,-190.01C537,-212.49 537,-248 537,-248 537,-248 456.88,-248 456.88,-248"/>
<polygon fill="black" stroke="black" points="456.88,-244.5 446.88,-248 456.88,-251.5 456.88,-244.5"/>
</g>
<!-- JwtStrategy -->
<g id="node10" class="node">
<title>JwtStrategy</title>
<ellipse fill="#fdb462" stroke="black" cx="403" cy="-172" rx="56.76" ry="18"/>
<text text-anchor="middle" x="403" y="-167.8" font-family="Times,serif" font-size="14.00">JwtStrategy</text>
</g>
<!-- JwtStrategy&#45;&gt;AuthModule -->
<g id="edge8" class="edge">
<title>JwtStrategy&#45;&gt;AuthModule</title>
<path fill="none" stroke="black" d="M403,-190.01C403,-190.01 403,-219.85 403,-219.85"/>
<polygon fill="black" stroke="black" points="399.5,-219.85 403,-229.85 406.5,-219.85 399.5,-219.85"/>
</g>
<!-- LocalStrategy -->
<g id="node11" class="node">
<title>LocalStrategy</title>
<ellipse fill="#fdb462" stroke="black" cx="263" cy="-172" rx="65.41" ry="18"/>
<text text-anchor="middle" x="263" y="-167.8" font-family="Times,serif" font-size="14.00">LocalStrategy</text>
</g>
<!-- LocalStrategy&#45;&gt;AuthModule -->
<g id="edge9" class="edge">
<title>LocalStrategy&#45;&gt;AuthModule</title>
<path fill="none" stroke="black" d="M263,-190.03C263,-210.77 263,-242 263,-242 263,-242 349.09,-242 349.09,-242"/>
<polygon fill="black" stroke="black" points="349.09,-245.5 359.09,-242 349.09,-238.5 349.09,-245.5"/>
</g>
<!-- BackendsService -->
<g id="node12" class="node">
<title>BackendsService</title>
<ellipse fill="#fdb462" stroke="black" cx="714" cy="-172" rx="77.57" ry="18"/>
<text text-anchor="middle" x="714" y="-167.8" font-family="Times,serif" font-size="14.00">BackendsService</text>
</g>
<!-- BackendsModule -->
<g id="node13" class="node">
<title>BackendsModule</title>
<polygon fill="#8dd3c7" stroke="black" points="785.97,-266 782.97,-270 761.97,-270 758.97,-266 672.03,-266 672.03,-230 785.97,-230 785.97,-266"/>
<text text-anchor="middle" x="729" y="-243.8" font-family="Times,serif" font-size="14.00">BackendsModule</text>
</g>
<!-- BackendsService&#45;&gt;BackendsModule -->
<g id="edge10" class="edge">
<title>BackendsService&#45;&gt;BackendsModule</title>
<path fill="none" stroke="black" d="M729,-190.01C729,-190.01 729,-219.85 729,-219.85"/>
<polygon fill="black" stroke="black" points="725.5,-219.85 729,-229.85 732.5,-219.85 725.5,-219.85"/>
</g>
<!-- BackendsModule&#45;&gt;CoreModule -->
<g id="edge13" class="edge">
<title>BackendsModule&#45;&gt;CoreModule</title>
<path fill="none" stroke="black" d="M725.7,-266.06C725.7,-270.49 725.7,-274 725.7,-274 725.7,-274 936.5,-274 936.5,-274 936.5,-274 936.5,-295.95 936.5,-295.95"/>
<polygon fill="black" stroke="black" points="933.01,-295.95 936.5,-305.95 940.01,-295.95 933.01,-295.95"/>
</g>
<!-- KeyringsModule -->
<g id="node14" class="node">
<title>KeyringsModule</title>
<polygon fill="#8dd3c7" stroke="black" points="1084.37,-266 1081.37,-270 1060.37,-270 1057.37,-266 973.63,-266 973.63,-230 1084.37,-230 1084.37,-266"/>
<text text-anchor="middle" x="1029" y="-243.8" font-family="Times,serif" font-size="14.00">KeyringsModule</text>
</g>
<!-- KeyringsModule&#45;&gt;CoreModule -->
<g id="edge14" class="edge">
<title>KeyringsModule&#45;&gt;CoreModule</title>
<path fill="none" stroke="black" d="M983.5,-266.01C983.5,-266.01 983.5,-295.85 983.5,-295.85"/>
<polygon fill="black" stroke="black" points="980,-295.85 983.5,-305.85 987,-295.85 980,-295.85"/>
</g>
<!-- LoggerModule -->
<g id="node15" class="node">
<title>LoggerModule</title>
<polygon fill="#8dd3c7" stroke="black" points="1201.98,-266 1198.98,-270 1177.98,-270 1174.98,-266 1102.02,-266 1102.02,-230 1201.98,-230 1201.98,-266"/>
<text text-anchor="middle" x="1152" y="-243.8" font-family="Times,serif" font-size="14.00">LoggerModule</text>
</g>
<!-- LoggerModule&#45;&gt;CoreModule -->
<g id="edge15" class="edge">
<title>LoggerModule&#45;&gt;CoreModule</title>
<path fill="none" stroke="black" d="M1128.16,-266.05C1128.16,-280.37 1128.16,-298 1128.16,-298 1128.16,-298 993.44,-298 993.44,-298 993.44,-298 993.44,-298.79 993.44,-298.79"/>
<polygon fill="black" stroke="black" points="989.94,-295.94 993.44,-305.94 996.94,-295.94 989.94,-295.94"/>
</g>
<!-- CoreService -->
<g id="node16" class="node">
<title>CoreService</title>
<ellipse fill="#fdb462" stroke="black" cx="891" cy="-248" rx="58.53" ry="18"/>
<text text-anchor="middle" x="891" y="-243.8" font-family="Times,serif" font-size="14.00">CoreService</text>
</g>
<!-- CoreService&#45;&gt;CoreModule -->
<g id="edge16" class="edge">
<title>CoreService&#45;&gt;CoreModule</title>
<path fill="none" stroke="black" d="M943.13,-256.42C943.13,-256.42 943.13,-295.73 943.13,-295.73"/>
<polygon fill="black" stroke="black" points="939.63,-295.73 943.13,-305.73 946.63,-295.73 939.63,-295.73"/>
</g>
<!-- FormService -->
<g id="node17" class="node">
<title>FormService</title>
<ellipse fill="#fdb462" stroke="black" cx="1891" cy="-104" rx="60.83" ry="18"/>
<text text-anchor="middle" x="1891" y="-99.8" font-family="Times,serif" font-size="14.00">FormService</text>
</g>
<!-- FormModule -->
<g id="node18" class="node">
<title>FormModule</title>
<polygon fill="#8dd3c7" stroke="black" points="1935.88,-190 1932.88,-194 1911.88,-194 1908.88,-190 1846.12,-190 1846.12,-154 1935.88,-154 1935.88,-190"/>
<text text-anchor="middle" x="1891" y="-167.8" font-family="Times,serif" font-size="14.00">FormModule</text>
</g>
<!-- FormService&#45;&gt;FormModule -->
<g id="edge17" class="edge">
<title>FormService&#45;&gt;FormModule</title>
<path fill="none" stroke="black" d="M1891,-122.22C1891,-122.22 1891,-143.73 1891,-143.73"/>
<polygon fill="black" stroke="black" points="1887.5,-143.73 1891,-153.73 1894.5,-143.73 1887.5,-143.73"/>
</g>
<!-- IdentitiesService -->
<g id="node19" class="node">
<title>IdentitiesService</title>
<ellipse fill="#fdb462" stroke="black" cx="1327" cy="-172" rx="75.85" ry="18"/>
<text text-anchor="middle" x="1327" y="-167.8" font-family="Times,serif" font-size="14.00">IdentitiesService</text>
</g>
<!-- IdentitiesModule -->
<g id="node21" class="node">
<title>IdentitiesModule</title>
<polygon fill="#8dd3c7" stroke="black" points="1382.65,-266 1379.65,-270 1358.65,-270 1355.65,-266 1271.35,-266 1271.35,-230 1382.65,-230 1382.65,-266"/>
<text text-anchor="middle" x="1327" y="-243.8" font-family="Times,serif" font-size="14.00">IdentitiesModule</text>
</g>
<!-- IdentitiesService&#45;&gt;IdentitiesModule -->
<g id="edge18" class="edge">
<title>IdentitiesService&#45;&gt;IdentitiesModule</title>
<path fill="none" stroke="black" d="M1327,-190.01C1327,-190.01 1327,-219.85 1327,-219.85"/>
<polygon fill="black" stroke="black" points="1323.5,-219.85 1327,-229.85 1330.5,-219.85 1323.5,-219.85"/>
</g>
<!-- IdentitiesValidationService -->
<g id="node20" class="node">
<title>IdentitiesValidationService</title>
<ellipse fill="#fdb462" stroke="black" cx="1538" cy="-172" rx="116.88" ry="18"/>
<text text-anchor="middle" x="1538" y="-167.8" font-family="Times,serif" font-size="14.00">IdentitiesValidationService</text>
</g>
<!-- IdentitiesValidationService&#45;&gt;IdentitiesModule -->
<g id="edge19" class="edge">
<title>IdentitiesValidationService&#45;&gt;IdentitiesModule</title>
<path fill="none" stroke="black" d="M1576.9,-189.25C1576.9,-211.67 1576.9,-248 1576.9,-248 1576.9,-248 1392.77,-248 1392.77,-248"/>
<polygon fill="black" stroke="black" points="1392.77,-244.5 1382.77,-248 1392.77,-251.5 1392.77,-244.5"/>
</g>
<!-- IdentitiesValidationModule -->
<g id="node23" class="node">
<title>IdentitiesValidationModule</title>
<polygon fill="#8dd3c7" stroke="black" points="2081.24,-266 2078.24,-270 2057.24,-270 2054.24,-266 1910.76,-266 1910.76,-230 2081.24,-230 2081.24,-266"/>
<text text-anchor="middle" x="1996" y="-243.8" font-family="Times,serif" font-size="14.00">IdentitiesValidationModule</text>
</g>
<!-- IdentitiesValidationService&#45;&gt;IdentitiesValidationModule -->
<g id="edge21" class="edge">
<title>IdentitiesValidationService&#45;&gt;IdentitiesValidationModule</title>
<path fill="none" stroke="black" d="M1499.1,-189.22C1499.1,-199.28 1499.1,-210 1499.1,-210 1499.1,-210 1923.28,-210 1923.28,-210 1923.28,-210 1923.28,-219.89 1923.28,-219.89"/>
<polygon fill="black" stroke="black" points="1919.78,-219.89 1923.28,-229.89 1926.78,-219.89 1919.78,-219.89"/>
</g>
<!-- IdentitiesModule&#45;&gt;ManagementModule -->
<g id="edge24" class="edge">
<title>IdentitiesModule&#45;&gt;ManagementModule</title>
<path fill="none" stroke="black" d="M1327,-266.03C1327,-286.77 1327,-318 1327,-318 1327,-318 1164.26,-318 1164.26,-318"/>
<polygon fill="black" stroke="black" points="1164.26,-314.5 1154.26,-318 1164.26,-321.5 1164.26,-314.5"/>
</g>
<!-- IdentitiesValidationService  -->
<g id="node22" class="node">
<title>IdentitiesValidationService </title>
<polygon fill="#fb8072" stroke="black" points="2087.17,-342 1914.83,-342 1914.83,-306 2087.17,-306 2087.17,-342"/>
<text text-anchor="middle" x="2001" y="-319.8" font-family="Times,serif" font-size="14.00">IdentitiesValidationService </text>
</g>
<!-- IdentitiesValidationModule&#45;&gt;IdentitiesValidationService  -->
<g id="edge20" class="edge">
<title>IdentitiesValidationModule&#45;&gt;IdentitiesValidationService </title>
<path fill="none" stroke="black" stroke-dasharray="5,2" d="M1998.02,-266.01C1998.02,-266.01 1998.02,-295.85 1998.02,-295.85"/>
<polygon fill="black" stroke="black" points="1994.52,-295.85 1998.02,-305.85 2001.52,-295.85 1994.52,-295.85"/>
</g>
<!-- KeyringsService -->
<g id="node24" class="node">
<title>KeyringsService</title>
<ellipse fill="#fdb462" stroke="black" cx="960" cy="-172" rx="75.28" ry="18"/>
<text text-anchor="middle" x="960" y="-167.8" font-family="Times,serif" font-size="14.00">KeyringsService</text>
</g>
<!-- KeyringsService&#45;&gt;KeyringsModule -->
<g id="edge22" class="edge">
<title>KeyringsService&#45;&gt;KeyringsModule</title>
<path fill="none" stroke="black" d="M1004.48,-186.65C1004.48,-186.65 1004.48,-219.9 1004.48,-219.9"/>
<polygon fill="black" stroke="black" points="1000.98,-219.9 1004.48,-229.9 1007.98,-219.9 1000.98,-219.9"/>
</g>
<!-- LoggerService -->
<g id="node25" class="node">
<title>LoggerService</title>
<ellipse fill="#fdb462" stroke="black" cx="1143" cy="-172" rx="67.76" ry="18"/>
<text text-anchor="middle" x="1143" y="-167.8" font-family="Times,serif" font-size="14.00">LoggerService</text>
</g>
<!-- LoggerService&#45;&gt;LoggerModule -->
<g id="edge23" class="edge">
<title>LoggerService&#45;&gt;LoggerModule</title>
<path fill="none" stroke="black" d="M1152,-190.01C1152,-190.01 1152,-219.85 1152,-219.85"/>
<polygon fill="black" stroke="black" points="1148.5,-219.85 1152,-229.85 1155.5,-219.85 1148.5,-219.85"/>
</g>
<!-- ManagementService -->
<g id="node26" class="node">
<title>ManagementService</title>
<ellipse fill="#fdb462" stroke="black" cx="1785" cy="-248" rx="90.31" ry="18"/>
<text text-anchor="middle" x="1785" y="-243.8" font-family="Times,serif" font-size="14.00">ManagementService</text>
</g>
<!-- ManagementService&#45;&gt;ManagementModule -->
<g id="edge25" class="edge">
<title>ManagementService&#45;&gt;ManagementModule</title>
<path fill="none" stroke="black" d="M1785,-266.2C1785,-290.36 1785,-330 1785,-330 1785,-330 1164.2,-330 1164.2,-330"/>
<polygon fill="black" stroke="black" points="1164.2,-326.5 1154.2,-330 1164.2,-333.5 1164.2,-326.5"/>
</g>
</g>
</svg>
