<?xml version="1.0" encoding="UTF-8" standalone="no"?>
<!DOCTYPE svg PUBLIC "-//W3C//DTD SVG 1.1//EN"
 "http://www.w3.org/Graphics/SVG/1.1/DTD/svg11.dtd">
<!-- Generated by graphviz version 2.47.0 (20210316.0004)
 -->
<!-- Title: dependencies Pages: 1 -->
<svg width="2904pt" height="583pt"
 viewBox="0.00 0.00 2904.00 583.00" xmlns="http://www.w3.org/2000/svg" xmlns:xlink="http://www.w3.org/1999/xlink">
<g id="graph0" class="graph" transform="scale(1 1) rotate(0) translate(4 579)">
<title>dependencies</title>
<polygon fill="white" stroke="transparent" points="-4,4 -4,-579 2900,-579 2900,4 -4,4"/>
<text text-anchor="start" x="1427.01" y="-42.4" font-family="Times-12" font-weight="bold" font-size="14.00">Legend</text>
<polygon fill="#ffffb3" stroke="transparent" points="1214,-10 1214,-30 1234,-30 1234,-10 1214,-10"/>
<text text-anchor="start" x="1237.63" y="-15.4" font-family="Times-12" font-size="14.00"> &#160;Declarations</text>
<polygon fill="#8dd3c7" stroke="transparent" points="1327,-10 1327,-30 1347,-30 1347,-10 1327,-10"/>
<text text-anchor="start" x="1350.73" y="-15.4" font-family="Times-12" font-size="14.00"> &#160;Module</text>
<polygon fill="#80b1d3" stroke="transparent" points="1413,-10 1413,-30 1433,-30 1433,-10 1413,-10"/>
<text text-anchor="start" x="1436.78" y="-15.4" font-family="Times-12" font-size="14.00"> &#160;Bootstrap</text>
<polygon fill="#fdb462" stroke="transparent" points="1510,-10 1510,-30 1530,-30 1530,-10 1510,-10"/>
<text text-anchor="start" x="1533.67" y="-15.4" font-family="Times-12" font-size="14.00"> &#160;Providers</text>
<polygon fill="#fb8072" stroke="transparent" points="1606,-10 1606,-30 1626,-30 1626,-10 1606,-10"/>
<text text-anchor="start" x="1629.73" y="-15.4" font-family="Times-12" font-size="14.00"> &#160;Exports</text>
<g id="clust1" class="cluster">
<title>cluster_AgentsModule</title>
<polygon fill="none" stroke="black" stroke-dasharray="1,5" points="2722,-214 2722,-434 2888,-434 2888,-214 2722,-214"/>
</g>
<g id="clust4" class="cluster">
<title>cluster_AgentsModule_exports</title>
<polygon fill="none" stroke="black" points="2730,-374 2730,-426 2848,-426 2848,-374 2730,-374"/>
</g>
<g id="clust6" class="cluster">
<title>cluster_AgentsModule_providers</title>
<polygon fill="none" stroke="black" points="2730,-222 2730,-274 2880,-274 2880,-222 2730,-222"/>
</g>
<g id="clust7" class="cluster">
<title>cluster_AppModule</title>
<polygon fill="none" stroke="black" stroke-dasharray="1,5" points="1564,-442 1564,-567 2098,-567 2098,-442 1564,-442"/>
</g>
<g id="clust9" class="cluster">
<title>cluster_AppModule_imports</title>
<polygon fill="none" stroke="black" points="1710,-450 1710,-502 2090,-502 2090,-450 1710,-450"/>
</g>
<g id="clust12" class="cluster">
<title>cluster_AppModule_providers</title>
<polygon fill="none" stroke="black" points="1572,-450 1572,-502 1702,-502 1702,-450 1572,-450"/>
</g>
<g id="clust13" class="cluster">
<title>cluster_AuthModule</title>
<polygon fill="none" stroke="black" stroke-dasharray="1,5" points="8,-290 8,-510 572,-510 572,-290 8,-290"/>
</g>
<g id="clust15" class="cluster">
<title>cluster_AuthModule_imports</title>
<polygon fill="none" stroke="black" points="438,-298 438,-350 564,-350 564,-298 438,-298"/>
</g>
<g id="clust16" class="cluster">
<title>cluster_AuthModule_exports</title>
<polygon fill="none" stroke="black" points="399,-450 399,-502 505,-502 505,-450 399,-450"/>
</g>
<g id="clust18" class="cluster">
<title>cluster_AuthModule_providers</title>
<polygon fill="none" stroke="black" points="16,-298 16,-350 430,-350 430,-298 16,-298"/>
</g>
<g id="clust19" class="cluster">
<title>cluster_BackendsModule</title>
<polygon fill="none" stroke="black" stroke-dasharray="1,5" points="1118,-146 1118,-358 1654,-358 1654,-146 1118,-146"/>
</g>
<g id="clust21" class="cluster">
<title>cluster_BackendsModule_imports</title>
<polygon fill="none" stroke="black" points="1306,-154 1306,-206 1646,-206 1646,-154 1306,-154"/>
</g>
<g id="clust22" class="cluster">
<title>cluster_BackendsModule_exports</title>
<polygon fill="none" stroke="black" points="1182,-298 1182,-350 1314,-350 1314,-298 1182,-298"/>
</g>
<g id="clust24" class="cluster">
<title>cluster_BackendsModule_providers</title>
<polygon fill="none" stroke="black" points="1126,-154 1126,-206 1298,-206 1298,-154 1126,-154"/>
</g>
<g id="clust25" class="cluster">
<title>cluster_CliModule</title>
<polygon fill="none" stroke="black" stroke-dasharray="1,5" points="916,-450 916,-502 1008,-502 1008,-450 916,-450"/>
</g>
<g id="clust31" class="cluster">
<title>cluster_CoreModule</title>
<polygon fill="none" stroke="black" stroke-dasharray="1,5" points="2038,-366 2038,-434 2312,-434 2312,-366 2038,-366"/>
</g>
<g id="clust33" class="cluster">
<title>cluster_CoreModule_imports</title>
<polygon fill="none" stroke="black" points="2188,-374 2188,-426 2304,-426 2304,-374 2188,-374"/>
</g>
<g id="clust36" class="cluster">
<title>cluster_CoreModule_providers</title>
<polygon fill="none" stroke="black" points="2046,-374 2046,-426 2180,-426 2180,-374 2046,-374"/>
</g>
<g id="clust37" class="cluster">
<title>cluster_FormModule</title>
<polygon fill="none" stroke="black" stroke-dasharray="1,5" points="2728,-70 2728,-206 2882,-206 2882,-70 2728,-70"/>
</g>
<g id="clust42" class="cluster">
<title>cluster_FormModule_providers</title>
<polygon fill="none" stroke="black" points="2736,-78 2736,-130 2874,-130 2874,-78 2736,-78"/>
</g>
<g id="clust43" class="cluster">
<title>cluster_IdentitiesJsonformsModule</title>
<polygon fill="none" stroke="black" stroke-dasharray="1,5" points="2450,-70 2450,-282 2714,-282 2714,-70 2450,-70"/>
</g>
<g id="clust46" class="cluster">
<title>cluster_IdentitiesJsonformsModule_exports</title>
<polygon fill="none" stroke="black" points="2488,-222 2488,-274 2676,-274 2676,-222 2488,-222"/>
</g>
<g id="clust48" class="cluster">
<title>cluster_IdentitiesJsonformsModule_providers</title>
<polygon fill="none" stroke="black" points="2458,-78 2458,-130 2706,-130 2706,-78 2458,-78"/>
</g>
<g id="clust49" class="cluster">
<title>cluster_IdentitiesModule</title>
<polygon fill="none" stroke="black" stroke-dasharray="1,5" points="1218,-70 1218,-138 1792,-138 1792,-70 1218,-70"/>
</g>
<g id="clust52" class="cluster">
<title>cluster_IdentitiesModule_exports</title>
<polygon fill="none" stroke="black" points="1226,-78 1226,-130 1356,-130 1356,-78 1226,-78"/>
</g>
<g id="clust54" class="cluster">
<title>cluster_IdentitiesModule_providers</title>
<polygon fill="none" stroke="black" points="1364,-78 1364,-130 1784,-130 1784,-78 1364,-78"/>
</g>
<g id="clust55" class="cluster">
<title>cluster_IdentitiesValidationModule</title>
<polygon fill="none" stroke="black" stroke-dasharray="1,5" points="2238,-154 2238,-282 2442,-282 2442,-154 2238,-154"/>
</g>
<g id="clust58" class="cluster">
<title>cluster_IdentitiesValidationModule_exports</title>
<polygon fill="none" stroke="black" points="2246,-222 2246,-274 2434,-274 2434,-222 2246,-222"/>
</g>
<g id="clust61" class="cluster">
<title>cluster_JobsModule</title>
<polygon fill="none" stroke="black" stroke-dasharray="1,5" points="1662,-214 1662,-282 1918,-282 1918,-214 1662,-214"/>
</g>
<g id="clust64" class="cluster">
<title>cluster_JobsModule_exports</title>
<polygon fill="none" stroke="black" points="1808,-222 1808,-274 1910,-274 1910,-222 1808,-222"/>
</g>
<g id="clust66" class="cluster">
<title>cluster_JobsModule_providers</title>
<polygon fill="none" stroke="black" points="1670,-222 1670,-274 1800,-274 1800,-222 1670,-222"/>
</g>
<g id="clust67" class="cluster">
<title>cluster_KeyringsModule</title>
<polygon fill="none" stroke="black" stroke-dasharray="1,5" points="580,-366 580,-434 898,-434 898,-366 580,-366"/>
</g>
<g id="clust70" class="cluster">
<title>cluster_KeyringsModule_exports</title>
<polygon fill="none" stroke="black" points="762,-374 762,-426 890,-426 890,-374 762,-374"/>
</g>
<g id="clust72" class="cluster">
<title>cluster_KeyringsModule_providers</title>
<polygon fill="none" stroke="black" points="588,-374 588,-426 754,-426 754,-374 588,-374"/>
</g>
<g id="clust73" class="cluster">
<title>cluster_LoggerModule</title>
<polygon fill="none" stroke="black" stroke-dasharray="1,5" points="2162,-290 2162,-358 2330,-358 2330,-290 2162,-290"/>
</g>
<g id="clust78" class="cluster">
<title>cluster_LoggerModule_providers</title>
<polygon fill="none" stroke="black" points="2170,-298 2170,-350 2322,-350 2322,-298 2170,-298"/>
</g>
<g id="clust79" class="cluster">
<title>cluster_ManagementModule</title>
<polygon fill="none" stroke="black" stroke-dasharray="1,5" points="1513,-366 1513,-434 1851,-434 1851,-366 1513,-366"/>
</g>
<g id="clust81" class="cluster">
<title>cluster_ManagementModule_imports</title>
<polygon fill="none" stroke="black" points="1725,-374 1725,-426 1843,-426 1843,-374 1725,-374"/>
</g>
<g id="clust84" class="cluster">
<title>cluster_ManagementModule_providers</title>
<polygon fill="none" stroke="black" points="1521,-374 1521,-426 1717,-426 1717,-374 1521,-374"/>
</g>
<g id="clust85" class="cluster">
<title>cluster_PasswdadmModule</title>
<polygon fill="none" stroke="black" stroke-dasharray="1,5" points="906,-214 906,-434 1110,-434 1110,-214 906,-214"/>
</g>
<g id="clust88" class="cluster">
<title>cluster_PasswdadmModule_exports</title>
<polygon fill="none" stroke="black" points="958,-374 958,-426 1102,-426 1102,-374 958,-374"/>
</g>
<g id="clust90" class="cluster">
<title>cluster_PasswdadmModule_providers</title>
<polygon fill="none" stroke="black" points="914,-222 914,-274 1102,-274 1102,-222 914,-222"/>
</g>
<g id="clust91" class="cluster">
<title>cluster_PasswdModule</title>
<polygon fill="none" stroke="black" stroke-dasharray="1,5" points="1662,-290 1662,-358 1964,-358 1964,-290 1662,-290"/>
</g>
<g id="clust96" class="cluster">
<title>cluster_PasswdModule_providers</title>
<polygon fill="none" stroke="black" points="1670,-298 1670,-350 1956,-350 1956,-298 1670,-298"/>
</g>
<g id="clust97" class="cluster">
<title>cluster_SettingstModule</title>
<polygon fill="none" stroke="black" stroke-dasharray="1,5" points="2320,-366 2320,-434 2494,-434 2494,-366 2320,-366"/>
</g>
<g id="clust102" class="cluster">
<title>cluster_SettingstModule_providers</title>
<polygon fill="none" stroke="black" points="2328,-374 2328,-426 2486,-426 2486,-374 2328,-374"/>
</g>
<g id="clust103" class="cluster">
<title>cluster_TasksModule</title>
<polygon fill="none" stroke="black" stroke-dasharray="1,5" points="1954,-214 1954,-282 2230,-282 2230,-214 1954,-214"/>
</g>
<g id="clust106" class="cluster">
<title>cluster_TasksModule_exports</title>
<polygon fill="none" stroke="black" points="2112,-222 2112,-274 2222,-274 2222,-222 2112,-222"/>
</g>
<g id="clust108" class="cluster">
<title>cluster_TasksModule_providers</title>
<polygon fill="none" stroke="black" points="1962,-222 1962,-274 2104,-274 2104,-222 1962,-222"/>
</g>
<!-- AgentsService  -->
<g id="node1" class="node">
<title>AgentsService </title>
<polygon fill="#fb8072" stroke="black" points="2839.63,-418 2738.37,-418 2738.37,-382 2839.63,-382 2839.63,-418"/>
<text text-anchor="middle" x="2789" y="-395.8" font-family="Times,serif" font-size="14.00">AgentsService </text>
</g>
<!-- AgentsModule -->
<g id="node2" class="node">
<title>AgentsModule</title>
<polygon fill="#8dd3c7" stroke="black" points="2854.71,-342 2851.71,-346 2830.71,-346 2827.71,-342 2755.29,-342 2755.29,-306 2854.71,-306 2854.71,-342"/>
<text text-anchor="middle" x="2805" y="-319.8" font-family="Times,serif" font-size="14.00">AgentsModule</text>
</g>
<!-- AgentsModule&#45;&gt;AgentsService  -->
<g id="edge1" class="edge">
<title>AgentsModule&#45;&gt;AgentsService </title>
<path fill="none" stroke="black" stroke-dasharray="5,2" d="M2822.73,-342.01C2822.73,-342.01 2822.73,-371.85 2822.73,-371.85"/>
<polygon fill="black" stroke="black" points="2819.23,-371.85 2822.73,-381.85 2826.23,-371.85 2819.23,-371.85"/>
</g>
<!-- CoreModule -->
<g id="node4" class="node">
<title>CoreModule</title>
<polygon fill="#8dd3c7" stroke="black" points="1955.26,-494 1952.26,-498 1931.26,-498 1928.26,-494 1868.74,-494 1868.74,-458 1955.26,-458 1955.26,-494"/>
<text text-anchor="middle" x="1912" y="-471.8" font-family="Times,serif" font-size="14.00">CoreModule</text>
</g>
<!-- AgentsModule&#45;&gt;CoreModule -->
<g id="edge22" class="edge">
<title>AgentsModule&#45;&gt;CoreModule</title>
<path fill="none" stroke="black" d="M2805.9,-342.24C2805.9,-349.43 2805.9,-356 2805.9,-356 2805.9,-356 1950.73,-356 1950.73,-356 1950.73,-356 1950.73,-447.77 1950.73,-447.77"/>
<polygon fill="black" stroke="black" points="1947.23,-447.77 1950.73,-457.77 1954.23,-447.77 1947.23,-447.77"/>
</g>
<!-- AuthModule -->
<g id="node10" class="node">
<title>AuthModule</title>
<polygon fill="#8dd3c7" stroke="black" points="495.55,-418 492.55,-422 471.55,-422 468.55,-418 408.45,-418 408.45,-382 495.55,-382 495.55,-418"/>
<text text-anchor="middle" x="452" y="-395.8" font-family="Times,serif" font-size="14.00">AuthModule</text>
</g>
<!-- AgentsModule&#45;&gt;AuthModule -->
<g id="edge7" class="edge">
<title>AgentsModule&#45;&gt;AuthModule</title>
<path fill="none" stroke="black" d="M2772.23,-342.17C2772.23,-344.45 2772.23,-346 2772.23,-346 2772.23,-346 479.04,-346 479.04,-346 479.04,-346 479.04,-371.72 479.04,-371.72"/>
<polygon fill="black" stroke="black" points="475.54,-371.72 479.04,-381.72 482.54,-371.72 475.54,-371.72"/>
</g>
<!-- CliModule -->
<g id="node21" class="node">
<title>CliModule</title>
<polygon fill="#8dd3c7" stroke="black" points="1000.17,-494 997.17,-498 976.17,-498 973.17,-494 923.83,-494 923.83,-458 1000.17,-458 1000.17,-494"/>
<text text-anchor="middle" x="962" y="-471.8" font-family="Times,serif" font-size="14.00">CliModule</text>
</g>
<!-- AgentsModule&#45;&gt;CliModule -->
<g id="edge18" class="edge">
<title>AgentsModule&#45;&gt;CliModule</title>
<path fill="none" stroke="black" d="M2789.06,-342.17C2789.06,-346.05 2789.06,-349 2789.06,-349 2789.06,-349 952.03,-349 952.03,-349 952.03,-349 952.03,-447.8 952.03,-447.8"/>
<polygon fill="black" stroke="black" points="948.53,-447.8 952.03,-457.8 955.53,-447.8 948.53,-447.8"/>
</g>
<!-- AgentsService -->
<g id="node3" class="node">
<title>AgentsService</title>
<ellipse fill="#fdb462" stroke="black" cx="2805" cy="-248" rx="67.19" ry="18"/>
<text text-anchor="middle" x="2805" y="-243.8" font-family="Times,serif" font-size="14.00">AgentsService</text>
</g>
<!-- AgentsService&#45;&gt;AgentsModule -->
<g id="edge2" class="edge">
<title>AgentsService&#45;&gt;AgentsModule</title>
<path fill="none" stroke="black" d="M2805,-266.01C2805,-266.01 2805,-295.85 2805,-295.85"/>
<polygon fill="black" stroke="black" points="2801.5,-295.85 2805,-305.85 2808.5,-295.85 2801.5,-295.85"/>
</g>
<!-- AppModule -->
<g id="node7" class="node">
<title>AppModule</title>
<polygon fill="#8dd3c7" stroke="black" points="1889.66,-559 1886.66,-563 1865.66,-563 1862.66,-559 1806.34,-559 1806.34,-523 1889.66,-523 1889.66,-559"/>
<text text-anchor="middle" x="1848" y="-536.8" font-family="Times,serif" font-size="14.00">AppModule</text>
</g>
<!-- CoreModule&#45;&gt;AppModule -->
<g id="edge3" class="edge">
<title>CoreModule&#45;&gt;AppModule</title>
<path fill="none" stroke="black" d="M1879.22,-494.11C1879.22,-494.11 1879.22,-512.99 1879.22,-512.99"/>
<polygon fill="black" stroke="black" points="1875.72,-512.99 1879.22,-522.99 1882.72,-512.99 1875.72,-512.99"/>
</g>
<!-- ManagementModule -->
<g id="node5" class="node">
<title>ManagementModule</title>
<polygon fill="#8dd3c7" stroke="black" points="1850.13,-494 1847.13,-498 1826.13,-498 1823.13,-494 1717.87,-494 1717.87,-458 1850.13,-458 1850.13,-494"/>
<text text-anchor="middle" x="1784" y="-471.8" font-family="Times,serif" font-size="14.00">ManagementModule</text>
</g>
<!-- ManagementModule&#45;&gt;AppModule -->
<g id="edge4" class="edge">
<title>ManagementModule&#45;&gt;AppModule</title>
<path fill="none" stroke="black" d="M1828.24,-494.11C1828.24,-494.11 1828.24,-512.99 1828.24,-512.99"/>
<polygon fill="black" stroke="black" points="1824.74,-512.99 1828.24,-522.99 1831.74,-512.99 1824.74,-512.99"/>
</g>
<!-- SettingstModule -->
<g id="node6" class="node">
<title>SettingstModule</title>
<polygon fill="#8dd3c7" stroke="black" points="2082.05,-494 2079.05,-498 2058.05,-498 2055.05,-494 1973.95,-494 1973.95,-458 2082.05,-458 2082.05,-494"/>
<text text-anchor="middle" x="2028" y="-471.8" font-family="Times,serif" font-size="14.00">SettingstModule</text>
</g>
<!-- SettingstModule&#45;&gt;AppModule -->
<g id="edge5" class="edge">
<title>SettingstModule&#45;&gt;AppModule</title>
<path fill="none" stroke="black" d="M2028,-494.11C2028,-513.34 2028,-541 2028,-541 2028,-541 1899.75,-541 1899.75,-541"/>
<polygon fill="black" stroke="black" points="1899.75,-537.5 1889.75,-541 1899.75,-544.5 1899.75,-537.5"/>
</g>
<!-- AppService -->
<g id="node8" class="node">
<title>AppService</title>
<ellipse fill="#fdb462" stroke="black" cx="1637" cy="-476" rx="56.74" ry="18"/>
<text text-anchor="middle" x="1637" y="-471.8" font-family="Times,serif" font-size="14.00">AppService</text>
</g>
<!-- AppService&#45;&gt;AppModule -->
<g id="edge6" class="edge">
<title>AppService&#45;&gt;AppModule</title>
<path fill="none" stroke="black" d="M1637,-494.11C1637,-513.34 1637,-541 1637,-541 1637,-541 1796.31,-541 1796.31,-541"/>
<polygon fill="black" stroke="black" points="1796.31,-544.5 1806.31,-541 1796.31,-537.5 1796.31,-544.5"/>
</g>
<!-- KeyringsModule -->
<g id="node9" class="node">
<title>KeyringsModule</title>
<polygon fill="#8dd3c7" stroke="black" points="556.37,-342 553.37,-346 532.37,-346 529.37,-342 445.63,-342 445.63,-306 556.37,-306 556.37,-342"/>
<text text-anchor="middle" x="501" y="-319.8" font-family="Times,serif" font-size="14.00">KeyringsModule</text>
</g>
<!-- KeyringsModule&#45;&gt;CoreModule -->
<g id="edge26" class="edge">
<title>KeyringsModule&#45;&gt;CoreModule</title>
<path fill="none" stroke="black" d="M511.66,-342.06C511.66,-353.44 511.66,-366 511.66,-366 511.66,-366 1900.22,-366 1900.22,-366 1900.22,-366 1900.22,-447.84 1900.22,-447.84"/>
<polygon fill="black" stroke="black" points="1896.72,-447.84 1900.22,-457.84 1903.72,-447.84 1896.72,-447.84"/>
</g>
<!-- KeyringsModule&#45;&gt;AuthModule -->
<g id="edge8" class="edge">
<title>KeyringsModule&#45;&gt;AuthModule</title>
<path fill="none" stroke="black" d="M462.3,-342.01C462.3,-342.01 462.3,-371.85 462.3,-371.85"/>
<polygon fill="black" stroke="black" points="458.8,-371.85 462.3,-381.85 465.8,-371.85 458.8,-371.85"/>
</g>
<!-- KeyringsModule&#45;&gt;CliModule -->
<g id="edge21" class="edge">
<title>KeyringsModule&#45;&gt;CliModule</title>
<path fill="none" stroke="black" d="M556.77,-318C674.54,-318 937.85,-318 937.85,-318 937.85,-318 937.85,-447.88 937.85,-447.88"/>
<polygon fill="black" stroke="black" points="934.35,-447.88 937.85,-457.88 941.35,-447.88 934.35,-447.88"/>
</g>
<!-- KeyringsService  -->
<g id="node36" class="node">
<title>KeyringsService </title>
<polygon fill="#fb8072" stroke="black" points="882.29,-418 769.71,-418 769.71,-382 882.29,-382 882.29,-418"/>
<text text-anchor="middle" x="826" y="-395.8" font-family="Times,serif" font-size="14.00">KeyringsService </text>
</g>
<!-- KeyringsModule&#45;&gt;KeyringsService  -->
<g id="edge41" class="edge">
<title>KeyringsModule&#45;&gt;KeyringsService </title>
<path fill="none" stroke="black" stroke-dasharray="5,2" d="M556.5,-330C649.32,-330 826,-330 826,-330 826,-330 826,-371.97 826,-371.97"/>
<polygon fill="black" stroke="black" points="822.5,-371.97 826,-381.97 829.5,-371.97 822.5,-371.97"/>
</g>
<!-- AuthModule&#45;&gt;CoreModule -->
<g id="edge23" class="edge">
<title>AuthModule&#45;&gt;CoreModule</title>
<path fill="none" stroke="black" d="M466.59,-418.24C466.59,-425.43 466.59,-432 466.59,-432 466.59,-432 1884.42,-432 1884.42,-432 1884.42,-432 1884.42,-447.85 1884.42,-447.85"/>
<polygon fill="black" stroke="black" points="1880.92,-447.85 1884.42,-457.85 1887.92,-447.85 1880.92,-447.85"/>
</g>
<!-- AuthService  -->
<g id="node11" class="node">
<title>AuthService </title>
<polygon fill="#fb8072" stroke="black" points="496.98,-494 407.02,-494 407.02,-458 496.98,-458 496.98,-494"/>
<text text-anchor="middle" x="452" y="-471.8" font-family="Times,serif" font-size="14.00">AuthService </text>
</g>
<!-- AuthModule&#45;&gt;AuthService  -->
<g id="edge9" class="edge">
<title>AuthModule&#45;&gt;AuthService </title>
<path fill="none" stroke="black" stroke-dasharray="5,2" d="M437.41,-418.01C437.41,-418.01 437.41,-447.85 437.41,-447.85"/>
<polygon fill="black" stroke="black" points="433.91,-447.85 437.41,-457.85 440.91,-447.85 433.91,-447.85"/>
</g>
<!-- AuthModule&#45;&gt;CliModule -->
<g id="edge19" class="edge">
<title>AuthModule&#45;&gt;CliModule</title>
<path fill="none" stroke="black" d="M495.82,-406C512.05,-406 526.59,-406 526.59,-406 526.59,-406 526.59,-476 526.59,-476 526.59,-476 913.74,-476 913.74,-476"/>
<polygon fill="black" stroke="black" points="913.74,-479.5 923.74,-476 913.74,-472.5 913.74,-479.5"/>
</g>
<!-- AuthService -->
<g id="node12" class="node">
<title>AuthService</title>
<ellipse fill="#fdb462" stroke="black" cx="363" cy="-324" rx="59.11" ry="18"/>
<text text-anchor="middle" x="363" y="-319.8" font-family="Times,serif" font-size="14.00">AuthService</text>
</g>
<!-- AuthService&#45;&gt;AuthModule -->
<g id="edge10" class="edge">
<title>AuthService&#45;&gt;AuthModule</title>
<path fill="none" stroke="black" d="M415.27,-332.72C415.27,-332.72 415.27,-371.88 415.27,-371.88"/>
<polygon fill="black" stroke="black" points="411.77,-371.88 415.27,-381.88 418.77,-371.88 411.77,-371.88"/>
</g>
<!-- JwtStrategy -->
<g id="node13" class="node">
<title>JwtStrategy</title>
<ellipse fill="#fdb462" stroke="black" cx="229" cy="-324" rx="56.76" ry="18"/>
<text text-anchor="middle" x="229" y="-319.8" font-family="Times,serif" font-size="14.00">JwtStrategy</text>
</g>
<!-- JwtStrategy&#45;&gt;AuthModule -->
<g id="edge11" class="edge">
<title>JwtStrategy&#45;&gt;AuthModule</title>
<path fill="none" stroke="black" d="M229,-342.03C229,-362.77 229,-394 229,-394 229,-394 398.21,-394 398.21,-394"/>
<polygon fill="black" stroke="black" points="398.21,-397.5 408.21,-394 398.21,-390.5 398.21,-397.5"/>
</g>
<!-- LocalStrategy -->
<g id="node14" class="node">
<title>LocalStrategy</title>
<ellipse fill="#fdb462" stroke="black" cx="89" cy="-324" rx="65.41" ry="18"/>
<text text-anchor="middle" x="89" y="-319.8" font-family="Times,serif" font-size="14.00">LocalStrategy</text>
</g>
<!-- LocalStrategy&#45;&gt;AuthModule -->
<g id="edge12" class="edge">
<title>LocalStrategy&#45;&gt;AuthModule</title>
<path fill="none" stroke="black" d="M89,-342.2C89,-366.36 89,-406 89,-406 89,-406 398.21,-406 398.21,-406"/>
<polygon fill="black" stroke="black" points="398.21,-409.5 408.21,-406 398.21,-402.5 398.21,-409.5"/>
</g>
<!-- IdentitiesModule -->
<g id="node15" class="node">
<title>IdentitiesModule</title>
<polygon fill="#8dd3c7" stroke="black" points="1425.65,-198 1422.65,-202 1401.65,-202 1398.65,-198 1314.35,-198 1314.35,-162 1425.65,-162 1425.65,-198"/>
<text text-anchor="middle" x="1370" y="-175.8" font-family="Times,serif" font-size="14.00">IdentitiesModule</text>
</g>
<!-- IdentitiesModule&#45;&gt;ManagementModule -->
<g id="edge44" class="edge">
<title>IdentitiesModule&#45;&gt;ManagementModule</title>
<path fill="none" stroke="black" d="M1402.6,-198.06C1402.6,-245.86 1402.6,-372 1402.6,-372 1402.6,-372 1725.46,-372 1725.46,-372 1725.46,-372 1725.46,-447.88 1725.46,-447.88"/>
<polygon fill="black" stroke="black" points="1721.96,-447.88 1725.46,-457.88 1728.96,-447.88 1721.96,-447.88"/>
</g>
<!-- BackendsModule -->
<g id="node18" class="node">
<title>BackendsModule</title>
<polygon fill="#8dd3c7" stroke="black" points="1390.97,-266 1387.97,-270 1366.97,-270 1363.97,-266 1277.03,-266 1277.03,-230 1390.97,-230 1390.97,-266"/>
<text text-anchor="middle" x="1334" y="-243.8" font-family="Times,serif" font-size="14.00">BackendsModule</text>
</g>
<!-- IdentitiesModule&#45;&gt;BackendsModule -->
<g id="edge13" class="edge">
<title>IdentitiesModule&#45;&gt;BackendsModule</title>
<path fill="none" stroke="black" d="M1365.38,-198.22C1365.38,-198.22 1365.38,-219.73 1365.38,-219.73"/>
<polygon fill="black" stroke="black" points="1361.88,-219.73 1365.38,-229.73 1368.88,-219.73 1361.88,-219.73"/>
</g>
<!-- IdentitiesService  -->
<g id="node29" class="node">
<title>IdentitiesService </title>
<polygon fill="#fb8072" stroke="black" points="1347.58,-122 1234.42,-122 1234.42,-86 1347.58,-86 1347.58,-122"/>
<text text-anchor="middle" x="1291" y="-99.8" font-family="Times,serif" font-size="14.00">IdentitiesService </text>
</g>
<!-- IdentitiesModule&#45;&gt;IdentitiesService  -->
<g id="edge33" class="edge">
<title>IdentitiesModule&#45;&gt;IdentitiesService </title>
<path fill="none" stroke="black" stroke-dasharray="5,2" d="M1330.98,-161.99C1330.98,-161.99 1330.98,-132.15 1330.98,-132.15"/>
<polygon fill="black" stroke="black" points="1334.48,-132.15 1330.98,-122.15 1327.48,-132.15 1334.48,-132.15"/>
</g>
<!-- PasswdModule -->
<g id="node39" class="node">
<title>PasswdModule</title>
<polygon fill="#8dd3c7" stroke="black" points="1834.54,-418 1831.54,-422 1810.54,-422 1807.54,-418 1733.46,-418 1733.46,-382 1834.54,-382 1834.54,-418"/>
<text text-anchor="middle" x="1784" y="-395.8" font-family="Times,serif" font-size="14.00">PasswdModule</text>
</g>
<!-- IdentitiesModule&#45;&gt;PasswdModule -->
<g id="edge52" class="edge">
<title>IdentitiesModule&#45;&gt;PasswdModule</title>
<path fill="none" stroke="black" d="M1414.21,-198.12C1414.21,-245.43 1414.21,-369 1414.21,-369 1414.21,-369 1782.87,-369 1782.87,-369 1782.87,-369 1782.87,-371.97 1782.87,-371.97"/>
<polygon fill="black" stroke="black" points="1779.37,-371.97 1782.87,-381.97 1786.37,-371.97 1779.37,-371.97"/>
</g>
<!-- PasswdadmModule -->
<g id="node41" class="node">
<title>PasswdadmModule</title>
<polygon fill="#8dd3c7" stroke="black" points="1101.65,-342 1098.65,-346 1077.65,-346 1074.65,-342 976.35,-342 976.35,-306 1101.65,-306 1101.65,-342"/>
<text text-anchor="middle" x="1039" y="-319.8" font-family="Times,serif" font-size="14.00">PasswdadmModule</text>
</g>
<!-- IdentitiesModule&#45;&gt;PasswdadmModule -->
<g id="edge48" class="edge">
<title>IdentitiesModule&#45;&gt;PasswdadmModule</title>
<path fill="none" stroke="black" d="M1339.78,-198.13C1339.78,-208.71 1339.78,-220 1339.78,-220 1339.78,-220 1096.33,-220 1096.33,-220 1096.33,-220 1096.33,-295.88 1096.33,-295.88"/>
<polygon fill="black" stroke="black" points="1092.83,-295.88 1096.33,-305.88 1099.83,-295.88 1092.83,-295.88"/>
</g>
<!-- JobsModule -->
<g id="node16" class="node">
<title>JobsModule</title>
<polygon fill="#8dd3c7" stroke="black" points="1528.44,-198 1525.44,-202 1504.44,-202 1501.44,-198 1443.56,-198 1443.56,-162 1528.44,-162 1528.44,-198"/>
<text text-anchor="middle" x="1486" y="-175.8" font-family="Times,serif" font-size="14.00">JobsModule</text>
</g>
<!-- JobsModule&#45;&gt;CoreModule -->
<g id="edge25" class="edge">
<title>JobsModule&#45;&gt;CoreModule</title>
<path fill="none" stroke="black" d="M1477.56,-198.15C1477.56,-243.66 1477.56,-359 1477.56,-359 1477.56,-359 1931.83,-359 1931.83,-359 1931.83,-359 1931.83,-447.98 1931.83,-447.98"/>
<polygon fill="black" stroke="black" points="1928.33,-447.98 1931.83,-457.98 1935.33,-447.98 1928.33,-447.98"/>
</g>
<!-- JobsModule&#45;&gt;BackendsModule -->
<g id="edge14" class="edge">
<title>JobsModule&#45;&gt;BackendsModule</title>
<path fill="none" stroke="black" d="M1460.67,-198.22C1460.67,-218.37 1460.67,-248 1460.67,-248 1460.67,-248 1401.03,-248 1401.03,-248"/>
<polygon fill="black" stroke="black" points="1401.03,-244.5 1391.03,-248 1401.03,-251.5 1401.03,-244.5"/>
</g>
<!-- JobsService  -->
<g id="node34" class="node">
<title>JobsService </title>
<polygon fill="#fb8072" stroke="black" points="1902.37,-266 1815.63,-266 1815.63,-230 1902.37,-230 1902.37,-266"/>
<text text-anchor="middle" x="1859" y="-243.8" font-family="Times,serif" font-size="14.00">JobsService </text>
</g>
<!-- JobsModule&#45;&gt;JobsService  -->
<g id="edge39" class="edge">
<title>JobsModule&#45;&gt;JobsService </title>
<path fill="none" stroke="black" stroke-dasharray="5,2" d="M1494.44,-198.2C1494.44,-204.03 1494.44,-209 1494.44,-209 1494.44,-209 1859,-209 1859,-209 1859,-209 1859,-219.87 1859,-219.87"/>
<polygon fill="black" stroke="black" points="1855.5,-219.87 1859,-229.87 1862.5,-219.87 1855.5,-219.87"/>
</g>
<!-- TasksModule -->
<g id="node17" class="node">
<title>TasksModule</title>
<polygon fill="#8dd3c7" stroke="black" points="1638.21,-198 1635.21,-202 1614.21,-202 1611.21,-198 1545.79,-198 1545.79,-162 1638.21,-162 1638.21,-198"/>
<text text-anchor="middle" x="1592" y="-175.8" font-family="Times,serif" font-size="14.00">TasksModule</text>
</g>
<!-- TasksModule&#45;&gt;CoreModule -->
<g id="edge28" class="edge">
<title>TasksModule&#45;&gt;CoreModule</title>
<path fill="none" stroke="black" d="M1638.33,-191C1734.97,-191 1949.18,-191 1949.18,-191 1949.18,-191 1949.18,-447.74 1949.18,-447.74"/>
<polygon fill="black" stroke="black" points="1945.68,-447.74 1949.18,-457.74 1952.68,-447.74 1945.68,-447.74"/>
</g>
<!-- TasksModule&#45;&gt;BackendsModule -->
<g id="edge15" class="edge">
<title>TasksModule&#45;&gt;BackendsModule</title>
<path fill="none" stroke="black" d="M1592,-198.25C1592,-221.02 1592,-257 1592,-257 1592,-257 1401.26,-257 1401.26,-257"/>
<polygon fill="black" stroke="black" points="1401.26,-253.5 1391.26,-257 1401.26,-260.5 1401.26,-253.5"/>
</g>
<!-- TasksService  -->
<g id="node47" class="node">
<title>TasksService </title>
<polygon fill="#fb8072" stroke="black" points="2214.13,-266 2119.87,-266 2119.87,-230 2214.13,-230 2214.13,-266"/>
<text text-anchor="middle" x="2167" y="-243.8" font-family="Times,serif" font-size="14.00">TasksService </text>
</g>
<!-- TasksModule&#45;&gt;TasksService  -->
<g id="edge58" class="edge">
<title>TasksModule&#45;&gt;TasksService </title>
<path fill="none" stroke="black" stroke-dasharray="5,2" d="M1638.57,-177C1775.46,-177 2167,-177 2167,-177 2167,-177 2167,-219.72 2167,-219.72"/>
<polygon fill="black" stroke="black" points="2163.5,-219.72 2167,-229.72 2170.5,-219.72 2163.5,-219.72"/>
</g>
<!-- BackendsModule&#45;&gt;CoreModule -->
<g id="edge24" class="edge">
<title>BackendsModule&#45;&gt;CoreModule</title>
<path fill="none" stroke="black" d="M1369.73,-266.06C1369.73,-298.21 1369.73,-362 1369.73,-362 1369.73,-362 1916.02,-362 1916.02,-362 1916.02,-362 1916.02,-447.94 1916.02,-447.94"/>
<polygon fill="black" stroke="black" points="1912.52,-447.94 1916.02,-457.94 1919.52,-447.94 1912.52,-447.94"/>
</g>
<!-- BackendsService  -->
<g id="node19" class="node">
<title>BackendsService </title>
<polygon fill="#fb8072" stroke="black" points="1305.9,-342 1190.1,-342 1190.1,-306 1305.9,-306 1305.9,-342"/>
<text text-anchor="middle" x="1248" y="-319.8" font-family="Times,serif" font-size="14.00">BackendsService </text>
</g>
<!-- BackendsModule&#45;&gt;BackendsService  -->
<g id="edge16" class="edge">
<title>BackendsModule&#45;&gt;BackendsService </title>
<path fill="none" stroke="black" stroke-dasharray="5,2" d="M1291.48,-266.01C1291.48,-266.01 1291.48,-295.85 1291.48,-295.85"/>
<polygon fill="black" stroke="black" points="1287.98,-295.85 1291.48,-305.85 1294.98,-295.85 1287.98,-295.85"/>
</g>
<!-- BackendsModule&#45;&gt;CliModule -->
<g id="edge20" class="edge">
<title>BackendsModule&#45;&gt;CliModule</title>
<path fill="none" stroke="black" d="M1327.21,-266.27C1327.21,-320.38 1327.21,-476 1327.21,-476 1327.21,-476 1010.39,-476 1010.39,-476"/>
<polygon fill="black" stroke="black" points="1010.39,-472.5 1000.39,-476 1010.39,-479.5 1010.39,-472.5"/>
</g>
<!-- BackendsModule&#45;&gt;PasswdModule -->
<g id="edge51" class="edge">
<title>BackendsModule&#45;&gt;PasswdModule</title>
<path fill="none" stroke="black" d="M1348.47,-266.07C1348.47,-301.35 1348.47,-376 1348.47,-376 1348.47,-376 1766.32,-376 1766.32,-376 1766.32,-376 1766.32,-376.58 1766.32,-376.58"/>
<polygon fill="black" stroke="black" points="1762.82,-371.81 1766.32,-381.81 1769.82,-371.81 1762.82,-371.81"/>
</g>
<!-- BackendsModule&#45;&gt;PasswdadmModule -->
<g id="edge47" class="edge">
<title>BackendsModule&#45;&gt;PasswdadmModule</title>
<path fill="none" stroke="black" d="M1276.83,-248C1207.29,-248 1099.08,-248 1099.08,-248 1099.08,-248 1099.08,-295.99 1099.08,-295.99"/>
<polygon fill="black" stroke="black" points="1095.58,-295.99 1099.08,-305.99 1102.58,-295.99 1095.58,-295.99"/>
</g>
<!-- BackendsService -->
<g id="node20" class="node">
<title>BackendsService</title>
<ellipse fill="#fdb462" stroke="black" cx="1212" cy="-180" rx="77.57" ry="18"/>
<text text-anchor="middle" x="1212" y="-175.8" font-family="Times,serif" font-size="14.00">BackendsService</text>
</g>
<!-- BackendsService&#45;&gt;BackendsModule -->
<g id="edge17" class="edge">
<title>BackendsService&#45;&gt;BackendsModule</title>
<path fill="none" stroke="black" d="M1283.27,-187.28C1283.27,-187.28 1283.27,-219.83 1283.27,-219.83"/>
<polygon fill="black" stroke="black" points="1279.77,-219.83 1283.27,-229.83 1286.77,-219.83 1279.77,-219.83"/>
</g>
<!-- LoggerModule -->
<g id="node22" class="node">
<title>LoggerModule</title>
<polygon fill="#8dd3c7" stroke="black" points="2295.98,-418 2292.98,-422 2271.98,-422 2268.98,-418 2196.02,-418 2196.02,-382 2295.98,-382 2295.98,-418"/>
<text text-anchor="middle" x="2246" y="-395.8" font-family="Times,serif" font-size="14.00">LoggerModule</text>
</g>
<!-- LoggerModule&#45;&gt;CoreModule -->
<g id="edge27" class="edge">
<title>LoggerModule&#45;&gt;CoreModule</title>
<path fill="none" stroke="black" d="M2246,-418.04C2246,-430.56 2246,-445 2246,-445 2246,-445 1953.83,-445 1953.83,-445 1953.83,-445 1953.83,-447.97 1953.83,-447.97"/>
<polygon fill="black" stroke="black" points="1950.33,-447.97 1953.83,-457.97 1957.33,-447.97 1950.33,-447.97"/>
</g>
<!-- CoreService -->
<g id="node23" class="node">
<title>CoreService</title>
<ellipse fill="#fdb462" stroke="black" cx="2113" cy="-400" rx="58.53" ry="18"/>
<text text-anchor="middle" x="2113" y="-395.8" font-family="Times,serif" font-size="14.00">CoreService</text>
</g>
<!-- CoreService&#45;&gt;CoreModule -->
<g id="edge29" class="edge">
<title>CoreService&#45;&gt;CoreModule</title>
<path fill="none" stroke="black" d="M2057.24,-394C2010.82,-394 1952.28,-394 1952.28,-394 1952.28,-394 1952.28,-447.8 1952.28,-447.8"/>
<polygon fill="black" stroke="black" points="1948.78,-447.8 1952.28,-457.8 1955.78,-447.8 1948.78,-447.8"/>
</g>
<!-- FormService -->
<g id="node24" class="node">
<title>FormService</title>
<ellipse fill="#fdb462" stroke="black" cx="2805" cy="-104" rx="60.83" ry="18"/>
<text text-anchor="middle" x="2805" y="-99.8" font-family="Times,serif" font-size="14.00">FormService</text>
</g>
<!-- FormModule -->
<g id="node25" class="node">
<title>FormModule</title>
<polygon fill="#8dd3c7" stroke="black" points="2849.88,-198 2846.88,-202 2825.88,-202 2822.88,-198 2760.12,-198 2760.12,-162 2849.88,-162 2849.88,-198"/>
<text text-anchor="middle" x="2805" y="-175.8" font-family="Times,serif" font-size="14.00">FormModule</text>
</g>
<!-- FormService&#45;&gt;FormModule -->
<g id="edge30" class="edge">
<title>FormService&#45;&gt;FormModule</title>
<path fill="none" stroke="black" d="M2805,-122.01C2805,-122.01 2805,-151.85 2805,-151.85"/>
<polygon fill="black" stroke="black" points="2801.5,-151.85 2805,-161.85 2808.5,-151.85 2801.5,-151.85"/>
</g>
<!-- IdentitiesJsonformsService  -->
<g id="node26" class="node">
<title>IdentitiesJsonformsService </title>
<polygon fill="#fb8072" stroke="black" points="2667.62,-266 2496.38,-266 2496.38,-230 2667.62,-230 2667.62,-266"/>
<text text-anchor="middle" x="2582" y="-243.8" font-family="Times,serif" font-size="14.00">IdentitiesJsonformsService </text>
</g>
<!-- IdentitiesJsonformsModule -->
<g id="node27" class="node">
<title>IdentitiesJsonformsModule</title>
<polygon fill="#8dd3c7" stroke="black" points="2666.69,-198 2663.69,-202 2642.69,-202 2639.69,-198 2497.31,-198 2497.31,-162 2666.69,-162 2666.69,-198"/>
<text text-anchor="middle" x="2582" y="-175.8" font-family="Times,serif" font-size="14.00">IdentitiesJsonformsModule</text>
</g>
<!-- IdentitiesJsonformsModule&#45;&gt;IdentitiesJsonformsService  -->
<g id="edge31" class="edge">
<title>IdentitiesJsonformsModule&#45;&gt;IdentitiesJsonformsService </title>
<path fill="none" stroke="black" stroke-dasharray="5,2" d="M2582,-198.22C2582,-198.22 2582,-219.73 2582,-219.73"/>
<polygon fill="black" stroke="black" points="2578.5,-219.73 2582,-229.73 2585.5,-219.73 2578.5,-219.73"/>
</g>
<!-- IdentitiesJsonformsService -->
<g id="node28" class="node">
<title>IdentitiesJsonformsService</title>
<ellipse fill="#fdb462" stroke="black" cx="2582" cy="-104" rx="115.74" ry="18"/>
<text text-anchor="middle" x="2582" y="-99.8" font-family="Times,serif" font-size="14.00">IdentitiesJsonformsService</text>
</g>
<!-- IdentitiesJsonformsService&#45;&gt;IdentitiesModule -->
<g id="edge34" class="edge">
<title>IdentitiesJsonformsService&#45;&gt;IdentitiesModule</title>
<path fill="none" stroke="black" d="M2472.24,-109.88C2472.24,-122.08 2472.24,-149 2472.24,-149 2472.24,-149 1412.39,-149 1412.39,-149 1412.39,-149 1412.39,-151.97 1412.39,-151.97"/>
<polygon fill="black" stroke="black" points="1408.89,-151.97 1412.39,-161.97 1415.89,-151.97 1408.89,-151.97"/>
</g>
<!-- IdentitiesJsonformsService&#45;&gt;IdentitiesJsonformsModule -->
<g id="edge32" class="edge">
<title>IdentitiesJsonformsService&#45;&gt;IdentitiesJsonformsModule</title>
<path fill="none" stroke="black" d="M2582,-122.01C2582,-122.01 2582,-151.85 2582,-151.85"/>
<polygon fill="black" stroke="black" points="2578.5,-151.85 2582,-161.85 2585.5,-151.85 2578.5,-151.85"/>
</g>
<!-- IdentitiesService -->
<g id="node30" class="node">
<title>IdentitiesService</title>
<ellipse fill="#fdb462" stroke="black" cx="1448" cy="-104" rx="75.85" ry="18"/>
<text text-anchor="middle" x="1448" y="-99.8" font-family="Times,serif" font-size="14.00">IdentitiesService</text>
</g>
<!-- IdentitiesService&#45;&gt;IdentitiesModule -->
<g id="edge35" class="edge">
<title>IdentitiesService&#45;&gt;IdentitiesModule</title>
<path fill="none" stroke="black" d="M1385.51,-114.25C1385.51,-114.25 1385.51,-151.77 1385.51,-151.77"/>
<polygon fill="black" stroke="black" points="1382.01,-151.77 1385.51,-161.77 1389.01,-151.77 1382.01,-151.77"/>
</g>
<!-- IdentitiesValidationService -->
<g id="node31" class="node">
<title>IdentitiesValidationService</title>
<ellipse fill="#fdb462" stroke="black" cx="1659" cy="-104" rx="116.88" ry="18"/>
<text text-anchor="middle" x="1659" y="-99.8" font-family="Times,serif" font-size="14.00">IdentitiesValidationService</text>
</g>
<!-- IdentitiesValidationService&#45;&gt;IdentitiesModule -->
<g id="edge36" class="edge">
<title>IdentitiesValidationService&#45;&gt;IdentitiesModule</title>
<path fill="none" stroke="black" d="M1592,-118.88C1592,-127.23 1592,-136 1592,-136 1592,-136 1398.95,-136 1398.95,-136 1398.95,-136 1398.95,-151.85 1398.95,-151.85"/>
<polygon fill="black" stroke="black" points="1395.45,-151.85 1398.95,-161.85 1402.45,-151.85 1395.45,-151.85"/>
</g>
<!-- IdentitiesValidationModule -->
<g id="node33" class="node">
<title>IdentitiesValidationModule</title>
<polygon fill="#8dd3c7" stroke="black" points="2420.24,-198 2417.24,-202 2396.24,-202 2393.24,-198 2249.76,-198 2249.76,-162 2420.24,-162 2420.24,-198"/>
<text text-anchor="middle" x="2335" y="-175.8" font-family="Times,serif" font-size="14.00">IdentitiesValidationModule</text>
</g>
<!-- IdentitiesValidationService&#45;&gt;IdentitiesValidationModule -->
<g id="edge38" class="edge">
<title>IdentitiesValidationService&#45;&gt;IdentitiesValidationModule</title>
<path fill="none" stroke="black" d="M1726.77,-118.98C1726.77,-138.45 1726.77,-170 1726.77,-170 1726.77,-170 2239.47,-170 2239.47,-170"/>
<polygon fill="black" stroke="black" points="2239.47,-173.5 2249.47,-170 2239.47,-166.5 2239.47,-173.5"/>
</g>
<!-- IdentitiesValidationService  -->
<g id="node32" class="node">
<title>IdentitiesValidationService </title>
<polygon fill="#fb8072" stroke="black" points="2426.17,-266 2253.83,-266 2253.83,-230 2426.17,-230 2426.17,-266"/>
<text text-anchor="middle" x="2340" y="-243.8" font-family="Times,serif" font-size="14.00">IdentitiesValidationService </text>
</g>
<!-- IdentitiesValidationModule&#45;&gt;IdentitiesValidationService  -->
<g id="edge37" class="edge">
<title>IdentitiesValidationModule&#45;&gt;IdentitiesValidationService </title>
<path fill="none" stroke="black" stroke-dasharray="5,2" d="M2337.02,-198.22C2337.02,-198.22 2337.02,-219.73 2337.02,-219.73"/>
<polygon fill="black" stroke="black" points="2333.52,-219.73 2337.02,-229.73 2340.52,-219.73 2333.52,-219.73"/>
</g>
<!-- JobsService -->
<g id="node35" class="node">
<title>JobsService</title>
<ellipse fill="#fdb462" stroke="black" cx="1735" cy="-248" rx="57.32" ry="18"/>
<text text-anchor="middle" x="1735" y="-243.8" font-family="Times,serif" font-size="14.00">JobsService</text>
</g>
<!-- JobsService&#45;&gt;JobsModule -->
<g id="edge40" class="edge">
<title>JobsService&#45;&gt;JobsModule</title>
<path fill="none" stroke="black" d="M1685.36,-239C1619.47,-239 1511.33,-239 1511.33,-239 1511.33,-239 1511.33,-208.02 1511.33,-208.02"/>
<polygon fill="black" stroke="black" points="1514.83,-208.02 1511.33,-198.02 1507.83,-208.02 1514.83,-208.02"/>
</g>
<!-- KeyringsService -->
<g id="node37" class="node">
<title>KeyringsService</title>
<ellipse fill="#fdb462" stroke="black" cx="671" cy="-400" rx="75.28" ry="18"/>
<text text-anchor="middle" x="671" y="-395.8" font-family="Times,serif" font-size="14.00">KeyringsService</text>
</g>
<!-- KeyringsService&#45;&gt;KeyringsModule -->
<g id="edge42" class="edge">
<title>KeyringsService&#45;&gt;KeyringsModule</title>
<path fill="none" stroke="black" d="M599.81,-394C569.73,-394 541.51,-394 541.51,-394 541.51,-394 541.51,-352.03 541.51,-352.03"/>
<polygon fill="black" stroke="black" points="545.01,-352.03 541.51,-342.03 538.01,-352.03 545.01,-352.03"/>
</g>
<!-- LoggerService -->
<g id="node38" class="node">
<title>LoggerService</title>
<ellipse fill="#fdb462" stroke="black" cx="2246" cy="-324" rx="67.76" ry="18"/>
<text text-anchor="middle" x="2246" y="-319.8" font-family="Times,serif" font-size="14.00">LoggerService</text>
</g>
<!-- LoggerService&#45;&gt;LoggerModule -->
<g id="edge43" class="edge">
<title>LoggerService&#45;&gt;LoggerModule</title>
<path fill="none" stroke="black" d="M2246,-342.01C2246,-342.01 2246,-371.85 2246,-371.85"/>
<polygon fill="black" stroke="black" points="2242.5,-371.85 2246,-381.85 2249.5,-371.85 2242.5,-371.85"/>
</g>
<!-- PasswdModule&#45;&gt;ManagementModule -->
<g id="edge45" class="edge">
<title>PasswdModule&#45;&gt;ManagementModule</title>
<path fill="none" stroke="black" d="M1784,-418.01C1784,-418.01 1784,-447.85 1784,-447.85"/>
<polygon fill="black" stroke="black" points="1780.5,-447.85 1784,-457.85 1787.5,-447.85 1780.5,-447.85"/>
</g>
<!-- ManagementService -->
<g id="node40" class="node">
<title>ManagementService</title>
<ellipse fill="#fdb462" stroke="black" cx="1619" cy="-400" rx="90.31" ry="18"/>
<text text-anchor="middle" x="1619" y="-395.8" font-family="Times,serif" font-size="14.00">ManagementService</text>
</g>
<!-- ManagementService&#45;&gt;ManagementModule -->
<g id="edge46" class="edge">
<title>ManagementService&#45;&gt;ManagementModule</title>
<path fill="none" stroke="black" d="M1701.51,-407.57C1701.51,-426.79 1701.51,-476 1701.51,-476 1701.51,-476 1707.81,-476 1707.81,-476"/>
<polygon fill="black" stroke="black" points="1707.81,-479.5 1717.81,-476 1707.81,-472.5 1707.81,-479.5"/>
</g>
<!-- PasswdadmModule&#45;&gt;SettingstModule -->
<g id="edge56" class="edge">
<title>PasswdadmModule&#45;&gt;SettingstModule</title>
<path fill="none" stroke="black" d="M1099.15,-342.21C1099.15,-347.55 1099.15,-352 1099.15,-352 1099.15,-352 2013.98,-352 2013.98,-352 2013.98,-352 2013.98,-447.97 2013.98,-447.97"/>
<polygon fill="black" stroke="black" points="2010.48,-447.97 2013.98,-457.97 2017.48,-447.97 2010.48,-447.97"/>
</g>
<!-- PasswdadmModule&#45;&gt;PasswdModule -->
<g id="edge53" class="edge">
<title>PasswdadmModule&#45;&gt;PasswdModule</title>
<path fill="none" stroke="black" d="M1096.47,-342.01C1096.47,-358.05 1096.47,-379 1096.47,-379 1096.47,-379 1749.77,-379 1749.77,-379 1749.77,-379 1749.77,-379.29 1749.77,-379.29"/>
<polygon fill="black" stroke="black" points="1746.27,-371.92 1749.77,-381.92 1753.27,-371.92 1746.27,-371.92"/>
</g>
<!-- PasswdadmService  -->
<g id="node42" class="node">
<title>PasswdadmService </title>
<polygon fill="#fb8072" stroke="black" points="1093.58,-418 966.42,-418 966.42,-382 1093.58,-382 1093.58,-418"/>
<text text-anchor="middle" x="1030" y="-395.8" font-family="Times,serif" font-size="14.00">PasswdadmService </text>
</g>
<!-- PasswdadmModule&#45;&gt;PasswdadmService  -->
<g id="edge49" class="edge">
<title>PasswdadmModule&#45;&gt;PasswdadmService </title>
<path fill="none" stroke="black" stroke-dasharray="5,2" d="M1034.98,-342.01C1034.98,-342.01 1034.98,-371.85 1034.98,-371.85"/>
<polygon fill="black" stroke="black" points="1031.48,-371.85 1034.98,-381.85 1038.48,-371.85 1031.48,-371.85"/>
</g>
<!-- PasswdadmService -->
<g id="node43" class="node">
<title>PasswdadmService</title>
<ellipse fill="#fdb462" stroke="black" cx="1008" cy="-248" rx="85.67" ry="18"/>
<text text-anchor="middle" x="1008" y="-243.8" font-family="Times,serif" font-size="14.00">PasswdadmService</text>
</g>
<!-- PasswdadmService&#45;&gt;PasswdadmModule -->
<g id="edge50" class="edge">
<title>PasswdadmService&#45;&gt;PasswdadmModule</title>
<path fill="none" stroke="black" d="M1034.88,-265.25C1034.88,-265.25 1034.88,-295.76 1034.88,-295.76"/>
<polygon fill="black" stroke="black" points="1031.38,-295.76 1034.88,-305.76 1038.38,-295.76 1031.38,-295.76"/>
</g>
<!-- PasswdService -->
<g id="node44" class="node">
<title>PasswdService</title>
<ellipse fill="#fdb462" stroke="black" cx="1747" cy="-324" rx="68.92" ry="18"/>
<text text-anchor="middle" x="1747" y="-319.8" font-family="Times,serif" font-size="14.00">PasswdService</text>
</g>
<!-- PasswdService&#45;&gt;PasswdModule -->
<g id="edge54" class="edge">
<title>PasswdService&#45;&gt;PasswdModule</title>
<path fill="none" stroke="black" d="M1799.41,-335.88C1799.41,-335.88 1799.41,-371.99 1799.41,-371.99"/>
<polygon fill="black" stroke="black" points="1795.91,-371.99 1799.41,-381.99 1802.91,-371.99 1795.91,-371.99"/>
</g>
<!-- SmsService -->
<g id="node45" class="node">
<title>SmsService</title>
<ellipse fill="#fdb462" stroke="black" cx="1891" cy="-324" rx="56.76" ry="18"/>
<text text-anchor="middle" x="1891" y="-319.8" font-family="Times,serif" font-size="14.00">SmsService</text>
</g>
<!-- SmsService&#45;&gt;PasswdModule -->
<g id="edge55" class="edge">
<title>SmsService&#45;&gt;PasswdModule</title>
<path fill="none" stroke="black" d="M1842.54,-333.41C1842.54,-354.95 1842.54,-406 1842.54,-406 1842.54,-406 1841.78,-406 1841.78,-406"/>
<polygon fill="black" stroke="black" points="1844.89,-402.5 1834.89,-406 1844.89,-409.5 1844.89,-402.5"/>
</g>
<!-- SettingsService -->
<g id="node46" class="node">
<title>SettingsService</title>
<ellipse fill="#fdb462" stroke="black" cx="2407" cy="-400" rx="71.22" ry="18"/>
<text text-anchor="middle" x="2407" y="-395.8" font-family="Times,serif" font-size="14.00">SettingsService</text>
</g>
<!-- SettingsService&#45;&gt;SettingstModule -->
<g id="edge57" class="edge">
<title>SettingsService&#45;&gt;SettingstModule</title>
<path fill="none" stroke="black" d="M2407,-418.01C2407,-440.49 2407,-476 2407,-476 2407,-476 2092.3,-476 2092.3,-476"/>
<polygon fill="black" stroke="black" points="2092.3,-472.5 2082.3,-476 2092.3,-479.5 2092.3,-472.5"/>
</g>
<!-- TasksService -->
<g id="node48" class="node">
<title>TasksService</title>
<ellipse fill="#fdb462" stroke="black" cx="2033" cy="-248" rx="62.54" ry="18"/>
<text text-anchor="middle" x="2033" y="-243.8" font-family="Times,serif" font-size="14.00">TasksService</text>
</g>
<!-- TasksService&#45;&gt;TasksModule -->
<g id="edge59" class="edge">
<title>TasksService&#45;&gt;TasksModule</title>
<path fill="none" stroke="black" d="M2033,-229.83C2033,-210.91 2033,-184 2033,-184 2033,-184 1648.36,-184 1648.36,-184"/>
<polygon fill="black" stroke="black" points="1648.36,-180.5 1638.36,-184 1648.36,-187.5 1648.36,-180.5"/>
</g>
</g>
</svg>
