<?xml version="1.0" encoding="UTF-8" standalone="no"?>
<!DOCTYPE svg PUBLIC "-//W3C//DTD SVG 1.1//EN"
 "http://www.w3.org/Graphics/SVG/1.1/DTD/svg11.dtd">
<!-- Generated by graphviz version 2.47.0 (20210316.0004)
 -->
<!-- Title: dependencies Pages: 1 -->
<svg width="1876pt" height="363pt"
 viewBox="0.00 0.00 1876.00 363.00" xmlns="http://www.w3.org/2000/svg" xmlns:xlink="http://www.w3.org/1999/xlink">
<g id="graph0" class="graph" transform="scale(1 1) rotate(0) translate(4 359)">
<title>dependencies</title>
<polygon fill="white" stroke="transparent" points="-4,4 -4,-359 1872,-359 1872,4 -4,4"/>
<text text-anchor="start" x="913.01" y="-42.4" font-family="Times-12" font-weight="bold" font-size="14.00">Legend</text>
<polygon fill="#ffffb3" stroke="transparent" points="700,-10 700,-30 720,-30 720,-10 700,-10"/>
<text text-anchor="start" x="723.63" y="-15.4" font-family="Times-12" font-size="14.00"> &#160;Declarations</text>
<polygon fill="#8dd3c7" stroke="transparent" points="813,-10 813,-30 833,-30 833,-10 813,-10"/>
<text text-anchor="start" x="836.73" y="-15.4" font-family="Times-12" font-size="14.00"> &#160;Module</text>
<polygon fill="#80b1d3" stroke="transparent" points="899,-10 899,-30 919,-30 919,-10 899,-10"/>
<text text-anchor="start" x="922.78" y="-15.4" font-family="Times-12" font-size="14.00"> &#160;Bootstrap</text>
<polygon fill="#fdb462" stroke="transparent" points="996,-10 996,-30 1016,-30 1016,-10 996,-10"/>
<text text-anchor="start" x="1019.67" y="-15.4" font-family="Times-12" font-size="14.00"> &#160;Providers</text>
<polygon fill="#fb8072" stroke="transparent" points="1092,-10 1092,-30 1112,-30 1112,-10 1092,-10"/>
<text text-anchor="start" x="1115.73" y="-15.4" font-family="Times-12" font-size="14.00"> &#160;Exports</text>
<g id="clust1" class="cluster">
<title>cluster_AppModule</title>
<polygon fill="none" stroke="black" stroke-dasharray="1,5" points="832,-222 832,-347 1239,-347 1239,-222 832,-222"/>
</g>
<g id="clust3" class="cluster">
<title>cluster_AppModule_imports</title>
<polygon fill="none" stroke="black" points="978,-230 978,-282 1231,-282 1231,-230 978,-230"/>
</g>
<g id="clust6" class="cluster">
<title>cluster_AppModule_providers</title>
<polygon fill="none" stroke="black" points="840,-230 840,-282 970,-282 970,-230 840,-230"/>
</g>
<g id="clust7" class="cluster">
<title>cluster_AuthModule</title>
<polygon fill="none" stroke="black" stroke-dasharray="1,5" points="1488,-70 1488,-206 1860,-206 1860,-70 1488,-70"/>
</g>
<g id="clust12" class="cluster">
<title>cluster_AuthModule_providers</title>
<polygon fill="none" stroke="black" points="1496,-78 1496,-130 1852,-130 1852,-78 1496,-78"/>
</g>
<g id="clust13" class="cluster">
<title>cluster_BackendsModule</title>
<polygon fill="none" stroke="black" stroke-dasharray="1,5" points="1292,-70 1292,-206 1480,-206 1480,-70 1292,-70"/>
</g>
<g id="clust18" class="cluster">
<title>cluster_BackendsModule_providers</title>
<polygon fill="none" stroke="black" points="1300,-78 1300,-130 1472,-130 1472,-78 1300,-78"/>
</g>
<g id="clust19" class="cluster">
<title>cluster_CoreModule</title>
<polygon fill="none" stroke="black" stroke-dasharray="1,5" points="220,-146 220,-214 494,-214 494,-146 220,-146"/>
</g>
<g id="clust21" class="cluster">
<title>cluster_CoreModule_imports</title>
<polygon fill="none" stroke="black" points="370,-154 370,-206 486,-206 486,-154 370,-154"/>
</g>
<g id="clust24" class="cluster">
<title>cluster_CoreModule_providers</title>
<polygon fill="none" stroke="black" points="228,-154 228,-206 362,-206 362,-154 228,-154"/>
</g>
<g id="clust25" class="cluster">
<title>cluster_IdentitiesModule</title>
<polygon fill="none" stroke="black" stroke-dasharray="1,5" points="502,-70 502,-206 938,-206 938,-70 502,-70"/>
</g>
<g id="clust30" class="cluster">
<title>cluster_IdentitiesModule_providers</title>
<polygon fill="none" stroke="black" points="510,-78 510,-130 930,-130 930,-78 510,-78"/>
</g>
<g id="clust31" class="cluster">
<title>cluster_IdentitiesValidationModule</title>
<polygon fill="none" stroke="black" stroke-dasharray="1,5" points="8,-154 8,-290 212,-290 212,-154 8,-154"/>
</g>
<g id="clust34" class="cluster">
<title>cluster_IdentitiesValidationModule_exports</title>
<polygon fill="none" stroke="black" points="16,-230 16,-282 204,-282 204,-230 16,-230"/>
</g>
<g id="clust37" class="cluster">
<title>cluster_LoggerModule</title>
<polygon fill="none" stroke="black" stroke-dasharray="1,5" points="326,-70 326,-138 494,-138 494,-70 326,-70"/>
</g>
<g id="clust42" class="cluster">
<title>cluster_LoggerModule_providers</title>
<polygon fill="none" stroke="black" points="334,-78 334,-130 486,-130 486,-78 334,-78"/>
</g>
<g id="clust43" class="cluster">
<title>cluster_ManagementModule</title>
<polygon fill="none" stroke="black" stroke-dasharray="1,5" points="946,-146 946,-214 1284,-214 1284,-146 946,-146"/>
</g>
<g id="clust45" class="cluster">
<title>cluster_ManagementModule_imports</title>
<polygon fill="none" stroke="black" points="1158,-154 1158,-206 1276,-206 1276,-154 1158,-154"/>
</g>
<g id="clust48" class="cluster">
<title>cluster_ManagementModule_providers</title>
<polygon fill="none" stroke="black" points="954,-154 954,-206 1150,-206 1150,-154 954,-154"/>
</g>
<g id="clust49" class="cluster">
<title>cluster_PasswdModule</title>
<polygon fill="none" stroke="black" stroke-dasharray="1,5" points="1114,-70 1114,-138 1284,-138 1284,-70 1114,-70"/>
</g>
<g id="clust54" class="cluster">
<title>cluster_PasswdModule_providers</title>
<polygon fill="none" stroke="black" points="1122,-78 1122,-130 1276,-130 1276,-78 1122,-78"/>
</g>
<!-- CoreModule -->
<g id="node1" class="node">
<title>CoreModule</title>
<polygon fill="#8dd3c7" stroke="black" points="1223.26,-274 1220.26,-278 1199.26,-278 1196.26,-274 1136.74,-274 1136.74,-238 1223.26,-238 1223.26,-274"/>
<text text-anchor="middle" x="1180" y="-251.8" font-family="Times,serif" font-size="14.00">CoreModule</text>
</g>
<!-- AppModule -->
<g id="node3" class="node">
<title>AppModule</title>
<polygon fill="#8dd3c7" stroke="black" points="1093.66,-339 1090.66,-343 1069.66,-343 1066.66,-339 1010.34,-339 1010.34,-303 1093.66,-303 1093.66,-339"/>
<text text-anchor="middle" x="1052" y="-316.8" font-family="Times,serif" font-size="14.00">AppModule</text>
</g>
<!-- CoreModule&#45;&gt;AppModule -->
<g id="edge1" class="edge">
<title>CoreModule&#45;&gt;AppModule</title>
<path fill="none" stroke="black" d="M1180,-274.11C1180,-293.34 1180,-321 1180,-321 1180,-321 1103.91,-321 1103.91,-321"/>
<polygon fill="black" stroke="black" points="1103.91,-317.5 1093.91,-321 1103.91,-324.5 1103.91,-317.5"/>
</g>
<!-- ManagementModule -->
<g id="node2" class="node">
<title>ManagementModule</title>
<polygon fill="#8dd3c7" stroke="black" points="1118.13,-274 1115.13,-278 1094.13,-278 1091.13,-274 985.87,-274 985.87,-238 1118.13,-238 1118.13,-274"/>
<text text-anchor="middle" x="1052" y="-251.8" font-family="Times,serif" font-size="14.00">ManagementModule</text>
</g>
<!-- ManagementModule&#45;&gt;AppModule -->
<g id="edge2" class="edge">
<title>ManagementModule&#45;&gt;AppModule</title>
<path fill="none" stroke="black" d="M1052,-274.11C1052,-274.11 1052,-292.99 1052,-292.99"/>
<polygon fill="black" stroke="black" points="1048.5,-292.99 1052,-302.99 1055.5,-292.99 1048.5,-292.99"/>
</g>
<!-- AppService -->
<g id="node4" class="node">
<title>AppService</title>
<ellipse fill="#fdb462" stroke="black" cx="905" cy="-256" rx="56.74" ry="18"/>
<text text-anchor="middle" x="905" y="-251.8" font-family="Times,serif" font-size="14.00">AppService</text>
</g>
<!-- AppService&#45;&gt;AppModule -->
<g id="edge3" class="edge">
<title>AppService&#45;&gt;AppModule</title>
<path fill="none" stroke="black" d="M905,-274.11C905,-293.34 905,-321 905,-321 905,-321 1000.27,-321 1000.27,-321"/>
<polygon fill="black" stroke="black" points="1000.27,-324.5 1010.27,-321 1000.27,-317.5 1000.27,-324.5"/>
</g>
<!-- AuthService -->
<g id="node5" class="node">
<title>AuthService</title>
<ellipse fill="#fdb462" stroke="black" cx="1785" cy="-104" rx="59.11" ry="18"/>
<text text-anchor="middle" x="1785" y="-99.8" font-family="Times,serif" font-size="14.00">AuthService</text>
</g>
<!-- AuthModule -->
<g id="node7" class="node">
<title>AuthModule</title>
<polygon fill="#8dd3c7" stroke="black" points="1649.55,-198 1646.55,-202 1625.55,-202 1622.55,-198 1562.45,-198 1562.45,-162 1649.55,-162 1649.55,-198"/>
<text text-anchor="middle" x="1606" y="-175.8" font-family="Times,serif" font-size="14.00">AuthModule</text>
</g>
<!-- AuthService&#45;&gt;AuthModule -->
<g id="edge4" class="edge">
<title>AuthService&#45;&gt;AuthModule</title>
<path fill="none" stroke="black" d="M1785,-122.01C1785,-144.49 1785,-180 1785,-180 1785,-180 1659.79,-180 1659.79,-180"/>
<polygon fill="black" stroke="black" points="1659.79,-176.5 1649.79,-180 1659.79,-183.5 1659.79,-176.5"/>
</g>
<!-- HeaderApiKeyStrategy -->
<g id="node6" class="node">
<title>HeaderApiKeyStrategy</title>
<ellipse fill="#fdb462" stroke="black" cx="1606" cy="-104" rx="101.82" ry="18"/>
<text text-anchor="middle" x="1606" y="-99.8" font-family="Times,serif" font-size="14.00">HeaderApiKeyStrategy</text>
</g>
<!-- HeaderApiKeyStrategy&#45;&gt;AuthModule -->
<g id="edge5" class="edge">
<title>HeaderApiKeyStrategy&#45;&gt;AuthModule</title>
<path fill="none" stroke="black" d="M1606,-122.01C1606,-122.01 1606,-151.85 1606,-151.85"/>
<polygon fill="black" stroke="black" points="1602.5,-151.85 1606,-161.85 1609.5,-151.85 1602.5,-151.85"/>
</g>
<!-- AuthModule&#45;&gt;CoreModule -->
<g id="edge7" class="edge">
<title>AuthModule&#45;&gt;CoreModule</title>
<path fill="none" stroke="black" d="M1606,-198.2C1606,-222.36 1606,-262 1606,-262 1606,-262 1233.59,-262 1233.59,-262"/>
<polygon fill="black" stroke="black" points="1233.59,-258.5 1223.59,-262 1233.59,-265.5 1233.59,-258.5"/>
</g>
<!-- BackendsService -->
<g id="node8" class="node">
<title>BackendsService</title>
<ellipse fill="#fdb462" stroke="black" cx="1386" cy="-104" rx="77.57" ry="18"/>
<text text-anchor="middle" x="1386" y="-99.8" font-family="Times,serif" font-size="14.00">BackendsService</text>
</g>
<!-- BackendsModule -->
<g id="node9" class="node">
<title>BackendsModule</title>
<polygon fill="#8dd3c7" stroke="black" points="1427.97,-198 1424.97,-202 1403.97,-202 1400.97,-198 1314.03,-198 1314.03,-162 1427.97,-162 1427.97,-198"/>
<text text-anchor="middle" x="1371" y="-175.8" font-family="Times,serif" font-size="14.00">BackendsModule</text>
</g>
<!-- BackendsService&#45;&gt;BackendsModule -->
<g id="edge6" class="edge">
<title>BackendsService&#45;&gt;BackendsModule</title>
<path fill="none" stroke="black" d="M1371,-122.01C1371,-122.01 1371,-151.85 1371,-151.85"/>
<polygon fill="black" stroke="black" points="1367.5,-151.85 1371,-161.85 1374.5,-151.85 1367.5,-151.85"/>
</g>
<!-- BackendsModule&#45;&gt;CoreModule -->
<g id="edge8" class="edge">
<title>BackendsModule&#45;&gt;CoreModule</title>
<path fill="none" stroke="black" d="M1371,-198.03C1371,-218.77 1371,-250 1371,-250 1371,-250 1233.34,-250 1233.34,-250"/>
<polygon fill="black" stroke="black" points="1233.34,-246.5 1223.34,-250 1233.34,-253.5 1233.34,-246.5"/>
</g>
<!-- LoggerModule -->
<g id="node10" class="node">
<title>LoggerModule</title>
<polygon fill="#8dd3c7" stroke="black" points="477.98,-198 474.98,-202 453.98,-202 450.98,-198 378.02,-198 378.02,-162 477.98,-162 477.98,-198"/>
<text text-anchor="middle" x="428" y="-175.8" font-family="Times,serif" font-size="14.00">LoggerModule</text>
</g>
<!-- LoggerModule&#45;&gt;CoreModule -->
<g id="edge9" class="edge">
<title>LoggerModule&#45;&gt;CoreModule</title>
<path fill="none" stroke="black" d="M428,-198.06C428,-202.49 428,-206 428,-206 428,-206 1158.29,-206 1158.29,-206 1158.29,-206 1158.29,-227.95 1158.29,-227.95"/>
<polygon fill="black" stroke="black" points="1154.79,-227.95 1158.29,-237.95 1161.79,-227.95 1154.79,-227.95"/>
</g>
<!-- CoreService -->
<g id="node11" class="node">
<title>CoreService</title>
<ellipse fill="#fdb462" stroke="black" cx="295" cy="-180" rx="58.53" ry="18"/>
<text text-anchor="middle" x="295" y="-175.8" font-family="Times,serif" font-size="14.00">CoreService</text>
</g>
<!-- CoreService&#45;&gt;CoreModule -->
<g id="edge10" class="edge">
<title>CoreService&#45;&gt;CoreModule</title>
<path fill="none" stroke="black" d="M295,-198.19C295,-206.28 295,-214 295,-214 295,-214 1150.35,-214 1150.35,-214 1150.35,-214 1150.35,-227.94 1150.35,-227.94"/>
<polygon fill="black" stroke="black" points="1146.85,-227.94 1150.35,-237.94 1153.85,-227.94 1146.85,-227.94"/>
</g>
<!-- IdentitiesService -->
<g id="node12" class="node">
<title>IdentitiesService</title>
<ellipse fill="#fdb462" stroke="black" cx="846" cy="-104" rx="75.85" ry="18"/>
<text text-anchor="middle" x="846" y="-99.8" font-family="Times,serif" font-size="14.00">IdentitiesService</text>
</g>
<!-- IdentitiesModule -->
<g id="node14" class="node">
<title>IdentitiesModule</title>
<polygon fill="#8dd3c7" stroke="black" points="901.65,-198 898.65,-202 877.65,-202 874.65,-198 790.35,-198 790.35,-162 901.65,-162 901.65,-198"/>
<text text-anchor="middle" x="846" y="-175.8" font-family="Times,serif" font-size="14.00">IdentitiesModule</text>
</g>
<!-- IdentitiesService&#45;&gt;IdentitiesModule -->
<g id="edge11" class="edge">
<title>IdentitiesService&#45;&gt;IdentitiesModule</title>
<path fill="none" stroke="black" d="M846,-122.01C846,-122.01 846,-151.85 846,-151.85"/>
<polygon fill="black" stroke="black" points="842.5,-151.85 846,-161.85 849.5,-151.85 842.5,-151.85"/>
</g>
<!-- IdentitiesValidationService -->
<g id="node13" class="node">
<title>IdentitiesValidationService</title>
<ellipse fill="#fdb462" stroke="black" cx="635" cy="-104" rx="116.88" ry="18"/>
<text text-anchor="middle" x="635" y="-99.8" font-family="Times,serif" font-size="14.00">IdentitiesValidationService</text>
</g>
<!-- IdentitiesValidationService&#45;&gt;IdentitiesModule -->
<g id="edge12" class="edge">
<title>IdentitiesValidationService&#45;&gt;IdentitiesModule</title>
<path fill="none" stroke="black" d="M673.9,-121.25C673.9,-143.67 673.9,-180 673.9,-180 673.9,-180 780.12,-180 780.12,-180"/>
<polygon fill="black" stroke="black" points="780.12,-183.5 790.12,-180 780.12,-176.5 780.12,-183.5"/>
</g>
<!-- IdentitiesValidationModule -->
<g id="node16" class="node">
<title>IdentitiesValidationModule</title>
<polygon fill="#8dd3c7" stroke="black" points="199.24,-198 196.24,-202 175.24,-202 172.24,-198 28.76,-198 28.76,-162 199.24,-162 199.24,-198"/>
<text text-anchor="middle" x="114" y="-175.8" font-family="Times,serif" font-size="14.00">IdentitiesValidationModule</text>
</g>
<!-- IdentitiesValidationService&#45;&gt;IdentitiesValidationModule -->
<g id="edge14" class="edge">
<title>IdentitiesValidationService&#45;&gt;IdentitiesValidationModule</title>
<path fill="none" stroke="black" d="M596.1,-121.22C596.1,-131.28 596.1,-142 596.1,-142 596.1,-142 114,-142 114,-142 114,-142 114,-151.89 114,-151.89"/>
<polygon fill="black" stroke="black" points="110.5,-151.89 114,-161.89 117.5,-151.89 110.5,-151.89"/>
</g>
<!-- IdentitiesModule&#45;&gt;ManagementModule -->
<g id="edge16" class="edge">
<title>IdentitiesModule&#45;&gt;ManagementModule</title>
<path fill="none" stroke="black" d="M875.1,-198.06C875.1,-209.44 875.1,-222 875.1,-222 875.1,-222 1018.84,-222 1018.84,-222 1018.84,-222 1018.84,-227.81 1018.84,-227.81"/>
<polygon fill="black" stroke="black" points="1015.34,-227.81 1018.84,-237.81 1022.34,-227.81 1015.34,-227.81"/>
</g>
<!-- IdentitiesValidationService  -->
<g id="node15" class="node">
<title>IdentitiesValidationService </title>
<polygon fill="#fb8072" stroke="black" points="196.17,-274 23.83,-274 23.83,-238 196.17,-238 196.17,-274"/>
<text text-anchor="middle" x="110" y="-251.8" font-family="Times,serif" font-size="14.00">IdentitiesValidationService </text>
</g>
<!-- IdentitiesValidationModule&#45;&gt;IdentitiesValidationService  -->
<g id="edge13" class="edge">
<title>IdentitiesValidationModule&#45;&gt;IdentitiesValidationService </title>
<path fill="none" stroke="black" stroke-dasharray="5,2" d="M112.48,-198.01C112.48,-198.01 112.48,-227.85 112.48,-227.85"/>
<polygon fill="black" stroke="black" points="108.98,-227.85 112.48,-237.85 115.98,-227.85 108.98,-227.85"/>
</g>
<!-- LoggerService -->
<g id="node17" class="node">
<title>LoggerService</title>
<ellipse fill="#fdb462" stroke="black" cx="410" cy="-104" rx="67.76" ry="18"/>
<text text-anchor="middle" x="410" y="-99.8" font-family="Times,serif" font-size="14.00">LoggerService</text>
</g>
<!-- LoggerService&#45;&gt;LoggerModule -->
<g id="edge15" class="edge">
<title>LoggerService&#45;&gt;LoggerModule</title>
<path fill="none" stroke="black" d="M427.94,-121.63C427.94,-121.63 427.94,-151.94 427.94,-151.94"/>
<polygon fill="black" stroke="black" points="424.44,-151.94 427.94,-161.94 431.44,-151.94 424.44,-151.94"/>
</g>
<!-- PasswdModule -->
<g id="node18" class="node">
<title>PasswdModule</title>
<polygon fill="#8dd3c7" stroke="black" points="1267.54,-198 1264.54,-202 1243.54,-202 1240.54,-198 1166.46,-198 1166.46,-162 1267.54,-162 1267.54,-198"/>
<text text-anchor="middle" x="1217" y="-175.8" font-family="Times,serif" font-size="14.00">PasswdModule</text>
</g>
<!-- PasswdModule&#45;&gt;ManagementModule -->
<g id="edge17" class="edge">
<title>PasswdModule&#45;&gt;ManagementModule</title>
<path fill="none" stroke="black" d="M1194.8,-198.05C1194.8,-212.37 1194.8,-230 1194.8,-230 1194.8,-230 1085.16,-230 1085.16,-230 1085.16,-230 1085.16,-230.79 1085.16,-230.79"/>
<polygon fill="black" stroke="black" points="1081.66,-227.94 1085.16,-237.94 1088.66,-227.94 1081.66,-227.94"/>
</g>
<!-- ManagementService -->
<g id="node19" class="node">
<title>ManagementService</title>
<ellipse fill="#fdb462" stroke="black" cx="1052" cy="-180" rx="90.31" ry="18"/>
<text text-anchor="middle" x="1052" y="-175.8" font-family="Times,serif" font-size="14.00">ManagementService</text>
</g>
<!-- ManagementService&#45;&gt;ManagementModule -->
<g id="edge18" class="edge">
<title>ManagementService&#45;&gt;ManagementModule</title>
<path fill="none" stroke="black" d="M1052,-198.01C1052,-198.01 1052,-227.85 1052,-227.85"/>
<polygon fill="black" stroke="black" points="1048.5,-227.85 1052,-237.85 1055.5,-227.85 1048.5,-227.85"/>
</g>
<!-- PasswdService -->
<g id="node20" class="node">
<title>PasswdService</title>
<ellipse fill="#fdb462" stroke="black" cx="1199" cy="-104" rx="68.92" ry="18"/>
<text text-anchor="middle" x="1199" y="-99.8" font-family="Times,serif" font-size="14.00">PasswdService</text>
</g>
<!-- PasswdService&#45;&gt;PasswdModule -->
<g id="edge19" class="edge">
<title>PasswdService&#45;&gt;PasswdModule</title>
<path fill="none" stroke="black" d="M1217,-121.63C1217,-121.63 1217,-151.94 1217,-151.94"/>
<polygon fill="black" stroke="black" points="1213.5,-151.94 1217,-161.94 1220.5,-151.94 1213.5,-151.94"/>
</g>
</g>
</svg>
