<?xml version="1.0" encoding="UTF-8" standalone="no"?>
<!DOCTYPE svg PUBLIC "-//W3C//DTD SVG 1.1//EN"
 "http://www.w3.org/Graphics/SVG/1.1/DTD/svg11.dtd">
<!-- Generated by graphviz version 2.47.0 (20210316.0004)
 -->
<!-- Title: dependencies Pages: 1 -->
<svg width="3395pt" height="439pt"
 viewBox="0.00 0.00 3395.00 439.00" xmlns="http://www.w3.org/2000/svg" xmlns:xlink="http://www.w3.org/1999/xlink">
<g id="graph0" class="graph" transform="scale(1 1) rotate(0) translate(4 435)">
<title>dependencies</title>
<polygon fill="white" stroke="transparent" points="-4,4 -4,-435 3391,-435 3391,4 -4,4"/>
<text text-anchor="start" x="1672.51" y="-42.4" font-family="Times-12" font-weight="bold" font-size="14.00">Legend</text>
<polygon fill="#ffffb3" stroke="transparent" points="1459.5,-10 1459.5,-30 1479.5,-30 1479.5,-10 1459.5,-10"/>
<text text-anchor="start" x="1483.13" y="-15.4" font-family="Times-12" font-size="14.00"> &#160;Declarations</text>
<polygon fill="#8dd3c7" stroke="transparent" points="1572.5,-10 1572.5,-30 1592.5,-30 1592.5,-10 1572.5,-10"/>
<text text-anchor="start" x="1596.23" y="-15.4" font-family="Times-12" font-size="14.00"> &#160;Module</text>
<polygon fill="#80b1d3" stroke="transparent" points="1658.5,-10 1658.5,-30 1678.5,-30 1678.5,-10 1658.5,-10"/>
<text text-anchor="start" x="1682.28" y="-15.4" font-family="Times-12" font-size="14.00"> &#160;Bootstrap</text>
<polygon fill="#fdb462" stroke="transparent" points="1755.5,-10 1755.5,-30 1775.5,-30 1775.5,-10 1755.5,-10"/>
<text text-anchor="start" x="1779.17" y="-15.4" font-family="Times-12" font-size="14.00"> &#160;Providers</text>
<polygon fill="#fb8072" stroke="transparent" points="1851.5,-10 1851.5,-30 1871.5,-30 1871.5,-10 1851.5,-10"/>
<text text-anchor="start" x="1875.23" y="-15.4" font-family="Times-12" font-size="14.00"> &#160;Exports</text>
<g id="clust1" class="cluster">
<title>cluster_AgentsModule</title>
<polygon fill="none" stroke="black" stroke-dasharray="1,5" points="2301,-70 2301,-290 2467,-290 2467,-70 2301,-70"/>
</g>
<g id="clust4" class="cluster">
<title>cluster_AgentsModule_exports</title>
<polygon fill="none" stroke="black" points="2309,-230 2309,-282 2427,-282 2427,-230 2309,-230"/>
</g>
<g id="clust6" class="cluster">
<title>cluster_AgentsModule_providers</title>
<polygon fill="none" stroke="black" points="2309,-78 2309,-130 2459,-130 2459,-78 2309,-78"/>
</g>
<g id="clust7" class="cluster">
<title>cluster_AppModule</title>
<polygon fill="none" stroke="black" stroke-dasharray="1,5" points="1587,-298 1587,-423 1994,-423 1994,-298 1587,-298"/>
</g>
<g id="clust9" class="cluster">
<title>cluster_AppModule_imports</title>
<polygon fill="none" stroke="black" points="1733,-306 1733,-358 1986,-358 1986,-306 1733,-306"/>
</g>
<g id="clust12" class="cluster">
<title>cluster_AppModule_providers</title>
<polygon fill="none" stroke="black" points="1595,-306 1595,-358 1725,-358 1725,-306 1595,-306"/>
</g>
<g id="clust13" class="cluster">
<title>cluster_AuthModule</title>
<polygon fill="none" stroke="black" stroke-dasharray="1,5" points="1576,-146 1576,-282 2007,-282 2007,-146 1576,-146"/>
</g>
<g id="clust18" class="cluster">
<title>cluster_AuthModule_providers</title>
<polygon fill="none" stroke="black" points="1584,-154 1584,-206 1999,-206 1999,-154 1584,-154"/>
</g>
<g id="clust19" class="cluster">
<title>cluster_BackendsModule</title>
<polygon fill="none" stroke="black" stroke-dasharray="1,5" points="1032,-146 1032,-366 1568,-366 1568,-146 1032,-146"/>
</g>
<g id="clust21" class="cluster">
<title>cluster_BackendsModule_imports</title>
<polygon fill="none" stroke="black" points="1220,-154 1220,-206 1560,-206 1560,-154 1220,-154"/>
</g>
<g id="clust22" class="cluster">
<title>cluster_BackendsModule_exports</title>
<polygon fill="none" stroke="black" points="1228,-306 1228,-358 1360,-358 1360,-306 1228,-306"/>
</g>
<g id="clust24" class="cluster">
<title>cluster_BackendsModule_providers</title>
<polygon fill="none" stroke="black" points="1040,-154 1040,-206 1212,-206 1212,-154 1040,-154"/>
</g>
<g id="clust25" class="cluster">
<title>cluster_CliModule</title>
<polygon fill="none" stroke="black" stroke-dasharray="1,5" points="334,-222 334,-358 476,-358 476,-222 334,-222"/>
</g>
<g id="clust27" class="cluster">
<title>cluster_CliModule_imports</title>
<polygon fill="none" stroke="black" points="342,-230 342,-282 468,-282 468,-230 342,-230"/>
</g>
<g id="clust31" class="cluster">
<title>cluster_CoreModule</title>
<polygon fill="none" stroke="black" stroke-dasharray="1,5" points="2747,-222 2747,-290 3021,-290 3021,-222 2747,-222"/>
</g>
<g id="clust33" class="cluster">
<title>cluster_CoreModule_imports</title>
<polygon fill="none" stroke="black" points="2897,-230 2897,-282 3013,-282 3013,-230 2897,-230"/>
</g>
<g id="clust36" class="cluster">
<title>cluster_CoreModule_providers</title>
<polygon fill="none" stroke="black" points="2755,-230 2755,-282 2889,-282 2889,-230 2755,-230"/>
</g>
<g id="clust37" class="cluster">
<title>cluster_FormModule</title>
<polygon fill="none" stroke="black" stroke-dasharray="1,5" points="3047,-70 3047,-206 3201,-206 3201,-70 3047,-70"/>
</g>
<g id="clust42" class="cluster">
<title>cluster_FormModule_providers</title>
<polygon fill="none" stroke="black" points="3055,-78 3055,-130 3193,-130 3193,-78 3055,-78"/>
</g>
<g id="clust43" class="cluster">
<title>cluster_IdentitiesJsonformsModule</title>
<polygon fill="none" stroke="black" stroke-dasharray="1,5" points="2475,-70 2475,-290 2739,-290 2739,-70 2475,-70"/>
</g>
<g id="clust46" class="cluster">
<title>cluster_IdentitiesJsonformsModule_exports</title>
<polygon fill="none" stroke="black" points="2513,-230 2513,-282 2701,-282 2701,-230 2513,-230"/>
</g>
<g id="clust48" class="cluster">
<title>cluster_IdentitiesJsonformsModule_providers</title>
<polygon fill="none" stroke="black" points="2483,-78 2483,-130 2731,-130 2731,-78 2483,-78"/>
</g>
<g id="clust49" class="cluster">
<title>cluster_IdentitiesModule</title>
<polygon fill="none" stroke="black" stroke-dasharray="1,5" points="1073,-70 1073,-138 1647,-138 1647,-70 1073,-70"/>
</g>
<g id="clust52" class="cluster">
<title>cluster_IdentitiesModule_exports</title>
<polygon fill="none" stroke="black" points="1509,-78 1509,-130 1639,-130 1639,-78 1509,-78"/>
</g>
<g id="clust54" class="cluster">
<title>cluster_IdentitiesModule_providers</title>
<polygon fill="none" stroke="black" points="1081,-78 1081,-130 1501,-130 1501,-78 1081,-78"/>
</g>
<g id="clust55" class="cluster">
<title>cluster_IdentitiesValidationModule</title>
<polygon fill="none" stroke="black" stroke-dasharray="1,5" points="122,-154 122,-290 326,-290 326,-154 122,-154"/>
</g>
<g id="clust58" class="cluster">
<title>cluster_IdentitiesValidationModule_exports</title>
<polygon fill="none" stroke="black" points="130,-230 130,-282 318,-282 318,-230 130,-230"/>
</g>
<g id="clust61" class="cluster">
<title>cluster_JobsModule</title>
<polygon fill="none" stroke="black" stroke-dasharray="1,5" points="484,-222 484,-290 740,-290 740,-222 484,-222"/>
</g>
<g id="clust64" class="cluster">
<title>cluster_JobsModule_exports</title>
<polygon fill="none" stroke="black" points="630,-230 630,-282 732,-282 732,-230 630,-230"/>
</g>
<g id="clust66" class="cluster">
<title>cluster_JobsModule_providers</title>
<polygon fill="none" stroke="black" points="492,-230 492,-282 622,-282 622,-230 492,-230"/>
</g>
<g id="clust67" class="cluster">
<title>cluster_KeyringsModule</title>
<polygon fill="none" stroke="black" stroke-dasharray="1,5" points="8,-298 8,-366 326,-366 326,-298 8,-298"/>
</g>
<g id="clust70" class="cluster">
<title>cluster_KeyringsModule_exports</title>
<polygon fill="none" stroke="black" points="190,-306 190,-358 318,-358 318,-306 190,-306"/>
</g>
<g id="clust72" class="cluster">
<title>cluster_KeyringsModule_providers</title>
<polygon fill="none" stroke="black" points="16,-306 16,-358 182,-358 182,-306 16,-306"/>
</g>
<g id="clust73" class="cluster">
<title>cluster_LoggerModule</title>
<polygon fill="none" stroke="black" stroke-dasharray="1,5" points="2871,-146 2871,-214 3039,-214 3039,-146 2871,-146"/>
</g>
<g id="clust78" class="cluster">
<title>cluster_LoggerModule_providers</title>
<polygon fill="none" stroke="black" points="2879,-154 2879,-206 3031,-206 3031,-154 2879,-154"/>
</g>
<g id="clust79" class="cluster">
<title>cluster_ManagementModule</title>
<polygon fill="none" stroke="black" stroke-dasharray="1,5" points="2081,-222 2081,-290 2293,-290 2293,-222 2081,-222"/>
</g>
<g id="clust84" class="cluster">
<title>cluster_ManagementModule_providers</title>
<polygon fill="none" stroke="black" points="2089,-230 2089,-282 2285,-282 2285,-230 2089,-230"/>
</g>
<g id="clust85" class="cluster">
<title>cluster_PasswdModule</title>
<polygon fill="none" stroke="black" stroke-dasharray="1,5" points="3209,-70 3209,-214 3379,-214 3379,-70 3209,-70"/>
</g>
<g id="clust87" class="cluster">
<title>cluster_PasswdModule_imports</title>
<polygon fill="none" stroke="black" points="3235,-154 3235,-206 3371,-206 3371,-154 3235,-154"/>
</g>
<g id="clust90" class="cluster">
<title>cluster_PasswdModule_providers</title>
<polygon fill="none" stroke="black" points="3217,-78 3217,-130 3371,-130 3371,-78 3217,-78"/>
</g>
<g id="clust91" class="cluster">
<title>cluster_TasksModule</title>
<polygon fill="none" stroke="black" stroke-dasharray="1,5" points="748,-222 748,-290 1024,-290 1024,-222 748,-222"/>
</g>
<g id="clust94" class="cluster">
<title>cluster_TasksModule_exports</title>
<polygon fill="none" stroke="black" points="906,-230 906,-282 1016,-282 1016,-230 906,-230"/>
</g>
<g id="clust96" class="cluster">
<title>cluster_TasksModule_providers</title>
<polygon fill="none" stroke="black" points="756,-230 756,-282 898,-282 898,-230 756,-230"/>
</g>
<!-- AgentsService  -->
<g id="node1" class="node">
<title>AgentsService </title>
<polygon fill="#fb8072" stroke="black" points="2418.63,-274 2317.37,-274 2317.37,-238 2418.63,-238 2418.63,-274"/>
<text text-anchor="middle" x="2368" y="-251.8" font-family="Times,serif" font-size="14.00">AgentsService </text>
</g>
<!-- AgentsModule -->
<g id="node2" class="node">
<title>AgentsModule</title>
<polygon fill="#8dd3c7" stroke="black" points="2408.71,-198 2405.71,-202 2384.71,-202 2381.71,-198 2309.29,-198 2309.29,-162 2408.71,-162 2408.71,-198"/>
<text text-anchor="middle" x="2359" y="-175.8" font-family="Times,serif" font-size="14.00">AgentsModule</text>
</g>
<!-- AgentsModule&#45;&gt;AgentsService  -->
<g id="edge1" class="edge">
<title>AgentsModule&#45;&gt;AgentsService </title>
<path fill="none" stroke="black" stroke-dasharray="5,2" d="M2363.02,-198.01C2363.02,-198.01 2363.02,-227.85 2363.02,-227.85"/>
<polygon fill="black" stroke="black" points="2359.52,-227.85 2363.02,-237.85 2366.52,-227.85 2359.52,-227.85"/>
</g>
<!-- CoreModule -->
<g id="node4" class="node">
<title>CoreModule</title>
<polygon fill="#8dd3c7" stroke="black" points="1827.26,-350 1824.26,-354 1803.26,-354 1800.26,-350 1740.74,-350 1740.74,-314 1827.26,-314 1827.26,-350"/>
<text text-anchor="middle" x="1784" y="-327.8" font-family="Times,serif" font-size="14.00">CoreModule</text>
</g>
<!-- AgentsModule&#45;&gt;CoreModule -->
<g id="edge18" class="edge">
<title>AgentsModule&#45;&gt;CoreModule</title>
<path fill="none" stroke="black" d="M2314.75,-198.32C2314.75,-229.13 2314.75,-288 2314.75,-288 2314.75,-288 1781.09,-288 1781.09,-288 1781.09,-288 1781.09,-303.85 1781.09,-303.85"/>
<polygon fill="black" stroke="black" points="1777.59,-303.85 1781.09,-313.85 1784.59,-303.85 1777.59,-303.85"/>
</g>
<!-- AuthModule -->
<g id="node8" class="node">
<title>AuthModule</title>
<polygon fill="#8dd3c7" stroke="black" points="1837.55,-274 1834.55,-278 1813.55,-278 1810.55,-274 1750.45,-274 1750.45,-238 1837.55,-238 1837.55,-274"/>
<text text-anchor="middle" x="1794" y="-251.8" font-family="Times,serif" font-size="14.00">AuthModule</text>
</g>
<!-- AgentsModule&#45;&gt;AuthModule -->
<g id="edge6" class="edge">
<title>AgentsModule&#45;&gt;AuthModule</title>
<path fill="none" stroke="black" d="M2309.37,-180C2220.56,-180 2043.61,-180 2043.61,-180 2043.61,-180 2043.61,-256 2043.61,-256 2043.61,-256 1847.76,-256 1847.76,-256"/>
<polygon fill="black" stroke="black" points="1847.76,-252.5 1837.76,-256 1847.76,-259.5 1847.76,-252.5"/>
</g>
<!-- CliModule -->
<g id="node19" class="node">
<title>CliModule</title>
<polygon fill="#8dd3c7" stroke="black" points="468.17,-350 465.17,-354 444.17,-354 441.17,-350 391.83,-350 391.83,-314 468.17,-314 468.17,-350"/>
<text text-anchor="middle" x="430" y="-327.8" font-family="Times,serif" font-size="14.00">CliModule</text>
</g>
<!-- AgentsModule&#45;&gt;CliModule -->
<g id="edge15" class="edge">
<title>AgentsModule&#45;&gt;CliModule</title>
<path fill="none" stroke="black" d="M2312.08,-198.17C2312.08,-200.45 2312.08,-202 2312.08,-202 2312.08,-202 464.38,-202 464.38,-202 464.38,-202 464.38,-303.92 464.38,-303.92"/>
<polygon fill="black" stroke="black" points="460.88,-303.92 464.38,-313.92 467.88,-303.92 460.88,-303.92"/>
</g>
<!-- AgentsService -->
<g id="node3" class="node">
<title>AgentsService</title>
<ellipse fill="#fdb462" stroke="black" cx="2384" cy="-104" rx="67.19" ry="18"/>
<text text-anchor="middle" x="2384" y="-99.8" font-family="Times,serif" font-size="14.00">AgentsService</text>
</g>
<!-- AgentsService&#45;&gt;AgentsModule -->
<g id="edge2" class="edge">
<title>AgentsService&#45;&gt;AgentsModule</title>
<path fill="none" stroke="black" d="M2362.63,-121.25C2362.63,-121.25 2362.63,-151.76 2362.63,-151.76"/>
<polygon fill="black" stroke="black" points="2359.13,-151.76 2362.63,-161.76 2366.13,-151.76 2359.13,-151.76"/>
</g>
<!-- AppModule -->
<g id="node6" class="node">
<title>AppModule</title>
<polygon fill="#8dd3c7" stroke="black" points="1825.66,-415 1822.66,-419 1801.66,-419 1798.66,-415 1742.34,-415 1742.34,-379 1825.66,-379 1825.66,-415"/>
<text text-anchor="middle" x="1784" y="-392.8" font-family="Times,serif" font-size="14.00">AppModule</text>
</g>
<!-- CoreModule&#45;&gt;AppModule -->
<g id="edge3" class="edge">
<title>CoreModule&#45;&gt;AppModule</title>
<path fill="none" stroke="black" d="M1784,-350.11C1784,-350.11 1784,-368.99 1784,-368.99"/>
<polygon fill="black" stroke="black" points="1780.5,-368.99 1784,-378.99 1787.5,-368.99 1780.5,-368.99"/>
</g>
<!-- ManagementModule -->
<g id="node5" class="node">
<title>ManagementModule</title>
<polygon fill="#8dd3c7" stroke="black" points="1978.13,-350 1975.13,-354 1954.13,-354 1951.13,-350 1845.87,-350 1845.87,-314 1978.13,-314 1978.13,-350"/>
<text text-anchor="middle" x="1912" y="-327.8" font-family="Times,serif" font-size="14.00">ManagementModule</text>
</g>
<!-- ManagementModule&#45;&gt;AppModule -->
<g id="edge4" class="edge">
<title>ManagementModule&#45;&gt;AppModule</title>
<path fill="none" stroke="black" d="M1912,-350.11C1912,-369.34 1912,-397 1912,-397 1912,-397 1835.91,-397 1835.91,-397"/>
<polygon fill="black" stroke="black" points="1835.91,-393.5 1825.91,-397 1835.91,-400.5 1835.91,-393.5"/>
</g>
<!-- AppService -->
<g id="node7" class="node">
<title>AppService</title>
<ellipse fill="#fdb462" stroke="black" cx="1660" cy="-332" rx="56.74" ry="18"/>
<text text-anchor="middle" x="1660" y="-327.8" font-family="Times,serif" font-size="14.00">AppService</text>
</g>
<!-- AppService&#45;&gt;AppModule -->
<g id="edge5" class="edge">
<title>AppService&#45;&gt;AppModule</title>
<path fill="none" stroke="black" d="M1660,-350.11C1660,-369.34 1660,-397 1660,-397 1660,-397 1732.02,-397 1732.02,-397"/>
<polygon fill="black" stroke="black" points="1732.02,-400.5 1742.02,-397 1732.02,-393.5 1732.02,-400.5"/>
</g>
<!-- AuthModule&#45;&gt;CoreModule -->
<g id="edge19" class="edge">
<title>AuthModule&#45;&gt;CoreModule</title>
<path fill="none" stroke="black" d="M1765.66,-274.01C1765.66,-274.01 1765.66,-303.85 1765.66,-303.85"/>
<polygon fill="black" stroke="black" points="1762.16,-303.85 1765.66,-313.85 1769.16,-303.85 1762.16,-303.85"/>
</g>
<!-- AuthService -->
<g id="node9" class="node">
<title>AuthService</title>
<ellipse fill="#fdb462" stroke="black" cx="1651" cy="-180" rx="59.11" ry="18"/>
<text text-anchor="middle" x="1651" y="-175.8" font-family="Times,serif" font-size="14.00">AuthService</text>
</g>
<!-- AuthService&#45;&gt;AuthModule -->
<g id="edge7" class="edge">
<title>AuthService&#45;&gt;AuthModule</title>
<path fill="none" stroke="black" d="M1656.84,-198.01C1656.84,-220.49 1656.84,-256 1656.84,-256 1656.84,-256 1740.23,-256 1740.23,-256"/>
<polygon fill="black" stroke="black" points="1740.23,-259.5 1750.23,-256 1740.23,-252.5 1740.23,-259.5"/>
</g>
<!-- JwtStrategy -->
<g id="node10" class="node">
<title>JwtStrategy</title>
<ellipse fill="#fdb462" stroke="black" cx="1934" cy="-180" rx="56.76" ry="18"/>
<text text-anchor="middle" x="1934" y="-175.8" font-family="Times,serif" font-size="14.00">JwtStrategy</text>
</g>
<!-- JwtStrategy&#45;&gt;AuthModule -->
<g id="edge8" class="edge">
<title>JwtStrategy&#45;&gt;AuthModule</title>
<path fill="none" stroke="black" d="M1911.02,-196.56C1911.02,-216.4 1911.02,-247 1911.02,-247 1911.02,-247 1847.57,-247 1847.57,-247"/>
<polygon fill="black" stroke="black" points="1847.57,-243.5 1837.57,-247 1847.57,-250.5 1847.57,-243.5"/>
</g>
<!-- LocalStrategy -->
<g id="node11" class="node">
<title>LocalStrategy</title>
<ellipse fill="#fdb462" stroke="black" cx="1794" cy="-180" rx="65.41" ry="18"/>
<text text-anchor="middle" x="1794" y="-175.8" font-family="Times,serif" font-size="14.00">LocalStrategy</text>
</g>
<!-- LocalStrategy&#45;&gt;AuthModule -->
<g id="edge9" class="edge">
<title>LocalStrategy&#45;&gt;AuthModule</title>
<path fill="none" stroke="black" d="M1794,-198.01C1794,-198.01 1794,-227.85 1794,-227.85"/>
<polygon fill="black" stroke="black" points="1790.5,-227.85 1794,-237.85 1797.5,-227.85 1790.5,-227.85"/>
</g>
<!-- IdentitiesModule -->
<g id="node12" class="node">
<title>IdentitiesModule</title>
<polygon fill="#8dd3c7" stroke="black" points="1551.65,-198 1548.65,-202 1527.65,-202 1524.65,-198 1440.35,-198 1440.35,-162 1551.65,-162 1551.65,-198"/>
<text text-anchor="middle" x="1496" y="-175.8" font-family="Times,serif" font-size="14.00">IdentitiesModule</text>
</g>
<!-- IdentitiesModule&#45;&gt;ManagementModule -->
<g id="edge40" class="edge">
<title>IdentitiesModule&#45;&gt;ManagementModule</title>
<path fill="none" stroke="black" d="M1477.39,-198.11C1477.39,-207.9 1477.39,-218 1477.39,-218 1477.39,-218 1852.44,-218 1852.44,-218 1852.44,-218 1852.44,-303.94 1852.44,-303.94"/>
<polygon fill="black" stroke="black" points="1848.94,-303.94 1852.44,-313.94 1855.94,-303.94 1848.94,-303.94"/>
</g>
<!-- BackendsModule -->
<g id="node15" class="node">
<title>BackendsModule</title>
<polygon fill="#8dd3c7" stroke="black" points="1350.97,-274 1347.97,-278 1326.97,-278 1323.97,-274 1237.03,-274 1237.03,-238 1350.97,-238 1350.97,-274"/>
<text text-anchor="middle" x="1294" y="-251.8" font-family="Times,serif" font-size="14.00">BackendsModule</text>
</g>
<!-- IdentitiesModule&#45;&gt;BackendsModule -->
<g id="edge10" class="edge">
<title>IdentitiesModule&#45;&gt;BackendsModule</title>
<path fill="none" stroke="black" d="M1514.61,-198.31C1514.61,-218.15 1514.61,-247 1514.61,-247 1514.61,-247 1361.1,-247 1361.1,-247"/>
<polygon fill="black" stroke="black" points="1361.1,-243.5 1351.1,-247 1361.1,-250.5 1361.1,-243.5"/>
</g>
<!-- IdentitiesService  -->
<g id="node27" class="node">
<title>IdentitiesService </title>
<polygon fill="#fb8072" stroke="black" points="1630.58,-122 1517.42,-122 1517.42,-86 1630.58,-86 1630.58,-122"/>
<text text-anchor="middle" x="1574" y="-99.8" font-family="Times,serif" font-size="14.00">IdentitiesService </text>
</g>
<!-- IdentitiesModule&#45;&gt;IdentitiesService  -->
<g id="edge29" class="edge">
<title>IdentitiesModule&#45;&gt;IdentitiesService </title>
<path fill="none" stroke="black" stroke-dasharray="5,2" d="M1528.75,-161.99C1528.75,-161.99 1528.75,-132.15 1528.75,-132.15"/>
<polygon fill="black" stroke="black" points="1532.25,-132.15 1528.75,-122.15 1525.25,-132.15 1532.25,-132.15"/>
</g>
<!-- JobsModule -->
<g id="node13" class="node">
<title>JobsModule</title>
<polygon fill="#8dd3c7" stroke="black" points="1312.44,-198 1309.44,-202 1288.44,-202 1285.44,-198 1227.56,-198 1227.56,-162 1312.44,-162 1312.44,-198"/>
<text text-anchor="middle" x="1270" y="-175.8" font-family="Times,serif" font-size="14.00">JobsModule</text>
</g>
<!-- JobsModule&#45;&gt;CoreModule -->
<g id="edge21" class="edge">
<title>JobsModule&#45;&gt;CoreModule</title>
<path fill="none" stroke="black" d="M1293.42,-198.18C1293.42,-211.04 1293.42,-226 1293.42,-226 1293.42,-226 1746.38,-226 1746.38,-226 1746.38,-226 1746.38,-303.54 1746.38,-303.54"/>
<polygon fill="black" stroke="black" points="1742.88,-303.54 1746.38,-313.54 1749.88,-303.54 1742.88,-303.54"/>
</g>
<!-- JobsModule&#45;&gt;BackendsModule -->
<g id="edge11" class="edge">
<title>JobsModule&#45;&gt;BackendsModule</title>
<path fill="none" stroke="black" d="M1274.62,-198.01C1274.62,-198.01 1274.62,-227.85 1274.62,-227.85"/>
<polygon fill="black" stroke="black" points="1271.12,-227.85 1274.62,-237.85 1278.12,-227.85 1271.12,-227.85"/>
</g>
<!-- JobsService  -->
<g id="node32" class="node">
<title>JobsService </title>
<polygon fill="#fb8072" stroke="black" points="724.37,-274 637.63,-274 637.63,-238 724.37,-238 724.37,-274"/>
<text text-anchor="middle" x="681" y="-251.8" font-family="Times,serif" font-size="14.00">JobsService </text>
</g>
<!-- JobsModule&#45;&gt;JobsService  -->
<g id="edge35" class="edge">
<title>JobsModule&#45;&gt;JobsService </title>
<path fill="none" stroke="black" stroke-dasharray="5,2" d="M1231.91,-198.14C1231.91,-204.46 1231.91,-210 1231.91,-210 1231.91,-210 681,-210 681,-210 681,-210 681,-227.82 681,-227.82"/>
<polygon fill="black" stroke="black" points="677.5,-227.82 681,-237.82 684.5,-227.82 677.5,-227.82"/>
</g>
<!-- TasksModule -->
<g id="node14" class="node">
<title>TasksModule</title>
<polygon fill="#8dd3c7" stroke="black" points="1422.21,-198 1419.21,-202 1398.21,-202 1395.21,-198 1329.79,-198 1329.79,-162 1422.21,-162 1422.21,-198"/>
<text text-anchor="middle" x="1376" y="-175.8" font-family="Times,serif" font-size="14.00">TasksModule</text>
</g>
<!-- TasksModule&#45;&gt;CoreModule -->
<g id="edge24" class="edge">
<title>TasksModule&#45;&gt;CoreModule</title>
<path fill="none" stroke="black" d="M1387.03,-198.06C1387.03,-209.44 1387.03,-222 1387.03,-222 1387.03,-222 1748.31,-222 1748.31,-222 1748.31,-222 1748.31,-303.84 1748.31,-303.84"/>
<polygon fill="black" stroke="black" points="1744.81,-303.84 1748.31,-313.84 1751.81,-303.84 1744.81,-303.84"/>
</g>
<!-- TasksModule&#45;&gt;BackendsModule -->
<g id="edge12" class="edge">
<title>TasksModule&#45;&gt;BackendsModule</title>
<path fill="none" stroke="black" d="M1345.71,-198.01C1345.71,-198.01 1345.71,-227.85 1345.71,-227.85"/>
<polygon fill="black" stroke="black" points="1342.21,-227.85 1345.71,-237.85 1349.21,-227.85 1342.21,-227.85"/>
</g>
<!-- TasksService  -->
<g id="node40" class="node">
<title>TasksService </title>
<polygon fill="#fb8072" stroke="black" points="1008.13,-274 913.87,-274 913.87,-238 1008.13,-238 1008.13,-274"/>
<text text-anchor="middle" x="961" y="-251.8" font-family="Times,serif" font-size="14.00">TasksService </text>
</g>
<!-- TasksModule&#45;&gt;TasksService  -->
<g id="edge44" class="edge">
<title>TasksModule&#45;&gt;TasksService </title>
<path fill="none" stroke="black" stroke-dasharray="5,2" d="M1340.44,-198.05C1340.44,-212.37 1340.44,-230 1340.44,-230 1340.44,-230 961,-230 961,-230 961,-230 961,-230.79 961,-230.79"/>
<polygon fill="black" stroke="black" points="957.5,-227.94 961,-237.94 964.5,-227.94 957.5,-227.94"/>
</g>
<!-- BackendsModule&#45;&gt;CoreModule -->
<g id="edge20" class="edge">
<title>BackendsModule&#45;&gt;CoreModule</title>
<path fill="none" stroke="black" d="M1351.05,-265C1472.26,-265 1744.46,-265 1744.46,-265 1744.46,-265 1744.46,-303.69 1744.46,-303.69"/>
<polygon fill="black" stroke="black" points="1740.96,-303.69 1744.46,-313.69 1747.96,-303.69 1740.96,-303.69"/>
</g>
<!-- BackendsService  -->
<g id="node16" class="node">
<title>BackendsService </title>
<polygon fill="#fb8072" stroke="black" points="1351.9,-350 1236.1,-350 1236.1,-314 1351.9,-314 1351.9,-350"/>
<text text-anchor="middle" x="1294" y="-327.8" font-family="Times,serif" font-size="14.00">BackendsService </text>
</g>
<!-- BackendsModule&#45;&gt;BackendsService  -->
<g id="edge13" class="edge">
<title>BackendsModule&#45;&gt;BackendsService </title>
<path fill="none" stroke="black" stroke-dasharray="5,2" d="M1294,-274.01C1294,-274.01 1294,-303.85 1294,-303.85"/>
<polygon fill="black" stroke="black" points="1290.5,-303.85 1294,-313.85 1297.5,-303.85 1290.5,-303.85"/>
</g>
<!-- BackendsModule&#45;&gt;CliModule -->
<g id="edge16" class="edge">
<title>BackendsModule&#45;&gt;CliModule</title>
<path fill="none" stroke="black" d="M1236.89,-262C1179.71,-262 1100.16,-262 1100.16,-262 1100.16,-262 1100.16,-332 1100.16,-332 1100.16,-332 478.44,-332 478.44,-332"/>
<polygon fill="black" stroke="black" points="478.44,-328.5 468.44,-332 478.44,-335.5 478.44,-328.5"/>
</g>
<!-- BackendsService -->
<g id="node17" class="node">
<title>BackendsService</title>
<ellipse fill="#fdb462" stroke="black" cx="1126" cy="-180" rx="77.57" ry="18"/>
<text text-anchor="middle" x="1126" y="-175.8" font-family="Times,serif" font-size="14.00">BackendsService</text>
</g>
<!-- BackendsService&#45;&gt;BackendsModule -->
<g id="edge14" class="edge">
<title>BackendsService&#45;&gt;BackendsModule</title>
<path fill="none" stroke="black" d="M1151.84,-197.3C1151.84,-218.03 1151.84,-250 1151.84,-250 1151.84,-250 1227,-250 1227,-250"/>
<polygon fill="black" stroke="black" points="1227,-253.5 1237,-250 1227,-246.5 1227,-253.5"/>
</g>
<!-- KeyringsModule -->
<g id="node18" class="node">
<title>KeyringsModule</title>
<polygon fill="#8dd3c7" stroke="black" points="460.37,-274 457.37,-278 436.37,-278 433.37,-274 349.63,-274 349.63,-238 460.37,-238 460.37,-274"/>
<text text-anchor="middle" x="405" y="-251.8" font-family="Times,serif" font-size="14.00">KeyringsModule</text>
</g>
<!-- KeyringsModule&#45;&gt;CoreModule -->
<g id="edge22" class="edge">
<title>KeyringsModule&#45;&gt;CoreModule</title>
<path fill="none" stroke="black" d="M437.51,-274.17C437.51,-278.05 437.51,-281 437.51,-281 437.51,-281 1742.54,-281 1742.54,-281 1742.54,-281 1742.54,-303.88 1742.54,-303.88"/>
<polygon fill="black" stroke="black" points="1739.04,-303.88 1742.54,-313.88 1746.04,-303.88 1739.04,-303.88"/>
</g>
<!-- KeyringsModule&#45;&gt;CliModule -->
<g id="edge17" class="edge">
<title>KeyringsModule&#45;&gt;CliModule</title>
<path fill="none" stroke="black" d="M414.59,-274.01C414.59,-274.01 414.59,-303.85 414.59,-303.85"/>
<polygon fill="black" stroke="black" points="411.09,-303.85 414.59,-313.85 418.09,-303.85 411.09,-303.85"/>
</g>
<!-- KeyringsService  -->
<g id="node34" class="node">
<title>KeyringsService </title>
<polygon fill="#fb8072" stroke="black" points="310.29,-350 197.71,-350 197.71,-314 310.29,-314 310.29,-350"/>
<text text-anchor="middle" x="254" y="-327.8" font-family="Times,serif" font-size="14.00">KeyringsService </text>
</g>
<!-- KeyringsModule&#45;&gt;KeyringsService  -->
<g id="edge37" class="edge">
<title>KeyringsModule&#45;&gt;KeyringsService </title>
<path fill="none" stroke="black" stroke-dasharray="5,2" d="M377.63,-274.01C377.63,-296.49 377.63,-332 377.63,-332 377.63,-332 320.39,-332 320.39,-332"/>
<polygon fill="black" stroke="black" points="320.39,-328.5 310.39,-332 320.39,-335.5 320.39,-328.5"/>
</g>
<!-- LoggerModule -->
<g id="node20" class="node">
<title>LoggerModule</title>
<polygon fill="#8dd3c7" stroke="black" points="3004.98,-274 3001.98,-278 2980.98,-278 2977.98,-274 2905.02,-274 2905.02,-238 3004.98,-238 3004.98,-274"/>
<text text-anchor="middle" x="2955" y="-251.8" font-family="Times,serif" font-size="14.00">LoggerModule</text>
</g>
<!-- LoggerModule&#45;&gt;CoreModule -->
<g id="edge23" class="edge">
<title>LoggerModule&#45;&gt;CoreModule</title>
<path fill="none" stroke="black" d="M2955,-274.04C2955,-286.56 2955,-301 2955,-301 2955,-301 1811.95,-301 1811.95,-301 1811.95,-301 1811.95,-303.97 1811.95,-303.97"/>
<polygon fill="black" stroke="black" points="1808.45,-303.97 1811.95,-313.97 1815.45,-303.97 1808.45,-303.97"/>
</g>
<!-- CoreService -->
<g id="node21" class="node">
<title>CoreService</title>
<ellipse fill="#fdb462" stroke="black" cx="2822" cy="-256" rx="58.53" ry="18"/>
<text text-anchor="middle" x="2822" y="-251.8" font-family="Times,serif" font-size="14.00">CoreService</text>
</g>
<!-- CoreService&#45;&gt;CoreModule -->
<g id="edge25" class="edge">
<title>CoreService&#45;&gt;CoreModule</title>
<path fill="none" stroke="black" d="M2822,-274.11C2822,-283.9 2822,-294 2822,-294 2822,-294 1796.52,-294 1796.52,-294 1796.52,-294 1796.52,-303.89 1796.52,-303.89"/>
<polygon fill="black" stroke="black" points="1793.02,-303.89 1796.52,-313.89 1800.02,-303.89 1793.02,-303.89"/>
</g>
<!-- FormService -->
<g id="node22" class="node">
<title>FormService</title>
<ellipse fill="#fdb462" stroke="black" cx="3124" cy="-104" rx="60.83" ry="18"/>
<text text-anchor="middle" x="3124" y="-99.8" font-family="Times,serif" font-size="14.00">FormService</text>
</g>
<!-- FormModule -->
<g id="node23" class="node">
<title>FormModule</title>
<polygon fill="#8dd3c7" stroke="black" points="3168.88,-198 3165.88,-202 3144.88,-202 3141.88,-198 3079.12,-198 3079.12,-162 3168.88,-162 3168.88,-198"/>
<text text-anchor="middle" x="3124" y="-175.8" font-family="Times,serif" font-size="14.00">FormModule</text>
</g>
<!-- FormService&#45;&gt;FormModule -->
<g id="edge26" class="edge">
<title>FormService&#45;&gt;FormModule</title>
<path fill="none" stroke="black" d="M3124,-122.01C3124,-122.01 3124,-151.85 3124,-151.85"/>
<polygon fill="black" stroke="black" points="3120.5,-151.85 3124,-161.85 3127.5,-151.85 3120.5,-151.85"/>
</g>
<!-- IdentitiesJsonformsService  -->
<g id="node24" class="node">
<title>IdentitiesJsonformsService </title>
<polygon fill="#fb8072" stroke="black" points="2692.62,-274 2521.38,-274 2521.38,-238 2692.62,-238 2692.62,-274"/>
<text text-anchor="middle" x="2607" y="-251.8" font-family="Times,serif" font-size="14.00">IdentitiesJsonformsService </text>
</g>
<!-- IdentitiesJsonformsModule -->
<g id="node25" class="node">
<title>IdentitiesJsonformsModule</title>
<polygon fill="#8dd3c7" stroke="black" points="2691.69,-198 2688.69,-202 2667.69,-202 2664.69,-198 2522.31,-198 2522.31,-162 2691.69,-162 2691.69,-198"/>
<text text-anchor="middle" x="2607" y="-175.8" font-family="Times,serif" font-size="14.00">IdentitiesJsonformsModule</text>
</g>
<!-- IdentitiesJsonformsModule&#45;&gt;IdentitiesJsonformsService  -->
<g id="edge27" class="edge">
<title>IdentitiesJsonformsModule&#45;&gt;IdentitiesJsonformsService </title>
<path fill="none" stroke="black" stroke-dasharray="5,2" d="M2607,-198.01C2607,-198.01 2607,-227.85 2607,-227.85"/>
<polygon fill="black" stroke="black" points="2603.5,-227.85 2607,-237.85 2610.5,-227.85 2603.5,-227.85"/>
</g>
<!-- IdentitiesJsonformsService -->
<g id="node26" class="node">
<title>IdentitiesJsonformsService</title>
<ellipse fill="#fdb462" stroke="black" cx="2607" cy="-104" rx="115.74" ry="18"/>
<text text-anchor="middle" x="2607" y="-99.8" font-family="Times,serif" font-size="14.00">IdentitiesJsonformsService</text>
</g>
<!-- IdentitiesJsonformsService&#45;&gt;IdentitiesModule -->
<g id="edge30" class="edge">
<title>IdentitiesJsonformsService&#45;&gt;IdentitiesModule</title>
<path fill="none" stroke="black" d="M2506.41,-113.17C2506.41,-121.33 2506.41,-132 2506.41,-132 2506.41,-132 1540.29,-132 1540.29,-132 1540.29,-132 1540.29,-151.85 1540.29,-151.85"/>
<polygon fill="black" stroke="black" points="1536.79,-151.85 1540.29,-161.85 1543.79,-151.85 1536.79,-151.85"/>
</g>
<!-- IdentitiesJsonformsService&#45;&gt;IdentitiesJsonformsModule -->
<g id="edge28" class="edge">
<title>IdentitiesJsonformsService&#45;&gt;IdentitiesJsonformsModule</title>
<path fill="none" stroke="black" d="M2607,-122.01C2607,-122.01 2607,-151.85 2607,-151.85"/>
<polygon fill="black" stroke="black" points="2603.5,-151.85 2607,-161.85 2610.5,-151.85 2603.5,-151.85"/>
</g>
<!-- IdentitiesService -->
<g id="node28" class="node">
<title>IdentitiesService</title>
<ellipse fill="#fdb462" stroke="black" cx="1417" cy="-104" rx="75.85" ry="18"/>
<text text-anchor="middle" x="1417" y="-99.8" font-family="Times,serif" font-size="14.00">IdentitiesService</text>
</g>
<!-- IdentitiesService&#45;&gt;IdentitiesModule -->
<g id="edge31" class="edge">
<title>IdentitiesService&#45;&gt;IdentitiesModule</title>
<path fill="none" stroke="black" d="M1475.34,-115.54C1475.34,-115.54 1475.34,-151.83 1475.34,-151.83"/>
<polygon fill="black" stroke="black" points="1471.84,-151.83 1475.34,-161.83 1478.84,-151.83 1471.84,-151.83"/>
</g>
<!-- IdentitiesValidationService -->
<g id="node29" class="node">
<title>IdentitiesValidationService</title>
<ellipse fill="#fdb462" stroke="black" cx="1206" cy="-104" rx="116.88" ry="18"/>
<text text-anchor="middle" x="1206" y="-99.8" font-family="Times,serif" font-size="14.00">IdentitiesValidationService</text>
</g>
<!-- IdentitiesValidationService&#45;&gt;IdentitiesModule -->
<g id="edge32" class="edge">
<title>IdentitiesValidationService&#45;&gt;IdentitiesModule</title>
<path fill="none" stroke="black" d="M1317.46,-109.61C1317.46,-120.18 1317.46,-142 1317.46,-142 1317.46,-142 1457.76,-142 1457.76,-142 1457.76,-142 1457.76,-151.89 1457.76,-151.89"/>
<polygon fill="black" stroke="black" points="1454.26,-151.89 1457.76,-161.89 1461.26,-151.89 1454.26,-151.89"/>
</g>
<!-- IdentitiesValidationModule -->
<g id="node31" class="node">
<title>IdentitiesValidationModule</title>
<polygon fill="#8dd3c7" stroke="black" points="313.24,-198 310.24,-202 289.24,-202 286.24,-198 142.76,-198 142.76,-162 313.24,-162 313.24,-198"/>
<text text-anchor="middle" x="228" y="-175.8" font-family="Times,serif" font-size="14.00">IdentitiesValidationModule</text>
</g>
<!-- IdentitiesValidationService&#45;&gt;IdentitiesValidationModule -->
<g id="edge34" class="edge">
<title>IdentitiesValidationService&#45;&gt;IdentitiesValidationModule</title>
<path fill="none" stroke="black" d="M1089,-104C829.41,-104 228,-104 228,-104 228,-104 228,-151.99 228,-151.99"/>
<polygon fill="black" stroke="black" points="224.5,-151.99 228,-161.99 231.5,-151.99 224.5,-151.99"/>
</g>
<!-- IdentitiesValidationService  -->
<g id="node30" class="node">
<title>IdentitiesValidationService </title>
<polygon fill="#fb8072" stroke="black" points="310.17,-274 137.83,-274 137.83,-238 310.17,-238 310.17,-274"/>
<text text-anchor="middle" x="224" y="-251.8" font-family="Times,serif" font-size="14.00">IdentitiesValidationService </text>
</g>
<!-- IdentitiesValidationModule&#45;&gt;IdentitiesValidationService  -->
<g id="edge33" class="edge">
<title>IdentitiesValidationModule&#45;&gt;IdentitiesValidationService </title>
<path fill="none" stroke="black" stroke-dasharray="5,2" d="M226.48,-198.01C226.48,-198.01 226.48,-227.85 226.48,-227.85"/>
<polygon fill="black" stroke="black" points="222.98,-227.85 226.48,-237.85 229.98,-227.85 222.98,-227.85"/>
</g>
<!-- JobsService -->
<g id="node33" class="node">
<title>JobsService</title>
<ellipse fill="#fdb462" stroke="black" cx="557" cy="-256" rx="57.32" ry="18"/>
<text text-anchor="middle" x="557" y="-251.8" font-family="Times,serif" font-size="14.00">JobsService</text>
</g>
<!-- JobsService&#45;&gt;JobsModule -->
<g id="edge36" class="edge">
<title>JobsService&#45;&gt;JobsModule</title>
<path fill="none" stroke="black" d="M557,-237.95C557,-223.63 557,-206 557,-206 557,-206 1255.81,-206 1255.81,-206 1255.81,-206 1255.81,-205.21 1255.81,-205.21"/>
<polygon fill="black" stroke="black" points="1259.31,-208.06 1255.81,-198.06 1252.31,-208.06 1259.31,-208.06"/>
</g>
<!-- KeyringsService -->
<g id="node35" class="node">
<title>KeyringsService</title>
<ellipse fill="#fdb462" stroke="black" cx="99" cy="-332" rx="75.28" ry="18"/>
<text text-anchor="middle" x="99" y="-327.8" font-family="Times,serif" font-size="14.00">KeyringsService</text>
</g>
<!-- KeyringsService&#45;&gt;KeyringsModule -->
<g id="edge38" class="edge">
<title>KeyringsService&#45;&gt;KeyringsModule</title>
<path fill="none" stroke="black" d="M156.03,-320C156.03,-314 156.03,-308 156.03,-308 156.03,-308 363.6,-308 363.6,-308 363.6,-308 363.6,-284.19 363.6,-284.19"/>
<polygon fill="black" stroke="black" points="367.1,-284.19 363.6,-274.19 360.1,-284.19 367.1,-284.19"/>
</g>
<!-- LoggerService -->
<g id="node36" class="node">
<title>LoggerService</title>
<ellipse fill="#fdb462" stroke="black" cx="2955" cy="-180" rx="67.76" ry="18"/>
<text text-anchor="middle" x="2955" y="-175.8" font-family="Times,serif" font-size="14.00">LoggerService</text>
</g>
<!-- LoggerService&#45;&gt;LoggerModule -->
<g id="edge39" class="edge">
<title>LoggerService&#45;&gt;LoggerModule</title>
<path fill="none" stroke="black" d="M2955,-198.01C2955,-198.01 2955,-227.85 2955,-227.85"/>
<polygon fill="black" stroke="black" points="2951.5,-227.85 2955,-237.85 2958.5,-227.85 2951.5,-227.85"/>
</g>
<!-- ManagementService -->
<g id="node37" class="node">
<title>ManagementService</title>
<ellipse fill="#fdb462" stroke="black" cx="2187" cy="-256" rx="90.31" ry="18"/>
<text text-anchor="middle" x="2187" y="-251.8" font-family="Times,serif" font-size="14.00">ManagementService</text>
</g>
<!-- ManagementService&#45;&gt;ManagementModule -->
<g id="edge41" class="edge">
<title>ManagementService&#45;&gt;ManagementModule</title>
<path fill="none" stroke="black" d="M2108.66,-265C2037.86,-265 1944.67,-265 1944.67,-265 1944.67,-265 1944.67,-303.69 1944.67,-303.69"/>
<polygon fill="black" stroke="black" points="1941.17,-303.69 1944.67,-313.69 1948.17,-303.69 1941.17,-303.69"/>
</g>
<!-- PasswdModule -->
<g id="node38" class="node">
<title>PasswdModule</title>
<polygon fill="#8dd3c7" stroke="black" points="3344.54,-198 3341.54,-202 3320.54,-202 3317.54,-198 3243.46,-198 3243.46,-162 3344.54,-162 3344.54,-198"/>
<text text-anchor="middle" x="3294" y="-175.8" font-family="Times,serif" font-size="14.00">PasswdModule</text>
</g>
<!-- PasswdModule&#45;&gt;PasswdModule -->
<g id="edge42" class="edge">
<title>PasswdModule&#45;&gt;PasswdModule</title>
<path fill="none" stroke="black" d="M3310.92,-161.79C3310.92,-156.45 3310.92,-152 3310.92,-152 3310.92,-152 3353.86,-152 3353.86,-152 3353.86,-152 3353.86,-234 3353.86,-234 3353.86,-234 3294,-234 3294,-234 3294,-234 3294,-208.28 3294,-208.28"/>
<polygon fill="black" stroke="black" points="3297.5,-208.28 3294,-198.28 3290.5,-208.28 3297.5,-208.28"/>
</g>
<!-- PasswdService -->
<g id="node39" class="node">
<title>PasswdService</title>
<ellipse fill="#fdb462" stroke="black" cx="3294" cy="-104" rx="68.92" ry="18"/>
<text text-anchor="middle" x="3294" y="-99.8" font-family="Times,serif" font-size="14.00">PasswdService</text>
</g>
<!-- PasswdService&#45;&gt;PasswdModule -->
<g id="edge43" class="edge">
<title>PasswdService&#45;&gt;PasswdModule</title>
<path fill="none" stroke="black" d="M3277.08,-121.63C3277.08,-121.63 3277.08,-151.94 3277.08,-151.94"/>
<polygon fill="black" stroke="black" points="3273.58,-151.94 3277.08,-161.94 3280.58,-151.94 3273.58,-151.94"/>
</g>
<!-- TasksService -->
<g id="node41" class="node">
<title>TasksService</title>
<ellipse fill="#fdb462" stroke="black" cx="827" cy="-256" rx="62.54" ry="18"/>
<text text-anchor="middle" x="827" y="-251.8" font-family="Times,serif" font-size="14.00">TasksService</text>
</g>
<!-- TasksService&#45;&gt;TasksModule -->
<g id="edge45" class="edge">
<title>TasksService&#45;&gt;TasksModule</title>
<path fill="none" stroke="black" d="M827,-237.94C827,-226.56 827,-214 827,-214 827,-214 1335.17,-214 1335.17,-214 1335.17,-214 1335.17,-208.19 1335.17,-208.19"/>
<polygon fill="black" stroke="black" points="1338.67,-208.19 1335.17,-198.19 1331.67,-208.19 1338.67,-208.19"/>
</g>
</g>
</svg>
