<?xml version="1.0" encoding="UTF-8" standalone="no"?>
<!DOCTYPE svg PUBLIC "-//W3C//DTD SVG 1.1//EN"
 "http://www.w3.org/Graphics/SVG/1.1/DTD/svg11.dtd">
<!-- Generated by graphviz version 2.47.0 (20210316.0004)
 -->
<!-- Title: dependencies Pages: 1 -->
<svg width="504pt" height="211pt"
 viewBox="0.00 0.00 504.00 211.00" xmlns="http://www.w3.org/2000/svg" xmlns:xlink="http://www.w3.org/1999/xlink">
<g id="graph0" class="graph" transform="scale(1 1) rotate(0) translate(4 207)">
<title>dependencies</title>
<polygon fill="white" stroke="transparent" points="-4,4 -4,-207 500,-207 500,4 -4,4"/>
<text text-anchor="start" x="227.01" y="-42.4" font-family="Times-12" font-weight="bold" font-size="14.00">Legend</text>
<polygon fill="#ffffb3" stroke="transparent" points="14,-10 14,-30 34,-30 34,-10 14,-10"/>
<text text-anchor="start" x="37.63" y="-15.4" font-family="Times-12" font-size="14.00"> &#160;Declarations</text>
<polygon fill="#8dd3c7" stroke="transparent" points="127,-10 127,-30 147,-30 147,-10 127,-10"/>
<text text-anchor="start" x="150.73" y="-15.4" font-family="Times-12" font-size="14.00"> &#160;Module</text>
<polygon fill="#80b1d3" stroke="transparent" points="213,-10 213,-30 233,-30 233,-10 213,-10"/>
<text text-anchor="start" x="236.78" y="-15.4" font-family="Times-12" font-size="14.00"> &#160;Bootstrap</text>
<polygon fill="#fdb462" stroke="transparent" points="310,-10 310,-30 330,-30 330,-10 310,-10"/>
<text text-anchor="start" x="333.67" y="-15.4" font-family="Times-12" font-size="14.00"> &#160;Providers</text>
<polygon fill="#fb8072" stroke="transparent" points="406,-10 406,-30 426,-30 426,-10 406,-10"/>
<text text-anchor="start" x="429.73" y="-15.4" font-family="Times-12" font-size="14.00"> &#160;Exports</text>
<g id="clust1" class="cluster">
<title>cluster_ManagementModule</title>
<polygon fill="none" stroke="black" stroke-dasharray="1,5" points="14,-70 14,-195 482,-195 482,-70 14,-70"/>
</g>
<g id="clust6" class="cluster">
<title>cluster_ManagementModule_providers</title>
<polygon fill="none" stroke="black" points="278,-78 278,-130 474,-130 474,-78 278,-78"/>
</g>
<g id="clust3" class="cluster">
<title>cluster_ManagementModule_imports</title>
<polygon fill="none" stroke="black" points="22,-78 22,-130 270,-130 270,-78 22,-78"/>
</g>
<!-- IdentitiesModule -->
<g id="node1" class="node">
<title>IdentitiesModule</title>
<polygon fill="#8dd3c7" stroke="black" points="261.65,-122 258.65,-126 237.65,-126 234.65,-122 150.35,-122 150.35,-86 261.65,-86 261.65,-122"/>
<text text-anchor="middle" x="206" y="-99.8" font-family="Times,serif" font-size="14.00">IdentitiesModule</text>
</g>
<!-- ManagementModule -->
<g id="node3" class="node">
<title>ManagementModule</title>
<polygon fill="#8dd3c7" stroke="black" points="272.13,-187 269.13,-191 248.13,-191 245.13,-187 139.87,-187 139.87,-151 272.13,-151 272.13,-187"/>
<text text-anchor="middle" x="206" y="-164.8" font-family="Times,serif" font-size="14.00">ManagementModule</text>
</g>
<!-- IdentitiesModule&#45;&gt;ManagementModule -->
<g id="edge1" class="edge">
<title>IdentitiesModule&#45;&gt;ManagementModule</title>
<path fill="none" stroke="black" d="M206,-122.11C206,-122.11 206,-140.99 206,-140.99"/>
<polygon fill="black" stroke="black" points="202.5,-140.99 206,-150.99 209.5,-140.99 202.5,-140.99"/>
</g>
<!-- PasswdModule -->
<g id="node2" class="node">
<title>PasswdModule</title>
<polygon fill="#8dd3c7" stroke="black" points="131.54,-122 128.54,-126 107.54,-126 104.54,-122 30.46,-122 30.46,-86 131.54,-86 131.54,-122"/>
<text text-anchor="middle" x="81" y="-99.8" font-family="Times,serif" font-size="14.00">PasswdModule</text>
</g>
<!-- PasswdModule&#45;&gt;ManagementModule -->
<g id="edge2" class="edge">
<title>PasswdModule&#45;&gt;ManagementModule</title>
<path fill="none" stroke="black" d="M131.68,-104C139.44,-104 144.93,-104 144.93,-104 144.93,-104 144.93,-140.89 144.93,-140.89"/>
<polygon fill="black" stroke="black" points="141.43,-140.89 144.93,-150.89 148.43,-140.89 141.43,-140.89"/>
</g>
<!-- ManagementService -->
<g id="node4" class="node">
<title>ManagementService</title>
<ellipse fill="#fdb462" stroke="black" cx="376" cy="-104" rx="90.31" ry="18"/>
<text text-anchor="middle" x="376" y="-99.8" font-family="Times,serif" font-size="14.00">ManagementService</text>
</g>
<!-- ManagementService&#45;&gt;ManagementModule -->
<g id="edge3" class="edge">
<title>ManagementService&#45;&gt;ManagementModule</title>
<path fill="none" stroke="black" d="M285.55,-104C274.53,-104 267.07,-104 267.07,-104 267.07,-104 267.07,-140.89 267.07,-140.89"/>
<polygon fill="black" stroke="black" points="263.57,-140.89 267.07,-150.89 270.57,-140.89 263.57,-140.89"/>
</g>
</g>
</svg>
