<?xml version="1.0" encoding="UTF-8" standalone="no"?>
<!DOCTYPE svg PUBLIC "-//W3C//DTD SVG 1.1//EN"
 "http://www.w3.org/Graphics/SVG/1.1/DTD/svg11.dtd">
<!-- Generated by graphviz version 2.47.0 (20210316.0004)
 -->
<!-- Title: dependencies Pages: 1 -->
<svg width="510pt" height="284pt"
 viewBox="0.00 0.00 510.00 284.00" xmlns="http://www.w3.org/2000/svg" xmlns:xlink="http://www.w3.org/1999/xlink">
<g id="graph0" class="graph" transform="scale(1 1) rotate(0) translate(4 280)">
<title>dependencies</title>
<polygon fill="white" stroke="transparent" points="-4,4 -4,-280 506,-280 506,4 -4,4"/>
<text text-anchor="start" x="230.01" y="-42.4" font-family="Times-12" font-weight="bold" font-size="14.00">Legend</text>
<polygon fill="#ffffb3" stroke="transparent" points="17,-10 17,-30 37,-30 37,-10 17,-10"/>
<text text-anchor="start" x="40.63" y="-15.4" font-family="Times-12" font-size="14.00"> &#160;Declarations</text>
<polygon fill="#8dd3c7" stroke="transparent" points="130,-10 130,-30 150,-30 150,-10 130,-10"/>
<text text-anchor="start" x="153.73" y="-15.4" font-family="Times-12" font-size="14.00"> &#160;Module</text>
<polygon fill="#80b1d3" stroke="transparent" points="216,-10 216,-30 236,-30 236,-10 216,-10"/>
<text text-anchor="start" x="239.78" y="-15.4" font-family="Times-12" font-size="14.00"> &#160;Bootstrap</text>
<polygon fill="#fdb462" stroke="transparent" points="313,-10 313,-30 333,-30 333,-10 313,-10"/>
<text text-anchor="start" x="336.67" y="-15.4" font-family="Times-12" font-size="14.00"> &#160;Providers</text>
<polygon fill="#fb8072" stroke="transparent" points="409,-10 409,-30 429,-30 429,-10 409,-10"/>
<text text-anchor="start" x="432.73" y="-15.4" font-family="Times-12" font-size="14.00"> &#160;Exports</text>
<g id="clust1" class="cluster">
<title>cluster_FilestorageModule</title>
<polygon fill="none" stroke="black" stroke-dasharray="1,5" points="8,-70 8,-268 494,-268 494,-70 8,-70"/>
</g>
<g id="clust4" class="cluster">
<title>cluster_FilestorageModule_exports</title>
<polygon fill="none" stroke="black" points="207,-208 207,-260 347,-260 347,-208 207,-208"/>
</g>
<g id="clust6" class="cluster">
<title>cluster_FilestorageModule_providers</title>
<polygon fill="none" stroke="black" points="16,-78 16,-130 486,-130 486,-78 16,-78"/>
</g>
<!-- FilestorageService  -->
<g id="node1" class="node">
<title>FilestorageService </title>
<polygon fill="#fb8072" stroke="black" points="338.68,-252 215.32,-252 215.32,-216 338.68,-216 338.68,-252"/>
<text text-anchor="middle" x="277" y="-229.8" font-family="Times,serif" font-size="14.00">FilestorageService </text>
</g>
<!-- FilestorageModule -->
<g id="node2" class="node">
<title>FilestorageModule</title>
<polygon fill="#8dd3c7" stroke="black" points="337.75,-187 334.75,-191 313.75,-191 310.75,-187 216.25,-187 216.25,-151 337.75,-151 337.75,-187"/>
<text text-anchor="middle" x="277" y="-164.8" font-family="Times,serif" font-size="14.00">FilestorageModule</text>
</g>
<!-- FilestorageModule&#45;&gt;FilestorageService  -->
<g id="edge1" class="edge">
<title>FilestorageModule&#45;&gt;FilestorageService </title>
<path fill="none" stroke="black" stroke-dasharray="5,2" d="M277,-187.11C277,-187.11 277,-205.99 277,-205.99"/>
<polygon fill="black" stroke="black" points="273.5,-205.99 277,-215.99 280.5,-205.99 273.5,-205.99"/>
</g>
<!-- FilestorageService -->
<g id="node3" class="node">
<title>FilestorageService</title>
<ellipse fill="#fdb462" stroke="black" cx="395" cy="-104" rx="82.8" ry="18"/>
<text text-anchor="middle" x="395" y="-99.8" font-family="Times,serif" font-size="14.00">FilestorageService</text>
</g>
<!-- FilestorageService&#45;&gt;FilestorageModule -->
<g id="edge2" class="edge">
<title>FilestorageService&#45;&gt;FilestorageModule</title>
<path fill="none" stroke="black" d="M324.99,-113.87C324.99,-113.87 324.99,-140.91 324.99,-140.91"/>
<polygon fill="black" stroke="black" points="321.49,-140.91 324.99,-150.91 328.49,-140.91 321.49,-140.91"/>
</g>
<!-- TransformersFilestorageService -->
<g id="node4" class="node">
<title>TransformersFilestorageService</title>
<ellipse fill="#fdb462" stroke="black" cx="159" cy="-104" rx="134.82" ry="18"/>
<text text-anchor="middle" x="159" y="-99.8" font-family="Times,serif" font-size="14.00">TransformersFilestorageService</text>
</g>
<!-- TransformersFilestorageService&#45;&gt;FilestorageModule -->
<g id="edge3" class="edge">
<title>TransformersFilestorageService&#45;&gt;FilestorageModule</title>
<path fill="none" stroke="black" d="M255.02,-116.84C255.02,-116.84 255.02,-140.52 255.02,-140.52"/>
<polygon fill="black" stroke="black" points="251.52,-140.52 255.02,-150.52 258.52,-140.52 251.52,-140.52"/>
</g>
</g>
</svg>
