<?xml version="1.0" encoding="UTF-8" standalone="no"?>
<!DOCTYPE svg PUBLIC "-//W3C//DTD SVG 1.1//EN"
 "http://www.w3.org/Graphics/SVG/1.1/DTD/svg11.dtd">
<!-- Generated by graphviz version 2.47.0 (20210316.0004)
 -->
<!-- Title: dependencies Pages: 1 -->
<svg width="510pt" height="284pt"
 viewBox="0.00 0.00 510.00 284.00" xmlns="http://www.w3.org/2000/svg" xmlns:xlink="http://www.w3.org/1999/xlink">
<g id="graph0" class="graph" transform="scale(1 1) rotate(0) translate(4 280)">
<title>dependencies</title>
<polygon fill="white" stroke="transparent" points="-4,4 -4,-280 506,-280 506,4 -4,4"/>
<text text-anchor="start" x="230.01" y="-42.4" font-family="Times-12" font-weight="bold" font-size="14.00">Legend</text>
<polygon fill="#ffffb3" stroke="transparent" points="17,-10 17,-30 37,-30 37,-10 17,-10"/>
<text text-anchor="start" x="40.63" y="-15.4" font-family="Times-12" font-size="14.00"> &#160;Declarations</text>
<polygon fill="#8dd3c7" stroke="transparent" points="130,-10 130,-30 150,-30 150,-10 130,-10"/>
<text text-anchor="start" x="153.73" y="-15.4" font-family="Times-12" font-size="14.00"> &#160;Module</text>
<polygon fill="#80b1d3" stroke="transparent" points="216,-10 216,-30 236,-30 236,-10 216,-10"/>
<text text-anchor="start" x="239.78" y="-15.4" font-family="Times-12" font-size="14.00"> &#160;Bootstrap</text>
<polygon fill="#fdb462" stroke="transparent" points="313,-10 313,-30 333,-30 333,-10 313,-10"/>
<text text-anchor="start" x="336.67" y="-15.4" font-family="Times-12" font-size="14.00"> &#160;Providers</text>
<polygon fill="#fb8072" stroke="transparent" points="409,-10 409,-30 429,-30 429,-10 409,-10"/>
<text text-anchor="start" x="432.73" y="-15.4" font-family="Times-12" font-size="14.00"> &#160;Exports</text>
<g id="clust1" class="cluster">
<title>cluster_FilestorageModule</title>
<polygon fill="none" stroke="black" stroke-dasharray="1,5" points="8,-70 8,-268 494,-268 494,-70 8,-70"/>
</g>
<g id="clust6" class="cluster">
<title>cluster_FilestorageModule_providers</title>
<polygon fill="none" stroke="black" points="16,-78 16,-130 486,-130 486,-78 16,-78"/>
</g>
<g id="clust4" class="cluster">
<title>cluster_FilestorageModule_exports</title>
<polygon fill="none" stroke="black" points="53,-208 53,-260 410,-260 410,-208 53,-208"/>
</g>
<!-- FilestorageService  -->
<g id="node1" class="node">
<title>FilestorageService </title>
<polygon fill="#fb8072" stroke="black" points="401.68,-252 278.32,-252 278.32,-216 401.68,-216 401.68,-252"/>
<text text-anchor="middle" x="340" y="-229.8" font-family="Times,serif" font-size="14.00">FilestorageService </text>
</g>
<!-- TransformersFilestorageService  -->
<g id="node2" class="node">
<title>TransformersFilestorageService </title>
<polygon fill="#fb8072" stroke="black" points="260.59,-252 61.41,-252 61.41,-216 260.59,-216 260.59,-252"/>
<text text-anchor="middle" x="161" y="-229.8" font-family="Times,serif" font-size="14.00">TransformersFilestorageService </text>
</g>
<!-- FilestorageModule -->
<g id="node3" class="node">
<title>FilestorageModule</title>
<polygon fill="#8dd3c7" stroke="black" points="258.75,-187 255.75,-191 234.75,-191 231.75,-187 137.25,-187 137.25,-151 258.75,-151 258.75,-187"/>
<text text-anchor="middle" x="198" y="-164.8" font-family="Times,serif" font-size="14.00">FilestorageModule</text>
</g>
<!-- FilestorageModule&#45;&gt;FilestorageService  -->
<g id="edge1" class="edge">
<title>FilestorageModule&#45;&gt;FilestorageService </title>
<path fill="none" stroke="black" stroke-dasharray="5,2" d="M259.14,-175C274.17,-175 286.04,-175 286.04,-175 286.04,-175 286.04,-205.98 286.04,-205.98"/>
<polygon fill="black" stroke="black" points="282.54,-205.98 286.04,-215.98 289.54,-205.98 282.54,-205.98"/>
</g>
<!-- FilestorageModule&#45;&gt;TransformersFilestorageService  -->
<g id="edge2" class="edge">
<title>FilestorageModule&#45;&gt;TransformersFilestorageService </title>
<path fill="none" stroke="black" stroke-dasharray="5,2" d="M198,-187.11C198,-187.11 198,-205.99 198,-205.99"/>
<polygon fill="black" stroke="black" points="194.5,-205.99 198,-215.99 201.5,-205.99 194.5,-205.99"/>
</g>
<!-- FilestorageService -->
<g id="node4" class="node">
<title>FilestorageService</title>
<ellipse fill="#fdb462" stroke="black" cx="395" cy="-104" rx="82.8" ry="18"/>
<text text-anchor="middle" x="395" y="-99.8" font-family="Times,serif" font-size="14.00">FilestorageService</text>
</g>
<!-- FilestorageService&#45;&gt;FilestorageModule -->
<g id="edge3" class="edge">
<title>FilestorageService&#45;&gt;FilestorageModule</title>
<path fill="none" stroke="black" d="M356.97,-120.12C356.97,-137.59 356.97,-163 356.97,-163 356.97,-163 269.01,-163 269.01,-163"/>
<polygon fill="black" stroke="black" points="269.01,-159.5 259.01,-163 269.01,-166.5 269.01,-159.5"/>
</g>
<!-- TransformersFilestorageService -->
<g id="node5" class="node">
<title>TransformersFilestorageService</title>
<ellipse fill="#fdb462" stroke="black" cx="159" cy="-104" rx="134.82" ry="18"/>
<text text-anchor="middle" x="159" y="-99.8" font-family="Times,serif" font-size="14.00">TransformersFilestorageService</text>
</g>
<!-- TransformersFilestorageService&#45;&gt;FilestorageModule -->
<g id="edge4" class="edge">
<title>TransformersFilestorageService&#45;&gt;FilestorageModule</title>
<path fill="none" stroke="black" d="M198,-121.42C198,-121.42 198,-140.62 198,-140.62"/>
<polygon fill="black" stroke="black" points="194.5,-140.62 198,-150.62 201.5,-140.62 194.5,-140.62"/>
</g>
</g>
</svg>
