<?xml version="1.0" encoding="UTF-8" standalone="no"?>
<!DOCTYPE svg PUBLIC "-//W3C//DTD SVG 1.1//EN"
 "http://www.w3.org/Graphics/SVG/1.1/DTD/svg11.dtd">
<!-- Generated by graphviz version 2.47.0 (20210316.0004)
 -->
<!-- Title: dependencies Pages: 1 -->
<svg width="738pt" height="211pt"
 viewBox="0.00 0.00 738.00 211.00" xmlns="http://www.w3.org/2000/svg" xmlns:xlink="http://www.w3.org/1999/xlink">
<g id="graph0" class="graph" transform="scale(1 1) rotate(0) translate(4 207)">
<title>dependencies</title>
<polygon fill="white" stroke="transparent" points="-4,4 -4,-207 734,-207 734,4 -4,4"/>
<text text-anchor="start" x="344.01" y="-42.4" font-family="Times-12" font-weight="bold" font-size="14.00">Legend</text>
<polygon fill="#ffffb3" stroke="transparent" points="131,-10 131,-30 151,-30 151,-10 131,-10"/>
<text text-anchor="start" x="154.63" y="-15.4" font-family="Times-12" font-size="14.00"> &#160;Declarations</text>
<polygon fill="#8dd3c7" stroke="transparent" points="244,-10 244,-30 264,-30 264,-10 244,-10"/>
<text text-anchor="start" x="267.73" y="-15.4" font-family="Times-12" font-size="14.00"> &#160;Module</text>
<polygon fill="#80b1d3" stroke="transparent" points="330,-10 330,-30 350,-30 350,-10 330,-10"/>
<text text-anchor="start" x="353.78" y="-15.4" font-family="Times-12" font-size="14.00"> &#160;Bootstrap</text>
<polygon fill="#fdb462" stroke="transparent" points="427,-10 427,-30 447,-30 447,-10 427,-10"/>
<text text-anchor="start" x="450.67" y="-15.4" font-family="Times-12" font-size="14.00"> &#160;Providers</text>
<polygon fill="#fb8072" stroke="transparent" points="523,-10 523,-30 543,-30 543,-10 523,-10"/>
<text text-anchor="start" x="546.73" y="-15.4" font-family="Times-12" font-size="14.00"> &#160;Exports</text>
<g id="clust1" class="cluster">
<title>cluster_PasswdModule</title>
<polygon fill="none" stroke="black" stroke-dasharray="1,5" points="8,-70 8,-195 722,-195 722,-70 8,-70"/>
</g>
<g id="clust6" class="cluster">
<title>cluster_PasswdModule_providers</title>
<polygon fill="none" stroke="black" points="428,-78 428,-130 714,-130 714,-78 428,-78"/>
</g>
<g id="clust3" class="cluster">
<title>cluster_PasswdModule_imports</title>
<polygon fill="none" stroke="black" points="16,-78 16,-130 420,-130 420,-78 16,-78"/>
</g>
<!-- BackendsModule -->
<g id="node1" class="node">
<title>BackendsModule</title>
<polygon fill="#8dd3c7" stroke="black" points="411.97,-122 408.97,-126 387.97,-126 384.97,-122 298.03,-122 298.03,-86 411.97,-86 411.97,-122"/>
<text text-anchor="middle" x="355" y="-99.8" font-family="Times,serif" font-size="14.00">BackendsModule</text>
</g>
<!-- PasswdModule -->
<g id="node4" class="node">
<title>PasswdModule</title>
<polygon fill="#8dd3c7" stroke="black" points="405.54,-187 402.54,-191 381.54,-191 378.54,-187 304.46,-187 304.46,-151 405.54,-151 405.54,-187"/>
<text text-anchor="middle" x="355" y="-164.8" font-family="Times,serif" font-size="14.00">PasswdModule</text>
</g>
<!-- BackendsModule&#45;&gt;PasswdModule -->
<g id="edge1" class="edge">
<title>BackendsModule&#45;&gt;PasswdModule</title>
<path fill="none" stroke="black" d="M355,-122.11C355,-122.11 355,-140.99 355,-140.99"/>
<polygon fill="black" stroke="black" points="351.5,-140.99 355,-150.99 358.5,-140.99 351.5,-140.99"/>
</g>
<!-- IdentitiesModule -->
<g id="node2" class="node">
<title>IdentitiesModule</title>
<polygon fill="#8dd3c7" stroke="black" points="279.65,-122 276.65,-126 255.65,-126 252.65,-122 168.35,-122 168.35,-86 279.65,-86 279.65,-122"/>
<text text-anchor="middle" x="224" y="-99.8" font-family="Times,serif" font-size="14.00">IdentitiesModule</text>
</g>
<!-- IdentitiesModule&#45;&gt;PasswdModule -->
<g id="edge2" class="edge">
<title>IdentitiesModule&#45;&gt;PasswdModule</title>
<path fill="none" stroke="black" d="M224,-122.02C224,-139.37 224,-163 224,-163 224,-163 294.35,-163 294.35,-163"/>
<polygon fill="black" stroke="black" points="294.35,-166.5 304.35,-163 294.35,-159.5 294.35,-166.5"/>
</g>
<!-- PasswdadmModule -->
<g id="node3" class="node">
<title>PasswdadmModule</title>
<polygon fill="#8dd3c7" stroke="black" points="149.65,-122 146.65,-126 125.65,-126 122.65,-122 24.35,-122 24.35,-86 149.65,-86 149.65,-122"/>
<text text-anchor="middle" x="87" y="-99.8" font-family="Times,serif" font-size="14.00">PasswdadmModule</text>
</g>
<!-- PasswdadmModule&#45;&gt;PasswdModule -->
<g id="edge3" class="edge">
<title>PasswdadmModule&#45;&gt;PasswdModule</title>
<path fill="none" stroke="black" d="M87,-122.28C87,-143.32 87,-175 87,-175 87,-175 294.28,-175 294.28,-175"/>
<polygon fill="black" stroke="black" points="294.28,-178.5 304.28,-175 294.28,-171.5 294.28,-178.5"/>
</g>
<!-- PasswdService -->
<g id="node5" class="node">
<title>PasswdService</title>
<ellipse fill="#fdb462" stroke="black" cx="637" cy="-104" rx="68.92" ry="18"/>
<text text-anchor="middle" x="637" y="-99.8" font-family="Times,serif" font-size="14.00">PasswdService</text>
</g>
<!-- PasswdService&#45;&gt;PasswdModule -->
<g id="edge4" class="edge">
<title>PasswdService&#45;&gt;PasswdModule</title>
<path fill="none" stroke="black" d="M637,-122.28C637,-143.32 637,-175 637,-175 637,-175 415.74,-175 415.74,-175"/>
<polygon fill="black" stroke="black" points="415.74,-171.5 405.74,-175 415.74,-178.5 415.74,-171.5"/>
</g>
<!-- SmsService -->
<g id="node6" class="node">
<title>SmsService</title>
<ellipse fill="#fdb462" stroke="black" cx="493" cy="-104" rx="56.76" ry="18"/>
<text text-anchor="middle" x="493" y="-99.8" font-family="Times,serif" font-size="14.00">SmsService</text>
</g>
<!-- SmsService&#45;&gt;PasswdModule -->
<g id="edge5" class="edge">
<title>SmsService&#45;&gt;PasswdModule</title>
<path fill="none" stroke="black" d="M493,-122.02C493,-139.37 493,-163 493,-163 493,-163 415.6,-163 415.6,-163"/>
<polygon fill="black" stroke="black" points="415.6,-159.5 405.6,-163 415.6,-166.5 415.6,-159.5"/>
</g>
</g>
</svg>
