<?xml version="1.0" encoding="UTF-8" standalone="no"?>
<!DOCTYPE svg PUBLIC "-//W3C//DTD SVG 1.1//EN"
 "http://www.w3.org/Graphics/SVG/1.1/DTD/svg11.dtd">
<!-- Generated by graphviz version 2.47.0 (20210316.0004)
 -->
<!-- Title: dependencies Pages: 1 -->
<svg width="584pt" height="211pt"
 viewBox="0.00 0.00 584.00 211.00" xmlns="http://www.w3.org/2000/svg" xmlns:xlink="http://www.w3.org/1999/xlink">
<g id="graph0" class="graph" transform="scale(1 1) rotate(0) translate(4 207)">
<title>dependencies</title>
<polygon fill="white" stroke="transparent" points="-4,4 -4,-207 580,-207 580,4 -4,4"/>
<text text-anchor="start" x="267.01" y="-42.4" font-family="Times-12" font-weight="bold" font-size="14.00">Legend</text>
<polygon fill="#ffffb3" stroke="transparent" points="54,-10 54,-30 74,-30 74,-10 54,-10"/>
<text text-anchor="start" x="77.63" y="-15.4" font-family="Times-12" font-size="14.00"> &#160;Declarations</text>
<polygon fill="#8dd3c7" stroke="transparent" points="167,-10 167,-30 187,-30 187,-10 167,-10"/>
<text text-anchor="start" x="190.73" y="-15.4" font-family="Times-12" font-size="14.00"> &#160;Module</text>
<polygon fill="#80b1d3" stroke="transparent" points="253,-10 253,-30 273,-30 273,-10 253,-10"/>
<text text-anchor="start" x="276.78" y="-15.4" font-family="Times-12" font-size="14.00"> &#160;Bootstrap</text>
<polygon fill="#fdb462" stroke="transparent" points="350,-10 350,-30 370,-30 370,-10 350,-10"/>
<text text-anchor="start" x="373.67" y="-15.4" font-family="Times-12" font-size="14.00"> &#160;Providers</text>
<polygon fill="#fb8072" stroke="transparent" points="446,-10 446,-30 466,-30 466,-10 446,-10"/>
<text text-anchor="start" x="469.73" y="-15.4" font-family="Times-12" font-size="14.00"> &#160;Exports</text>
<g id="clust1" class="cluster">
<title>cluster_PasswdModule</title>
<polygon fill="none" stroke="black" stroke-dasharray="1,5" points="8,-70 8,-195 568,-195 568,-70 8,-70"/>
</g>
<g id="clust3" class="cluster">
<title>cluster_PasswdModule_imports</title>
<polygon fill="none" stroke="black" points="178,-78 178,-130 560,-130 560,-78 178,-78"/>
</g>
<g id="clust6" class="cluster">
<title>cluster_PasswdModule_providers</title>
<polygon fill="none" stroke="black" points="16,-78 16,-130 170,-130 170,-78 16,-78"/>
</g>
<!-- BackendsModule -->
<g id="node1" class="node">
<title>BackendsModule</title>
<polygon fill="#8dd3c7" stroke="black" points="551.97,-122 548.97,-126 527.97,-126 524.97,-122 438.03,-122 438.03,-86 551.97,-86 551.97,-122"/>
<text text-anchor="middle" x="495" y="-99.8" font-family="Times,serif" font-size="14.00">BackendsModule</text>
</g>
<!-- PasswdModule -->
<g id="node4" class="node">
<title>PasswdModule</title>
<polygon fill="#8dd3c7" stroke="black" points="351.54,-187 348.54,-191 327.54,-191 324.54,-187 250.46,-187 250.46,-151 351.54,-151 351.54,-187"/>
<text text-anchor="middle" x="301" y="-164.8" font-family="Times,serif" font-size="14.00">PasswdModule</text>
</g>
<!-- BackendsModule&#45;&gt;PasswdModule -->
<g id="edge1" class="edge">
<title>BackendsModule&#45;&gt;PasswdModule</title>
<path fill="none" stroke="black" d="M495,-122.11C495,-141.34 495,-169 495,-169 495,-169 361.72,-169 361.72,-169"/>
<polygon fill="black" stroke="black" points="361.72,-165.5 351.72,-169 361.72,-172.5 361.72,-165.5"/>
</g>
<!-- IdentitiesModule -->
<g id="node2" class="node">
<title>IdentitiesModule</title>
<polygon fill="#8dd3c7" stroke="black" points="419.65,-122 416.65,-126 395.65,-126 392.65,-122 308.35,-122 308.35,-86 419.65,-86 419.65,-122"/>
<text text-anchor="middle" x="364" y="-99.8" font-family="Times,serif" font-size="14.00">IdentitiesModule</text>
</g>
<!-- IdentitiesModule&#45;&gt;PasswdModule -->
<g id="edge2" class="edge">
<title>IdentitiesModule&#45;&gt;PasswdModule</title>
<path fill="none" stroke="black" d="M329.97,-122.11C329.97,-122.11 329.97,-140.99 329.97,-140.99"/>
<polygon fill="black" stroke="black" points="326.47,-140.99 329.97,-150.99 333.47,-140.99 326.47,-140.99"/>
</g>
<!-- SettingsModule -->
<g id="node3" class="node">
<title>SettingsModule</title>
<polygon fill="#8dd3c7" stroke="black" points="290.16,-122 287.16,-126 266.16,-126 263.16,-122 185.84,-122 185.84,-86 290.16,-86 290.16,-122"/>
<text text-anchor="middle" x="238" y="-99.8" font-family="Times,serif" font-size="14.00">SettingsModule</text>
</g>
<!-- SettingsModule&#45;&gt;PasswdModule -->
<g id="edge3" class="edge">
<title>SettingsModule&#45;&gt;PasswdModule</title>
<path fill="none" stroke="black" d="M270.28,-122.11C270.28,-122.11 270.28,-140.99 270.28,-140.99"/>
<polygon fill="black" stroke="black" points="266.78,-140.99 270.28,-150.99 273.78,-140.99 266.78,-140.99"/>
</g>
<!-- PasswdService -->
<g id="node5" class="node">
<title>PasswdService</title>
<ellipse fill="#fdb462" stroke="black" cx="93" cy="-104" rx="68.92" ry="18"/>
<text text-anchor="middle" x="93" y="-99.8" font-family="Times,serif" font-size="14.00">PasswdService</text>
</g>
<!-- PasswdService&#45;&gt;PasswdModule -->
<g id="edge4" class="edge">
<title>PasswdService&#45;&gt;PasswdModule</title>
<path fill="none" stroke="black" d="M93,-122.11C93,-141.34 93,-169 93,-169 93,-169 240.38,-169 240.38,-169"/>
<polygon fill="black" stroke="black" points="240.38,-172.5 250.38,-169 240.38,-165.5 240.38,-172.5"/>
</g>
</g>
</svg>
