<?xml version="1.0" encoding="UTF-8" standalone="no"?>
<!DOCTYPE svg PUBLIC "-//W3C//DTD SVG 1.1//EN"
 "http://www.w3.org/Graphics/SVG/1.1/DTD/svg11.dtd">
<!-- Generated by graphviz version 2.47.0 (20210316.0004)
 -->
<!-- Title: dependencies Pages: 1 -->
<svg width="584pt" height="211pt"
 viewBox="0.00 0.00 584.00 211.00" xmlns="http://www.w3.org/2000/svg" xmlns:xlink="http://www.w3.org/1999/xlink">
<g id="graph0" class="graph" transform="scale(1 1) rotate(0) translate(4 207)">
<title>dependencies</title>
<polygon fill="white" stroke="transparent" points="-4,4 -4,-207 580,-207 580,4 -4,4"/>
<text text-anchor="start" x="267.01" y="-42.4" font-family="Times-12" font-weight="bold" font-size="14.00">Legend</text>
<polygon fill="#ffffb3" stroke="transparent" points="54,-10 54,-30 74,-30 74,-10 54,-10"/>
<text text-anchor="start" x="77.63" y="-15.4" font-family="Times-12" font-size="14.00"> &#160;Declarations</text>
<polygon fill="#8dd3c7" stroke="transparent" points="167,-10 167,-30 187,-30 187,-10 167,-10"/>
<text text-anchor="start" x="190.73" y="-15.4" font-family="Times-12" font-size="14.00"> &#160;Module</text>
<polygon fill="#80b1d3" stroke="transparent" points="253,-10 253,-30 273,-30 273,-10 253,-10"/>
<text text-anchor="start" x="276.78" y="-15.4" font-family="Times-12" font-size="14.00"> &#160;Bootstrap</text>
<polygon fill="#fdb462" stroke="transparent" points="350,-10 350,-30 370,-30 370,-10 350,-10"/>
<text text-anchor="start" x="373.67" y="-15.4" font-family="Times-12" font-size="14.00"> &#160;Providers</text>
<polygon fill="#fb8072" stroke="transparent" points="446,-10 446,-30 466,-30 466,-10 446,-10"/>
<text text-anchor="start" x="469.73" y="-15.4" font-family="Times-12" font-size="14.00"> &#160;Exports</text>
<g id="clust1" class="cluster">
<title>cluster_PasswdModule</title>
<polygon fill="none" stroke="black" stroke-dasharray="1,5" points="8,-70 8,-195 568,-195 568,-70 8,-70"/>
</g>
<g id="clust6" class="cluster">
<title>cluster_PasswdModule_providers</title>
<polygon fill="none" stroke="black" points="406,-78 406,-130 560,-130 560,-78 406,-78"/>
</g>
<g id="clust3" class="cluster">
<title>cluster_PasswdModule_imports</title>
<polygon fill="none" stroke="black" points="16,-78 16,-130 398,-130 398,-78 16,-78"/>
</g>
<!-- BackendsModule -->
<g id="node1" class="node">
<title>BackendsModule</title>
<polygon fill="#8dd3c7" stroke="black" points="389.97,-122 386.97,-126 365.97,-126 362.97,-122 276.03,-122 276.03,-86 389.97,-86 389.97,-122"/>
<text text-anchor="middle" x="333" y="-99.8" font-family="Times,serif" font-size="14.00">BackendsModule</text>
</g>
<!-- PasswdModule -->
<g id="node4" class="node">
<title>PasswdModule</title>
<polygon fill="#8dd3c7" stroke="black" points="317.54,-187 314.54,-191 293.54,-191 290.54,-187 216.46,-187 216.46,-151 317.54,-151 317.54,-187"/>
<text text-anchor="middle" x="267" y="-164.8" font-family="Times,serif" font-size="14.00">PasswdModule</text>
</g>
<!-- BackendsModule&#45;&gt;PasswdModule -->
<g id="edge1" class="edge">
<title>BackendsModule&#45;&gt;PasswdModule</title>
<path fill="none" stroke="black" d="M296.89,-122.11C296.89,-122.11 296.89,-140.99 296.89,-140.99"/>
<polygon fill="black" stroke="black" points="293.39,-140.99 296.89,-150.99 300.39,-140.99 293.39,-140.99"/>
</g>
<!-- IdentitiesModule -->
<g id="node2" class="node">
<title>IdentitiesModule</title>
<polygon fill="#8dd3c7" stroke="black" points="257.65,-122 254.65,-126 233.65,-126 230.65,-122 146.35,-122 146.35,-86 257.65,-86 257.65,-122"/>
<text text-anchor="middle" x="202" y="-99.8" font-family="Times,serif" font-size="14.00">IdentitiesModule</text>
</g>
<!-- IdentitiesModule&#45;&gt;PasswdModule -->
<g id="edge2" class="edge">
<title>IdentitiesModule&#45;&gt;PasswdModule</title>
<path fill="none" stroke="black" d="M237.03,-122.11C237.03,-122.11 237.03,-140.99 237.03,-140.99"/>
<polygon fill="black" stroke="black" points="233.53,-140.99 237.03,-150.99 240.53,-140.99 233.53,-140.99"/>
</g>
<!-- SettingsModule -->
<g id="node3" class="node">
<title>SettingsModule</title>
<polygon fill="#8dd3c7" stroke="black" points="128.16,-122 125.16,-126 104.16,-126 101.16,-122 23.84,-122 23.84,-86 128.16,-86 128.16,-122"/>
<text text-anchor="middle" x="76" y="-99.8" font-family="Times,serif" font-size="14.00">SettingsModule</text>
</g>
<!-- SettingsModule&#45;&gt;PasswdModule -->
<g id="edge3" class="edge">
<title>SettingsModule&#45;&gt;PasswdModule</title>
<path fill="none" stroke="black" d="M76,-122.11C76,-141.34 76,-169 76,-169 76,-169 206.32,-169 206.32,-169"/>
<polygon fill="black" stroke="black" points="206.32,-172.5 216.32,-169 206.32,-165.5 206.32,-172.5"/>
</g>
<!-- PasswdService -->
<g id="node5" class="node">
<title>PasswdService</title>
<ellipse fill="#fdb462" stroke="black" cx="483" cy="-104" rx="68.92" ry="18"/>
<text text-anchor="middle" x="483" y="-99.8" font-family="Times,serif" font-size="14.00">PasswdService</text>
</g>
<!-- PasswdService&#45;&gt;PasswdModule -->
<g id="edge4" class="edge">
<title>PasswdService&#45;&gt;PasswdModule</title>
<path fill="none" stroke="black" d="M483,-122.11C483,-141.34 483,-169 483,-169 483,-169 327.64,-169 327.64,-169"/>
<polygon fill="black" stroke="black" points="327.64,-165.5 317.64,-169 327.64,-172.5 327.64,-165.5"/>
</g>
</g>
</svg>
