<?xml version="1.0" encoding="UTF-8" standalone="no"?>
<!DOCTYPE svg PUBLIC "-//W3C//DTD SVG 1.1//EN"
 "http://www.w3.org/Graphics/SVG/1.1/DTD/svg11.dtd">
<!-- Generated by graphviz version 2.47.0 (20210316.0004)
 -->
<!-- Title: dependencies Pages: 1 -->
<svg width="504pt" height="211pt"
 viewBox="0.00 0.00 504.00 211.00" xmlns="http://www.w3.org/2000/svg" xmlns:xlink="http://www.w3.org/1999/xlink">
<g id="graph0" class="graph" transform="scale(1 1) rotate(0) translate(4 207)">
<title>dependencies</title>
<polygon fill="white" stroke="transparent" points="-4,4 -4,-207 500,-207 500,4 -4,4"/>
<text text-anchor="start" x="227.01" y="-42.4" font-family="Times-12" font-weight="bold" font-size="14.00">Legend</text>
<polygon fill="#ffffb3" stroke="transparent" points="14,-10 14,-30 34,-30 34,-10 14,-10"/>
<text text-anchor="start" x="37.63" y="-15.4" font-family="Times-12" font-size="14.00"> &#160;Declarations</text>
<polygon fill="#8dd3c7" stroke="transparent" points="127,-10 127,-30 147,-30 147,-10 127,-10"/>
<text text-anchor="start" x="150.73" y="-15.4" font-family="Times-12" font-size="14.00"> &#160;Module</text>
<polygon fill="#80b1d3" stroke="transparent" points="213,-10 213,-30 233,-30 233,-10 213,-10"/>
<text text-anchor="start" x="236.78" y="-15.4" font-family="Times-12" font-size="14.00"> &#160;Bootstrap</text>
<polygon fill="#fdb462" stroke="transparent" points="310,-10 310,-30 330,-30 330,-10 310,-10"/>
<text text-anchor="start" x="333.67" y="-15.4" font-family="Times-12" font-size="14.00"> &#160;Providers</text>
<polygon fill="#fb8072" stroke="transparent" points="406,-10 406,-30 426,-30 426,-10 406,-10"/>
<text text-anchor="start" x="429.73" y="-15.4" font-family="Times-12" font-size="14.00"> &#160;Exports</text>
<g id="clust1" class="cluster">
<title>cluster_SettingstModule</title>
<polygon fill="none" stroke="black" stroke-dasharray="1,5" points="86,-70 86,-195 410,-195 410,-70 86,-70"/>
</g>
<g id="clust6" class="cluster">
<title>cluster_SettingstModule_providers</title>
<polygon fill="none" stroke="black" points="244,-78 244,-130 402,-130 402,-78 244,-78"/>
</g>
<g id="clust3" class="cluster">
<title>cluster_SettingstModule_imports</title>
<polygon fill="none" stroke="black" points="94,-78 94,-130 236,-130 236,-78 94,-78"/>
</g>
<!-- PasswdadmModule -->
<g id="node1" class="node">
<title>PasswdadmModule</title>
<polygon fill="#8dd3c7" stroke="black" points="227.65,-122 224.65,-126 203.65,-126 200.65,-122 102.35,-122 102.35,-86 227.65,-86 227.65,-122"/>
<text text-anchor="middle" x="165" y="-99.8" font-family="Times,serif" font-size="14.00">PasswdadmModule</text>
</g>
<!-- SettingstModule -->
<g id="node2" class="node">
<title>SettingstModule</title>
<polygon fill="#8dd3c7" stroke="black" points="298.05,-187 295.05,-191 274.05,-191 271.05,-187 189.95,-187 189.95,-151 298.05,-151 298.05,-187"/>
<text text-anchor="middle" x="244" y="-164.8" font-family="Times,serif" font-size="14.00">SettingstModule</text>
</g>
<!-- PasswdadmModule&#45;&gt;SettingstModule -->
<g id="edge1" class="edge">
<title>PasswdadmModule&#45;&gt;SettingstModule</title>
<path fill="none" stroke="black" d="M208.77,-122.11C208.77,-122.11 208.77,-140.99 208.77,-140.99"/>
<polygon fill="black" stroke="black" points="205.27,-140.99 208.77,-150.99 212.27,-140.99 205.27,-140.99"/>
</g>
<!-- SettingsService -->
<g id="node3" class="node">
<title>SettingsService</title>
<ellipse fill="#fdb462" stroke="black" cx="323" cy="-104" rx="71.22" ry="18"/>
<text text-anchor="middle" x="323" y="-99.8" font-family="Times,serif" font-size="14.00">SettingsService</text>
</g>
<!-- SettingsService&#45;&gt;SettingstModule -->
<g id="edge2" class="edge">
<title>SettingsService&#45;&gt;SettingstModule</title>
<path fill="none" stroke="black" d="M275.08,-117.47C275.08,-117.47 275.08,-140.86 275.08,-140.86"/>
<polygon fill="black" stroke="black" points="271.58,-140.86 275.08,-150.86 278.58,-140.86 271.58,-140.86"/>
</g>
</g>
</svg>
