<?xml version="1.0" encoding="UTF-8" standalone="no"?>
<!DOCTYPE svg PUBLIC "-//W3C//DTD SVG 1.1//EN"
 "http://www.w3.org/Graphics/SVG/1.1/DTD/svg11.dtd">
<!-- Generated by graphviz version 2.47.0 (20210316.0004)
 -->
<!-- Title: dependencies Pages: 1 -->
<svg width="693pt" height="211pt"
 viewBox="0.00 0.00 693.00 211.00" xmlns="http://www.w3.org/2000/svg" xmlns:xlink="http://www.w3.org/1999/xlink">
<g id="graph0" class="graph" transform="scale(1 1) rotate(0) translate(4 207)">
<title>dependencies</title>
<polygon fill="white" stroke="transparent" points="-4,4 -4,-207 689,-207 689,4 -4,4"/>
<text text-anchor="start" x="321.51" y="-42.4" font-family="Times-12" font-weight="bold" font-size="14.00">Legend</text>
<polygon fill="#ffffb3" stroke="transparent" points="108.5,-10 108.5,-30 128.5,-30 128.5,-10 108.5,-10"/>
<text text-anchor="start" x="132.13" y="-15.4" font-family="Times-12" font-size="14.00"> &#160;Declarations</text>
<polygon fill="#8dd3c7" stroke="transparent" points="221.5,-10 221.5,-30 241.5,-30 241.5,-10 221.5,-10"/>
<text text-anchor="start" x="245.23" y="-15.4" font-family="Times-12" font-size="14.00"> &#160;Module</text>
<polygon fill="#80b1d3" stroke="transparent" points="307.5,-10 307.5,-30 327.5,-30 327.5,-10 307.5,-10"/>
<text text-anchor="start" x="331.28" y="-15.4" font-family="Times-12" font-size="14.00"> &#160;Bootstrap</text>
<polygon fill="#fdb462" stroke="transparent" points="404.5,-10 404.5,-30 424.5,-30 424.5,-10 404.5,-10"/>
<text text-anchor="start" x="428.17" y="-15.4" font-family="Times-12" font-size="14.00"> &#160;Providers</text>
<polygon fill="#fb8072" stroke="transparent" points="500.5,-10 500.5,-30 520.5,-30 520.5,-10 500.5,-10"/>
<text text-anchor="start" x="524.23" y="-15.4" font-family="Times-12" font-size="14.00"> &#160;Exports</text>
<g id="clust1" class="cluster">
<title>cluster_AppModule</title>
<polygon fill="none" stroke="black" stroke-dasharray="1,5" points="8,-70 8,-195 677,-195 677,-70 8,-70"/>
</g>
<g id="clust3" class="cluster">
<title>cluster_AppModule_imports</title>
<polygon fill="none" stroke="black" points="154,-78 154,-130 669,-130 669,-78 154,-78"/>
</g>
<g id="clust6" class="cluster">
<title>cluster_AppModule_providers</title>
<polygon fill="none" stroke="black" points="16,-78 16,-130 146,-130 146,-78 16,-78"/>
</g>
<!-- CoreModule -->
<g id="node1" class="node">
<title>CoreModule</title>
<polygon fill="#8dd3c7" stroke="black" points="661.26,-122 658.26,-126 637.26,-126 634.26,-122 574.74,-122 574.74,-86 661.26,-86 661.26,-122"/>
<text text-anchor="middle" x="618" y="-99.8" font-family="Times,serif" font-size="14.00">CoreModule</text>
</g>
<!-- AppModule -->
<g id="node5" class="node">
<title>AppModule</title>
<polygon fill="#8dd3c7" stroke="black" points="386.66,-187 383.66,-191 362.66,-191 359.66,-187 303.34,-187 303.34,-151 386.66,-151 386.66,-187"/>
<text text-anchor="middle" x="345" y="-164.8" font-family="Times,serif" font-size="14.00">AppModule</text>
</g>
<!-- CoreModule&#45;&gt;AppModule -->
<g id="edge1" class="edge">
<title>CoreModule&#45;&gt;AppModule</title>
<path fill="none" stroke="black" d="M618,-122.28C618,-143.32 618,-175 618,-175 618,-175 396.76,-175 396.76,-175"/>
<polygon fill="black" stroke="black" points="396.76,-171.5 386.76,-175 396.76,-178.5 396.76,-171.5"/>
</g>
<!-- ManagementModule -->
<g id="node2" class="node">
<title>ManagementModule</title>
<polygon fill="#8dd3c7" stroke="black" points="556.13,-122 553.13,-126 532.13,-126 529.13,-122 423.87,-122 423.87,-86 556.13,-86 556.13,-122"/>
<text text-anchor="middle" x="490" y="-99.8" font-family="Times,serif" font-size="14.00">ManagementModule</text>
</g>
<!-- ManagementModule&#45;&gt;AppModule -->
<g id="edge2" class="edge">
<title>ManagementModule&#45;&gt;AppModule</title>
<path fill="none" stroke="black" d="M490,-122.02C490,-139.37 490,-163 490,-163 490,-163 396.94,-163 396.94,-163"/>
<polygon fill="black" stroke="black" points="396.94,-159.5 386.94,-163 396.94,-166.5 396.94,-159.5"/>
</g>
<!-- MigrationsModule -->
<g id="node3" class="node">
<title>MigrationsModule</title>
<polygon fill="#8dd3c7" stroke="black" points="405.49,-122 402.49,-126 381.49,-126 378.49,-122 284.51,-122 284.51,-86 405.49,-86 405.49,-122"/>
<text text-anchor="middle" x="345" y="-99.8" font-family="Times,serif" font-size="14.00">MigrationsModule</text>
</g>
<!-- MigrationsModule&#45;&gt;AppModule -->
<g id="edge3" class="edge">
<title>MigrationsModule&#45;&gt;AppModule</title>
<path fill="none" stroke="black" d="M345,-122.11C345,-122.11 345,-140.99 345,-140.99"/>
<polygon fill="black" stroke="black" points="341.5,-140.99 345,-150.99 348.5,-140.99 341.5,-140.99"/>
</g>
<!-- SettingsModule -->
<g id="node4" class="node">
<title>SettingsModule</title>
<polygon fill="#8dd3c7" stroke="black" points="266.16,-122 263.16,-126 242.16,-126 239.16,-122 161.84,-122 161.84,-86 266.16,-86 266.16,-122"/>
<text text-anchor="middle" x="214" y="-99.8" font-family="Times,serif" font-size="14.00">SettingsModule</text>
</g>
<!-- SettingsModule&#45;&gt;AppModule -->
<g id="edge4" class="edge">
<title>SettingsModule&#45;&gt;AppModule</title>
<path fill="none" stroke="black" d="M214,-122.02C214,-139.37 214,-163 214,-163 214,-163 293.19,-163 293.19,-163"/>
<polygon fill="black" stroke="black" points="293.19,-166.5 303.19,-163 293.19,-159.5 293.19,-166.5"/>
</g>
<!-- AppService -->
<g id="node6" class="node">
<title>AppService</title>
<ellipse fill="#fdb462" stroke="black" cx="81" cy="-104" rx="56.74" ry="18"/>
<text text-anchor="middle" x="81" y="-99.8" font-family="Times,serif" font-size="14.00">AppService</text>
</g>
<!-- AppService&#45;&gt;AppModule -->
<g id="edge5" class="edge">
<title>AppService&#45;&gt;AppModule</title>
<path fill="none" stroke="black" d="M81,-122.28C81,-143.32 81,-175 81,-175 81,-175 293.17,-175 293.17,-175"/>
<polygon fill="black" stroke="black" points="293.17,-178.5 303.17,-175 293.17,-171.5 293.17,-178.5"/>
</g>
</g>
</svg>
