<?xml version="1.0" encoding="UTF-8" standalone="no"?>
<!DOCTYPE svg PUBLIC "-//W3C//DTD SVG 1.1//EN"
 "http://www.w3.org/Graphics/SVG/1.1/DTD/svg11.dtd">
<!-- Generated by graphviz version 2.47.0 (20210316.0004)
 -->
<!-- Title: dependencies Pages: 1 -->
<svg width="558pt" height="211pt"
 viewBox="0.00 0.00 558.00 211.00" xmlns="http://www.w3.org/2000/svg" xmlns:xlink="http://www.w3.org/1999/xlink">
<g id="graph0" class="graph" transform="scale(1 1) rotate(0) translate(4 207)">
<title>dependencies</title>
<polygon fill="white" stroke="transparent" points="-4,4 -4,-207 554,-207 554,4 -4,4"/>
<text text-anchor="start" x="254.01" y="-42.4" font-family="Times-12" font-weight="bold" font-size="14.00">Legend</text>
<polygon fill="#ffffb3" stroke="transparent" points="41,-10 41,-30 61,-30 61,-10 41,-10"/>
<text text-anchor="start" x="64.63" y="-15.4" font-family="Times-12" font-size="14.00"> &#160;Declarations</text>
<polygon fill="#8dd3c7" stroke="transparent" points="154,-10 154,-30 174,-30 174,-10 154,-10"/>
<text text-anchor="start" x="177.73" y="-15.4" font-family="Times-12" font-size="14.00"> &#160;Module</text>
<polygon fill="#80b1d3" stroke="transparent" points="240,-10 240,-30 260,-30 260,-10 240,-10"/>
<text text-anchor="start" x="263.78" y="-15.4" font-family="Times-12" font-size="14.00"> &#160;Bootstrap</text>
<polygon fill="#fdb462" stroke="transparent" points="337,-10 337,-30 357,-30 357,-10 337,-10"/>
<text text-anchor="start" x="360.67" y="-15.4" font-family="Times-12" font-size="14.00"> &#160;Providers</text>
<polygon fill="#fb8072" stroke="transparent" points="433,-10 433,-30 453,-30 453,-10 433,-10"/>
<text text-anchor="start" x="456.73" y="-15.4" font-family="Times-12" font-size="14.00"> &#160;Exports</text>
<g id="clust1" class="cluster">
<title>cluster_AppModule</title>
<polygon fill="none" stroke="black" stroke-dasharray="1,5" points="8,-70 8,-195 542,-195 542,-70 8,-70"/>
</g>
<g id="clust6" class="cluster">
<title>cluster_AppModule_providers</title>
<polygon fill="none" stroke="black" points="404,-78 404,-130 534,-130 534,-78 404,-78"/>
</g>
<g id="clust3" class="cluster">
<title>cluster_AppModule_imports</title>
<polygon fill="none" stroke="black" points="16,-78 16,-130 396,-130 396,-78 16,-78"/>
</g>
<!-- CoreModule -->
<g id="node1" class="node">
<title>CoreModule</title>
<polygon fill="#8dd3c7" stroke="black" points="388.26,-122 385.26,-126 364.26,-126 361.26,-122 301.74,-122 301.74,-86 388.26,-86 388.26,-122"/>
<text text-anchor="middle" x="345" y="-99.8" font-family="Times,serif" font-size="14.00">CoreModule</text>
</g>
<!-- AppModule -->
<g id="node4" class="node">
<title>AppModule</title>
<polygon fill="#8dd3c7" stroke="black" points="322.66,-187 319.66,-191 298.66,-191 295.66,-187 239.34,-187 239.34,-151 322.66,-151 322.66,-187"/>
<text text-anchor="middle" x="281" y="-164.8" font-family="Times,serif" font-size="14.00">AppModule</text>
</g>
<!-- CoreModule&#45;&gt;AppModule -->
<g id="edge1" class="edge">
<title>CoreModule&#45;&gt;AppModule</title>
<path fill="none" stroke="black" d="M312.22,-122.11C312.22,-122.11 312.22,-140.99 312.22,-140.99"/>
<polygon fill="black" stroke="black" points="308.72,-140.99 312.22,-150.99 315.72,-140.99 308.72,-140.99"/>
</g>
<!-- ManagementModule -->
<g id="node2" class="node">
<title>ManagementModule</title>
<polygon fill="#8dd3c7" stroke="black" points="283.13,-122 280.13,-126 259.13,-126 256.13,-122 150.87,-122 150.87,-86 283.13,-86 283.13,-122"/>
<text text-anchor="middle" x="217" y="-99.8" font-family="Times,serif" font-size="14.00">ManagementModule</text>
</g>
<!-- ManagementModule&#45;&gt;AppModule -->
<g id="edge2" class="edge">
<title>ManagementModule&#45;&gt;AppModule</title>
<path fill="none" stroke="black" d="M261.24,-122.11C261.24,-122.11 261.24,-140.99 261.24,-140.99"/>
<polygon fill="black" stroke="black" points="257.74,-140.99 261.24,-150.99 264.74,-140.99 257.74,-140.99"/>
</g>
<!-- SettingstModule -->
<g id="node3" class="node">
<title>SettingstModule</title>
<polygon fill="#8dd3c7" stroke="black" points="132.05,-122 129.05,-126 108.05,-126 105.05,-122 23.95,-122 23.95,-86 132.05,-86 132.05,-122"/>
<text text-anchor="middle" x="78" y="-99.8" font-family="Times,serif" font-size="14.00">SettingstModule</text>
</g>
<!-- SettingstModule&#45;&gt;AppModule -->
<g id="edge3" class="edge">
<title>SettingstModule&#45;&gt;AppModule</title>
<path fill="none" stroke="black" d="M78,-122.11C78,-141.34 78,-169 78,-169 78,-169 228.94,-169 228.94,-169"/>
<polygon fill="black" stroke="black" points="228.94,-172.5 238.94,-169 228.94,-165.5 228.94,-172.5"/>
</g>
<!-- AppService -->
<g id="node5" class="node">
<title>AppService</title>
<ellipse fill="#fdb462" stroke="black" cx="469" cy="-104" rx="56.74" ry="18"/>
<text text-anchor="middle" x="469" y="-99.8" font-family="Times,serif" font-size="14.00">AppService</text>
</g>
<!-- AppService&#45;&gt;AppModule -->
<g id="edge4" class="edge">
<title>AppService&#45;&gt;AppModule</title>
<path fill="none" stroke="black" d="M469,-122.11C469,-141.34 469,-169 469,-169 469,-169 332.72,-169 332.72,-169"/>
<polygon fill="black" stroke="black" points="332.72,-165.5 322.72,-169 332.72,-172.5 332.72,-165.5"/>
</g>
</g>
</svg>
