<?xml version="1.0" encoding="UTF-8" standalone="no"?>
<!DOCTYPE svg PUBLIC "-//W3C//DTD SVG 1.1//EN"
 "http://www.w3.org/Graphics/SVG/1.1/DTD/svg11.dtd">
<!-- Generated by graphviz version 2.47.0 (20210316.0004)
 -->
<!-- Title: dependencies Pages: 1 -->
<svg width="1170pt" height="211pt"
 viewBox="0.00 0.00 1170.00 211.00" xmlns="http://www.w3.org/2000/svg" xmlns:xlink="http://www.w3.org/1999/xlink">
<g id="graph0" class="graph" transform="scale(1 1) rotate(0) translate(4 207)">
<title>dependencies</title>
<polygon fill="white" stroke="transparent" points="-4,4 -4,-207 1166,-207 1166,4 -4,4"/>
<text text-anchor="start" x="560.01" y="-42.4" font-family="Times-12" font-weight="bold" font-size="14.00">Legend</text>
<polygon fill="#ffffb3" stroke="transparent" points="347,-10 347,-30 367,-30 367,-10 347,-10"/>
<text text-anchor="start" x="370.63" y="-15.4" font-family="Times-12" font-size="14.00"> &#160;Declarations</text>
<polygon fill="#8dd3c7" stroke="transparent" points="460,-10 460,-30 480,-30 480,-10 460,-10"/>
<text text-anchor="start" x="483.73" y="-15.4" font-family="Times-12" font-size="14.00"> &#160;Module</text>
<polygon fill="#80b1d3" stroke="transparent" points="546,-10 546,-30 566,-30 566,-10 546,-10"/>
<text text-anchor="start" x="569.78" y="-15.4" font-family="Times-12" font-size="14.00"> &#160;Bootstrap</text>
<polygon fill="#fdb462" stroke="transparent" points="643,-10 643,-30 663,-30 663,-10 643,-10"/>
<text text-anchor="start" x="666.67" y="-15.4" font-family="Times-12" font-size="14.00"> &#160;Providers</text>
<polygon fill="#fb8072" stroke="transparent" points="739,-10 739,-30 759,-30 759,-10 739,-10"/>
<text text-anchor="start" x="762.73" y="-15.4" font-family="Times-12" font-size="14.00"> &#160;Exports</text>
<g id="clust1" class="cluster">
<title>cluster_AppModule</title>
<polygon fill="none" stroke="black" stroke-dasharray="1,5" points="8,-70 8,-195 1154,-195 1154,-70 8,-70"/>
</g>
<g id="clust6" class="cluster">
<title>cluster_AppModule_providers</title>
<polygon fill="none" stroke="black" points="827,-78 827,-130 1146,-130 1146,-78 827,-78"/>
</g>
<g id="clust3" class="cluster">
<title>cluster_AppModule_imports</title>
<polygon fill="none" stroke="black" points="16,-78 16,-130 819,-130 819,-78 16,-78"/>
</g>
<!-- CoreModule -->
<g id="node1" class="node">
<title>CoreModule</title>
<polygon fill="#8dd3c7" stroke="black" points="811.26,-122 808.26,-126 787.26,-126 784.26,-122 724.74,-122 724.74,-86 811.26,-86 811.26,-122"/>
<text text-anchor="middle" x="768" y="-99.8" font-family="Times,serif" font-size="14.00">CoreModule</text>
</g>
<!-- AppModule -->
<g id="node7" class="node">
<title>AppModule</title>
<polygon fill="#8dd3c7" stroke="black" points="615.66,-187 612.66,-191 591.66,-191 588.66,-187 532.34,-187 532.34,-151 615.66,-151 615.66,-187"/>
<text text-anchor="middle" x="574" y="-164.8" font-family="Times,serif" font-size="14.00">AppModule</text>
</g>
<!-- CoreModule&#45;&gt;AppModule -->
<g id="edge1" class="edge">
<title>CoreModule&#45;&gt;AppModule</title>
<path fill="none" stroke="black" d="M768,-122.03C768,-138.4 768,-160 768,-160 768,-160 626.1,-160 626.1,-160"/>
<polygon fill="black" stroke="black" points="626.1,-156.5 616.1,-160 626.1,-163.5 626.1,-156.5"/>
</g>
<!-- ExtensionsModule -->
<g id="node2" class="node">
<title>ExtensionsModule</title>
<polygon fill="#8dd3c7" stroke="black" points="706.49,-122 703.49,-126 682.49,-126 679.49,-122 585.51,-122 585.51,-86 706.49,-86 706.49,-122"/>
<text text-anchor="middle" x="646" y="-99.8" font-family="Times,serif" font-size="14.00">ExtensionsModule</text>
</g>
<!-- ExtensionsModule&#45;&gt;AppModule -->
<g id="edge2" class="edge">
<title>ExtensionsModule&#45;&gt;AppModule</title>
<path fill="none" stroke="black" d="M600.67,-122.11C600.67,-122.11 600.67,-140.99 600.67,-140.99"/>
<polygon fill="black" stroke="black" points="597.17,-140.99 600.67,-150.99 604.17,-140.99 597.17,-140.99"/>
</g>
<!-- FactorydriveModule -->
<g id="node3" class="node">
<title>FactorydriveModule</title>
<polygon fill="#8dd3c7" stroke="black" points="567.58,-122 564.58,-126 543.58,-126 540.58,-122 436.42,-122 436.42,-86 567.58,-86 567.58,-122"/>
<text text-anchor="middle" x="502" y="-99.8" font-family="Times,serif" font-size="14.00">FactorydriveModule</text>
</g>
<!-- FactorydriveModule&#45;&gt;AppModule -->
<g id="edge3" class="edge">
<title>FactorydriveModule&#45;&gt;AppModule</title>
<path fill="none" stroke="black" d="M549.86,-122.11C549.86,-122.11 549.86,-140.99 549.86,-140.99"/>
<polygon fill="black" stroke="black" points="546.36,-140.99 549.86,-150.99 553.36,-140.99 546.36,-140.99"/>
</g>
<!-- ManagementModule -->
<g id="node4" class="node">
<title>ManagementModule</title>
<polygon fill="#8dd3c7" stroke="black" points="418.13,-122 415.13,-126 394.13,-126 391.13,-122 285.87,-122 285.87,-86 418.13,-86 418.13,-122"/>
<text text-anchor="middle" x="352" y="-99.8" font-family="Times,serif" font-size="14.00">ManagementModule</text>
</g>
<!-- ManagementModule&#45;&gt;AppModule -->
<g id="edge4" class="edge">
<title>ManagementModule&#45;&gt;AppModule</title>
<path fill="none" stroke="black" d="M352,-122.03C352,-138.4 352,-160 352,-160 352,-160 522.24,-160 522.24,-160"/>
<polygon fill="black" stroke="black" points="522.24,-163.5 532.24,-160 522.24,-156.5 522.24,-163.5"/>
</g>
<!-- MigrationsModule -->
<g id="node5" class="node">
<title>MigrationsModule</title>
<polygon fill="#8dd3c7" stroke="black" points="267.49,-122 264.49,-126 243.49,-126 240.49,-122 146.51,-122 146.51,-86 267.49,-86 267.49,-122"/>
<text text-anchor="middle" x="207" y="-99.8" font-family="Times,serif" font-size="14.00">MigrationsModule</text>
</g>
<!-- MigrationsModule&#45;&gt;AppModule -->
<g id="edge5" class="edge">
<title>MigrationsModule&#45;&gt;AppModule</title>
<path fill="none" stroke="black" d="M207,-122.11C207,-141.34 207,-169 207,-169 207,-169 522.26,-169 522.26,-169"/>
<polygon fill="black" stroke="black" points="522.26,-172.5 532.26,-169 522.26,-165.5 522.26,-172.5"/>
</g>
<!-- SettingsModule -->
<g id="node6" class="node">
<title>SettingsModule</title>
<polygon fill="#8dd3c7" stroke="black" points="128.16,-122 125.16,-126 104.16,-126 101.16,-122 23.84,-122 23.84,-86 128.16,-86 128.16,-122"/>
<text text-anchor="middle" x="76" y="-99.8" font-family="Times,serif" font-size="14.00">SettingsModule</text>
</g>
<!-- SettingsModule&#45;&gt;AppModule -->
<g id="edge6" class="edge">
<title>SettingsModule&#45;&gt;AppModule</title>
<path fill="none" stroke="black" d="M76,-122.29C76,-144.21 76,-178 76,-178 76,-178 521.97,-178 521.97,-178"/>
<polygon fill="black" stroke="black" points="521.97,-181.5 531.97,-178 521.97,-174.5 521.97,-181.5"/>
</g>
<!-- AppService -->
<g id="node8" class="node">
<title>AppService</title>
<ellipse fill="#fdb462" stroke="black" cx="1081" cy="-104" rx="56.74" ry="18"/>
<text text-anchor="middle" x="1081" y="-99.8" font-family="Times,serif" font-size="14.00">AppService</text>
</g>
<!-- AppService&#45;&gt;AppModule -->
<g id="edge7" class="edge">
<title>AppService&#45;&gt;AppModule</title>
<path fill="none" stroke="black" d="M1081,-122.29C1081,-144.21 1081,-178 1081,-178 1081,-178 625.92,-178 625.92,-178"/>
<polygon fill="black" stroke="black" points="625.92,-174.5 615.92,-178 625.92,-181.5 625.92,-174.5"/>
</g>
<!-- ShutdownObserver -->
<g id="node9" class="node">
<title>ShutdownObserver</title>
<ellipse fill="#fdb462" stroke="black" cx="921" cy="-104" rx="85.68" ry="18"/>
<text text-anchor="middle" x="921" y="-99.8" font-family="Times,serif" font-size="14.00">ShutdownObserver</text>
</g>
<!-- ShutdownObserver&#45;&gt;AppModule -->
<g id="edge8" class="edge">
<title>ShutdownObserver&#45;&gt;AppModule</title>
<path fill="none" stroke="black" d="M921,-122.11C921,-141.34 921,-169 921,-169 921,-169 625.86,-169 625.86,-169"/>
<polygon fill="black" stroke="black" points="625.86,-165.5 615.86,-169 625.86,-172.5 625.86,-165.5"/>
</g>
</g>
</svg>
