<?xml version="1.0" encoding="UTF-8" standalone="no"?>
<!DOCTYPE svg PUBLIC "-//W3C//DTD SVG 1.1//EN"
 "http://www.w3.org/Graphics/SVG/1.1/DTD/svg11.dtd">
<!-- Generated by graphviz version 2.47.0 (20210316.0004)
 -->
<!-- Title: dependencies Pages: 1 -->
<svg width="882pt" height="211pt"
 viewBox="0.00 0.00 882.00 211.00" xmlns="http://www.w3.org/2000/svg" xmlns:xlink="http://www.w3.org/1999/xlink">
<g id="graph0" class="graph" transform="scale(1 1) rotate(0) translate(4 207)">
<title>dependencies</title>
<polygon fill="white" stroke="transparent" points="-4,4 -4,-207 878,-207 878,4 -4,4"/>
<text text-anchor="start" x="416.01" y="-42.4" font-family="Times-12" font-weight="bold" font-size="14.00">Legend</text>
<polygon fill="#ffffb3" stroke="transparent" points="203,-10 203,-30 223,-30 223,-10 203,-10"/>
<text text-anchor="start" x="226.63" y="-15.4" font-family="Times-12" font-size="14.00"> &#160;Declarations</text>
<polygon fill="#8dd3c7" stroke="transparent" points="316,-10 316,-30 336,-30 336,-10 316,-10"/>
<text text-anchor="start" x="339.73" y="-15.4" font-family="Times-12" font-size="14.00"> &#160;Module</text>
<polygon fill="#80b1d3" stroke="transparent" points="402,-10 402,-30 422,-30 422,-10 402,-10"/>
<text text-anchor="start" x="425.78" y="-15.4" font-family="Times-12" font-size="14.00"> &#160;Bootstrap</text>
<polygon fill="#fdb462" stroke="transparent" points="499,-10 499,-30 519,-30 519,-10 499,-10"/>
<text text-anchor="start" x="522.67" y="-15.4" font-family="Times-12" font-size="14.00"> &#160;Providers</text>
<polygon fill="#fb8072" stroke="transparent" points="595,-10 595,-30 615,-30 615,-10 595,-10"/>
<text text-anchor="start" x="618.73" y="-15.4" font-family="Times-12" font-size="14.00"> &#160;Exports</text>
<g id="clust1" class="cluster">
<title>cluster_AppModule</title>
<polygon fill="none" stroke="black" stroke-dasharray="1,5" points="8,-70 8,-195 866,-195 866,-70 8,-70"/>
</g>
<g id="clust3" class="cluster">
<title>cluster_AppModule_imports</title>
<polygon fill="none" stroke="black" points="343,-78 343,-130 858,-130 858,-78 343,-78"/>
</g>
<g id="clust6" class="cluster">
<title>cluster_AppModule_providers</title>
<polygon fill="none" stroke="black" points="16,-78 16,-130 335,-130 335,-78 16,-78"/>
</g>
<!-- CoreModule -->
<g id="node1" class="node">
<title>CoreModule</title>
<polygon fill="#8dd3c7" stroke="black" points="850.26,-122 847.26,-126 826.26,-126 823.26,-122 763.74,-122 763.74,-86 850.26,-86 850.26,-122"/>
<text text-anchor="middle" x="807" y="-99.8" font-family="Times,serif" font-size="14.00">CoreModule</text>
</g>
<!-- AppModule -->
<g id="node5" class="node">
<title>AppModule</title>
<polygon fill="#8dd3c7" stroke="black" points="509.66,-187 506.66,-191 485.66,-191 482.66,-187 426.34,-187 426.34,-151 509.66,-151 509.66,-187"/>
<text text-anchor="middle" x="468" y="-164.8" font-family="Times,serif" font-size="14.00">AppModule</text>
</g>
<!-- CoreModule&#45;&gt;AppModule -->
<g id="edge1" class="edge">
<title>CoreModule&#45;&gt;AppModule</title>
<path fill="none" stroke="black" d="M807,-122.28C807,-143.32 807,-175 807,-175 807,-175 519.91,-175 519.91,-175"/>
<polygon fill="black" stroke="black" points="519.91,-171.5 509.91,-175 519.91,-178.5 519.91,-171.5"/>
</g>
<!-- ManagementModule -->
<g id="node2" class="node">
<title>ManagementModule</title>
<polygon fill="#8dd3c7" stroke="black" points="745.13,-122 742.13,-126 721.13,-126 718.13,-122 612.87,-122 612.87,-86 745.13,-86 745.13,-122"/>
<text text-anchor="middle" x="679" y="-99.8" font-family="Times,serif" font-size="14.00">ManagementModule</text>
</g>
<!-- ManagementModule&#45;&gt;AppModule -->
<g id="edge2" class="edge">
<title>ManagementModule&#45;&gt;AppModule</title>
<path fill="none" stroke="black" d="M679,-122.02C679,-139.37 679,-163 679,-163 679,-163 519.69,-163 519.69,-163"/>
<polygon fill="black" stroke="black" points="519.69,-159.5 509.69,-163 519.69,-166.5 519.69,-159.5"/>
</g>
<!-- MigrationsModule -->
<g id="node3" class="node">
<title>MigrationsModule</title>
<polygon fill="#8dd3c7" stroke="black" points="594.49,-122 591.49,-126 570.49,-126 567.49,-122 473.51,-122 473.51,-86 594.49,-86 594.49,-122"/>
<text text-anchor="middle" x="534" y="-99.8" font-family="Times,serif" font-size="14.00">MigrationsModule</text>
</g>
<!-- MigrationsModule&#45;&gt;AppModule -->
<g id="edge3" class="edge">
<title>MigrationsModule&#45;&gt;AppModule</title>
<path fill="none" stroke="black" d="M491.67,-122.11C491.67,-122.11 491.67,-140.99 491.67,-140.99"/>
<polygon fill="black" stroke="black" points="488.17,-140.99 491.67,-150.99 495.17,-140.99 488.17,-140.99"/>
</g>
<!-- SettingsModule -->
<g id="node4" class="node">
<title>SettingsModule</title>
<polygon fill="#8dd3c7" stroke="black" points="455.16,-122 452.16,-126 431.16,-126 428.16,-122 350.84,-122 350.84,-86 455.16,-86 455.16,-122"/>
<text text-anchor="middle" x="403" y="-99.8" font-family="Times,serif" font-size="14.00">SettingsModule</text>
</g>
<!-- SettingsModule&#45;&gt;AppModule -->
<g id="edge4" class="edge">
<title>SettingsModule&#45;&gt;AppModule</title>
<path fill="none" stroke="black" d="M440.75,-122.11C440.75,-122.11 440.75,-140.99 440.75,-140.99"/>
<polygon fill="black" stroke="black" points="437.25,-140.99 440.75,-150.99 444.25,-140.99 437.25,-140.99"/>
</g>
<!-- AppService -->
<g id="node6" class="node">
<title>AppService</title>
<ellipse fill="#fdb462" stroke="black" cx="270" cy="-104" rx="56.74" ry="18"/>
<text text-anchor="middle" x="270" y="-99.8" font-family="Times,serif" font-size="14.00">AppService</text>
</g>
<!-- AppService&#45;&gt;AppModule -->
<g id="edge5" class="edge">
<title>AppService&#45;&gt;AppModule</title>
<path fill="none" stroke="black" d="M270,-122.02C270,-139.37 270,-163 270,-163 270,-163 416.01,-163 416.01,-163"/>
<polygon fill="black" stroke="black" points="416.01,-166.5 426.01,-163 416.01,-159.5 416.01,-166.5"/>
</g>
<!-- ShutdownObserver -->
<g id="node7" class="node">
<title>ShutdownObserver</title>
<ellipse fill="#fdb462" stroke="black" cx="110" cy="-104" rx="85.68" ry="18"/>
<text text-anchor="middle" x="110" y="-99.8" font-family="Times,serif" font-size="14.00">ShutdownObserver</text>
</g>
<!-- ShutdownObserver&#45;&gt;AppModule -->
<g id="edge6" class="edge">
<title>ShutdownObserver&#45;&gt;AppModule</title>
<path fill="none" stroke="black" d="M110,-122.28C110,-143.32 110,-175 110,-175 110,-175 416.23,-175 416.23,-175"/>
<polygon fill="black" stroke="black" points="416.23,-178.5 426.23,-175 416.23,-171.5 416.23,-178.5"/>
</g>
</g>
</svg>
