<?xml version="1.0" encoding="UTF-8" standalone="no"?>
<!DOCTYPE svg PUBLIC "-//W3C//DTD SVG 1.1//EN"
 "http://www.w3.org/Graphics/SVG/1.1/DTD/svg11.dtd">
<!-- Generated by graphviz version 2.47.0 (20210316.0004)
 -->
<!-- Title: dependencies Pages: 1 -->
<svg width="882pt" height="211pt"
 viewBox="0.00 0.00 882.00 211.00" xmlns="http://www.w3.org/2000/svg" xmlns:xlink="http://www.w3.org/1999/xlink">
<g id="graph0" class="graph" transform="scale(1 1) rotate(0) translate(4 207)">
<title>dependencies</title>
<polygon fill="white" stroke="transparent" points="-4,4 -4,-207 878,-207 878,4 -4,4"/>
<text text-anchor="start" x="416.01" y="-42.4" font-family="Times-12" font-weight="bold" font-size="14.00">Legend</text>
<polygon fill="#ffffb3" stroke="transparent" points="203,-10 203,-30 223,-30 223,-10 203,-10"/>
<text text-anchor="start" x="226.63" y="-15.4" font-family="Times-12" font-size="14.00"> &#160;Declarations</text>
<polygon fill="#8dd3c7" stroke="transparent" points="316,-10 316,-30 336,-30 336,-10 316,-10"/>
<text text-anchor="start" x="339.73" y="-15.4" font-family="Times-12" font-size="14.00"> &#160;Module</text>
<polygon fill="#80b1d3" stroke="transparent" points="402,-10 402,-30 422,-30 422,-10 402,-10"/>
<text text-anchor="start" x="425.78" y="-15.4" font-family="Times-12" font-size="14.00"> &#160;Bootstrap</text>
<polygon fill="#fdb462" stroke="transparent" points="499,-10 499,-30 519,-30 519,-10 499,-10"/>
<text text-anchor="start" x="522.67" y="-15.4" font-family="Times-12" font-size="14.00"> &#160;Providers</text>
<polygon fill="#fb8072" stroke="transparent" points="595,-10 595,-30 615,-30 615,-10 595,-10"/>
<text text-anchor="start" x="618.73" y="-15.4" font-family="Times-12" font-size="14.00"> &#160;Exports</text>
<g id="clust1" class="cluster">
<title>cluster_AppModule</title>
<polygon fill="none" stroke="black" stroke-dasharray="1,5" points="8,-70 8,-195 866,-195 866,-70 8,-70"/>
</g>
<g id="clust6" class="cluster">
<title>cluster_AppModule_providers</title>
<polygon fill="none" stroke="black" points="539,-78 539,-130 858,-130 858,-78 539,-78"/>
</g>
<g id="clust3" class="cluster">
<title>cluster_AppModule_imports</title>
<polygon fill="none" stroke="black" points="16,-78 16,-130 531,-130 531,-78 16,-78"/>
</g>
<!-- CoreModule -->
<g id="node1" class="node">
<title>CoreModule</title>
<polygon fill="#8dd3c7" stroke="black" points="523.26,-122 520.26,-126 499.26,-126 496.26,-122 436.74,-122 436.74,-86 523.26,-86 523.26,-122"/>
<text text-anchor="middle" x="480" y="-99.8" font-family="Times,serif" font-size="14.00">CoreModule</text>
</g>
<!-- AppModule -->
<g id="node5" class="node">
<title>AppModule</title>
<polygon fill="#8dd3c7" stroke="black" points="457.66,-187 454.66,-191 433.66,-191 430.66,-187 374.34,-187 374.34,-151 457.66,-151 457.66,-187"/>
<text text-anchor="middle" x="416" y="-164.8" font-family="Times,serif" font-size="14.00">AppModule</text>
</g>
<!-- CoreModule&#45;&gt;AppModule -->
<g id="edge1" class="edge">
<title>CoreModule&#45;&gt;AppModule</title>
<path fill="none" stroke="black" d="M447.22,-122.11C447.22,-122.11 447.22,-140.99 447.22,-140.99"/>
<polygon fill="black" stroke="black" points="443.72,-140.99 447.22,-150.99 450.72,-140.99 443.72,-140.99"/>
</g>
<!-- ManagementModule -->
<g id="node2" class="node">
<title>ManagementModule</title>
<polygon fill="#8dd3c7" stroke="black" points="418.13,-122 415.13,-126 394.13,-126 391.13,-122 285.87,-122 285.87,-86 418.13,-86 418.13,-122"/>
<text text-anchor="middle" x="352" y="-99.8" font-family="Times,serif" font-size="14.00">ManagementModule</text>
</g>
<!-- ManagementModule&#45;&gt;AppModule -->
<g id="edge2" class="edge">
<title>ManagementModule&#45;&gt;AppModule</title>
<path fill="none" stroke="black" d="M396.24,-122.11C396.24,-122.11 396.24,-140.99 396.24,-140.99"/>
<polygon fill="black" stroke="black" points="392.74,-140.99 396.24,-150.99 399.74,-140.99 392.74,-140.99"/>
</g>
<!-- MigrationsModule -->
<g id="node3" class="node">
<title>MigrationsModule</title>
<polygon fill="#8dd3c7" stroke="black" points="267.49,-122 264.49,-126 243.49,-126 240.49,-122 146.51,-122 146.51,-86 267.49,-86 267.49,-122"/>
<text text-anchor="middle" x="207" y="-99.8" font-family="Times,serif" font-size="14.00">MigrationsModule</text>
</g>
<!-- MigrationsModule&#45;&gt;AppModule -->
<g id="edge3" class="edge">
<title>MigrationsModule&#45;&gt;AppModule</title>
<path fill="none" stroke="black" d="M207,-122.02C207,-139.37 207,-163 207,-163 207,-163 364.21,-163 364.21,-163"/>
<polygon fill="black" stroke="black" points="364.21,-166.5 374.21,-163 364.21,-159.5 364.21,-166.5"/>
</g>
<!-- SettingsModule -->
<g id="node4" class="node">
<title>SettingsModule</title>
<polygon fill="#8dd3c7" stroke="black" points="128.16,-122 125.16,-126 104.16,-126 101.16,-122 23.84,-122 23.84,-86 128.16,-86 128.16,-122"/>
<text text-anchor="middle" x="76" y="-99.8" font-family="Times,serif" font-size="14.00">SettingsModule</text>
</g>
<!-- SettingsModule&#45;&gt;AppModule -->
<g id="edge4" class="edge">
<title>SettingsModule&#45;&gt;AppModule</title>
<path fill="none" stroke="black" d="M76,-122.28C76,-143.32 76,-175 76,-175 76,-175 364.31,-175 364.31,-175"/>
<polygon fill="black" stroke="black" points="364.31,-178.5 374.31,-175 364.31,-171.5 364.31,-178.5"/>
</g>
<!-- AppService -->
<g id="node6" class="node">
<title>AppService</title>
<ellipse fill="#fdb462" stroke="black" cx="793" cy="-104" rx="56.74" ry="18"/>
<text text-anchor="middle" x="793" y="-99.8" font-family="Times,serif" font-size="14.00">AppService</text>
</g>
<!-- AppService&#45;&gt;AppModule -->
<g id="edge5" class="edge">
<title>AppService&#45;&gt;AppModule</title>
<path fill="none" stroke="black" d="M793,-122.28C793,-143.32 793,-175 793,-175 793,-175 467.79,-175 467.79,-175"/>
<polygon fill="black" stroke="black" points="467.79,-171.5 457.79,-175 467.79,-178.5 467.79,-171.5"/>
</g>
<!-- ShutdownObserver -->
<g id="node7" class="node">
<title>ShutdownObserver</title>
<ellipse fill="#fdb462" stroke="black" cx="633" cy="-104" rx="85.68" ry="18"/>
<text text-anchor="middle" x="633" y="-99.8" font-family="Times,serif" font-size="14.00">ShutdownObserver</text>
</g>
<!-- ShutdownObserver&#45;&gt;AppModule -->
<g id="edge6" class="edge">
<title>ShutdownObserver&#45;&gt;AppModule</title>
<path fill="none" stroke="black" d="M633,-122.02C633,-139.37 633,-163 633,-163 633,-163 467.84,-163 467.84,-163"/>
<polygon fill="black" stroke="black" points="467.84,-159.5 457.84,-163 467.84,-166.5 467.84,-159.5"/>
</g>
</g>
</svg>
