<?xml version="1.0" encoding="UTF-8" standalone="no"?>
<!DOCTYPE svg PUBLIC "-//W3C//DTD SVG 1.1//EN"
 "http://www.w3.org/Graphics/SVG/1.1/DTD/svg11.dtd">
<!-- Generated by graphviz version 2.47.0 (20210316.0004)
 -->
<!-- Title: dependencies Pages: 1 -->
<svg width="578pt" height="211pt"
 viewBox="0.00 0.00 578.00 211.00" xmlns="http://www.w3.org/2000/svg" xmlns:xlink="http://www.w3.org/1999/xlink">
<g id="graph0" class="graph" transform="scale(1 1) rotate(0) translate(4 207)">
<title>dependencies</title>
<polygon fill="white" stroke="transparent" points="-4,4 -4,-207 574,-207 574,4 -4,4"/>
<text text-anchor="start" x="264.01" y="-42.4" font-family="Times-12" font-weight="bold" font-size="14.00">Legend</text>
<polygon fill="#ffffb3" stroke="transparent" points="51,-10 51,-30 71,-30 71,-10 51,-10"/>
<text text-anchor="start" x="74.63" y="-15.4" font-family="Times-12" font-size="14.00"> &#160;Declarations</text>
<polygon fill="#8dd3c7" stroke="transparent" points="164,-10 164,-30 184,-30 184,-10 164,-10"/>
<text text-anchor="start" x="187.73" y="-15.4" font-family="Times-12" font-size="14.00"> &#160;Module</text>
<polygon fill="#80b1d3" stroke="transparent" points="250,-10 250,-30 270,-30 270,-10 250,-10"/>
<text text-anchor="start" x="273.78" y="-15.4" font-family="Times-12" font-size="14.00"> &#160;Bootstrap</text>
<polygon fill="#fdb462" stroke="transparent" points="347,-10 347,-30 367,-30 367,-10 347,-10"/>
<text text-anchor="start" x="370.67" y="-15.4" font-family="Times-12" font-size="14.00"> &#160;Providers</text>
<polygon fill="#fb8072" stroke="transparent" points="443,-10 443,-30 463,-30 463,-10 443,-10"/>
<text text-anchor="start" x="466.73" y="-15.4" font-family="Times-12" font-size="14.00"> &#160;Exports</text>
<g id="clust1" class="cluster">
<title>cluster_AuthModule</title>
<polygon fill="none" stroke="black" stroke-dasharray="1,5" points="8,-70 8,-195 562,-195 562,-70 8,-70"/>
</g>
<g id="clust6" class="cluster">
<title>cluster_AuthModule_providers</title>
<polygon fill="none" stroke="black" points="140,-78 140,-130 554,-130 554,-78 140,-78"/>
</g>
<g id="clust3" class="cluster">
<title>cluster_AuthModule_imports</title>
<polygon fill="none" stroke="black" points="16,-78 16,-130 132,-130 132,-78 16,-78"/>
</g>
<!-- AgentsModule -->
<g id="node1" class="node">
<title>AgentsModule</title>
<polygon fill="#8dd3c7" stroke="black" points="123.71,-122 120.71,-126 99.71,-126 96.71,-122 24.29,-122 24.29,-86 123.71,-86 123.71,-122"/>
<text text-anchor="middle" x="74" y="-99.8" font-family="Times,serif" font-size="14.00">AgentsModule</text>
</g>
<!-- AuthModule -->
<g id="node2" class="node">
<title>AuthModule</title>
<polygon fill="#8dd3c7" stroke="black" points="326.55,-187 323.55,-191 302.55,-191 299.55,-187 239.45,-187 239.45,-151 326.55,-151 326.55,-187"/>
<text text-anchor="middle" x="283" y="-164.8" font-family="Times,serif" font-size="14.00">AuthModule</text>
</g>
<!-- AgentsModule&#45;&gt;AuthModule -->
<g id="edge1" class="edge">
<title>AgentsModule&#45;&gt;AuthModule</title>
<path fill="none" stroke="black" d="M74,-122.11C74,-141.34 74,-169 74,-169 74,-169 229.44,-169 229.44,-169"/>
<polygon fill="black" stroke="black" points="229.44,-172.5 239.44,-169 229.44,-165.5 229.44,-172.5"/>
</g>
<!-- AuthService -->
<g id="node3" class="node">
<title>AuthService</title>
<ellipse fill="#fdb462" stroke="black" cx="487" cy="-104" rx="59.11" ry="18"/>
<text text-anchor="middle" x="487" y="-99.8" font-family="Times,serif" font-size="14.00">AuthService</text>
</g>
<!-- AuthService&#45;&gt;AuthModule -->
<g id="edge2" class="edge">
<title>AuthService&#45;&gt;AuthModule</title>
<path fill="none" stroke="black" d="M487,-122.11C487,-141.34 487,-169 487,-169 487,-169 336.76,-169 336.76,-169"/>
<polygon fill="black" stroke="black" points="336.76,-165.5 326.76,-169 336.76,-172.5 336.76,-165.5"/>
</g>
<!-- JwtStrategy -->
<g id="node4" class="node">
<title>JwtStrategy</title>
<ellipse fill="#fdb462" stroke="black" cx="353" cy="-104" rx="56.76" ry="18"/>
<text text-anchor="middle" x="353" y="-99.8" font-family="Times,serif" font-size="14.00">JwtStrategy</text>
</g>
<!-- JwtStrategy&#45;&gt;AuthModule -->
<g id="edge3" class="edge">
<title>JwtStrategy&#45;&gt;AuthModule</title>
<path fill="none" stroke="black" d="M311.57,-116.53C311.57,-116.53 311.57,-140.85 311.57,-140.85"/>
<polygon fill="black" stroke="black" points="308.07,-140.85 311.57,-150.85 315.07,-140.85 308.07,-140.85"/>
</g>
<!-- LocalStrategy -->
<g id="node5" class="node">
<title>LocalStrategy</title>
<ellipse fill="#fdb462" stroke="black" cx="213" cy="-104" rx="65.41" ry="18"/>
<text text-anchor="middle" x="213" y="-99.8" font-family="Times,serif" font-size="14.00">LocalStrategy</text>
</g>
<!-- LocalStrategy&#45;&gt;AuthModule -->
<g id="edge4" class="edge">
<title>LocalStrategy&#45;&gt;AuthModule</title>
<path fill="none" stroke="black" d="M258.71,-116.84C258.71,-116.84 258.71,-140.52 258.71,-140.52"/>
<polygon fill="black" stroke="black" points="255.21,-140.52 258.71,-150.52 262.21,-140.52 255.21,-140.52"/>
</g>
</g>
</svg>
