<?xml version="1.0" encoding="UTF-8" standalone="no"?>
<!DOCTYPE svg PUBLIC "-//W3C//DTD SVG 1.1//EN"
 "http://www.w3.org/Graphics/SVG/1.1/DTD/svg11.dtd">
<!-- Generated by graphviz version 2.47.0 (20210316.0004)
 -->
<!-- Title: dependencies Pages: 1 -->
<svg width="504pt" height="211pt"
 viewBox="0.00 0.00 504.00 211.00" xmlns="http://www.w3.org/2000/svg" xmlns:xlink="http://www.w3.org/1999/xlink">
<g id="graph0" class="graph" transform="scale(1 1) rotate(0) translate(4 207)">
<title>dependencies</title>
<polygon fill="white" stroke="transparent" points="-4,4 -4,-207 500,-207 500,4 -4,4"/>
<text text-anchor="start" x="227.01" y="-42.4" font-family="Times-12" font-weight="bold" font-size="14.00">Legend</text>
<polygon fill="#ffffb3" stroke="transparent" points="14,-10 14,-30 34,-30 34,-10 14,-10"/>
<text text-anchor="start" x="37.63" y="-15.4" font-family="Times-12" font-size="14.00"> &#160;Declarations</text>
<polygon fill="#8dd3c7" stroke="transparent" points="127,-10 127,-30 147,-30 147,-10 127,-10"/>
<text text-anchor="start" x="150.73" y="-15.4" font-family="Times-12" font-size="14.00"> &#160;Module</text>
<polygon fill="#80b1d3" stroke="transparent" points="213,-10 213,-30 233,-30 233,-10 213,-10"/>
<text text-anchor="start" x="236.78" y="-15.4" font-family="Times-12" font-size="14.00"> &#160;Bootstrap</text>
<polygon fill="#fdb462" stroke="transparent" points="310,-10 310,-30 330,-30 330,-10 310,-10"/>
<text text-anchor="start" x="333.67" y="-15.4" font-family="Times-12" font-size="14.00"> &#160;Providers</text>
<polygon fill="#fb8072" stroke="transparent" points="406,-10 406,-30 426,-30 426,-10 406,-10"/>
<text text-anchor="start" x="429.73" y="-15.4" font-family="Times-12" font-size="14.00"> &#160;Exports</text>
<g id="clust1" class="cluster">
<title>cluster_IdentitiesModule</title>
<polygon fill="none" stroke="black" stroke-dasharray="1,5" points="30,-70 30,-195 466,-195 466,-70 30,-70"/>
</g>
<g id="clust6" class="cluster">
<title>cluster_IdentitiesModule_providers</title>
<polygon fill="none" stroke="black" points="38,-78 38,-130 458,-130 458,-78 38,-78"/>
</g>
<!-- IdentitiesService -->
<g id="node1" class="node">
<title>IdentitiesService</title>
<ellipse fill="#fdb462" stroke="black" cx="374" cy="-104" rx="75.85" ry="18"/>
<text text-anchor="middle" x="374" y="-99.8" font-family="Times,serif" font-size="14.00">IdentitiesService</text>
</g>
<!-- IdentitiesModule -->
<g id="node3" class="node">
<title>IdentitiesModule</title>
<polygon fill="#8dd3c7" stroke="black" points="323.65,-187 320.65,-191 299.65,-191 296.65,-187 212.35,-187 212.35,-151 323.65,-151 323.65,-187"/>
<text text-anchor="middle" x="268" y="-164.8" font-family="Times,serif" font-size="14.00">IdentitiesModule</text>
</g>
<!-- IdentitiesService&#45;&gt;IdentitiesModule -->
<g id="edge1" class="edge">
<title>IdentitiesService&#45;&gt;IdentitiesModule</title>
<path fill="none" stroke="black" d="M310.95,-114.16C310.95,-114.16 310.95,-140.81 310.95,-140.81"/>
<polygon fill="black" stroke="black" points="307.45,-140.81 310.95,-150.81 314.45,-140.81 307.45,-140.81"/>
</g>
<!-- IdentitiesValidationService -->
<g id="node2" class="node">
<title>IdentitiesValidationService</title>
<ellipse fill="#fdb462" stroke="black" cx="163" cy="-104" rx="116.88" ry="18"/>
<text text-anchor="middle" x="163" y="-99.8" font-family="Times,serif" font-size="14.00">IdentitiesValidationService</text>
</g>
<!-- IdentitiesValidationService&#45;&gt;IdentitiesModule -->
<g id="edge2" class="edge">
<title>IdentitiesValidationService&#45;&gt;IdentitiesModule</title>
<path fill="none" stroke="black" d="M245.93,-116.84C245.93,-116.84 245.93,-140.52 245.93,-140.52"/>
<polygon fill="black" stroke="black" points="242.43,-140.52 245.93,-150.52 249.43,-140.52 242.43,-140.52"/>
</g>
</g>
</svg>
