<?xml version="1.0" encoding="UTF-8" standalone="no"?>
<!DOCTYPE svg PUBLIC "-//W3C//DTD SVG 1.1//EN"
 "http://www.w3.org/Graphics/SVG/1.1/DTD/svg11.dtd">
<!-- Generated by graphviz version 2.47.0 (20210316.0004)
 -->
<!-- Title: dependencies Pages: 1 -->
<svg width="560pt" height="284pt"
 viewBox="0.00 0.00 560.00 284.00" xmlns="http://www.w3.org/2000/svg" xmlns:xlink="http://www.w3.org/1999/xlink">
<g id="graph0" class="graph" transform="scale(1 1) rotate(0) translate(4 280)">
<title>dependencies</title>
<polygon fill="white" stroke="transparent" points="-4,4 -4,-280 556,-280 556,4 -4,4"/>
<text text-anchor="start" x="255.01" y="-42.4" font-family="Times-12" font-weight="bold" font-size="14.00">Legend</text>
<polygon fill="#ffffb3" stroke="transparent" points="42,-10 42,-30 62,-30 62,-10 42,-10"/>
<text text-anchor="start" x="65.63" y="-15.4" font-family="Times-12" font-size="14.00"> &#160;Declarations</text>
<polygon fill="#8dd3c7" stroke="transparent" points="155,-10 155,-30 175,-30 175,-10 155,-10"/>
<text text-anchor="start" x="178.73" y="-15.4" font-family="Times-12" font-size="14.00"> &#160;Module</text>
<polygon fill="#80b1d3" stroke="transparent" points="241,-10 241,-30 261,-30 261,-10 241,-10"/>
<text text-anchor="start" x="264.78" y="-15.4" font-family="Times-12" font-size="14.00"> &#160;Bootstrap</text>
<polygon fill="#fdb462" stroke="transparent" points="338,-10 338,-30 358,-30 358,-10 338,-10"/>
<text text-anchor="start" x="361.67" y="-15.4" font-family="Times-12" font-size="14.00"> &#160;Providers</text>
<polygon fill="#fb8072" stroke="transparent" points="434,-10 434,-30 454,-30 454,-10 434,-10"/>
<text text-anchor="start" x="457.73" y="-15.4" font-family="Times-12" font-size="14.00"> &#160;Exports</text>
<g id="clust1" class="cluster">
<title>cluster_BackendsModule</title>
<polygon fill="none" stroke="black" stroke-dasharray="1,5" points="8,-70 8,-268 544,-268 544,-70 8,-70"/>
</g>
<g id="clust6" class="cluster">
<title>cluster_BackendsModule_providers</title>
<polygon fill="none" stroke="black" points="364,-78 364,-130 536,-130 536,-78 364,-78"/>
</g>
<g id="clust3" class="cluster">
<title>cluster_BackendsModule_imports</title>
<polygon fill="none" stroke="black" points="16,-78 16,-130 356,-130 356,-78 16,-78"/>
</g>
<g id="clust4" class="cluster">
<title>cluster_BackendsModule_exports</title>
<polygon fill="none" stroke="black" points="168,-208 168,-260 300,-260 300,-208 168,-208"/>
</g>
<!-- IdentitiesModule -->
<g id="node1" class="node">
<title>IdentitiesModule</title>
<polygon fill="#8dd3c7" stroke="black" points="347.65,-122 344.65,-126 323.65,-126 320.65,-122 236.35,-122 236.35,-86 347.65,-86 347.65,-122"/>
<text text-anchor="middle" x="292" y="-99.8" font-family="Times,serif" font-size="14.00">IdentitiesModule</text>
</g>
<!-- BackendsModule -->
<g id="node4" class="node">
<title>BackendsModule</title>
<polygon fill="#8dd3c7" stroke="black" points="290.97,-187 287.97,-191 266.97,-191 263.97,-187 177.03,-187 177.03,-151 290.97,-151 290.97,-187"/>
<text text-anchor="middle" x="234" y="-164.8" font-family="Times,serif" font-size="14.00">BackendsModule</text>
</g>
<!-- IdentitiesModule&#45;&gt;BackendsModule -->
<g id="edge1" class="edge">
<title>IdentitiesModule&#45;&gt;BackendsModule</title>
<path fill="none" stroke="black" d="M263.58,-122.11C263.58,-122.11 263.58,-140.99 263.58,-140.99"/>
<polygon fill="black" stroke="black" points="260.08,-140.99 263.58,-150.99 267.08,-140.99 260.08,-140.99"/>
</g>
<!-- JobsModule -->
<g id="node2" class="node">
<title>JobsModule</title>
<polygon fill="#8dd3c7" stroke="black" points="218.44,-122 215.44,-126 194.44,-126 191.44,-122 133.56,-122 133.56,-86 218.44,-86 218.44,-122"/>
<text text-anchor="middle" x="176" y="-99.8" font-family="Times,serif" font-size="14.00">JobsModule</text>
</g>
<!-- JobsModule&#45;&gt;BackendsModule -->
<g id="edge2" class="edge">
<title>JobsModule&#45;&gt;BackendsModule</title>
<path fill="none" stroke="black" d="M197.62,-122.11C197.62,-122.11 197.62,-140.99 197.62,-140.99"/>
<polygon fill="black" stroke="black" points="194.12,-140.99 197.62,-150.99 201.12,-140.99 194.12,-140.99"/>
</g>
<!-- TasksModule -->
<g id="node3" class="node">
<title>TasksModule</title>
<polygon fill="#8dd3c7" stroke="black" points="116.21,-122 113.21,-126 92.21,-126 89.21,-122 23.79,-122 23.79,-86 116.21,-86 116.21,-122"/>
<text text-anchor="middle" x="70" y="-99.8" font-family="Times,serif" font-size="14.00">TasksModule</text>
</g>
<!-- TasksModule&#45;&gt;BackendsModule -->
<g id="edge3" class="edge">
<title>TasksModule&#45;&gt;BackendsModule</title>
<path fill="none" stroke="black" d="M70,-122.11C70,-141.34 70,-169 70,-169 70,-169 166.64,-169 166.64,-169"/>
<polygon fill="black" stroke="black" points="166.64,-172.5 176.64,-169 166.64,-165.5 166.64,-172.5"/>
</g>
<!-- BackendsService  -->
<g id="node5" class="node">
<title>BackendsService </title>
<polygon fill="#fb8072" stroke="black" points="291.9,-252 176.1,-252 176.1,-216 291.9,-216 291.9,-252"/>
<text text-anchor="middle" x="234" y="-229.8" font-family="Times,serif" font-size="14.00">BackendsService </text>
</g>
<!-- BackendsModule&#45;&gt;BackendsService  -->
<g id="edge4" class="edge">
<title>BackendsModule&#45;&gt;BackendsService </title>
<path fill="none" stroke="black" stroke-dasharray="5,2" d="M234,-187.11C234,-187.11 234,-205.99 234,-205.99"/>
<polygon fill="black" stroke="black" points="230.5,-205.99 234,-215.99 237.5,-205.99 230.5,-205.99"/>
</g>
<!-- BackendsService -->
<g id="node6" class="node">
<title>BackendsService</title>
<ellipse fill="#fdb462" stroke="black" cx="450" cy="-104" rx="77.57" ry="18"/>
<text text-anchor="middle" x="450" y="-99.8" font-family="Times,serif" font-size="14.00">BackendsService</text>
</g>
<!-- BackendsService&#45;&gt;BackendsModule -->
<g id="edge5" class="edge">
<title>BackendsService&#45;&gt;BackendsModule</title>
<path fill="none" stroke="black" d="M450,-122.11C450,-141.34 450,-169 450,-169 450,-169 301.03,-169 301.03,-169"/>
<polygon fill="black" stroke="black" points="301.03,-165.5 291.03,-169 301.03,-172.5 301.03,-165.5"/>
</g>
</g>
</svg>
