<?xml version="1.0" encoding="UTF-8" standalone="no"?>
<!DOCTYPE svg PUBLIC "-//W3C//DTD SVG 1.1//EN"
 "http://www.w3.org/Graphics/SVG/1.1/DTD/svg11.dtd">
<!-- Generated by graphviz version 2.47.0 (20210316.0004)
 -->
<!-- Title: dependencies Pages: 1 -->
<svg width="677pt" height="284pt"
 viewBox="0.00 0.00 677.00 284.00" xmlns="http://www.w3.org/2000/svg" xmlns:xlink="http://www.w3.org/1999/xlink">
<g id="graph0" class="graph" transform="scale(1 1) rotate(0) translate(4 280)">
<title>dependencies</title>
<polygon fill="white" stroke="transparent" points="-4,4 -4,-280 673,-280 673,4 -4,4"/>
<text text-anchor="start" x="313.51" y="-42.4" font-family="Times-12" font-weight="bold" font-size="14.00">Legend</text>
<polygon fill="#ffffb3" stroke="transparent" points="100.5,-10 100.5,-30 120.5,-30 120.5,-10 100.5,-10"/>
<text text-anchor="start" x="124.13" y="-15.4" font-family="Times-12" font-size="14.00"> &#160;Declarations</text>
<polygon fill="#8dd3c7" stroke="transparent" points="213.5,-10 213.5,-30 233.5,-30 233.5,-10 213.5,-10"/>
<text text-anchor="start" x="237.23" y="-15.4" font-family="Times-12" font-size="14.00"> &#160;Module</text>
<polygon fill="#80b1d3" stroke="transparent" points="299.5,-10 299.5,-30 319.5,-30 319.5,-10 299.5,-10"/>
<text text-anchor="start" x="323.28" y="-15.4" font-family="Times-12" font-size="14.00"> &#160;Bootstrap</text>
<polygon fill="#fdb462" stroke="transparent" points="396.5,-10 396.5,-30 416.5,-30 416.5,-10 396.5,-10"/>
<text text-anchor="start" x="420.17" y="-15.4" font-family="Times-12" font-size="14.00"> &#160;Providers</text>
<polygon fill="#fb8072" stroke="transparent" points="492.5,-10 492.5,-30 512.5,-30 512.5,-10 492.5,-10"/>
<text text-anchor="start" x="516.23" y="-15.4" font-family="Times-12" font-size="14.00"> &#160;Exports</text>
<g id="clust1" class="cluster">
<title>cluster_BackendsModule</title>
<polygon fill="none" stroke="black" stroke-dasharray="1,5" points="8,-70 8,-268 661,-268 661,-70 8,-70"/>
</g>
<g id="clust6" class="cluster">
<title>cluster_BackendsModule_providers</title>
<polygon fill="none" stroke="black" points="481,-78 481,-130 653,-130 653,-78 481,-78"/>
</g>
<g id="clust3" class="cluster">
<title>cluster_BackendsModule_imports</title>
<polygon fill="none" stroke="black" points="16,-78 16,-130 473,-130 473,-78 16,-78"/>
</g>
<g id="clust4" class="cluster">
<title>cluster_BackendsModule_exports</title>
<polygon fill="none" stroke="black" points="226,-208 226,-260 358,-260 358,-208 226,-208"/>
</g>
<!-- AgentsModule -->
<g id="node1" class="node">
<title>AgentsModule</title>
<polygon fill="#8dd3c7" stroke="black" points="464.71,-122 461.71,-126 440.71,-126 437.71,-122 365.29,-122 365.29,-86 464.71,-86 464.71,-122"/>
<text text-anchor="middle" x="415" y="-99.8" font-family="Times,serif" font-size="14.00">AgentsModule</text>
</g>
<!-- BackendsModule -->
<g id="node5" class="node">
<title>BackendsModule</title>
<polygon fill="#8dd3c7" stroke="black" points="348.97,-187 345.97,-191 324.97,-191 321.97,-187 235.03,-187 235.03,-151 348.97,-151 348.97,-187"/>
<text text-anchor="middle" x="292" y="-164.8" font-family="Times,serif" font-size="14.00">BackendsModule</text>
</g>
<!-- AgentsModule&#45;&gt;BackendsModule -->
<g id="edge1" class="edge">
<title>AgentsModule&#45;&gt;BackendsModule</title>
<path fill="none" stroke="black" d="M415,-122.02C415,-139.37 415,-163 415,-163 415,-163 359.18,-163 359.18,-163"/>
<polygon fill="black" stroke="black" points="359.18,-159.5 349.18,-163 359.18,-166.5 359.18,-159.5"/>
</g>
<!-- IdentitiesModule -->
<g id="node2" class="node">
<title>IdentitiesModule</title>
<polygon fill="#8dd3c7" stroke="black" points="347.65,-122 344.65,-126 323.65,-126 320.65,-122 236.35,-122 236.35,-86 347.65,-86 347.65,-122"/>
<text text-anchor="middle" x="292" y="-99.8" font-family="Times,serif" font-size="14.00">IdentitiesModule</text>
</g>
<!-- IdentitiesModule&#45;&gt;BackendsModule -->
<g id="edge2" class="edge">
<title>IdentitiesModule&#45;&gt;BackendsModule</title>
<path fill="none" stroke="black" d="M292,-122.11C292,-122.11 292,-140.99 292,-140.99"/>
<polygon fill="black" stroke="black" points="288.5,-140.99 292,-150.99 295.5,-140.99 288.5,-140.99"/>
</g>
<!-- JobsModule -->
<g id="node3" class="node">
<title>JobsModule</title>
<polygon fill="#8dd3c7" stroke="black" points="218.44,-122 215.44,-126 194.44,-126 191.44,-122 133.56,-122 133.56,-86 218.44,-86 218.44,-122"/>
<text text-anchor="middle" x="176" y="-99.8" font-family="Times,serif" font-size="14.00">JobsModule</text>
</g>
<!-- JobsModule&#45;&gt;BackendsModule -->
<g id="edge3" class="edge">
<title>JobsModule&#45;&gt;BackendsModule</title>
<path fill="none" stroke="black" d="M176,-122.02C176,-139.37 176,-163 176,-163 176,-163 225.02,-163 225.02,-163"/>
<polygon fill="black" stroke="black" points="225.02,-166.5 235.02,-163 225.02,-159.5 225.02,-166.5"/>
</g>
<!-- TasksModule -->
<g id="node4" class="node">
<title>TasksModule</title>
<polygon fill="#8dd3c7" stroke="black" points="116.21,-122 113.21,-126 92.21,-126 89.21,-122 23.79,-122 23.79,-86 116.21,-86 116.21,-122"/>
<text text-anchor="middle" x="70" y="-99.8" font-family="Times,serif" font-size="14.00">TasksModule</text>
</g>
<!-- TasksModule&#45;&gt;BackendsModule -->
<g id="edge4" class="edge">
<title>TasksModule&#45;&gt;BackendsModule</title>
<path fill="none" stroke="black" d="M70,-122.28C70,-143.32 70,-175 70,-175 70,-175 224.83,-175 224.83,-175"/>
<polygon fill="black" stroke="black" points="224.83,-178.5 234.83,-175 224.83,-171.5 224.83,-178.5"/>
</g>
<!-- BackendsService  -->
<g id="node6" class="node">
<title>BackendsService </title>
<polygon fill="#fb8072" stroke="black" points="349.9,-252 234.1,-252 234.1,-216 349.9,-216 349.9,-252"/>
<text text-anchor="middle" x="292" y="-229.8" font-family="Times,serif" font-size="14.00">BackendsService </text>
</g>
<!-- BackendsModule&#45;&gt;BackendsService  -->
<g id="edge5" class="edge">
<title>BackendsModule&#45;&gt;BackendsService </title>
<path fill="none" stroke="black" stroke-dasharray="5,2" d="M292,-187.11C292,-187.11 292,-205.99 292,-205.99"/>
<polygon fill="black" stroke="black" points="288.5,-205.99 292,-215.99 295.5,-205.99 288.5,-205.99"/>
</g>
<!-- BackendsService -->
<g id="node7" class="node">
<title>BackendsService</title>
<ellipse fill="#fdb462" stroke="black" cx="567" cy="-104" rx="77.57" ry="18"/>
<text text-anchor="middle" x="567" y="-99.8" font-family="Times,serif" font-size="14.00">BackendsService</text>
</g>
<!-- BackendsService&#45;&gt;BackendsModule -->
<g id="edge6" class="edge">
<title>BackendsService&#45;&gt;BackendsModule</title>
<path fill="none" stroke="black" d="M567,-122.28C567,-143.32 567,-175 567,-175 567,-175 358.98,-175 358.98,-175"/>
<polygon fill="black" stroke="black" points="358.98,-171.5 348.98,-175 358.98,-178.5 358.98,-171.5"/>
</g>
</g>
</svg>
