<?xml version="1.0" encoding="UTF-8" standalone="no"?>
<!DOCTYPE svg PUBLIC "-//W3C//DTD SVG 1.1//EN"
 "http://www.w3.org/Graphics/SVG/1.1/DTD/svg11.dtd">
<!-- Generated by graphviz version 2.47.0 (20210316.0004)
 -->
<!-- Title: dependencies Pages: 1 -->
<svg width="677pt" height="284pt"
 viewBox="0.00 0.00 677.00 284.00" xmlns="http://www.w3.org/2000/svg" xmlns:xlink="http://www.w3.org/1999/xlink">
<g id="graph0" class="graph" transform="scale(1 1) rotate(0) translate(4 280)">
<title>dependencies</title>
<polygon fill="white" stroke="transparent" points="-4,4 -4,-280 673,-280 673,4 -4,4"/>
<text text-anchor="start" x="313.51" y="-42.4" font-family="Times-12" font-weight="bold" font-size="14.00">Legend</text>
<polygon fill="#ffffb3" stroke="transparent" points="100.5,-10 100.5,-30 120.5,-30 120.5,-10 100.5,-10"/>
<text text-anchor="start" x="124.13" y="-15.4" font-family="Times-12" font-size="14.00"> &#160;Declarations</text>
<polygon fill="#8dd3c7" stroke="transparent" points="213.5,-10 213.5,-30 233.5,-30 233.5,-10 213.5,-10"/>
<text text-anchor="start" x="237.23" y="-15.4" font-family="Times-12" font-size="14.00"> &#160;Module</text>
<polygon fill="#80b1d3" stroke="transparent" points="299.5,-10 299.5,-30 319.5,-30 319.5,-10 299.5,-10"/>
<text text-anchor="start" x="323.28" y="-15.4" font-family="Times-12" font-size="14.00"> &#160;Bootstrap</text>
<polygon fill="#fdb462" stroke="transparent" points="396.5,-10 396.5,-30 416.5,-30 416.5,-10 396.5,-10"/>
<text text-anchor="start" x="420.17" y="-15.4" font-family="Times-12" font-size="14.00"> &#160;Providers</text>
<polygon fill="#fb8072" stroke="transparent" points="492.5,-10 492.5,-30 512.5,-30 512.5,-10 492.5,-10"/>
<text text-anchor="start" x="516.23" y="-15.4" font-family="Times-12" font-size="14.00"> &#160;Exports</text>
<g id="clust1" class="cluster">
<title>cluster_BackendsModule</title>
<polygon fill="none" stroke="black" stroke-dasharray="1,5" points="8,-70 8,-268 661,-268 661,-70 8,-70"/>
</g>
<g id="clust4" class="cluster">
<title>cluster_BackendsModule_exports</title>
<polygon fill="none" stroke="black" points="290,-208 290,-260 422,-260 422,-208 290,-208"/>
</g>
<g id="clust3" class="cluster">
<title>cluster_BackendsModule_imports</title>
<polygon fill="none" stroke="black" points="196,-78 196,-130 653,-130 653,-78 196,-78"/>
</g>
<g id="clust6" class="cluster">
<title>cluster_BackendsModule_providers</title>
<polygon fill="none" stroke="black" points="16,-78 16,-130 188,-130 188,-78 16,-78"/>
</g>
<!-- AgentsModule -->
<g id="node1" class="node">
<title>AgentsModule</title>
<polygon fill="#8dd3c7" stroke="black" points="644.71,-122 641.71,-126 620.71,-126 617.71,-122 545.29,-122 545.29,-86 644.71,-86 644.71,-122"/>
<text text-anchor="middle" x="595" y="-99.8" font-family="Times,serif" font-size="14.00">AgentsModule</text>
</g>
<!-- BackendsModule -->
<g id="node5" class="node">
<title>BackendsModule</title>
<polygon fill="#8dd3c7" stroke="black" points="412.97,-187 409.97,-191 388.97,-191 385.97,-187 299.03,-187 299.03,-151 412.97,-151 412.97,-187"/>
<text text-anchor="middle" x="356" y="-164.8" font-family="Times,serif" font-size="14.00">BackendsModule</text>
</g>
<!-- AgentsModule&#45;&gt;BackendsModule -->
<g id="edge1" class="edge">
<title>AgentsModule&#45;&gt;BackendsModule</title>
<path fill="none" stroke="black" d="M595,-122.11C595,-141.34 595,-169 595,-169 595,-169 423.25,-169 423.25,-169"/>
<polygon fill="black" stroke="black" points="423.25,-165.5 413.25,-169 423.25,-172.5 423.25,-165.5"/>
</g>
<!-- IdentitiesModule -->
<g id="node2" class="node">
<title>IdentitiesModule</title>
<polygon fill="#8dd3c7" stroke="black" points="527.65,-122 524.65,-126 503.65,-126 500.65,-122 416.35,-122 416.35,-86 527.65,-86 527.65,-122"/>
<text text-anchor="middle" x="472" y="-99.8" font-family="Times,serif" font-size="14.00">IdentitiesModule</text>
</g>
<!-- IdentitiesModule&#45;&gt;BackendsModule -->
<g id="edge2" class="edge">
<title>IdentitiesModule&#45;&gt;BackendsModule</title>
<path fill="none" stroke="black" d="M416.27,-104C409.88,-104 405.6,-104 405.6,-104 405.6,-104 405.6,-140.89 405.6,-140.89"/>
<polygon fill="black" stroke="black" points="402.1,-140.89 405.6,-150.89 409.1,-140.89 402.1,-140.89"/>
</g>
<!-- JobsModule -->
<g id="node3" class="node">
<title>JobsModule</title>
<polygon fill="#8dd3c7" stroke="black" points="398.44,-122 395.44,-126 374.44,-126 371.44,-122 313.56,-122 313.56,-86 398.44,-86 398.44,-122"/>
<text text-anchor="middle" x="356" y="-99.8" font-family="Times,serif" font-size="14.00">JobsModule</text>
</g>
<!-- JobsModule&#45;&gt;BackendsModule -->
<g id="edge3" class="edge">
<title>JobsModule&#45;&gt;BackendsModule</title>
<path fill="none" stroke="black" d="M356,-122.11C356,-122.11 356,-140.99 356,-140.99"/>
<polygon fill="black" stroke="black" points="352.5,-140.99 356,-150.99 359.5,-140.99 352.5,-140.99"/>
</g>
<!-- TasksModule -->
<g id="node4" class="node">
<title>TasksModule</title>
<polygon fill="#8dd3c7" stroke="black" points="296.21,-122 293.21,-126 272.21,-126 269.21,-122 203.79,-122 203.79,-86 296.21,-86 296.21,-122"/>
<text text-anchor="middle" x="250" y="-99.8" font-family="Times,serif" font-size="14.00">TasksModule</text>
</g>
<!-- TasksModule&#45;&gt;BackendsModule -->
<g id="edge4" class="edge">
<title>TasksModule&#45;&gt;BackendsModule</title>
<path fill="none" stroke="black" d="M296.31,-104C302.3,-104 306.4,-104 306.4,-104 306.4,-104 306.4,-140.89 306.4,-140.89"/>
<polygon fill="black" stroke="black" points="302.9,-140.89 306.4,-150.89 309.9,-140.89 302.9,-140.89"/>
</g>
<!-- BackendsService  -->
<g id="node6" class="node">
<title>BackendsService </title>
<polygon fill="#fb8072" stroke="black" points="413.9,-252 298.1,-252 298.1,-216 413.9,-216 413.9,-252"/>
<text text-anchor="middle" x="356" y="-229.8" font-family="Times,serif" font-size="14.00">BackendsService </text>
</g>
<!-- BackendsModule&#45;&gt;BackendsService  -->
<g id="edge5" class="edge">
<title>BackendsModule&#45;&gt;BackendsService </title>
<path fill="none" stroke="black" stroke-dasharray="5,2" d="M356,-187.11C356,-187.11 356,-205.99 356,-205.99"/>
<polygon fill="black" stroke="black" points="352.5,-205.99 356,-215.99 359.5,-205.99 352.5,-205.99"/>
</g>
<!-- BackendsService -->
<g id="node7" class="node">
<title>BackendsService</title>
<ellipse fill="#fdb462" stroke="black" cx="102" cy="-104" rx="77.57" ry="18"/>
<text text-anchor="middle" x="102" y="-99.8" font-family="Times,serif" font-size="14.00">BackendsService</text>
</g>
<!-- BackendsService&#45;&gt;BackendsModule -->
<g id="edge6" class="edge">
<title>BackendsService&#45;&gt;BackendsModule</title>
<path fill="none" stroke="black" d="M102,-122.11C102,-141.34 102,-169 102,-169 102,-169 289,-169 289,-169"/>
<polygon fill="black" stroke="black" points="289,-172.5 299,-169 289,-165.5 289,-172.5"/>
</g>
</g>
</svg>
