<?xml version="1.0" encoding="UTF-8" standalone="no"?>
<!DOCTYPE svg PUBLIC "-//W3C//DTD SVG 1.1//EN"
 "http://www.w3.org/Graphics/SVG/1.1/DTD/svg11.dtd">
<!-- Generated by graphviz version 2.47.0 (20210316.0004)
 -->
<!-- Title: dependencies Pages: 1 -->
<svg width="560pt" height="284pt"
 viewBox="0.00 0.00 560.00 284.00" xmlns="http://www.w3.org/2000/svg" xmlns:xlink="http://www.w3.org/1999/xlink">
<g id="graph0" class="graph" transform="scale(1 1) rotate(0) translate(4 280)">
<title>dependencies</title>
<polygon fill="white" stroke="transparent" points="-4,4 -4,-280 556,-280 556,4 -4,4"/>
<text text-anchor="start" x="255.01" y="-42.4" font-family="Times-12" font-weight="bold" font-size="14.00">Legend</text>
<polygon fill="#ffffb3" stroke="transparent" points="42,-10 42,-30 62,-30 62,-10 42,-10"/>
<text text-anchor="start" x="65.63" y="-15.4" font-family="Times-12" font-size="14.00"> &#160;Declarations</text>
<polygon fill="#8dd3c7" stroke="transparent" points="155,-10 155,-30 175,-30 175,-10 155,-10"/>
<text text-anchor="start" x="178.73" y="-15.4" font-family="Times-12" font-size="14.00"> &#160;Module</text>
<polygon fill="#80b1d3" stroke="transparent" points="241,-10 241,-30 261,-30 261,-10 241,-10"/>
<text text-anchor="start" x="264.78" y="-15.4" font-family="Times-12" font-size="14.00"> &#160;Bootstrap</text>
<polygon fill="#fdb462" stroke="transparent" points="338,-10 338,-30 358,-30 358,-10 338,-10"/>
<text text-anchor="start" x="361.67" y="-15.4" font-family="Times-12" font-size="14.00"> &#160;Providers</text>
<polygon fill="#fb8072" stroke="transparent" points="434,-10 434,-30 454,-30 454,-10 434,-10"/>
<text text-anchor="start" x="457.73" y="-15.4" font-family="Times-12" font-size="14.00"> &#160;Exports</text>
<g id="clust1" class="cluster">
<title>cluster_BackendsModule</title>
<polygon fill="none" stroke="black" stroke-dasharray="1,5" points="8,-70 8,-268 544,-268 544,-70 8,-70"/>
</g>
<g id="clust3" class="cluster">
<title>cluster_BackendsModule_imports</title>
<polygon fill="none" stroke="black" points="196,-78 196,-130 536,-130 536,-78 196,-78"/>
</g>
<g id="clust4" class="cluster">
<title>cluster_BackendsModule_exports</title>
<polygon fill="none" stroke="black" points="237,-208 237,-260 369,-260 369,-208 237,-208"/>
</g>
<g id="clust6" class="cluster">
<title>cluster_BackendsModule_providers</title>
<polygon fill="none" stroke="black" points="16,-78 16,-130 188,-130 188,-78 16,-78"/>
</g>
<!-- IdentitiesModule -->
<g id="node1" class="node">
<title>IdentitiesModule</title>
<polygon fill="#8dd3c7" stroke="black" points="527.65,-122 524.65,-126 503.65,-126 500.65,-122 416.35,-122 416.35,-86 527.65,-86 527.65,-122"/>
<text text-anchor="middle" x="472" y="-99.8" font-family="Times,serif" font-size="14.00">IdentitiesModule</text>
</g>
<!-- BackendsModule -->
<g id="node4" class="node">
<title>BackendsModule</title>
<polygon fill="#8dd3c7" stroke="black" points="359.97,-187 356.97,-191 335.97,-191 332.97,-187 246.03,-187 246.03,-151 359.97,-151 359.97,-187"/>
<text text-anchor="middle" x="303" y="-164.8" font-family="Times,serif" font-size="14.00">BackendsModule</text>
</g>
<!-- IdentitiesModule&#45;&gt;BackendsModule -->
<g id="edge1" class="edge">
<title>IdentitiesModule&#45;&gt;BackendsModule</title>
<path fill="none" stroke="black" d="M472,-122.11C472,-141.34 472,-169 472,-169 472,-169 370.22,-169 370.22,-169"/>
<polygon fill="black" stroke="black" points="370.22,-165.5 360.22,-169 370.22,-172.5 370.22,-165.5"/>
</g>
<!-- JobsModule -->
<g id="node2" class="node">
<title>JobsModule</title>
<polygon fill="#8dd3c7" stroke="black" points="398.44,-122 395.44,-126 374.44,-126 371.44,-122 313.56,-122 313.56,-86 398.44,-86 398.44,-122"/>
<text text-anchor="middle" x="356" y="-99.8" font-family="Times,serif" font-size="14.00">JobsModule</text>
</g>
<!-- JobsModule&#45;&gt;BackendsModule -->
<g id="edge2" class="edge">
<title>JobsModule&#45;&gt;BackendsModule</title>
<path fill="none" stroke="black" d="M336.88,-122.11C336.88,-122.11 336.88,-140.99 336.88,-140.99"/>
<polygon fill="black" stroke="black" points="333.38,-140.99 336.88,-150.99 340.38,-140.99 333.38,-140.99"/>
</g>
<!-- TasksModule -->
<g id="node3" class="node">
<title>TasksModule</title>
<polygon fill="#8dd3c7" stroke="black" points="296.21,-122 293.21,-126 272.21,-126 269.21,-122 203.79,-122 203.79,-86 296.21,-86 296.21,-122"/>
<text text-anchor="middle" x="250" y="-99.8" font-family="Times,serif" font-size="14.00">TasksModule</text>
</g>
<!-- TasksModule&#45;&gt;BackendsModule -->
<g id="edge3" class="edge">
<title>TasksModule&#45;&gt;BackendsModule</title>
<path fill="none" stroke="black" d="M271.06,-122.11C271.06,-122.11 271.06,-140.99 271.06,-140.99"/>
<polygon fill="black" stroke="black" points="267.56,-140.99 271.06,-150.99 274.56,-140.99 267.56,-140.99"/>
</g>
<!-- BackendsService  -->
<g id="node5" class="node">
<title>BackendsService </title>
<polygon fill="#fb8072" stroke="black" points="360.9,-252 245.1,-252 245.1,-216 360.9,-216 360.9,-252"/>
<text text-anchor="middle" x="303" y="-229.8" font-family="Times,serif" font-size="14.00">BackendsService </text>
</g>
<!-- BackendsModule&#45;&gt;BackendsService  -->
<g id="edge4" class="edge">
<title>BackendsModule&#45;&gt;BackendsService </title>
<path fill="none" stroke="black" stroke-dasharray="5,2" d="M303,-187.11C303,-187.11 303,-205.99 303,-205.99"/>
<polygon fill="black" stroke="black" points="299.5,-205.99 303,-215.99 306.5,-205.99 299.5,-205.99"/>
</g>
<!-- BackendsService -->
<g id="node6" class="node">
<title>BackendsService</title>
<ellipse fill="#fdb462" stroke="black" cx="102" cy="-104" rx="77.57" ry="18"/>
<text text-anchor="middle" x="102" y="-99.8" font-family="Times,serif" font-size="14.00">BackendsService</text>
</g>
<!-- BackendsService&#45;&gt;BackendsModule -->
<g id="edge5" class="edge">
<title>BackendsService&#45;&gt;BackendsModule</title>
<path fill="none" stroke="black" d="M102,-122.11C102,-141.34 102,-169 102,-169 102,-169 235.94,-169 235.94,-169"/>
<polygon fill="black" stroke="black" points="235.94,-172.5 245.94,-169 235.94,-165.5 235.94,-172.5"/>
</g>
</g>
</svg>
