<?xml version="1.0" encoding="UTF-8" standalone="no"?>
<!DOCTYPE svg PUBLIC "-//W3C//DTD SVG 1.1//EN"
 "http://www.w3.org/Graphics/SVG/1.1/DTD/svg11.dtd">
<!-- Generated by graphviz version 2.47.0 (20210316.0004)
 -->
<!-- Title: dependencies Pages: 1 -->
<svg width="504pt" height="211pt"
 viewBox="0.00 0.00 504.00 211.00" xmlns="http://www.w3.org/2000/svg" xmlns:xlink="http://www.w3.org/1999/xlink">
<g id="graph0" class="graph" transform="scale(1 1) rotate(0) translate(4 207)">
<title>dependencies</title>
<polygon fill="white" stroke="transparent" points="-4,4 -4,-207 500,-207 500,4 -4,4"/>
<text text-anchor="start" x="227.01" y="-42.4" font-family="Times-12" font-weight="bold" font-size="14.00">Legend</text>
<polygon fill="#ffffb3" stroke="transparent" points="14,-10 14,-30 34,-30 34,-10 14,-10"/>
<text text-anchor="start" x="37.63" y="-15.4" font-family="Times-12" font-size="14.00"> &#160;Declarations</text>
<polygon fill="#8dd3c7" stroke="transparent" points="127,-10 127,-30 147,-30 147,-10 127,-10"/>
<text text-anchor="start" x="150.73" y="-15.4" font-family="Times-12" font-size="14.00"> &#160;Module</text>
<polygon fill="#80b1d3" stroke="transparent" points="213,-10 213,-30 233,-30 233,-10 213,-10"/>
<text text-anchor="start" x="236.78" y="-15.4" font-family="Times-12" font-size="14.00"> &#160;Bootstrap</text>
<polygon fill="#fdb462" stroke="transparent" points="310,-10 310,-30 330,-30 330,-10 310,-10"/>
<text text-anchor="start" x="333.67" y="-15.4" font-family="Times-12" font-size="14.00"> &#160;Providers</text>
<polygon fill="#fb8072" stroke="transparent" points="406,-10 406,-30 426,-30 426,-10 406,-10"/>
<text text-anchor="start" x="429.73" y="-15.4" font-family="Times-12" font-size="14.00"> &#160;Exports</text>
<g id="clust1" class="cluster">
<title>cluster_ManagementModule</title>
<polygon fill="none" stroke="black" stroke-dasharray="1,5" points="74,-70 74,-195 422,-195 422,-70 74,-70"/>
</g>
<g id="clust6" class="cluster">
<title>cluster_ManagementModule_providers</title>
<polygon fill="none" stroke="black" points="218,-78 218,-130 414,-130 414,-78 218,-78"/>
</g>
<g id="clust3" class="cluster">
<title>cluster_ManagementModule_imports</title>
<polygon fill="none" stroke="black" points="82,-78 82,-130 210,-130 210,-78 82,-78"/>
</g>
<!-- IdentitiesModule -->
<g id="node1" class="node">
<title>IdentitiesModule</title>
<polygon fill="#8dd3c7" stroke="black" points="201.65,-122 198.65,-126 177.65,-126 174.65,-122 90.35,-122 90.35,-86 201.65,-86 201.65,-122"/>
<text text-anchor="middle" x="146" y="-99.8" font-family="Times,serif" font-size="14.00">IdentitiesModule</text>
</g>
<!-- ManagementModule -->
<g id="node2" class="node">
<title>ManagementModule</title>
<polygon fill="#8dd3c7" stroke="black" points="298.13,-187 295.13,-191 274.13,-191 271.13,-187 165.87,-187 165.87,-151 298.13,-151 298.13,-187"/>
<text text-anchor="middle" x="232" y="-164.8" font-family="Times,serif" font-size="14.00">ManagementModule</text>
</g>
<!-- IdentitiesModule&#45;&gt;ManagementModule -->
<g id="edge1" class="edge">
<title>IdentitiesModule&#45;&gt;ManagementModule</title>
<path fill="none" stroke="black" d="M183.75,-122.11C183.75,-122.11 183.75,-140.99 183.75,-140.99"/>
<polygon fill="black" stroke="black" points="180.25,-140.99 183.75,-150.99 187.25,-140.99 180.25,-140.99"/>
</g>
<!-- ManagementService -->
<g id="node3" class="node">
<title>ManagementService</title>
<ellipse fill="#fdb462" stroke="black" cx="316" cy="-104" rx="90.31" ry="18"/>
<text text-anchor="middle" x="316" y="-99.8" font-family="Times,serif" font-size="14.00">ManagementService</text>
</g>
<!-- ManagementService&#45;&gt;ManagementModule -->
<g id="edge2" class="edge">
<title>ManagementService&#45;&gt;ManagementModule</title>
<path fill="none" stroke="black" d="M261.96,-118.75C261.96,-118.75 261.96,-140.59 261.96,-140.59"/>
<polygon fill="black" stroke="black" points="258.46,-140.59 261.96,-150.59 265.46,-140.59 258.46,-140.59"/>
</g>
</g>
</svg>
