<?xml version="1.0" encoding="UTF-8" standalone="no"?>
<!DOCTYPE svg PUBLIC "-//W3C//DTD SVG 1.1//EN"
 "http://www.w3.org/Graphics/SVG/1.1/DTD/svg11.dtd">
<!-- Generated by graphviz version 2.47.0 (20210316.0004)
 -->
<!-- Title: dependencies Pages: 1 -->
<svg width="622pt" height="211pt"
 viewBox="0.00 0.00 622.00 211.00" xmlns="http://www.w3.org/2000/svg" xmlns:xlink="http://www.w3.org/1999/xlink">
<g id="graph0" class="graph" transform="scale(1 1) rotate(0) translate(4 207)">
<title>dependencies</title>
<polygon fill="white" stroke="transparent" points="-4,4 -4,-207 618,-207 618,4 -4,4"/>
<text text-anchor="start" x="286.01" y="-42.4" font-family="Times-12" font-weight="bold" font-size="14.00">Legend</text>
<polygon fill="#ffffb3" stroke="transparent" points="73,-10 73,-30 93,-30 93,-10 73,-10"/>
<text text-anchor="start" x="96.63" y="-15.4" font-family="Times-12" font-size="14.00"> &#160;Declarations</text>
<polygon fill="#8dd3c7" stroke="transparent" points="186,-10 186,-30 206,-30 206,-10 186,-10"/>
<text text-anchor="start" x="209.73" y="-15.4" font-family="Times-12" font-size="14.00"> &#160;Module</text>
<polygon fill="#80b1d3" stroke="transparent" points="272,-10 272,-30 292,-30 292,-10 272,-10"/>
<text text-anchor="start" x="295.78" y="-15.4" font-family="Times-12" font-size="14.00"> &#160;Bootstrap</text>
<polygon fill="#fdb462" stroke="transparent" points="369,-10 369,-30 389,-30 389,-10 369,-10"/>
<text text-anchor="start" x="392.67" y="-15.4" font-family="Times-12" font-size="14.00"> &#160;Providers</text>
<polygon fill="#fb8072" stroke="transparent" points="465,-10 465,-30 485,-30 485,-10 465,-10"/>
<text text-anchor="start" x="488.73" y="-15.4" font-family="Times-12" font-size="14.00"> &#160;Exports</text>
<g id="clust1" class="cluster">
<title>cluster_ManagementModule</title>
<polygon fill="none" stroke="black" stroke-dasharray="1,5" points="8,-70 8,-195 606,-195 606,-70 8,-70"/>
</g>
<g id="clust3" class="cluster">
<title>cluster_ManagementModule_imports</title>
<polygon fill="none" stroke="black" points="220,-78 220,-130 598,-130 598,-78 220,-78"/>
</g>
<g id="clust6" class="cluster">
<title>cluster_ManagementModule_providers</title>
<polygon fill="none" stroke="black" points="16,-78 16,-130 212,-130 212,-78 16,-78"/>
</g>
<!-- IdentitiesModule -->
<g id="node1" class="node">
<title>IdentitiesModule</title>
<polygon fill="#8dd3c7" stroke="black" points="589.65,-122 586.65,-126 565.65,-126 562.65,-122 478.35,-122 478.35,-86 589.65,-86 589.65,-122"/>
<text text-anchor="middle" x="534" y="-99.8" font-family="Times,serif" font-size="14.00">IdentitiesModule</text>
</g>
<!-- ManagementModule -->
<g id="node4" class="node">
<title>ManagementModule</title>
<polygon fill="#8dd3c7" stroke="black" points="407.13,-187 404.13,-191 383.13,-191 380.13,-187 274.87,-187 274.87,-151 407.13,-151 407.13,-187"/>
<text text-anchor="middle" x="341" y="-164.8" font-family="Times,serif" font-size="14.00">ManagementModule</text>
</g>
<!-- IdentitiesModule&#45;&gt;ManagementModule -->
<g id="edge1" class="edge">
<title>IdentitiesModule&#45;&gt;ManagementModule</title>
<path fill="none" stroke="black" d="M534,-122.11C534,-141.34 534,-169 534,-169 534,-169 417.15,-169 417.15,-169"/>
<polygon fill="black" stroke="black" points="417.15,-165.5 407.15,-169 417.15,-172.5 417.15,-165.5"/>
</g>
<!-- LifecycleModule -->
<g id="node2" class="node">
<title>LifecycleModule</title>
<polygon fill="#8dd3c7" stroke="black" points="460.4,-122 457.4,-126 436.4,-126 433.4,-122 347.6,-122 347.6,-86 460.4,-86 460.4,-122"/>
<text text-anchor="middle" x="404" y="-99.8" font-family="Times,serif" font-size="14.00">LifecycleModule</text>
</g>
<!-- LifecycleModule&#45;&gt;ManagementModule -->
<g id="edge2" class="edge">
<title>LifecycleModule&#45;&gt;ManagementModule</title>
<path fill="none" stroke="black" d="M377.56,-122.11C377.56,-122.11 377.56,-140.99 377.56,-140.99"/>
<polygon fill="black" stroke="black" points="374.06,-140.99 377.56,-150.99 381.06,-140.99 374.06,-140.99"/>
</g>
<!-- PasswdModule -->
<g id="node3" class="node">
<title>PasswdModule</title>
<polygon fill="#8dd3c7" stroke="black" points="329.54,-122 326.54,-126 305.54,-126 302.54,-122 228.46,-122 228.46,-86 329.54,-86 329.54,-122"/>
<text text-anchor="middle" x="279" y="-99.8" font-family="Times,serif" font-size="14.00">PasswdModule</text>
</g>
<!-- PasswdModule&#45;&gt;ManagementModule -->
<g id="edge3" class="edge">
<title>PasswdModule&#45;&gt;ManagementModule</title>
<path fill="none" stroke="black" d="M302.23,-122.11C302.23,-122.11 302.23,-140.99 302.23,-140.99"/>
<polygon fill="black" stroke="black" points="298.73,-140.99 302.23,-150.99 305.73,-140.99 298.73,-140.99"/>
</g>
<!-- ManagementService -->
<g id="node5" class="node">
<title>ManagementService</title>
<ellipse fill="#fdb462" stroke="black" cx="114" cy="-104" rx="90.31" ry="18"/>
<text text-anchor="middle" x="114" y="-99.8" font-family="Times,serif" font-size="14.00">ManagementService</text>
</g>
<!-- ManagementService&#45;&gt;ManagementModule -->
<g id="edge4" class="edge">
<title>ManagementService&#45;&gt;ManagementModule</title>
<path fill="none" stroke="black" d="M114,-122.11C114,-141.34 114,-169 114,-169 114,-169 264.73,-169 264.73,-169"/>
<polygon fill="black" stroke="black" points="264.73,-172.5 274.73,-169 264.73,-165.5 264.73,-172.5"/>
</g>
</g>
</svg>
