<?xml version="1.0" encoding="UTF-8" standalone="no"?>
<!DOCTYPE svg PUBLIC "-//W3C//DTD SVG 1.1//EN"
 "http://www.w3.org/Graphics/SVG/1.1/DTD/svg11.dtd">
<!-- Generated by graphviz version 2.47.0 (20210316.0004)
 -->
<!-- Title: dependencies Pages: 1 -->
<svg width="622pt" height="211pt"
 viewBox="0.00 0.00 622.00 211.00" xmlns="http://www.w3.org/2000/svg" xmlns:xlink="http://www.w3.org/1999/xlink">
<g id="graph0" class="graph" transform="scale(1 1) rotate(0) translate(4 207)">
<title>dependencies</title>
<polygon fill="white" stroke="transparent" points="-4,4 -4,-207 618,-207 618,4 -4,4"/>
<text text-anchor="start" x="286.01" y="-42.4" font-family="Times-12" font-weight="bold" font-size="14.00">Legend</text>
<polygon fill="#ffffb3" stroke="transparent" points="73,-10 73,-30 93,-30 93,-10 73,-10"/>
<text text-anchor="start" x="96.63" y="-15.4" font-family="Times-12" font-size="14.00"> &#160;Declarations</text>
<polygon fill="#8dd3c7" stroke="transparent" points="186,-10 186,-30 206,-30 206,-10 186,-10"/>
<text text-anchor="start" x="209.73" y="-15.4" font-family="Times-12" font-size="14.00"> &#160;Module</text>
<polygon fill="#80b1d3" stroke="transparent" points="272,-10 272,-30 292,-30 292,-10 272,-10"/>
<text text-anchor="start" x="295.78" y="-15.4" font-family="Times-12" font-size="14.00"> &#160;Bootstrap</text>
<polygon fill="#fdb462" stroke="transparent" points="369,-10 369,-30 389,-30 389,-10 369,-10"/>
<text text-anchor="start" x="392.67" y="-15.4" font-family="Times-12" font-size="14.00"> &#160;Providers</text>
<polygon fill="#fb8072" stroke="transparent" points="465,-10 465,-30 485,-30 485,-10 465,-10"/>
<text text-anchor="start" x="488.73" y="-15.4" font-family="Times-12" font-size="14.00"> &#160;Exports</text>
<g id="clust1" class="cluster">
<title>cluster_ManagementModule</title>
<polygon fill="none" stroke="black" stroke-dasharray="1,5" points="8,-70 8,-195 606,-195 606,-70 8,-70"/>
</g>
<g id="clust6" class="cluster">
<title>cluster_ManagementModule_providers</title>
<polygon fill="none" stroke="black" points="402,-78 402,-130 598,-130 598,-78 402,-78"/>
</g>
<g id="clust3" class="cluster">
<title>cluster_ManagementModule_imports</title>
<polygon fill="none" stroke="black" points="16,-78 16,-130 394,-130 394,-78 16,-78"/>
</g>
<!-- IdentitiesModule -->
<g id="node1" class="node">
<title>IdentitiesModule</title>
<polygon fill="#8dd3c7" stroke="black" points="385.65,-122 382.65,-126 361.65,-126 358.65,-122 274.35,-122 274.35,-86 385.65,-86 385.65,-122"/>
<text text-anchor="middle" x="330" y="-99.8" font-family="Times,serif" font-size="14.00">IdentitiesModule</text>
</g>
<!-- ManagementModule -->
<g id="node4" class="node">
<title>ManagementModule</title>
<polygon fill="#8dd3c7" stroke="black" points="331.13,-187 328.13,-191 307.13,-191 304.13,-187 198.87,-187 198.87,-151 331.13,-151 331.13,-187"/>
<text text-anchor="middle" x="265" y="-164.8" font-family="Times,serif" font-size="14.00">ManagementModule</text>
</g>
<!-- IdentitiesModule&#45;&gt;ManagementModule -->
<g id="edge1" class="edge">
<title>IdentitiesModule&#45;&gt;ManagementModule</title>
<path fill="none" stroke="black" d="M302.75,-122.11C302.75,-122.11 302.75,-140.99 302.75,-140.99"/>
<polygon fill="black" stroke="black" points="299.25,-140.99 302.75,-150.99 306.25,-140.99 299.25,-140.99"/>
</g>
<!-- LifecycleModule -->
<g id="node2" class="node">
<title>LifecycleModule</title>
<polygon fill="#8dd3c7" stroke="black" points="256.4,-122 253.4,-126 232.4,-126 229.4,-122 143.6,-122 143.6,-86 256.4,-86 256.4,-122"/>
<text text-anchor="middle" x="200" y="-99.8" font-family="Times,serif" font-size="14.00">LifecycleModule</text>
</g>
<!-- LifecycleModule&#45;&gt;ManagementModule -->
<g id="edge2" class="edge">
<title>LifecycleModule&#45;&gt;ManagementModule</title>
<path fill="none" stroke="black" d="M227.44,-122.11C227.44,-122.11 227.44,-140.99 227.44,-140.99"/>
<polygon fill="black" stroke="black" points="223.94,-140.99 227.44,-150.99 230.94,-140.99 223.94,-140.99"/>
</g>
<!-- PasswdModule -->
<g id="node3" class="node">
<title>PasswdModule</title>
<polygon fill="#8dd3c7" stroke="black" points="125.54,-122 122.54,-126 101.54,-126 98.54,-122 24.46,-122 24.46,-86 125.54,-86 125.54,-122"/>
<text text-anchor="middle" x="75" y="-99.8" font-family="Times,serif" font-size="14.00">PasswdModule</text>
</g>
<!-- PasswdModule&#45;&gt;ManagementModule -->
<g id="edge3" class="edge">
<title>PasswdModule&#45;&gt;ManagementModule</title>
<path fill="none" stroke="black" d="M75,-122.11C75,-141.34 75,-169 75,-169 75,-169 188.81,-169 188.81,-169"/>
<polygon fill="black" stroke="black" points="188.81,-172.5 198.81,-169 188.81,-165.5 188.81,-172.5"/>
</g>
<!-- ManagementService -->
<g id="node5" class="node">
<title>ManagementService</title>
<ellipse fill="#fdb462" stroke="black" cx="500" cy="-104" rx="90.31" ry="18"/>
<text text-anchor="middle" x="500" y="-99.8" font-family="Times,serif" font-size="14.00">ManagementService</text>
</g>
<!-- ManagementService&#45;&gt;ManagementModule -->
<g id="edge4" class="edge">
<title>ManagementService&#45;&gt;ManagementModule</title>
<path fill="none" stroke="black" d="M500,-122.11C500,-141.34 500,-169 500,-169 500,-169 341.4,-169 341.4,-169"/>
<polygon fill="black" stroke="black" points="341.4,-165.5 331.4,-169 341.4,-172.5 341.4,-165.5"/>
</g>
</g>
</svg>
