<?xml version="1.0" encoding="UTF-8" standalone="no"?>
<!DOCTYPE svg PUBLIC "-//W3C//DTD SVG 1.1//EN"
 "http://www.w3.org/Graphics/SVG/1.1/DTD/svg11.dtd">
<!-- Generated by graphviz version 2.47.0 (20210316.0004)
 -->
<!-- Title: dependencies Pages: 1 -->
<svg width="1249pt" height="211pt"
 viewBox="0.00 0.00 1249.00 211.00" xmlns="http://www.w3.org/2000/svg" xmlns:xlink="http://www.w3.org/1999/xlink">
<g id="graph0" class="graph" transform="scale(1 1) rotate(0) translate(4 207)">
<title>dependencies</title>
<polygon fill="white" stroke="transparent" points="-4,4 -4,-207 1245,-207 1245,4 -4,4"/>
<text text-anchor="start" x="599.51" y="-42.4" font-family="Times-12" font-weight="bold" font-size="14.00">Legend</text>
<polygon fill="#ffffb3" stroke="transparent" points="386.5,-10 386.5,-30 406.5,-30 406.5,-10 386.5,-10"/>
<text text-anchor="start" x="410.13" y="-15.4" font-family="Times-12" font-size="14.00"> &#160;Declarations</text>
<polygon fill="#8dd3c7" stroke="transparent" points="499.5,-10 499.5,-30 519.5,-30 519.5,-10 499.5,-10"/>
<text text-anchor="start" x="523.23" y="-15.4" font-family="Times-12" font-size="14.00"> &#160;Module</text>
<polygon fill="#80b1d3" stroke="transparent" points="585.5,-10 585.5,-30 605.5,-30 605.5,-10 585.5,-10"/>
<text text-anchor="start" x="609.28" y="-15.4" font-family="Times-12" font-size="14.00"> &#160;Bootstrap</text>
<polygon fill="#fdb462" stroke="transparent" points="682.5,-10 682.5,-30 702.5,-30 702.5,-10 682.5,-10"/>
<text text-anchor="start" x="706.17" y="-15.4" font-family="Times-12" font-size="14.00"> &#160;Providers</text>
<polygon fill="#fb8072" stroke="transparent" points="778.5,-10 778.5,-30 798.5,-30 798.5,-10 778.5,-10"/>
<text text-anchor="start" x="802.23" y="-15.4" font-family="Times-12" font-size="14.00"> &#160;Exports</text>
<g id="clust1" class="cluster">
<title>cluster_CoreModule</title>
<polygon fill="none" stroke="black" stroke-dasharray="1,5" points="8,-70 8,-195 1233,-195 1233,-70 8,-70"/>
</g>
<g id="clust3" class="cluster">
<title>cluster_CoreModule_imports</title>
<polygon fill="none" stroke="black" points="158,-78 158,-130 1225,-130 1225,-78 158,-78"/>
</g>
<g id="clust6" class="cluster">
<title>cluster_CoreModule_providers</title>
<polygon fill="none" stroke="black" points="16,-78 16,-130 150,-130 150,-78 16,-78"/>
</g>
<!-- AgentsModule -->
<g id="node1" class="node">
<title>AgentsModule</title>
<polygon fill="#8dd3c7" stroke="black" points="1216.71,-122 1213.71,-126 1192.71,-126 1189.71,-122 1117.29,-122 1117.29,-86 1216.71,-86 1216.71,-122"/>
<text text-anchor="middle" x="1167" y="-99.8" font-family="Times,serif" font-size="14.00">AgentsModule</text>
</g>
<!-- CoreModule -->
<g id="node10" class="node">
<title>CoreModule</title>
<polygon fill="#8dd3c7" stroke="black" points="668.26,-187 665.26,-191 644.26,-191 641.26,-187 581.74,-187 581.74,-151 668.26,-151 668.26,-187"/>
<text text-anchor="middle" x="625" y="-164.8" font-family="Times,serif" font-size="14.00">CoreModule</text>
</g>
<!-- AgentsModule&#45;&gt;CoreModule -->
<g id="edge1" class="edge">
<title>AgentsModule&#45;&gt;CoreModule</title>
<path fill="none" stroke="black" d="M1167,-122.01C1167,-144.49 1167,-180 1167,-180 1167,-180 678.44,-180 678.44,-180"/>
<polygon fill="black" stroke="black" points="678.44,-176.5 668.44,-180 678.44,-183.5 678.44,-176.5"/>
</g>
<!-- AuditsModule -->
<g id="node2" class="node">
<title>AuditsModule</title>
<polygon fill="#8dd3c7" stroke="black" points="1099.38,-122 1096.38,-126 1075.38,-126 1072.38,-122 1002.62,-122 1002.62,-86 1099.38,-86 1099.38,-122"/>
<text text-anchor="middle" x="1051" y="-99.8" font-family="Times,serif" font-size="14.00">AuditsModule</text>
</g>
<!-- AuditsModule&#45;&gt;CoreModule -->
<g id="edge2" class="edge">
<title>AuditsModule&#45;&gt;CoreModule</title>
<path fill="none" stroke="black" d="M1051,-122.13C1051,-142.57 1051,-173 1051,-173 1051,-173 678.59,-173 678.59,-173"/>
<polygon fill="black" stroke="black" points="678.59,-169.5 668.59,-173 678.59,-176.5 678.59,-169.5"/>
</g>
<!-- AuthModule -->
<g id="node3" class="node">
<title>AuthModule</title>
<polygon fill="#8dd3c7" stroke="black" points="984.55,-122 981.55,-126 960.55,-126 957.55,-122 897.45,-122 897.45,-86 984.55,-86 984.55,-122"/>
<text text-anchor="middle" x="941" y="-99.8" font-family="Times,serif" font-size="14.00">AuthModule</text>
</g>
<!-- AuthModule&#45;&gt;CoreModule -->
<g id="edge3" class="edge">
<title>AuthModule&#45;&gt;CoreModule</title>
<path fill="none" stroke="black" d="M941,-122.27C941,-140.56 941,-166 941,-166 941,-166 678.28,-166 678.28,-166"/>
<polygon fill="black" stroke="black" points="678.28,-162.5 668.28,-166 678.28,-169.5 678.28,-162.5"/>
</g>
<!-- BackendsModule -->
<g id="node4" class="node">
<title>BackendsModule</title>
<polygon fill="#8dd3c7" stroke="black" points="878.97,-122 875.97,-126 854.97,-126 851.97,-122 765.03,-122 765.03,-86 878.97,-86 878.97,-122"/>
<text text-anchor="middle" x="822" y="-99.8" font-family="Times,serif" font-size="14.00">BackendsModule</text>
</g>
<!-- BackendsModule&#45;&gt;CoreModule -->
<g id="edge4" class="edge">
<title>BackendsModule&#45;&gt;CoreModule</title>
<path fill="none" stroke="black" d="M822,-122.01C822,-138.05 822,-159 822,-159 822,-159 678.72,-159 678.72,-159"/>
<polygon fill="black" stroke="black" points="678.72,-155.5 668.72,-159 678.72,-162.5 678.72,-155.5"/>
</g>
<!-- FilestorageModule -->
<g id="node5" class="node">
<title>FilestorageModule</title>
<polygon fill="#8dd3c7" stroke="black" points="746.75,-122 743.75,-126 722.75,-126 719.75,-122 625.25,-122 625.25,-86 746.75,-86 746.75,-122"/>
<text text-anchor="middle" x="686" y="-99.8" font-family="Times,serif" font-size="14.00">FilestorageModule</text>
</g>
<!-- FilestorageModule&#45;&gt;CoreModule -->
<g id="edge5" class="edge">
<title>FilestorageModule&#45;&gt;CoreModule</title>
<path fill="none" stroke="black" d="M646.75,-122.11C646.75,-122.11 646.75,-140.99 646.75,-140.99"/>
<polygon fill="black" stroke="black" points="643.25,-140.99 646.75,-150.99 650.25,-140.99 643.25,-140.99"/>
</g>
<!-- JobsModule -->
<g id="node6" class="node">
<title>JobsModule</title>
<polygon fill="#8dd3c7" stroke="black" points="607.44,-122 604.44,-126 583.44,-126 580.44,-122 522.56,-122 522.56,-86 607.44,-86 607.44,-122"/>
<text text-anchor="middle" x="565" y="-99.8" font-family="Times,serif" font-size="14.00">JobsModule</text>
</g>
<!-- JobsModule&#45;&gt;CoreModule -->
<g id="edge6" class="edge">
<title>JobsModule&#45;&gt;CoreModule</title>
<path fill="none" stroke="black" d="M594.42,-122.11C594.42,-122.11 594.42,-140.99 594.42,-140.99"/>
<polygon fill="black" stroke="black" points="590.92,-140.99 594.42,-150.99 597.92,-140.99 590.92,-140.99"/>
</g>
<!-- KeyringsModule -->
<g id="node7" class="node">
<title>KeyringsModule</title>
<polygon fill="#8dd3c7" stroke="black" points="504.37,-122 501.37,-126 480.37,-126 477.37,-122 393.63,-122 393.63,-86 504.37,-86 504.37,-122"/>
<text text-anchor="middle" x="449" y="-99.8" font-family="Times,serif" font-size="14.00">KeyringsModule</text>
</g>
<!-- KeyringsModule&#45;&gt;CoreModule -->
<g id="edge7" class="edge">
<title>KeyringsModule&#45;&gt;CoreModule</title>
<path fill="none" stroke="black" d="M449,-122.01C449,-138.05 449,-159 449,-159 449,-159 571.49,-159 571.49,-159"/>
<polygon fill="black" stroke="black" points="571.49,-162.5 581.49,-159 571.49,-155.5 571.49,-162.5"/>
</g>
<!-- LoggerModule -->
<g id="node8" class="node">
<title>LoggerModule</title>
<polygon fill="#8dd3c7" stroke="black" points="375.98,-122 372.98,-126 351.98,-126 348.98,-122 276.02,-122 276.02,-86 375.98,-86 375.98,-122"/>
<text text-anchor="middle" x="326" y="-99.8" font-family="Times,serif" font-size="14.00">LoggerModule</text>
</g>
<!-- LoggerModule&#45;&gt;CoreModule -->
<g id="edge8" class="edge">
<title>LoggerModule&#45;&gt;CoreModule</title>
<path fill="none" stroke="black" d="M326,-122.27C326,-140.56 326,-166 326,-166 326,-166 571.52,-166 571.52,-166"/>
<polygon fill="black" stroke="black" points="571.52,-169.5 581.52,-166 571.52,-162.5 571.52,-169.5"/>
</g>
<!-- TasksModule -->
<g id="node9" class="node">
<title>TasksModule</title>
<polygon fill="#8dd3c7" stroke="black" points="258.21,-122 255.21,-126 234.21,-126 231.21,-122 165.79,-122 165.79,-86 258.21,-86 258.21,-122"/>
<text text-anchor="middle" x="212" y="-99.8" font-family="Times,serif" font-size="14.00">TasksModule</text>
</g>
<!-- TasksModule&#45;&gt;CoreModule -->
<g id="edge9" class="edge">
<title>TasksModule&#45;&gt;CoreModule</title>
<path fill="none" stroke="black" d="M212,-122.13C212,-142.57 212,-173 212,-173 212,-173 571.58,-173 571.58,-173"/>
<polygon fill="black" stroke="black" points="571.58,-176.5 581.58,-173 571.58,-169.5 571.58,-176.5"/>
</g>
<!-- CoreService -->
<g id="node11" class="node">
<title>CoreService</title>
<ellipse fill="#fdb462" stroke="black" cx="83" cy="-104" rx="58.53" ry="18"/>
<text text-anchor="middle" x="83" y="-99.8" font-family="Times,serif" font-size="14.00">CoreService</text>
</g>
<!-- CoreService&#45;&gt;CoreModule -->
<g id="edge10" class="edge">
<title>CoreService&#45;&gt;CoreModule</title>
<path fill="none" stroke="black" d="M83,-122.01C83,-144.49 83,-180 83,-180 83,-180 571.56,-180 571.56,-180"/>
<polygon fill="black" stroke="black" points="571.56,-183.5 581.56,-180 571.56,-176.5 571.56,-183.5"/>
</g>
</g>
</svg>
