<?xml version="1.0" encoding="UTF-8" standalone="no"?>
<!DOCTYPE svg PUBLIC "-//W3C//DTD SVG 1.1//EN"
 "http://www.w3.org/Graphics/SVG/1.1/DTD/svg11.dtd">
<!-- Generated by graphviz version 2.47.0 (20210316.0004)
 -->
<!-- Title: dependencies Pages: 1 -->
<svg width="994pt" height="211pt"
 viewBox="0.00 0.00 994.00 211.00" xmlns="http://www.w3.org/2000/svg" xmlns:xlink="http://www.w3.org/1999/xlink">
<g id="graph0" class="graph" transform="scale(1 1) rotate(0) translate(4 207)">
<title>dependencies</title>
<polygon fill="white" stroke="transparent" points="-4,4 -4,-207 990,-207 990,4 -4,4"/>
<text text-anchor="start" x="472.01" y="-42.4" font-family="Times-12" font-weight="bold" font-size="14.00">Legend</text>
<polygon fill="#ffffb3" stroke="transparent" points="259,-10 259,-30 279,-30 279,-10 259,-10"/>
<text text-anchor="start" x="282.63" y="-15.4" font-family="Times-12" font-size="14.00"> &#160;Declarations</text>
<polygon fill="#8dd3c7" stroke="transparent" points="372,-10 372,-30 392,-30 392,-10 372,-10"/>
<text text-anchor="start" x="395.73" y="-15.4" font-family="Times-12" font-size="14.00"> &#160;Module</text>
<polygon fill="#80b1d3" stroke="transparent" points="458,-10 458,-30 478,-30 478,-10 458,-10"/>
<text text-anchor="start" x="481.78" y="-15.4" font-family="Times-12" font-size="14.00"> &#160;Bootstrap</text>
<polygon fill="#fdb462" stroke="transparent" points="555,-10 555,-30 575,-30 575,-10 555,-10"/>
<text text-anchor="start" x="578.67" y="-15.4" font-family="Times-12" font-size="14.00"> &#160;Providers</text>
<polygon fill="#fb8072" stroke="transparent" points="651,-10 651,-30 671,-30 671,-10 651,-10"/>
<text text-anchor="start" x="674.73" y="-15.4" font-family="Times-12" font-size="14.00"> &#160;Exports</text>
<g id="clust1" class="cluster">
<title>cluster_CoreModule</title>
<polygon fill="none" stroke="black" stroke-dasharray="1,5" points="8,-70 8,-195 978,-195 978,-70 8,-70"/>
</g>
<g id="clust3" class="cluster">
<title>cluster_CoreModule_imports</title>
<polygon fill="none" stroke="black" points="158,-78 158,-130 970,-130 970,-78 158,-78"/>
</g>
<g id="clust6" class="cluster">
<title>cluster_CoreModule_providers</title>
<polygon fill="none" stroke="black" points="16,-78 16,-130 150,-130 150,-78 16,-78"/>
</g>
<!-- AgentsModule -->
<g id="node1" class="node">
<title>AgentsModule</title>
<polygon fill="#8dd3c7" stroke="black" points="961.71,-122 958.71,-126 937.71,-126 934.71,-122 862.29,-122 862.29,-86 961.71,-86 961.71,-122"/>
<text text-anchor="middle" x="912" y="-99.8" font-family="Times,serif" font-size="14.00">AgentsModule</text>
</g>
<!-- CoreModule -->
<g id="node8" class="node">
<title>CoreModule</title>
<polygon fill="#8dd3c7" stroke="black" points="550.26,-187 547.26,-191 526.26,-191 523.26,-187 463.74,-187 463.74,-151 550.26,-151 550.26,-187"/>
<text text-anchor="middle" x="507" y="-164.8" font-family="Times,serif" font-size="14.00">CoreModule</text>
</g>
<!-- AgentsModule&#45;&gt;CoreModule -->
<g id="edge1" class="edge">
<title>AgentsModule&#45;&gt;CoreModule</title>
<path fill="none" stroke="black" d="M912,-122.29C912,-144.21 912,-178 912,-178 912,-178 560.34,-178 560.34,-178"/>
<polygon fill="black" stroke="black" points="560.34,-174.5 550.34,-178 560.34,-181.5 560.34,-174.5"/>
</g>
<!-- AuthModule -->
<g id="node2" class="node">
<title>AuthModule</title>
<polygon fill="#8dd3c7" stroke="black" points="844.55,-122 841.55,-126 820.55,-126 817.55,-122 757.45,-122 757.45,-86 844.55,-86 844.55,-122"/>
<text text-anchor="middle" x="801" y="-99.8" font-family="Times,serif" font-size="14.00">AuthModule</text>
</g>
<!-- AuthModule&#45;&gt;CoreModule -->
<g id="edge2" class="edge">
<title>AuthModule&#45;&gt;CoreModule</title>
<path fill="none" stroke="black" d="M801,-122.11C801,-141.34 801,-169 801,-169 801,-169 560.38,-169 560.38,-169"/>
<polygon fill="black" stroke="black" points="560.38,-165.5 550.38,-169 560.38,-172.5 560.38,-165.5"/>
</g>
<!-- BackendsModule -->
<g id="node3" class="node">
<title>BackendsModule</title>
<polygon fill="#8dd3c7" stroke="black" points="738.97,-122 735.97,-126 714.97,-126 711.97,-122 625.03,-122 625.03,-86 738.97,-86 738.97,-122"/>
<text text-anchor="middle" x="682" y="-99.8" font-family="Times,serif" font-size="14.00">BackendsModule</text>
</g>
<!-- BackendsModule&#45;&gt;CoreModule -->
<g id="edge3" class="edge">
<title>BackendsModule&#45;&gt;CoreModule</title>
<path fill="none" stroke="black" d="M682,-122.03C682,-138.4 682,-160 682,-160 682,-160 560.71,-160 560.71,-160"/>
<polygon fill="black" stroke="black" points="560.71,-156.5 550.71,-160 560.71,-163.5 560.71,-156.5"/>
</g>
<!-- JobsModule -->
<g id="node4" class="node">
<title>JobsModule</title>
<polygon fill="#8dd3c7" stroke="black" points="607.44,-122 604.44,-126 583.44,-126 580.44,-122 522.56,-122 522.56,-86 607.44,-86 607.44,-122"/>
<text text-anchor="middle" x="565" y="-99.8" font-family="Times,serif" font-size="14.00">JobsModule</text>
</g>
<!-- JobsModule&#45;&gt;CoreModule -->
<g id="edge4" class="edge">
<title>JobsModule&#45;&gt;CoreModule</title>
<path fill="none" stroke="black" d="M536.58,-122.11C536.58,-122.11 536.58,-140.99 536.58,-140.99"/>
<polygon fill="black" stroke="black" points="533.08,-140.99 536.58,-150.99 540.08,-140.99 533.08,-140.99"/>
</g>
<!-- KeyringsModule -->
<g id="node5" class="node">
<title>KeyringsModule</title>
<polygon fill="#8dd3c7" stroke="black" points="504.37,-122 501.37,-126 480.37,-126 477.37,-122 393.63,-122 393.63,-86 504.37,-86 504.37,-122"/>
<text text-anchor="middle" x="449" y="-99.8" font-family="Times,serif" font-size="14.00">KeyringsModule</text>
</g>
<!-- KeyringsModule&#45;&gt;CoreModule -->
<g id="edge5" class="edge">
<title>KeyringsModule&#45;&gt;CoreModule</title>
<path fill="none" stroke="black" d="M484.03,-122.11C484.03,-122.11 484.03,-140.99 484.03,-140.99"/>
<polygon fill="black" stroke="black" points="480.53,-140.99 484.03,-150.99 487.53,-140.99 480.53,-140.99"/>
</g>
<!-- LoggerModule -->
<g id="node6" class="node">
<title>LoggerModule</title>
<polygon fill="#8dd3c7" stroke="black" points="375.98,-122 372.98,-126 351.98,-126 348.98,-122 276.02,-122 276.02,-86 375.98,-86 375.98,-122"/>
<text text-anchor="middle" x="326" y="-99.8" font-family="Times,serif" font-size="14.00">LoggerModule</text>
</g>
<!-- LoggerModule&#45;&gt;CoreModule -->
<g id="edge6" class="edge">
<title>LoggerModule&#45;&gt;CoreModule</title>
<path fill="none" stroke="black" d="M326,-122.03C326,-138.4 326,-160 326,-160 326,-160 453.65,-160 453.65,-160"/>
<polygon fill="black" stroke="black" points="453.65,-163.5 463.65,-160 453.65,-156.5 453.65,-163.5"/>
</g>
<!-- TasksModule -->
<g id="node7" class="node">
<title>TasksModule</title>
<polygon fill="#8dd3c7" stroke="black" points="258.21,-122 255.21,-126 234.21,-126 231.21,-122 165.79,-122 165.79,-86 258.21,-86 258.21,-122"/>
<text text-anchor="middle" x="212" y="-99.8" font-family="Times,serif" font-size="14.00">TasksModule</text>
</g>
<!-- TasksModule&#45;&gt;CoreModule -->
<g id="edge7" class="edge">
<title>TasksModule&#45;&gt;CoreModule</title>
<path fill="none" stroke="black" d="M212,-122.11C212,-141.34 212,-169 212,-169 212,-169 453.47,-169 453.47,-169"/>
<polygon fill="black" stroke="black" points="453.47,-172.5 463.47,-169 453.47,-165.5 453.47,-172.5"/>
</g>
<!-- CoreService -->
<g id="node9" class="node">
<title>CoreService</title>
<ellipse fill="#fdb462" stroke="black" cx="83" cy="-104" rx="58.53" ry="18"/>
<text text-anchor="middle" x="83" y="-99.8" font-family="Times,serif" font-size="14.00">CoreService</text>
</g>
<!-- CoreService&#45;&gt;CoreModule -->
<g id="edge8" class="edge">
<title>CoreService&#45;&gt;CoreModule</title>
<path fill="none" stroke="black" d="M83,-122.29C83,-144.21 83,-178 83,-178 83,-178 453.62,-178 453.62,-178"/>
<polygon fill="black" stroke="black" points="453.62,-181.5 463.62,-178 453.62,-174.5 453.62,-181.5"/>
</g>
</g>
</svg>
