<?xml version="1.0" encoding="UTF-8" standalone="no"?>
<!DOCTYPE svg PUBLIC "-//W3C//DTD SVG 1.1//EN"
 "http://www.w3.org/Graphics/SVG/1.1/DTD/svg11.dtd">
<!-- Generated by graphviz version 2.47.0 (20210316.0004)
 -->
<!-- Title: dependencies Pages: 1 -->
<svg width="994pt" height="211pt"
 viewBox="0.00 0.00 994.00 211.00" xmlns="http://www.w3.org/2000/svg" xmlns:xlink="http://www.w3.org/1999/xlink">
<g id="graph0" class="graph" transform="scale(1 1) rotate(0) translate(4 207)">
<title>dependencies</title>
<polygon fill="white" stroke="transparent" points="-4,4 -4,-207 990,-207 990,4 -4,4"/>
<text text-anchor="start" x="472.01" y="-42.4" font-family="Times-12" font-weight="bold" font-size="14.00">Legend</text>
<polygon fill="#ffffb3" stroke="transparent" points="259,-10 259,-30 279,-30 279,-10 259,-10"/>
<text text-anchor="start" x="282.63" y="-15.4" font-family="Times-12" font-size="14.00"> &#160;Declarations</text>
<polygon fill="#8dd3c7" stroke="transparent" points="372,-10 372,-30 392,-30 392,-10 372,-10"/>
<text text-anchor="start" x="395.73" y="-15.4" font-family="Times-12" font-size="14.00"> &#160;Module</text>
<polygon fill="#80b1d3" stroke="transparent" points="458,-10 458,-30 478,-30 478,-10 458,-10"/>
<text text-anchor="start" x="481.78" y="-15.4" font-family="Times-12" font-size="14.00"> &#160;Bootstrap</text>
<polygon fill="#fdb462" stroke="transparent" points="555,-10 555,-30 575,-30 575,-10 555,-10"/>
<text text-anchor="start" x="578.67" y="-15.4" font-family="Times-12" font-size="14.00"> &#160;Providers</text>
<polygon fill="#fb8072" stroke="transparent" points="651,-10 651,-30 671,-30 671,-10 651,-10"/>
<text text-anchor="start" x="674.73" y="-15.4" font-family="Times-12" font-size="14.00"> &#160;Exports</text>
<g id="clust1" class="cluster">
<title>cluster_CoreModule</title>
<polygon fill="none" stroke="black" stroke-dasharray="1,5" points="8,-70 8,-195 978,-195 978,-70 8,-70"/>
</g>
<g id="clust6" class="cluster">
<title>cluster_CoreModule_providers</title>
<polygon fill="none" stroke="black" points="836,-78 836,-130 970,-130 970,-78 836,-78"/>
</g>
<g id="clust3" class="cluster">
<title>cluster_CoreModule_imports</title>
<polygon fill="none" stroke="black" points="16,-78 16,-130 828,-130 828,-78 16,-78"/>
</g>
<!-- AgentsModule -->
<g id="node1" class="node">
<title>AgentsModule</title>
<polygon fill="#8dd3c7" stroke="black" points="819.71,-122 816.71,-126 795.71,-126 792.71,-122 720.29,-122 720.29,-86 819.71,-86 819.71,-122"/>
<text text-anchor="middle" x="770" y="-99.8" font-family="Times,serif" font-size="14.00">AgentsModule</text>
</g>
<!-- CoreModule -->
<g id="node8" class="node">
<title>CoreModule</title>
<polygon fill="#8dd3c7" stroke="black" points="524.26,-187 521.26,-191 500.26,-191 497.26,-187 437.74,-187 437.74,-151 524.26,-151 524.26,-187"/>
<text text-anchor="middle" x="481" y="-164.8" font-family="Times,serif" font-size="14.00">CoreModule</text>
</g>
<!-- AgentsModule&#45;&gt;CoreModule -->
<g id="edge1" class="edge">
<title>AgentsModule&#45;&gt;CoreModule</title>
<path fill="none" stroke="black" d="M770,-122.11C770,-141.34 770,-169 770,-169 770,-169 534.27,-169 534.27,-169"/>
<polygon fill="black" stroke="black" points="534.27,-165.5 524.27,-169 534.27,-172.5 534.27,-165.5"/>
</g>
<!-- AuthModule -->
<g id="node2" class="node">
<title>AuthModule</title>
<polygon fill="#8dd3c7" stroke="black" points="702.55,-122 699.55,-126 678.55,-126 675.55,-122 615.45,-122 615.45,-86 702.55,-86 702.55,-122"/>
<text text-anchor="middle" x="659" y="-99.8" font-family="Times,serif" font-size="14.00">AuthModule</text>
</g>
<!-- AuthModule&#45;&gt;CoreModule -->
<g id="edge2" class="edge">
<title>AuthModule&#45;&gt;CoreModule</title>
<path fill="none" stroke="black" d="M659,-122.03C659,-138.4 659,-160 659,-160 659,-160 534.54,-160 534.54,-160"/>
<polygon fill="black" stroke="black" points="534.54,-156.5 524.54,-160 534.54,-163.5 534.54,-156.5"/>
</g>
<!-- BackendsModule -->
<g id="node3" class="node">
<title>BackendsModule</title>
<polygon fill="#8dd3c7" stroke="black" points="596.97,-122 593.97,-126 572.97,-126 569.97,-122 483.03,-122 483.03,-86 596.97,-86 596.97,-122"/>
<text text-anchor="middle" x="540" y="-99.8" font-family="Times,serif" font-size="14.00">BackendsModule</text>
</g>
<!-- BackendsModule&#45;&gt;CoreModule -->
<g id="edge3" class="edge">
<title>BackendsModule&#45;&gt;CoreModule</title>
<path fill="none" stroke="black" d="M503.7,-122.11C503.7,-122.11 503.7,-140.99 503.7,-140.99"/>
<polygon fill="black" stroke="black" points="500.2,-140.99 503.7,-150.99 507.2,-140.99 500.2,-140.99"/>
</g>
<!-- JobsModule -->
<g id="node4" class="node">
<title>JobsModule</title>
<polygon fill="#8dd3c7" stroke="black" points="465.44,-122 462.44,-126 441.44,-126 438.44,-122 380.56,-122 380.56,-86 465.44,-86 465.44,-122"/>
<text text-anchor="middle" x="423" y="-99.8" font-family="Times,serif" font-size="14.00">JobsModule</text>
</g>
<!-- JobsModule&#45;&gt;CoreModule -->
<g id="edge4" class="edge">
<title>JobsModule&#45;&gt;CoreModule</title>
<path fill="none" stroke="black" d="M451.42,-122.11C451.42,-122.11 451.42,-140.99 451.42,-140.99"/>
<polygon fill="black" stroke="black" points="447.92,-140.99 451.42,-150.99 454.92,-140.99 447.92,-140.99"/>
</g>
<!-- KeyringsModule -->
<g id="node5" class="node">
<title>KeyringsModule</title>
<polygon fill="#8dd3c7" stroke="black" points="362.37,-122 359.37,-126 338.37,-126 335.37,-122 251.63,-122 251.63,-86 362.37,-86 362.37,-122"/>
<text text-anchor="middle" x="307" y="-99.8" font-family="Times,serif" font-size="14.00">KeyringsModule</text>
</g>
<!-- KeyringsModule&#45;&gt;CoreModule -->
<g id="edge5" class="edge">
<title>KeyringsModule&#45;&gt;CoreModule</title>
<path fill="none" stroke="black" d="M307,-122.03C307,-138.4 307,-160 307,-160 307,-160 427.54,-160 427.54,-160"/>
<polygon fill="black" stroke="black" points="427.54,-163.5 437.54,-160 427.54,-156.5 427.54,-163.5"/>
</g>
<!-- LoggerModule -->
<g id="node6" class="node">
<title>LoggerModule</title>
<polygon fill="#8dd3c7" stroke="black" points="233.98,-122 230.98,-126 209.98,-126 206.98,-122 134.02,-122 134.02,-86 233.98,-86 233.98,-122"/>
<text text-anchor="middle" x="184" y="-99.8" font-family="Times,serif" font-size="14.00">LoggerModule</text>
</g>
<!-- LoggerModule&#45;&gt;CoreModule -->
<g id="edge6" class="edge">
<title>LoggerModule&#45;&gt;CoreModule</title>
<path fill="none" stroke="black" d="M184,-122.11C184,-141.34 184,-169 184,-169 184,-169 427.5,-169 427.5,-169"/>
<polygon fill="black" stroke="black" points="427.5,-172.5 437.5,-169 427.5,-165.5 427.5,-172.5"/>
</g>
<!-- TasksModule -->
<g id="node7" class="node">
<title>TasksModule</title>
<polygon fill="#8dd3c7" stroke="black" points="116.21,-122 113.21,-126 92.21,-126 89.21,-122 23.79,-122 23.79,-86 116.21,-86 116.21,-122"/>
<text text-anchor="middle" x="70" y="-99.8" font-family="Times,serif" font-size="14.00">TasksModule</text>
</g>
<!-- TasksModule&#45;&gt;CoreModule -->
<g id="edge7" class="edge">
<title>TasksModule&#45;&gt;CoreModule</title>
<path fill="none" stroke="black" d="M70,-122.29C70,-144.21 70,-178 70,-178 70,-178 427.4,-178 427.4,-178"/>
<polygon fill="black" stroke="black" points="427.4,-181.5 437.4,-178 427.4,-174.5 427.4,-181.5"/>
</g>
<!-- CoreService -->
<g id="node9" class="node">
<title>CoreService</title>
<ellipse fill="#fdb462" stroke="black" cx="903" cy="-104" rx="58.53" ry="18"/>
<text text-anchor="middle" x="903" y="-99.8" font-family="Times,serif" font-size="14.00">CoreService</text>
</g>
<!-- CoreService&#45;&gt;CoreModule -->
<g id="edge8" class="edge">
<title>CoreService&#45;&gt;CoreModule</title>
<path fill="none" stroke="black" d="M903,-122.29C903,-144.21 903,-178 903,-178 903,-178 534.57,-178 534.57,-178"/>
<polygon fill="black" stroke="black" points="534.57,-174.5 524.57,-178 534.57,-181.5 534.57,-174.5"/>
</g>
</g>
</svg>
