<?xml version="1.0" encoding="UTF-8" standalone="no"?>
<!DOCTYPE svg PUBLIC "-//W3C//DTD SVG 1.1//EN"
 "http://www.w3.org/Graphics/SVG/1.1/DTD/svg11.dtd">
<!-- Generated by graphviz version 2.47.0 (20210316.0004)
 -->
<!-- Title: dependencies Pages: 1 -->
<svg width="1134pt" height="211pt"
 viewBox="0.00 0.00 1134.00 211.00" xmlns="http://www.w3.org/2000/svg" xmlns:xlink="http://www.w3.org/1999/xlink">
<g id="graph0" class="graph" transform="scale(1 1) rotate(0) translate(4 207)">
<title>dependencies</title>
<polygon fill="white" stroke="transparent" points="-4,4 -4,-207 1130,-207 1130,4 -4,4"/>
<text text-anchor="start" x="542.01" y="-42.4" font-family="Times-12" font-weight="bold" font-size="14.00">Legend</text>
<polygon fill="#ffffb3" stroke="transparent" points="329,-10 329,-30 349,-30 349,-10 329,-10"/>
<text text-anchor="start" x="352.63" y="-15.4" font-family="Times-12" font-size="14.00"> &#160;Declarations</text>
<polygon fill="#8dd3c7" stroke="transparent" points="442,-10 442,-30 462,-30 462,-10 442,-10"/>
<text text-anchor="start" x="465.73" y="-15.4" font-family="Times-12" font-size="14.00"> &#160;Module</text>
<polygon fill="#80b1d3" stroke="transparent" points="528,-10 528,-30 548,-30 548,-10 528,-10"/>
<text text-anchor="start" x="551.78" y="-15.4" font-family="Times-12" font-size="14.00"> &#160;Bootstrap</text>
<polygon fill="#fdb462" stroke="transparent" points="625,-10 625,-30 645,-30 645,-10 625,-10"/>
<text text-anchor="start" x="648.67" y="-15.4" font-family="Times-12" font-size="14.00"> &#160;Providers</text>
<polygon fill="#fb8072" stroke="transparent" points="721,-10 721,-30 741,-30 741,-10 721,-10"/>
<text text-anchor="start" x="744.73" y="-15.4" font-family="Times-12" font-size="14.00"> &#160;Exports</text>
<g id="clust1" class="cluster">
<title>cluster_CoreModule</title>
<polygon fill="none" stroke="black" stroke-dasharray="1,5" points="8,-70 8,-195 1118,-195 1118,-70 8,-70"/>
</g>
<g id="clust3" class="cluster">
<title>cluster_CoreModule_imports</title>
<polygon fill="none" stroke="black" points="158,-78 158,-130 1110,-130 1110,-78 158,-78"/>
</g>
<g id="clust6" class="cluster">
<title>cluster_CoreModule_providers</title>
<polygon fill="none" stroke="black" points="16,-78 16,-130 150,-130 150,-78 16,-78"/>
</g>
<!-- AgentsModule -->
<g id="node1" class="node">
<title>AgentsModule</title>
<polygon fill="#8dd3c7" stroke="black" points="1101.71,-122 1098.71,-126 1077.71,-126 1074.71,-122 1002.29,-122 1002.29,-86 1101.71,-86 1101.71,-122"/>
<text text-anchor="middle" x="1052" y="-99.8" font-family="Times,serif" font-size="14.00">AgentsModule</text>
</g>
<!-- CoreModule -->
<g id="node9" class="node">
<title>CoreModule</title>
<polygon fill="#8dd3c7" stroke="black" points="608.26,-187 605.26,-191 584.26,-191 581.26,-187 521.74,-187 521.74,-151 608.26,-151 608.26,-187"/>
<text text-anchor="middle" x="565" y="-164.8" font-family="Times,serif" font-size="14.00">CoreModule</text>
</g>
<!-- AgentsModule&#45;&gt;CoreModule -->
<g id="edge1" class="edge">
<title>AgentsModule&#45;&gt;CoreModule</title>
<path fill="none" stroke="black" d="M1052,-122.01C1052,-144.49 1052,-180 1052,-180 1052,-180 618.65,-180 618.65,-180"/>
<polygon fill="black" stroke="black" points="618.65,-176.5 608.65,-180 618.65,-183.5 618.65,-176.5"/>
</g>
<!-- AuthModule -->
<g id="node2" class="node">
<title>AuthModule</title>
<polygon fill="#8dd3c7" stroke="black" points="984.55,-122 981.55,-126 960.55,-126 957.55,-122 897.45,-122 897.45,-86 984.55,-86 984.55,-122"/>
<text text-anchor="middle" x="941" y="-99.8" font-family="Times,serif" font-size="14.00">AuthModule</text>
</g>
<!-- AuthModule&#45;&gt;CoreModule -->
<g id="edge2" class="edge">
<title>AuthModule&#45;&gt;CoreModule</title>
<path fill="none" stroke="black" d="M941,-122.13C941,-142.57 941,-173 941,-173 941,-173 618.5,-173 618.5,-173"/>
<polygon fill="black" stroke="black" points="618.5,-169.5 608.5,-173 618.5,-176.5 618.5,-169.5"/>
</g>
<!-- BackendsModule -->
<g id="node3" class="node">
<title>BackendsModule</title>
<polygon fill="#8dd3c7" stroke="black" points="878.97,-122 875.97,-126 854.97,-126 851.97,-122 765.03,-122 765.03,-86 878.97,-86 878.97,-122"/>
<text text-anchor="middle" x="822" y="-99.8" font-family="Times,serif" font-size="14.00">BackendsModule</text>
</g>
<!-- BackendsModule&#45;&gt;CoreModule -->
<g id="edge3" class="edge">
<title>BackendsModule&#45;&gt;CoreModule</title>
<path fill="none" stroke="black" d="M822,-122.27C822,-140.56 822,-166 822,-166 822,-166 618.31,-166 618.31,-166"/>
<polygon fill="black" stroke="black" points="618.31,-162.5 608.31,-166 618.31,-169.5 618.31,-162.5"/>
</g>
<!-- FilestorageModule -->
<g id="node4" class="node">
<title>FilestorageModule</title>
<polygon fill="#8dd3c7" stroke="black" points="746.75,-122 743.75,-126 722.75,-126 719.75,-122 625.25,-122 625.25,-86 746.75,-86 746.75,-122"/>
<text text-anchor="middle" x="686" y="-99.8" font-family="Times,serif" font-size="14.00">FilestorageModule</text>
</g>
<!-- FilestorageModule&#45;&gt;CoreModule -->
<g id="edge4" class="edge">
<title>FilestorageModule&#45;&gt;CoreModule</title>
<path fill="none" stroke="black" d="M686,-122.01C686,-138.05 686,-159 686,-159 686,-159 618.34,-159 618.34,-159"/>
<polygon fill="black" stroke="black" points="618.34,-155.5 608.34,-159 618.34,-162.5 618.34,-155.5"/>
</g>
<!-- JobsModule -->
<g id="node5" class="node">
<title>JobsModule</title>
<polygon fill="#8dd3c7" stroke="black" points="607.44,-122 604.44,-126 583.44,-126 580.44,-122 522.56,-122 522.56,-86 607.44,-86 607.44,-122"/>
<text text-anchor="middle" x="565" y="-99.8" font-family="Times,serif" font-size="14.00">JobsModule</text>
</g>
<!-- JobsModule&#45;&gt;CoreModule -->
<g id="edge5" class="edge">
<title>JobsModule&#45;&gt;CoreModule</title>
<path fill="none" stroke="black" d="M565,-122.11C565,-122.11 565,-140.99 565,-140.99"/>
<polygon fill="black" stroke="black" points="561.5,-140.99 565,-150.99 568.5,-140.99 561.5,-140.99"/>
</g>
<!-- KeyringsModule -->
<g id="node6" class="node">
<title>KeyringsModule</title>
<polygon fill="#8dd3c7" stroke="black" points="504.37,-122 501.37,-126 480.37,-126 477.37,-122 393.63,-122 393.63,-86 504.37,-86 504.37,-122"/>
<text text-anchor="middle" x="449" y="-99.8" font-family="Times,serif" font-size="14.00">KeyringsModule</text>
</g>
<!-- KeyringsModule&#45;&gt;CoreModule -->
<g id="edge6" class="edge">
<title>KeyringsModule&#45;&gt;CoreModule</title>
<path fill="none" stroke="black" d="M449,-122.01C449,-138.05 449,-159 449,-159 449,-159 511.48,-159 511.48,-159"/>
<polygon fill="black" stroke="black" points="511.48,-162.5 521.48,-159 511.48,-155.5 511.48,-162.5"/>
</g>
<!-- LoggerModule -->
<g id="node7" class="node">
<title>LoggerModule</title>
<polygon fill="#8dd3c7" stroke="black" points="375.98,-122 372.98,-126 351.98,-126 348.98,-122 276.02,-122 276.02,-86 375.98,-86 375.98,-122"/>
<text text-anchor="middle" x="326" y="-99.8" font-family="Times,serif" font-size="14.00">LoggerModule</text>
</g>
<!-- LoggerModule&#45;&gt;CoreModule -->
<g id="edge7" class="edge">
<title>LoggerModule&#45;&gt;CoreModule</title>
<path fill="none" stroke="black" d="M326,-122.27C326,-140.56 326,-166 326,-166 326,-166 511.72,-166 511.72,-166"/>
<polygon fill="black" stroke="black" points="511.72,-169.5 521.72,-166 511.72,-162.5 511.72,-169.5"/>
</g>
<!-- TasksModule -->
<g id="node8" class="node">
<title>TasksModule</title>
<polygon fill="#8dd3c7" stroke="black" points="258.21,-122 255.21,-126 234.21,-126 231.21,-122 165.79,-122 165.79,-86 258.21,-86 258.21,-122"/>
<text text-anchor="middle" x="212" y="-99.8" font-family="Times,serif" font-size="14.00">TasksModule</text>
</g>
<!-- TasksModule&#45;&gt;CoreModule -->
<g id="edge8" class="edge">
<title>TasksModule&#45;&gt;CoreModule</title>
<path fill="none" stroke="black" d="M212,-122.13C212,-142.57 212,-173 212,-173 212,-173 511.72,-173 511.72,-173"/>
<polygon fill="black" stroke="black" points="511.72,-176.5 521.72,-173 511.72,-169.5 511.72,-176.5"/>
</g>
<!-- CoreService -->
<g id="node10" class="node">
<title>CoreService</title>
<ellipse fill="#fdb462" stroke="black" cx="83" cy="-104" rx="58.53" ry="18"/>
<text text-anchor="middle" x="83" y="-99.8" font-family="Times,serif" font-size="14.00">CoreService</text>
</g>
<!-- CoreService&#45;&gt;CoreModule -->
<g id="edge9" class="edge">
<title>CoreService&#45;&gt;CoreModule</title>
<path fill="none" stroke="black" d="M83,-122.01C83,-144.49 83,-180 83,-180 83,-180 511.38,-180 511.38,-180"/>
<polygon fill="black" stroke="black" points="511.38,-183.5 521.38,-180 511.38,-176.5 511.38,-183.5"/>
</g>
</g>
</svg>
