<?xml version="1.0" encoding="UTF-8" standalone="no"?>
<!DOCTYPE svg PUBLIC "-//W3C//DTD SVG 1.1//EN"
 "http://www.w3.org/Graphics/SVG/1.1/DTD/svg11.dtd">
<!-- Generated by graphviz version 2.47.0 (20210316.0004)
 -->
<!-- Title: dependencies Pages: 1 -->
<svg width="1134pt" height="211pt"
 viewBox="0.00 0.00 1134.00 211.00" xmlns="http://www.w3.org/2000/svg" xmlns:xlink="http://www.w3.org/1999/xlink">
<g id="graph0" class="graph" transform="scale(1 1) rotate(0) translate(4 207)">
<title>dependencies</title>
<polygon fill="white" stroke="transparent" points="-4,4 -4,-207 1130,-207 1130,4 -4,4"/>
<text text-anchor="start" x="542.01" y="-42.4" font-family="Times-12" font-weight="bold" font-size="14.00">Legend</text>
<polygon fill="#ffffb3" stroke="transparent" points="329,-10 329,-30 349,-30 349,-10 329,-10"/>
<text text-anchor="start" x="352.63" y="-15.4" font-family="Times-12" font-size="14.00"> &#160;Declarations</text>
<polygon fill="#8dd3c7" stroke="transparent" points="442,-10 442,-30 462,-30 462,-10 442,-10"/>
<text text-anchor="start" x="465.73" y="-15.4" font-family="Times-12" font-size="14.00"> &#160;Module</text>
<polygon fill="#80b1d3" stroke="transparent" points="528,-10 528,-30 548,-30 548,-10 528,-10"/>
<text text-anchor="start" x="551.78" y="-15.4" font-family="Times-12" font-size="14.00"> &#160;Bootstrap</text>
<polygon fill="#fdb462" stroke="transparent" points="625,-10 625,-30 645,-30 645,-10 625,-10"/>
<text text-anchor="start" x="648.67" y="-15.4" font-family="Times-12" font-size="14.00"> &#160;Providers</text>
<polygon fill="#fb8072" stroke="transparent" points="721,-10 721,-30 741,-30 741,-10 721,-10"/>
<text text-anchor="start" x="744.73" y="-15.4" font-family="Times-12" font-size="14.00"> &#160;Exports</text>
<g id="clust1" class="cluster">
<title>cluster_CoreModule</title>
<polygon fill="none" stroke="black" stroke-dasharray="1,5" points="8,-70 8,-195 1118,-195 1118,-70 8,-70"/>
</g>
<g id="clust6" class="cluster">
<title>cluster_CoreModule_providers</title>
<polygon fill="none" stroke="black" points="976,-78 976,-130 1110,-130 1110,-78 976,-78"/>
</g>
<g id="clust3" class="cluster">
<title>cluster_CoreModule_imports</title>
<polygon fill="none" stroke="black" points="16,-78 16,-130 968,-130 968,-78 16,-78"/>
</g>
<!-- AgentsModule -->
<g id="node1" class="node">
<title>AgentsModule</title>
<polygon fill="#8dd3c7" stroke="black" points="959.71,-122 956.71,-126 935.71,-126 932.71,-122 860.29,-122 860.29,-86 959.71,-86 959.71,-122"/>
<text text-anchor="middle" x="910" y="-99.8" font-family="Times,serif" font-size="14.00">AgentsModule</text>
</g>
<!-- CoreModule -->
<g id="node9" class="node">
<title>CoreModule</title>
<polygon fill="#8dd3c7" stroke="black" points="587.26,-187 584.26,-191 563.26,-191 560.26,-187 500.74,-187 500.74,-151 587.26,-151 587.26,-187"/>
<text text-anchor="middle" x="544" y="-164.8" font-family="Times,serif" font-size="14.00">CoreModule</text>
</g>
<!-- AgentsModule&#45;&gt;CoreModule -->
<g id="edge1" class="edge">
<title>AgentsModule&#45;&gt;CoreModule</title>
<path fill="none" stroke="black" d="M910,-122.13C910,-142.57 910,-173 910,-173 910,-173 597.42,-173 597.42,-173"/>
<polygon fill="black" stroke="black" points="597.42,-169.5 587.42,-173 597.42,-176.5 597.42,-169.5"/>
</g>
<!-- AuthModule -->
<g id="node2" class="node">
<title>AuthModule</title>
<polygon fill="#8dd3c7" stroke="black" points="842.55,-122 839.55,-126 818.55,-126 815.55,-122 755.45,-122 755.45,-86 842.55,-86 842.55,-122"/>
<text text-anchor="middle" x="799" y="-99.8" font-family="Times,serif" font-size="14.00">AuthModule</text>
</g>
<!-- AuthModule&#45;&gt;CoreModule -->
<g id="edge2" class="edge">
<title>AuthModule&#45;&gt;CoreModule</title>
<path fill="none" stroke="black" d="M799,-122.27C799,-140.56 799,-166 799,-166 799,-166 597.55,-166 597.55,-166"/>
<polygon fill="black" stroke="black" points="597.55,-162.5 587.55,-166 597.55,-169.5 597.55,-162.5"/>
</g>
<!-- BackendsModule -->
<g id="node3" class="node">
<title>BackendsModule</title>
<polygon fill="#8dd3c7" stroke="black" points="736.97,-122 733.97,-126 712.97,-126 709.97,-122 623.03,-122 623.03,-86 736.97,-86 736.97,-122"/>
<text text-anchor="middle" x="680" y="-99.8" font-family="Times,serif" font-size="14.00">BackendsModule</text>
</g>
<!-- BackendsModule&#45;&gt;CoreModule -->
<g id="edge3" class="edge">
<title>BackendsModule&#45;&gt;CoreModule</title>
<path fill="none" stroke="black" d="M680,-122.01C680,-138.05 680,-159 680,-159 680,-159 597.41,-159 597.41,-159"/>
<polygon fill="black" stroke="black" points="597.41,-155.5 587.41,-159 597.41,-162.5 597.41,-155.5"/>
</g>
<!-- FilestorageModule -->
<g id="node4" class="node">
<title>FilestorageModule</title>
<polygon fill="#8dd3c7" stroke="black" points="604.75,-122 601.75,-126 580.75,-126 577.75,-122 483.25,-122 483.25,-86 604.75,-86 604.75,-122"/>
<text text-anchor="middle" x="544" y="-99.8" font-family="Times,serif" font-size="14.00">FilestorageModule</text>
</g>
<!-- FilestorageModule&#45;&gt;CoreModule -->
<g id="edge4" class="edge">
<title>FilestorageModule&#45;&gt;CoreModule</title>
<path fill="none" stroke="black" d="M544,-122.11C544,-122.11 544,-140.99 544,-140.99"/>
<polygon fill="black" stroke="black" points="540.5,-140.99 544,-150.99 547.5,-140.99 540.5,-140.99"/>
</g>
<!-- JobsModule -->
<g id="node5" class="node">
<title>JobsModule</title>
<polygon fill="#8dd3c7" stroke="black" points="465.44,-122 462.44,-126 441.44,-126 438.44,-122 380.56,-122 380.56,-86 465.44,-86 465.44,-122"/>
<text text-anchor="middle" x="423" y="-99.8" font-family="Times,serif" font-size="14.00">JobsModule</text>
</g>
<!-- JobsModule&#45;&gt;CoreModule -->
<g id="edge5" class="edge">
<title>JobsModule&#45;&gt;CoreModule</title>
<path fill="none" stroke="black" d="M423,-122.01C423,-138.05 423,-159 423,-159 423,-159 490.66,-159 490.66,-159"/>
<polygon fill="black" stroke="black" points="490.66,-162.5 500.66,-159 490.66,-155.5 490.66,-162.5"/>
</g>
<!-- KeyringsModule -->
<g id="node6" class="node">
<title>KeyringsModule</title>
<polygon fill="#8dd3c7" stroke="black" points="362.37,-122 359.37,-126 338.37,-126 335.37,-122 251.63,-122 251.63,-86 362.37,-86 362.37,-122"/>
<text text-anchor="middle" x="307" y="-99.8" font-family="Times,serif" font-size="14.00">KeyringsModule</text>
</g>
<!-- KeyringsModule&#45;&gt;CoreModule -->
<g id="edge6" class="edge">
<title>KeyringsModule&#45;&gt;CoreModule</title>
<path fill="none" stroke="black" d="M307,-122.27C307,-140.56 307,-166 307,-166 307,-166 490.53,-166 490.53,-166"/>
<polygon fill="black" stroke="black" points="490.53,-169.5 500.53,-166 490.53,-162.5 490.53,-169.5"/>
</g>
<!-- LoggerModule -->
<g id="node7" class="node">
<title>LoggerModule</title>
<polygon fill="#8dd3c7" stroke="black" points="233.98,-122 230.98,-126 209.98,-126 206.98,-122 134.02,-122 134.02,-86 233.98,-86 233.98,-122"/>
<text text-anchor="middle" x="184" y="-99.8" font-family="Times,serif" font-size="14.00">LoggerModule</text>
</g>
<!-- LoggerModule&#45;&gt;CoreModule -->
<g id="edge7" class="edge">
<title>LoggerModule&#45;&gt;CoreModule</title>
<path fill="none" stroke="black" d="M184,-122.13C184,-142.57 184,-173 184,-173 184,-173 490.58,-173 490.58,-173"/>
<polygon fill="black" stroke="black" points="490.58,-176.5 500.58,-173 490.58,-169.5 490.58,-176.5"/>
</g>
<!-- TasksModule -->
<g id="node8" class="node">
<title>TasksModule</title>
<polygon fill="#8dd3c7" stroke="black" points="116.21,-122 113.21,-126 92.21,-126 89.21,-122 23.79,-122 23.79,-86 116.21,-86 116.21,-122"/>
<text text-anchor="middle" x="70" y="-99.8" font-family="Times,serif" font-size="14.00">TasksModule</text>
</g>
<!-- TasksModule&#45;&gt;CoreModule -->
<g id="edge8" class="edge">
<title>TasksModule&#45;&gt;CoreModule</title>
<path fill="none" stroke="black" d="M70,-122.01C70,-144.49 70,-180 70,-180 70,-180 490.68,-180 490.68,-180"/>
<polygon fill="black" stroke="black" points="490.68,-183.5 500.68,-180 490.68,-176.5 490.68,-183.5"/>
</g>
<!-- CoreService -->
<g id="node10" class="node">
<title>CoreService</title>
<ellipse fill="#fdb462" stroke="black" cx="1043" cy="-104" rx="58.53" ry="18"/>
<text text-anchor="middle" x="1043" y="-99.8" font-family="Times,serif" font-size="14.00">CoreService</text>
</g>
<!-- CoreService&#45;&gt;CoreModule -->
<g id="edge9" class="edge">
<title>CoreService&#45;&gt;CoreModule</title>
<path fill="none" stroke="black" d="M1043,-122.01C1043,-144.49 1043,-180 1043,-180 1043,-180 597.41,-180 597.41,-180"/>
<polygon fill="black" stroke="black" points="597.41,-176.5 587.41,-180 597.41,-183.5 597.41,-176.5"/>
</g>
</g>
</svg>
