<?xml version="1.0" encoding="UTF-8" standalone="no"?>
<!DOCTYPE svg PUBLIC "-//W3C//DTD SVG 1.1//EN"
 "http://www.w3.org/Graphics/SVG/1.1/DTD/svg11.dtd">
<!-- Generated by graphviz version 2.47.0 (20210316.0004)
 -->
<!-- Title: dependencies Pages: 1 -->
<svg width="781pt" height="211pt"
 viewBox="0.00 0.00 781.00 211.00" xmlns="http://www.w3.org/2000/svg" xmlns:xlink="http://www.w3.org/1999/xlink">
<g id="graph0" class="graph" transform="scale(1 1) rotate(0) translate(4 207)">
<title>dependencies</title>
<polygon fill="white" stroke="transparent" points="-4,4 -4,-207 777,-207 777,4 -4,4"/>
<text text-anchor="start" x="365.51" y="-42.4" font-family="Times-12" font-weight="bold" font-size="14.00">Legend</text>
<polygon fill="#ffffb3" stroke="transparent" points="152.5,-10 152.5,-30 172.5,-30 172.5,-10 152.5,-10"/>
<text text-anchor="start" x="176.13" y="-15.4" font-family="Times-12" font-size="14.00"> &#160;Declarations</text>
<polygon fill="#8dd3c7" stroke="transparent" points="265.5,-10 265.5,-30 285.5,-30 285.5,-10 265.5,-10"/>
<text text-anchor="start" x="289.23" y="-15.4" font-family="Times-12" font-size="14.00"> &#160;Module</text>
<polygon fill="#80b1d3" stroke="transparent" points="351.5,-10 351.5,-30 371.5,-30 371.5,-10 351.5,-10"/>
<text text-anchor="start" x="375.28" y="-15.4" font-family="Times-12" font-size="14.00"> &#160;Bootstrap</text>
<polygon fill="#fdb462" stroke="transparent" points="448.5,-10 448.5,-30 468.5,-30 468.5,-10 448.5,-10"/>
<text text-anchor="start" x="472.17" y="-15.4" font-family="Times-12" font-size="14.00"> &#160;Providers</text>
<polygon fill="#fb8072" stroke="transparent" points="544.5,-10 544.5,-30 564.5,-30 564.5,-10 544.5,-10"/>
<text text-anchor="start" x="568.23" y="-15.4" font-family="Times-12" font-size="14.00"> &#160;Exports</text>
<g id="clust1" class="cluster">
<title>cluster_CoreModule</title>
<polygon fill="none" stroke="black" stroke-dasharray="1,5" points="8,-70 8,-195 765,-195 765,-70 8,-70"/>
</g>
<g id="clust6" class="cluster">
<title>cluster_CoreModule_providers</title>
<polygon fill="none" stroke="black" points="623,-78 623,-130 757,-130 757,-78 623,-78"/>
</g>
<g id="clust3" class="cluster">
<title>cluster_CoreModule_imports</title>
<polygon fill="none" stroke="black" points="16,-78 16,-130 615,-130 615,-78 16,-78"/>
</g>
<!-- AgentsModule -->
<g id="node1" class="node">
<title>AgentsModule</title>
<polygon fill="#8dd3c7" stroke="black" points="606.71,-122 603.71,-126 582.71,-126 579.71,-122 507.29,-122 507.29,-86 606.71,-86 606.71,-122"/>
<text text-anchor="middle" x="557" y="-99.8" font-family="Times,serif" font-size="14.00">AgentsModule</text>
</g>
<!-- CoreModule -->
<g id="node6" class="node">
<title>CoreModule</title>
<polygon fill="#8dd3c7" stroke="black" points="429.26,-187 426.26,-191 405.26,-191 402.26,-187 342.74,-187 342.74,-151 429.26,-151 429.26,-187"/>
<text text-anchor="middle" x="386" y="-164.8" font-family="Times,serif" font-size="14.00">CoreModule</text>
</g>
<!-- AgentsModule&#45;&gt;CoreModule -->
<g id="edge1" class="edge">
<title>AgentsModule&#45;&gt;CoreModule</title>
<path fill="none" stroke="black" d="M557,-122.02C557,-139.37 557,-163 557,-163 557,-163 439.59,-163 439.59,-163"/>
<polygon fill="black" stroke="black" points="439.59,-159.5 429.59,-163 439.59,-166.5 439.59,-159.5"/>
</g>
<!-- AuthModule -->
<g id="node2" class="node">
<title>AuthModule</title>
<polygon fill="#8dd3c7" stroke="black" points="489.55,-122 486.55,-126 465.55,-126 462.55,-122 402.45,-122 402.45,-86 489.55,-86 489.55,-122"/>
<text text-anchor="middle" x="446" y="-99.8" font-family="Times,serif" font-size="14.00">AuthModule</text>
</g>
<!-- AuthModule&#45;&gt;CoreModule -->
<g id="edge2" class="edge">
<title>AuthModule&#45;&gt;CoreModule</title>
<path fill="none" stroke="black" d="M415.8,-122.11C415.8,-122.11 415.8,-140.99 415.8,-140.99"/>
<polygon fill="black" stroke="black" points="412.3,-140.99 415.8,-150.99 419.3,-140.99 412.3,-140.99"/>
</g>
<!-- BackendsModule -->
<g id="node3" class="node">
<title>BackendsModule</title>
<polygon fill="#8dd3c7" stroke="black" points="383.97,-122 380.97,-126 359.97,-126 356.97,-122 270.03,-122 270.03,-86 383.97,-86 383.97,-122"/>
<text text-anchor="middle" x="327" y="-99.8" font-family="Times,serif" font-size="14.00">BackendsModule</text>
</g>
<!-- BackendsModule&#45;&gt;CoreModule -->
<g id="edge3" class="edge">
<title>BackendsModule&#45;&gt;CoreModule</title>
<path fill="none" stroke="black" d="M363.3,-122.11C363.3,-122.11 363.3,-140.99 363.3,-140.99"/>
<polygon fill="black" stroke="black" points="359.8,-140.99 363.3,-150.99 366.8,-140.99 359.8,-140.99"/>
</g>
<!-- KeyringsModule -->
<g id="node4" class="node">
<title>KeyringsModule</title>
<polygon fill="#8dd3c7" stroke="black" points="252.37,-122 249.37,-126 228.37,-126 225.37,-122 141.63,-122 141.63,-86 252.37,-86 252.37,-122"/>
<text text-anchor="middle" x="197" y="-99.8" font-family="Times,serif" font-size="14.00">KeyringsModule</text>
</g>
<!-- KeyringsModule&#45;&gt;CoreModule -->
<g id="edge4" class="edge">
<title>KeyringsModule&#45;&gt;CoreModule</title>
<path fill="none" stroke="black" d="M197,-122.02C197,-139.37 197,-163 197,-163 197,-163 332.64,-163 332.64,-163"/>
<polygon fill="black" stroke="black" points="332.64,-166.5 342.64,-163 332.64,-159.5 332.64,-166.5"/>
</g>
<!-- LoggerModule -->
<g id="node5" class="node">
<title>LoggerModule</title>
<polygon fill="#8dd3c7" stroke="black" points="123.98,-122 120.98,-126 99.98,-126 96.98,-122 24.02,-122 24.02,-86 123.98,-86 123.98,-122"/>
<text text-anchor="middle" x="74" y="-99.8" font-family="Times,serif" font-size="14.00">LoggerModule</text>
</g>
<!-- LoggerModule&#45;&gt;CoreModule -->
<g id="edge5" class="edge">
<title>LoggerModule&#45;&gt;CoreModule</title>
<path fill="none" stroke="black" d="M74,-122.28C74,-143.32 74,-175 74,-175 74,-175 332.62,-175 332.62,-175"/>
<polygon fill="black" stroke="black" points="332.62,-178.5 342.62,-175 332.62,-171.5 332.62,-178.5"/>
</g>
<!-- CoreService -->
<g id="node7" class="node">
<title>CoreService</title>
<ellipse fill="#fdb462" stroke="black" cx="690" cy="-104" rx="58.53" ry="18"/>
<text text-anchor="middle" x="690" y="-99.8" font-family="Times,serif" font-size="14.00">CoreService</text>
</g>
<!-- CoreService&#45;&gt;CoreModule -->
<g id="edge6" class="edge">
<title>CoreService&#45;&gt;CoreModule</title>
<path fill="none" stroke="black" d="M690,-122.28C690,-143.32 690,-175 690,-175 690,-175 439.56,-175 439.56,-175"/>
<polygon fill="black" stroke="black" points="439.56,-171.5 429.56,-175 439.56,-178.5 439.56,-171.5"/>
</g>
</g>
</svg>
