<?xml version="1.0" encoding="UTF-8" standalone="no"?>
<!DOCTYPE svg PUBLIC "-//W3C//DTD SVG 1.1//EN"
 "http://www.w3.org/Graphics/SVG/1.1/DTD/svg11.dtd">
<!-- Generated by graphviz version 2.47.0 (20210316.0004)
 -->
<!-- Title: dependencies Pages: 1 -->
<svg width="504pt" height="284pt"
 viewBox="0.00 0.00 504.00 284.00" xmlns="http://www.w3.org/2000/svg" xmlns:xlink="http://www.w3.org/1999/xlink">
<g id="graph0" class="graph" transform="scale(1 1) rotate(0) translate(4 280)">
<title>dependencies</title>
<polygon fill="white" stroke="transparent" points="-4,4 -4,-280 500,-280 500,4 -4,4"/>
<text text-anchor="start" x="227.01" y="-42.4" font-family="Times-12" font-weight="bold" font-size="14.00">Legend</text>
<polygon fill="#ffffb3" stroke="transparent" points="14,-10 14,-30 34,-30 34,-10 14,-10"/>
<text text-anchor="start" x="37.63" y="-15.4" font-family="Times-12" font-size="14.00"> &#160;Declarations</text>
<polygon fill="#8dd3c7" stroke="transparent" points="127,-10 127,-30 147,-30 147,-10 127,-10"/>
<text text-anchor="start" x="150.73" y="-15.4" font-family="Times-12" font-size="14.00"> &#160;Module</text>
<polygon fill="#80b1d3" stroke="transparent" points="213,-10 213,-30 233,-30 233,-10 213,-10"/>
<text text-anchor="start" x="236.78" y="-15.4" font-family="Times-12" font-size="14.00"> &#160;Bootstrap</text>
<polygon fill="#fdb462" stroke="transparent" points="310,-10 310,-30 330,-30 330,-10 310,-10"/>
<text text-anchor="start" x="333.67" y="-15.4" font-family="Times-12" font-size="14.00"> &#160;Providers</text>
<polygon fill="#fb8072" stroke="transparent" points="406,-10 406,-30 426,-30 426,-10 406,-10"/>
<text text-anchor="start" x="429.73" y="-15.4" font-family="Times-12" font-size="14.00"> &#160;Exports</text>
<g id="clust1" class="cluster">
<title>cluster_PasswdadmModule</title>
<polygon fill="none" stroke="black" stroke-dasharray="1,5" points="77,-70 77,-268 419,-268 419,-70 77,-70"/>
</g>
<g id="clust6" class="cluster">
<title>cluster_PasswdadmModule_providers</title>
<polygon fill="none" stroke="black" points="223,-78 223,-130 411,-130 411,-78 223,-78"/>
</g>
<g id="clust3" class="cluster">
<title>cluster_PasswdadmModule_imports</title>
<polygon fill="none" stroke="black" points="85,-78 85,-130 215,-130 215,-78 85,-78"/>
</g>
<g id="clust4" class="cluster">
<title>cluster_PasswdadmModule_exports</title>
<polygon fill="none" stroke="black" points="165,-208 165,-260 309,-260 309,-208 165,-208"/>
</g>
<!-- BackendsModule -->
<g id="node1" class="node">
<title>BackendsModule</title>
<polygon fill="#8dd3c7" stroke="black" points="206.97,-122 203.97,-126 182.97,-126 179.97,-122 93.03,-122 93.03,-86 206.97,-86 206.97,-122"/>
<text text-anchor="middle" x="150" y="-99.8" font-family="Times,serif" font-size="14.00">BackendsModule</text>
</g>
<!-- PasswdadmModule -->
<g id="node2" class="node">
<title>PasswdadmModule</title>
<polygon fill="#8dd3c7" stroke="black" points="299.65,-187 296.65,-191 275.65,-191 272.65,-187 174.35,-187 174.35,-151 299.65,-151 299.65,-187"/>
<text text-anchor="middle" x="237" y="-164.8" font-family="Times,serif" font-size="14.00">PasswdadmModule</text>
</g>
<!-- BackendsModule&#45;&gt;PasswdadmModule -->
<g id="edge1" class="edge">
<title>BackendsModule&#45;&gt;PasswdadmModule</title>
<path fill="none" stroke="black" d="M190.58,-122.11C190.58,-122.11 190.58,-140.99 190.58,-140.99"/>
<polygon fill="black" stroke="black" points="187.08,-140.99 190.58,-150.99 194.08,-140.99 187.08,-140.99"/>
</g>
<!-- PasswdadmService  -->
<g id="node3" class="node">
<title>PasswdadmService </title>
<polygon fill="#fb8072" stroke="black" points="300.58,-252 173.42,-252 173.42,-216 300.58,-216 300.58,-252"/>
<text text-anchor="middle" x="237" y="-229.8" font-family="Times,serif" font-size="14.00">PasswdadmService </text>
</g>
<!-- PasswdadmModule&#45;&gt;PasswdadmService  -->
<g id="edge2" class="edge">
<title>PasswdadmModule&#45;&gt;PasswdadmService </title>
<path fill="none" stroke="black" stroke-dasharray="5,2" d="M237,-187.11C237,-187.11 237,-205.99 237,-205.99"/>
<polygon fill="black" stroke="black" points="233.5,-205.99 237,-215.99 240.5,-205.99 233.5,-205.99"/>
</g>
<!-- PasswdadmService -->
<g id="node4" class="node">
<title>PasswdadmService</title>
<ellipse fill="#fdb462" stroke="black" cx="317" cy="-104" rx="85.67" ry="18"/>
<text text-anchor="middle" x="317" y="-99.8" font-family="Times,serif" font-size="14.00">PasswdadmService</text>
</g>
<!-- PasswdadmService&#45;&gt;PasswdadmModule -->
<g id="edge3" class="edge">
<title>PasswdadmService&#45;&gt;PasswdadmModule</title>
<path fill="none" stroke="black" d="M265.62,-118.43C265.62,-118.43 265.62,-140.89 265.62,-140.89"/>
<polygon fill="black" stroke="black" points="262.12,-140.89 265.62,-150.89 269.12,-140.89 262.12,-140.89"/>
</g>
</g>
</svg>
