<?xml version="1.0" encoding="UTF-8" standalone="no"?>
<!DOCTYPE svg PUBLIC "-//W3C//DTD SVG 1.1//EN"
 "http://www.w3.org/Graphics/SVG/1.1/DTD/svg11.dtd">
<!-- Generated by graphviz version 2.47.0 (20210316.0004)
 -->
<!-- Title: dependencies Pages: 1 -->
<svg width="504pt" height="284pt"
 viewBox="0.00 0.00 504.00 284.00" xmlns="http://www.w3.org/2000/svg" xmlns:xlink="http://www.w3.org/1999/xlink">
<g id="graph0" class="graph" transform="scale(1 1) rotate(0) translate(4 280)">
<title>dependencies</title>
<polygon fill="white" stroke="transparent" points="-4,4 -4,-280 500,-280 500,4 -4,4"/>
<text text-anchor="start" x="227.01" y="-42.4" font-family="Times-12" font-weight="bold" font-size="14.00">Legend</text>
<polygon fill="#ffffb3" stroke="transparent" points="14,-10 14,-30 34,-30 34,-10 14,-10"/>
<text text-anchor="start" x="37.63" y="-15.4" font-family="Times-12" font-size="14.00"> &#160;Declarations</text>
<polygon fill="#8dd3c7" stroke="transparent" points="127,-10 127,-30 147,-30 147,-10 127,-10"/>
<text text-anchor="start" x="150.73" y="-15.4" font-family="Times-12" font-size="14.00"> &#160;Module</text>
<polygon fill="#80b1d3" stroke="transparent" points="213,-10 213,-30 233,-30 233,-10 213,-10"/>
<text text-anchor="start" x="236.78" y="-15.4" font-family="Times-12" font-size="14.00"> &#160;Bootstrap</text>
<polygon fill="#fdb462" stroke="transparent" points="310,-10 310,-30 330,-30 330,-10 310,-10"/>
<text text-anchor="start" x="333.67" y="-15.4" font-family="Times-12" font-size="14.00"> &#160;Providers</text>
<polygon fill="#fb8072" stroke="transparent" points="406,-10 406,-30 426,-30 426,-10 406,-10"/>
<text text-anchor="start" x="429.73" y="-15.4" font-family="Times-12" font-size="14.00"> &#160;Exports</text>
<g id="clust1" class="cluster">
<title>cluster_PasswdadmModule</title>
<polygon fill="none" stroke="black" stroke-dasharray="1,5" points="77,-70 77,-268 419,-268 419,-70 77,-70"/>
</g>
<g id="clust3" class="cluster">
<title>cluster_PasswdadmModule_imports</title>
<polygon fill="none" stroke="black" points="281,-78 281,-130 411,-130 411,-78 281,-78"/>
</g>
<g id="clust4" class="cluster">
<title>cluster_PasswdadmModule_exports</title>
<polygon fill="none" stroke="black" points="187,-208 187,-260 331,-260 331,-208 187,-208"/>
</g>
<g id="clust6" class="cluster">
<title>cluster_PasswdadmModule_providers</title>
<polygon fill="none" stroke="black" points="85,-78 85,-130 273,-130 273,-78 85,-78"/>
</g>
<!-- BackendsModule -->
<g id="node1" class="node">
<title>BackendsModule</title>
<polygon fill="#8dd3c7" stroke="black" points="402.97,-122 399.97,-126 378.97,-126 375.97,-122 289.03,-122 289.03,-86 402.97,-86 402.97,-122"/>
<text text-anchor="middle" x="346" y="-99.8" font-family="Times,serif" font-size="14.00">BackendsModule</text>
</g>
<!-- PasswdadmModule -->
<g id="node2" class="node">
<title>PasswdadmModule</title>
<polygon fill="#8dd3c7" stroke="black" points="321.65,-187 318.65,-191 297.65,-191 294.65,-187 196.35,-187 196.35,-151 321.65,-151 321.65,-187"/>
<text text-anchor="middle" x="259" y="-164.8" font-family="Times,serif" font-size="14.00">PasswdadmModule</text>
</g>
<!-- BackendsModule&#45;&gt;PasswdadmModule -->
<g id="edge1" class="edge">
<title>BackendsModule&#45;&gt;PasswdadmModule</title>
<path fill="none" stroke="black" d="M305.42,-122.11C305.42,-122.11 305.42,-140.99 305.42,-140.99"/>
<polygon fill="black" stroke="black" points="301.92,-140.99 305.42,-150.99 308.92,-140.99 301.92,-140.99"/>
</g>
<!-- PasswdadmService  -->
<g id="node3" class="node">
<title>PasswdadmService </title>
<polygon fill="#fb8072" stroke="black" points="322.58,-252 195.42,-252 195.42,-216 322.58,-216 322.58,-252"/>
<text text-anchor="middle" x="259" y="-229.8" font-family="Times,serif" font-size="14.00">PasswdadmService </text>
</g>
<!-- PasswdadmModule&#45;&gt;PasswdadmService  -->
<g id="edge2" class="edge">
<title>PasswdadmModule&#45;&gt;PasswdadmService </title>
<path fill="none" stroke="black" stroke-dasharray="5,2" d="M259,-187.11C259,-187.11 259,-205.99 259,-205.99"/>
<polygon fill="black" stroke="black" points="255.5,-205.99 259,-215.99 262.5,-205.99 255.5,-205.99"/>
</g>
<!-- PasswdadmService -->
<g id="node4" class="node">
<title>PasswdadmService</title>
<ellipse fill="#fdb462" stroke="black" cx="179" cy="-104" rx="85.67" ry="18"/>
<text text-anchor="middle" x="179" y="-99.8" font-family="Times,serif" font-size="14.00">PasswdadmService</text>
</g>
<!-- PasswdadmService&#45;&gt;PasswdadmModule -->
<g id="edge3" class="edge">
<title>PasswdadmService&#45;&gt;PasswdadmModule</title>
<path fill="none" stroke="black" d="M230.38,-118.43C230.38,-118.43 230.38,-140.89 230.38,-140.89"/>
<polygon fill="black" stroke="black" points="226.88,-140.89 230.38,-150.89 233.88,-140.89 226.88,-140.89"/>
</g>
</g>
</svg>
